<?xml version="1.0" encoding="UTF-8"?><svg id="slide_6" xmlns="http://www.w3.org/2000/svg" viewBox="0 0 800 426"><defs><style>.cls-1{fill:#b3b3b3;}.cls-1,.cls-2,.cls-3{stroke:#404041;stroke-miterlimit:10;}.cls-2{fill:#e2e4e6;}.cls-4{fill:#f6a6b0;}.cls-3{fill:gray;}</style></defs><g><rect class="cls-1" x="118.6898" y="54.1771" width="196.0031" height="347.46" rx="24.3102" ry="24.3102"/><rect class="cls-2" x="146.9024" y="82.3897" width="139.578" height="139.578" rx="27.2539" ry="27.2539"/><rect class="cls-2" x="177.1756" y="354.1213" width="78.1224" height="33.6352" rx="7.6714" ry="7.6714"/><g><rect class="cls-2" x="122.5195" y="341.2787" width="11.019" height="11.3577" rx="2.85" ry="2.85"/><rect class="cls-2" x="122.5195" y="311.5812" width="11.019" height="11.3577" rx="2.85" ry="2.85"/><rect class="cls-2" x="122.5195" y="281.8838" width="11.019" height="11.3577" rx="2.85" ry="2.85"/><rect class="cls-2" x="122.5195" y="252.1863" width="11.019" height="11.3577" rx="2.85" ry="2.85"/><rect class="cls-2" x="122.5195" y="222.4889" width="11.019" height="11.3577" rx="2.85" ry="2.85"/><rect class="cls-2" x="122.5195" y="192.7915" width="11.019" height="11.3577" rx="2.85" ry="2.85"/><rect class="cls-2" x="122.5195" y="163.094" width="11.019" height="11.3577" rx="2.85" ry="2.85"/><rect class="cls-2" x="122.5195" y="133.3966" width="11.019" height="11.3577" rx="2.85" ry="2.85"/><rect class="cls-2" x="122.5195" y="103.6991" width="11.019" height="11.3577" rx="2.85" ry="2.85"/></g><g><rect class="cls-2" x="300.7042" y="341.2787" width="11.019" height="11.3577" rx="2.85" ry="2.85"/><rect class="cls-2" x="300.7042" y="311.5812" width="11.019" height="11.3577" rx="2.85" ry="2.85"/><rect class="cls-2" x="300.7042" y="281.8838" width="11.019" height="11.3577" rx="2.85" ry="2.85"/><rect class="cls-2" x="300.7042" y="252.1863" width="11.019" height="11.3577" rx="2.85" ry="2.85"/><rect class="cls-2" x="300.7042" y="222.4889" width="11.019" height="11.3577" rx="2.85" ry="2.85"/><rect class="cls-2" x="300.7042" y="192.7915" width="11.019" height="11.3577" rx="2.85" ry="2.85"/><rect class="cls-2" x="300.7042" y="163.094" width="11.019" height="11.3577" rx="2.85" ry="2.85"/><rect class="cls-2" x="300.7042" y="133.3966" width="11.019" height="11.3577" rx="2.85" ry="2.85"/><rect class="cls-2" x="300.7042" y="103.6991" width="11.019" height="11.3577" rx="2.85" ry="2.85"/></g><g><g><rect class="cls-2" x="157.2965" y="295.4515" width="37.0806" height="17.901" rx="3.9187" ry="3.9187" transform="translate(351.6735 608.8039) rotate(-180)"/><rect class="cls-3" x="165.8139" y="294.0527" width="41.8283" height="21.7369" rx="5.5697" ry="5.5697" transform="translate(-118.1931 491.6491) rotate(-90)"/></g><rect class="cls-2" x="190.5411" y="315.9097" width="12.7864" height="4.8574" rx=".6689" ry=".6689" transform="translate(393.8686 636.6768) rotate(-180)"/><rect class="cls-2" x="190.5411" y="303.1233" width="12.7864" height="4.8574" rx=".6689" ry=".6689" transform="translate(393.8686 611.104) rotate(-180)"/><rect class="cls-2" x="190.5411" y="290.3369" width="12.7864" height="4.8574" rx=".6689" ry=".6689" transform="translate(393.8686 585.5312) rotate(-180)"/></g><rect class="cls-3" x="221.5882" y="277.3502" width="56.005" height="55.9607" rx="11.9992" ry="11.9992" transform="translate(-55.7398 554.9213) rotate(-90)"/><rect class="cls-3" x="164.5493" y="223.5782" width="35.4239" height="55.9607" rx="9.6011" ry="9.6011" transform="translate(-69.2974 433.8199) rotate(-90)"/></g><g><g><path class="cls-4" d="M285.9187,39.9388l-3.5886-3.5592c-.6669-.6684-1.7467-.6493-2.4151,.0167-.6674,.6659-.6694,1.7575-.0039,2.4248l4.0897,3.8455c.3202,.3212,.7557,.2447,1.2093,.2447h3.5414c-2.3225,2.9144-3.8475,6.4114-4.4114,9.9084l-5.7503,.0005c-1.1014,0-1.9514,1.1777-1.5653,2.293,.2481,.7168,.9532,1.1745,1.7117,1.1745h5.346c.0294,2.9196,.7677,5.839,2.0565,8.1744h-1.2641c-.4475,0-.8767,.2612-1.1931,.5846l-4.0344,4.1694c-.657,.672-.6556,1.7811,.0029,2.4517,.3295,.3348,.7591,.512,1.1897,.512,.4316,0,.8641-.1664,1.1926-.5037l3.542-3.6223h2.7205c3.3141,4.1906,8.5184,6.9109,13.7974,7.2166V39.9389h-16.1733Z"/><path class="cls-4" d="M328.034,52.8198h-5.8697c-.7226-3.497-2.5845-6.994-4.7653-9.9084h3.9241c.4535,0,.8883,.0814,1.209-.2402l4.0887-3.9696c.6653-.6682,.6633-1.683-.0039-2.3488-.6687-.6663-1.7483-.6721-2.4145-.0039l-3.5882,3.5901h-16.1689v35.3184c5.2788-.3506,10.3898-3.6115,13.7033-7.2033h2.8144l3.5415,3.6273c.329,.3373,.7605,.5071,1.1926,.5071,.4306,0,.8607-.1669,1.1897-.5012,.6585-.6706,.6599-1.7589,.0029-2.4309l-4.0344-4.2091c-.3159-.3239-.7455-.5851-1.1926-.5851h-1.246c1.3042-2.3353,2.0536-5.2549,2.083-8.1744h5.3879c.7587,0,1.464-.4579,1.7121-1.1748,.3861-1.1156-.4639-2.2937-1.5658-2.2937l.0002,.0006Z"/><path class="cls-4" d="M292.4148,37.5856h21.7947c0-4.106-2.0373-7.1932-5.0955-9.1236l2.1994-2.1545c.658-.6575,.658-1.702,0-2.3605-.658-.6575-1.7238-.6464-2.3827,.0116l-3.1816,3.1873c-.7847-.1795-1.599-.2806-2.4385-.2806s-1.6537,.105-2.4385,.2845l-3.182-3.1811c-.658-.6575-1.7238-.6575-2.3827,0-.6585,.6575-.658,1.7253,0,2.3832l2.1994,2.1099c-3.0557,1.9309-5.0925,5.0176-5.0925,9.1236l.0004,.0002Z"/></g><path class="cls-4" d="M342.1011,57.6479c0-2.7168,.3066-4.8613,.9209-6.4341s1.6094-2.9355,2.9868-4.0894c1.377-1.1538,2.4238-2.21,3.1401-3.1685,.7163-.958,1.0747-2.0142,1.0747-3.168,0-2.8101-1.2095-4.2153-3.6284-4.2153-1.1167,0-2.0195,.4097-2.708,1.2285s-1.0513,1.9258-1.0884,3.3218h-9.4351c.0371-3.7222,1.2095-6.6201,3.5171-8.6953,2.3076-2.0747,5.5454-3.1123,9.7144-3.1123,4.1494,0,7.3643,.9585,9.644,2.875,2.2793,1.917,3.4194,4.6431,3.4194,8.1787,0,1.5449-.3071,2.9497-.9209,4.2148-.6143,1.2661-1.6011,2.5591-2.959,3.8804l-3.2104,2.9868c-.9116,.8745-1.5444,1.7725-1.8979,2.6934-.3535,.9214-.5488,2.0894-.5859,3.5034h-7.9834Zm-1.1445,8.4858c0-1.377,.4976-2.5078,1.4932-3.3916s2.2378-1.3262,3.7266-1.3262,2.731,.4424,3.7266,1.3262c.9951,.8838,1.4932,2.0146,1.4932,3.3916s-.498,2.5078-1.4932,3.3916c-.9956,.8838-2.2378,1.3257-3.7266,1.3257s-2.731-.4419-3.7266-1.3257-1.4932-2.0142-1.4932-3.3916Z"/></g></svg>