<?xml version="1.0" encoding="UTF-8" standalone="no"?>
<svg
   id="slide_6"
   viewBox="0 0 800 426"
   version="1.1"
   sodipodi:docname="how-to-debug1.svg"
   inkscape:version="1.1.2 (0a00cf5339, 2022-02-04)"
   xmlns:inkscape="http://www.inkscape.org/namespaces/inkscape"
   xmlns:sodipodi="http://sodipodi.sourceforge.net/DTD/sodipodi-0.dtd"
   xmlns="http://www.w3.org/2000/svg"
   xmlns:svg="http://www.w3.org/2000/svg">
  <sodipodi:namedview
     id="namedview85"
     pagecolor="#ffffff"
     bordercolor="#666666"
     borderopacity="1.0"
     inkscape:pageshadow="2"
     inkscape:pageopacity="0.0"
     inkscape:pagecheckerboard="0"
     showgrid="false"
     inkscape:zoom="1.64125"
     inkscape:cx="399.69535"
     inkscape:cy="213.25209"
     inkscape:window-width="3840"
     inkscape:window-height="2130"
     inkscape:window-x="0"
     inkscape:window-y="0"
     inkscape:window-maximized="1"
     inkscape:current-layer="slide_6" />
  <defs
     id="defs4">
    <style
       id="style2">.cls-1{fill:#b3b3b3;}.cls-1,.cls-2,.cls-3{stroke:#404041;stroke-miterlimit:10;}.cls-2{fill:#e2e4e6;}.cls-4{fill:#f6a6b0;}.cls-3{fill:gray;}</style>
  </defs>
  <g
     id="g70">
    <rect
       class="cls-1"
       x="118.6898"
       y="54.1771"
       width="196.0031"
       height="347.46"
       rx="24.3102"
       ry="24.3102"
       id="rect6" />
    <rect
       class="cls-2"
       x="146.9024"
       y="82.3897"
       width="139.578"
       height="139.578"
       rx="27.2539"
       ry="27.2539"
       id="rect8" />
    <rect
       class="cls-2"
       x="177.1756"
       y="354.1213"
       width="78.1224"
       height="33.6352"
       rx="7.6714"
       ry="7.6714"
       id="rect10" />
    <g
       id="g30">
      <rect
         class="cls-2"
         x="122.5195"
         y="341.2787"
         width="11.019"
         height="11.3577"
         rx="2.85"
         ry="2.85"
         id="rect12" />
      <rect
         class="cls-2"
         x="122.5195"
         y="311.5812"
         width="11.019"
         height="11.3577"
         rx="2.85"
         ry="2.85"
         id="rect14" />
      <rect
         class="cls-2"
         x="122.5195"
         y="281.8838"
         width="11.019"
         height="11.3577"
         rx="2.85"
         ry="2.85"
         id="rect16" />
      <rect
         class="cls-2"
         x="122.5195"
         y="252.1863"
         width="11.019"
         height="11.3577"
         rx="2.85"
         ry="2.85"
         id="rect18" />
      <rect
         class="cls-2"
         x="122.5195"
         y="222.4889"
         width="11.019"
         height="11.3577"
         rx="2.85"
         ry="2.85"
         id="rect20" />
      <rect
         class="cls-2"
         x="122.5195"
         y="192.7915"
         width="11.019"
         height="11.3577"
         rx="2.85"
         ry="2.85"
         id="rect22" />
      <rect
         class="cls-2"
         x="122.5195"
         y="163.094"
         width="11.019"
         height="11.3577"
         rx="2.85"
         ry="2.85"
         id="rect24" />
      <rect
         class="cls-2"
         x="122.5195"
         y="133.3966"
         width="11.019"
         height="11.3577"
         rx="2.85"
         ry="2.85"
         id="rect26" />
      <rect
         class="cls-2"
         x="122.5195"
         y="103.6991"
         width="11.019"
         height="11.3577"
         rx="2.85"
         ry="2.85"
         id="rect28" />
    </g>
    <g
       id="g50">
      <rect
         class="cls-2"
         x="300.7042"
         y="341.2787"
         width="11.019"
         height="11.3577"
         rx="2.85"
         ry="2.85"
         id="rect32" />
      <rect
         class="cls-2"
         x="300.7042"
         y="311.5812"
         width="11.019"
         height="11.3577"
         rx="2.85"
         ry="2.85"
         id="rect34" />
      <rect
         class="cls-2"
         x="300.7042"
         y="281.8838"
         width="11.019"
         height="11.3577"
         rx="2.85"
         ry="2.85"
         id="rect36" />
      <rect
         class="cls-2"
         x="300.7042"
         y="252.1863"
         width="11.019"
         height="11.3577"
         rx="2.85"
         ry="2.85"
         id="rect38" />
      <rect
         class="cls-2"
         x="300.7042"
         y="222.4889"
         width="11.019"
         height="11.3577"
         rx="2.85"
         ry="2.85"
         id="rect40" />
      <rect
         class="cls-2"
         x="300.7042"
         y="192.7915"
         width="11.019"
         height="11.3577"
         rx="2.85"
         ry="2.85"
         id="rect42" />
      <rect
         class="cls-2"
         x="300.7042"
         y="163.094"
         width="11.019"
         height="11.3577"
         rx="2.85"
         ry="2.85"
         id="rect44" />
      <rect
         class="cls-2"
         x="300.7042"
         y="133.3966"
         width="11.019"
         height="11.3577"
         rx="2.85"
         ry="2.85"
         id="rect46" />
      <rect
         class="cls-2"
         x="300.7042"
         y="103.6991"
         width="11.019"
         height="11.3577"
         rx="2.85"
         ry="2.85"
         id="rect48" />
    </g>
    <g
       id="g64">
      <g
         id="g56">
        <rect
           class="cls-2"
           x="157.2965"
           y="295.4515"
           width="37.0806"
           height="17.901"
           rx="3.9187"
           ry="3.9187"
           transform="translate(351.6735 608.8039) rotate(-180)"
           id="rect52" />
        <rect
           class="cls-3"
           x="165.8139"
           y="294.0527"
           width="41.8283"
           height="21.7369"
           rx="5.5697"
           ry="5.5697"
           transform="translate(-118.1931 491.6491) rotate(-90)"
           id="rect54" />
      </g>
      <rect
         class="cls-2"
         x="190.5411"
         y="315.9097"
         width="12.7864"
         height="4.8574"
         rx=".6689"
         ry=".6689"
         transform="translate(393.8686 636.6768) rotate(-180)"
         id="rect58" />
      <rect
         class="cls-2"
         x="190.5411"
         y="303.1233"
         width="12.7864"
         height="4.8574"
         rx=".6689"
         ry=".6689"
         transform="translate(393.8686 611.104) rotate(-180)"
         id="rect60" />
      <rect
         class="cls-2"
         x="190.5411"
         y="290.3369"
         width="12.7864"
         height="4.8574"
         rx=".6689"
         ry=".6689"
         transform="translate(393.8686 585.5312) rotate(-180)"
         id="rect62" />
    </g>
    <rect
       class="cls-3"
       x="221.5882"
       y="277.3502"
       width="56.005"
       height="55.9607"
       rx="11.9992"
       ry="11.9992"
       transform="translate(-55.7398 554.9213) rotate(-90)"
       id="rect66" />
    <rect
       class="cls-3"
       x="164.5493"
       y="223.5782"
       width="35.4239"
       height="55.9607"
       rx="9.6011"
       ry="9.6011"
       transform="translate(-69.2974 433.8199) rotate(-90)"
       id="rect68" />
  </g>
</svg>
