<?xml version="1.0" encoding="UTF-8"?><svg id="b" xmlns="http://www.w3.org/2000/svg" viewBox="0 0 202.67 231.64"><defs><style>.d{fill:none;}.e{fill:#b3b3b3;stroke:#404041;stroke-miterlimit:10;}</style></defs><g id="c"><rect class="e" x=".5" y="29.61" width="201.67" height="201.53" rx="24.3" ry="24.3"/><rect class="d" x=".5" y="35.16" width="201.67" height="190.42" rx="24.3" ry="24.3"/><path d="M28.92,39.79c0-2.58,1.01-3.93,2.59-3.93s2.59,1.36,2.59,3.93-1.01,3.99-2.59,3.99-2.59-1.41-2.59-3.99ZM32.78,39.79c0-2.16-.53-2.84-1.27-2.84s-1.27.69-1.27,2.84.53,2.91,1.27,2.91,1.27-.75,1.27-2.91Z"/><path d="M35.07,39.79c0-2.58,1.01-3.93,2.59-3.93s2.59,1.36,2.59,3.93-1.01,3.99-2.59,3.99-2.59-1.41-2.59-3.99ZM38.93,39.79c0-2.16-.53-2.84-1.27-2.84s-1.27.69-1.27,2.84.53,2.91,1.27,2.91,1.27-.75,1.27-2.91Z"/><path d="M41.23,39.79c0-2.58,1.01-3.93,2.59-3.93s2.59,1.36,2.59,3.93-1.01,3.99-2.59,3.99-2.59-1.41-2.59-3.99ZM45.09,39.79c0-2.16-.53-2.84-1.27-2.84s-1.27.69-1.27,2.84.53,2.91,1.27,2.91,1.27-.75,1.27-2.91Z"/><path d="M47.38,39.79c0-2.58,1.01-3.93,2.59-3.93s2.59,1.36,2.59,3.93-1.01,3.99-2.59,3.99-2.59-1.41-2.59-3.99ZM51.25,39.79c0-2.16-.53-2.84-1.27-2.84s-1.27.69-1.27,2.84.53,2.91,1.27,2.91,1.27-.75,1.27-2.91Z"/><path d="M53.54,39.79c0-2.58,1.01-3.93,2.59-3.93s2.59,1.36,2.59,3.93-1.01,3.99-2.59,3.99-2.59-1.41-2.59-3.99ZM57.4,39.79c0-2.16-.53-2.84-1.27-2.84s-1.27.69-1.27,2.84.53,2.91,1.27,2.91,1.27-.75,1.27-2.91Z"/><path d="M59.7,39.79c0-2.58,1.01-3.93,2.59-3.93s2.59,1.36,2.59,3.93-1.01,3.99-2.59,3.99-2.59-1.41-2.59-3.99ZM63.56,39.79c0-2.16-.53-2.84-1.27-2.84s-1.27.69-1.27,2.84.53,2.91,1.27,2.91,1.27-.75,1.27-2.91Z"/><path d="M65.85,39.79c0-2.58,1.01-3.93,2.59-3.93s2.59,1.36,2.59,3.93-1.01,3.99-2.59,3.99-2.59-1.41-2.59-3.99ZM69.71,39.79c0-2.16-.53-2.84-1.27-2.84s-1.27.69-1.27,2.84.53,2.91,1.27,2.91,1.27-.75,1.27-2.91Z"/><path d="M86.43,39.79c0-2.58,1.01-3.93,2.59-3.93s2.59,1.36,2.59,3.93-1.01,3.99-2.59,3.99-2.59-1.41-2.59-3.99ZM90.29,39.79c0-2.16-.53-2.84-1.27-2.84s-1.27.69-1.27,2.84.53,2.91,1.27,2.91,1.27-.75,1.27-2.91Z"/><path d="M92.63,40.05c0-2.96,1.43-4.19,3-4.19.92,0,1.58.39,2.04.86l-.74.84c-.28-.33-.76-.58-1.22-.58-.99,0-1.8.77-1.8,3.07,0,1.89.6,2.67,1.47,2.67.63,0,1.14-.52,1.14-1.45s-.45-1.36-1.2-1.36c-.45,0-.98.26-1.41.95l-.06-.97c.44-.61,1.15-.98,1.72-.98,1.31,0,2.23.77,2.23,2.36s-1.09,2.5-2.4,2.5c-1.49,0-2.76-1.16-2.76-3.73Z"/><path d="M98.74,39.79c0-2.58,1.01-3.93,2.59-3.93s2.59,1.36,2.59,3.93-1.01,3.99-2.59,3.99-2.59-1.41-2.59-3.99ZM102.6,39.79c0-2.16-.53-2.84-1.27-2.84s-1.27.69-1.27,2.84.53,2.91,1.27,2.91,1.27-.75,1.27-2.91Z"/><path d="M108,38.88c0-.44.04-1.14.06-1.59h-.05c-.19.4-.41.78-.62,1.18l-1.39,2.13h4.25v1.07h-5.62v-.94l3.02-4.73h1.64v7.63h-1.3v-4.76Z"/><path d="M111.05,39.79c0-2.58,1.01-3.93,2.59-3.93s2.59,1.36,2.59,3.93-1.01,3.99-2.59,3.99-2.59-1.41-2.59-3.99ZM114.92,39.79c0-2.16-.53-2.84-1.27-2.84s-1.27.69-1.27,2.84.53,2.91,1.27,2.91,1.27-.75,1.27-2.91Z"/><path d="M117.21,39.79c0-2.58,1.01-3.93,2.59-3.93s2.59,1.36,2.59,3.93-1.01,3.99-2.59,3.99-2.59-1.41-2.59-3.99ZM121.07,39.79c0-2.16-.53-2.84-1.27-2.84s-1.27.69-1.27,2.84.53,2.91,1.27,2.91,1.27-.75,1.27-2.91Z"/><path d="M137.79,39.79c0-2.58,1.01-3.93,2.59-3.93s2.59,1.36,2.59,3.93-1.01,3.99-2.59,3.99-2.59-1.41-2.59-3.99ZM141.65,39.79c0-2.16-.53-2.84-1.27-2.84s-1.27.69-1.27,2.84.53,2.91,1.27,2.91,1.27-.75,1.27-2.91Z"/><path d="M143.99,40.05c0-2.96,1.43-4.19,3-4.19.92,0,1.58.39,2.04.86l-.74.84c-.28-.33-.76-.58-1.22-.58-.99,0-1.8.77-1.8,3.07,0,1.89.6,2.67,1.47,2.67.63,0,1.14-.52,1.14-1.45s-.45-1.36-1.2-1.36c-.45,0-.98.26-1.41.95l-.06-.97c.44-.61,1.15-.98,1.72-.98,1.31,0,2.23.77,2.23,2.36s-1.09,2.5-2.4,2.5c-1.49,0-2.76-1.16-2.76-3.73Z"/><path d="M150.15,40.05c0-2.96,1.43-4.19,3-4.19.92,0,1.58.39,2.04.86l-.74.84c-.28-.33-.76-.58-1.22-.58-.99,0-1.8.77-1.8,3.07,0,1.89.6,2.67,1.47,2.67.63,0,1.14-.52,1.14-1.45s-.45-1.36-1.2-1.36c-.45,0-.98.26-1.41.95l-.06-.97c.44-.61,1.15-.98,1.72-.98,1.31,0,2.23.77,2.23,2.36s-1.09,2.5-2.4,2.5c-1.49,0-2.76-1.16-2.76-3.73Z"/><path d="M156.05,42.72l.64-.88c.46.44,1.01.82,1.78.82.85,0,1.47-.54,1.47-1.46s-.57-1.42-1.41-1.42c-.48,0-.76.13-1.22.43l-.66-.42.23-3.77h4.08v1.17h-2.88l-.16,1.84c.32-.16.62-.25,1.01-.25,1.31,0,2.4.74,2.4,2.38s-1.28,2.63-2.69,2.63c-1.24,0-2.04-.49-2.6-1.06Z"/><path d="M162.46,40.05c0-2.96,1.43-4.19,3-4.19.92,0,1.58.39,2.04.86l-.74.84c-.28-.33-.76-.58-1.22-.58-.99,0-1.8.77-1.8,3.07,0,1.89.6,2.67,1.47,2.67.63,0,1.14-.52,1.14-1.45s-.45-1.36-1.2-1.36c-.45,0-.98.26-1.41.95l-.06-.97c.44-.61,1.15-.98,1.72-.98,1.31,0,2.23.77,2.23,2.36s-1.09,2.5-2.4,2.5c-1.49,0-2.76-1.16-2.76-3.73Z"/><path d="M168.37,42.7l.66-.88c.46.46,1.04.83,1.81.83.83,0,1.41-.43,1.41-1.15,0-.79-.51-1.3-2.24-1.3v-1.01c1.49,0,1.98-.52,1.98-1.22,0-.64-.42-1.02-1.13-1.02-.59,0-1.06.28-1.53.72l-.71-.85c.65-.58,1.38-.96,2.3-.96,1.46,0,2.46.73,2.46,2.02,0,.85-.5,1.43-1.33,1.75v.05c.9.24,1.59.88,1.59,1.9,0,1.39-1.21,2.2-2.68,2.2-1.23,0-2.05-.48-2.59-1.08Z"/><path d="M12.73,54.19c0-2.58,1.01-3.93,2.59-3.93s2.59,1.36,2.59,3.93-1.01,3.99-2.59,3.99-2.59-1.41-2.59-3.99ZM16.59,54.19c0-2.16-.53-2.84-1.27-2.84s-1.27.69-1.27,2.84.53,2.91,1.27,2.91,1.27-.75,1.27-2.91Z"/><path d="M18.88,54.19c0-2.58,1.01-3.93,2.59-3.93s2.59,1.36,2.59,3.93-1.01,3.99-2.59,3.99-2.59-1.41-2.59-3.99ZM22.75,54.19c0-2.16-.53-2.84-1.27-2.84s-1.27.69-1.27,2.84.53,2.91,1.27,2.91,1.27-.75,1.27-2.91Z"/><path d="M25.04,54.19c0-2.58,1.01-3.93,2.59-3.93s2.59,1.36,2.59,3.93-1.01,3.99-2.59,3.99-2.59-1.41-2.59-3.99ZM28.9,54.19c0-2.16-.53-2.84-1.27-2.84s-1.27.69-1.27,2.84.53,2.91,1.27,2.91,1.27-.75,1.27-2.91Z"/><path d="M31.2,54.19c0-2.58,1.01-3.93,2.59-3.93s2.59,1.36,2.59,3.93-1.01,3.99-2.59,3.99-2.59-1.41-2.59-3.99ZM35.06,54.19c0-2.16-.53-2.84-1.27-2.84s-1.27.69-1.27,2.84.53,2.91,1.27,2.91,1.27-.75,1.27-2.91Z"/><path d="M37.35,54.19c0-2.58,1.01-3.93,2.59-3.93s2.59,1.36,2.59,3.93-1.01,3.99-2.59,3.99-2.59-1.41-2.59-3.99ZM41.21,54.19c0-2.16-.53-2.84-1.27-2.84s-1.27.69-1.27,2.84.53,2.91,1.27,2.91,1.27-.75,1.27-2.91Z"/><path d="M43.91,56.91h1.71v-5.01h-1.41v-.87c.76-.14,1.28-.34,1.76-.63h1.03v6.51h1.5v1.13h-4.59v-1.13Z"/><path d="M59.81,54.19c0-2.58,1.01-3.93,2.59-3.93s2.59,1.36,2.59,3.93-1.01,3.99-2.59,3.99-2.59-1.41-2.59-3.99ZM63.67,54.19c0-2.16-.53-2.84-1.27-2.84s-1.27.69-1.27,2.84.53,2.91,1.27,2.91,1.27-.75,1.27-2.91Z"/><path d="M65.97,54.19c0-2.58,1.01-3.93,2.59-3.93s2.59,1.36,2.59,3.93-1.01,3.99-2.59,3.99-2.59-1.41-2.59-3.99ZM69.83,54.19c0-2.16-.53-2.84-1.27-2.84s-1.27.69-1.27,2.84.53,2.91,1.27,2.91,1.27-.75,1.27-2.91Z"/><path d="M72.12,54.19c0-2.58,1.01-3.93,2.59-3.93s2.59,1.36,2.59,3.93-1.01,3.99-2.59,3.99-2.59-1.41-2.59-3.99ZM75.98,54.19c0-2.16-.53-2.84-1.27-2.84s-1.27.69-1.27,2.84.53,2.91,1.27,2.91,1.27-.75,1.27-2.91Z"/><path d="M78.28,54.19c0-2.58,1.01-3.93,2.59-3.93s2.59,1.36,2.59,3.93-1.01,3.99-2.59,3.99-2.59-1.41-2.59-3.99ZM82.14,54.19c0-2.16-.53-2.84-1.27-2.84s-1.27.69-1.27,2.84.53,2.91,1.27,2.91,1.27-.75,1.27-2.91Z"/><path d="M84.43,54.19c0-2.58,1.01-3.93,2.59-3.93s2.59,1.36,2.59,3.93-1.01,3.99-2.59,3.99-2.59-1.41-2.59-3.99ZM88.3,54.19c0-2.16-.53-2.84-1.27-2.84s-1.27.69-1.27,2.84.53,2.91,1.27,2.91,1.27-.75,1.27-2.91Z"/><path d="M90.59,54.19c0-2.58,1.01-3.93,2.59-3.93s2.59,1.36,2.59,3.93-1.01,3.99-2.59,3.99-2.59-1.41-2.59-3.99ZM94.45,54.19c0-2.16-.53-2.84-1.27-2.84s-1.27.69-1.27,2.84.53,2.91,1.27,2.91,1.27-.75,1.27-2.91Z"/><path d="M106.89,54.19c0-2.58,1.01-3.93,2.59-3.93s2.59,1.36,2.59,3.93-1.01,3.99-2.59,3.99-2.59-1.41-2.59-3.99ZM110.76,54.19c0-2.16-.53-2.84-1.27-2.84s-1.27.69-1.27,2.84.53,2.91,1.27,2.91,1.27-.75,1.27-2.91Z"/><path d="M113.05,54.19c0-2.58,1.01-3.93,2.59-3.93s2.59,1.36,2.59,3.93-1.01,3.99-2.59,3.99-2.59-1.41-2.59-3.99ZM116.91,54.19c0-2.16-.53-2.84-1.27-2.84s-1.27.69-1.27,2.84.53,2.91,1.27,2.91,1.27-.75,1.27-2.91Z"/><path d="M119.25,54.45c0-2.96,1.43-4.19,3-4.19.92,0,1.58.39,2.04.86l-.74.84c-.28-.33-.76-.58-1.22-.58-.99,0-1.8.77-1.8,3.07,0,1.89.6,2.67,1.47,2.67.63,0,1.14-.52,1.14-1.45s-.45-1.36-1.2-1.36c-.45,0-.98.26-1.41.95l-.06-.97c.44-.61,1.15-.98,1.72-.98,1.31,0,2.23.77,2.23,2.36s-1.09,2.5-2.4,2.5c-1.49,0-2.76-1.16-2.76-3.73Z"/><path d="M128.46,53.28c0-.44.04-1.14.06-1.59h-.05c-.19.4-.41.78-.62,1.18l-1.39,2.13h4.25v1.07h-5.62v-.94l3.02-4.73h1.64v7.63h-1.3v-4.76Z"/><path d="M131.52,54.19c0-2.58,1.01-3.93,2.59-3.93s2.59,1.36,2.59,3.93-1.01,3.99-2.59,3.99-2.59-1.41-2.59-3.99ZM135.38,54.19c0-2.16-.53-2.84-1.27-2.84s-1.27.69-1.27,2.84.53,2.91,1.27,2.91,1.27-.75,1.27-2.91Z"/><path d="M138.08,56.91h1.71v-5.01h-1.41v-.87c.76-.14,1.28-.34,1.76-.63h1.03v6.51h1.5v1.13h-4.59v-1.13Z"/><path d="M153.98,54.19c0-2.58,1.01-3.93,2.59-3.93s2.59,1.36,2.59,3.93-1.01,3.99-2.59,3.99-2.59-1.41-2.59-3.99ZM157.84,54.19c0-2.16-.53-2.84-1.27-2.84s-1.27.69-1.27,2.84.53,2.91,1.27,2.91,1.27-.75,1.27-2.91Z"/><path d="M160.18,54.45c0-2.96,1.43-4.19,3-4.19.92,0,1.58.39,2.04.86l-.74.84c-.28-.33-.76-.58-1.22-.58-.99,0-1.8.77-1.8,3.07,0,1.89.6,2.67,1.47,2.67.63,0,1.14-.52,1.14-1.45s-.45-1.36-1.2-1.36c-.45,0-.98.26-1.41.95l-.06-.97c.44-.61,1.15-.98,1.72-.98,1.31,0,2.23.77,2.23,2.36s-1.09,2.5-2.4,2.5c-1.49,0-2.76-1.16-2.76-3.73Z"/><path d="M166.29,54.19c0-2.58,1.01-3.93,2.59-3.93s2.59,1.36,2.59,3.93-1.01,3.99-2.59,3.99-2.59-1.41-2.59-3.99ZM170.15,54.19c0-2.16-.53-2.84-1.27-2.84s-1.27.69-1.27,2.84.53,2.91,1.27,2.91,1.27-.75,1.27-2.91Z"/><path d="M172.44,54.19c0-2.58,1.01-3.93,2.59-3.93s2.59,1.36,2.59,3.93-1.01,3.99-2.59,3.99-2.59-1.41-2.59-3.99ZM176.3,54.19c0-2.16-.53-2.84-1.27-2.84s-1.27.69-1.27,2.84.53,2.91,1.27,2.91,1.27-.75,1.27-2.91Z"/><path d="M178.6,54.19c0-2.58,1.01-3.93,2.59-3.93s2.59,1.36,2.59,3.93-1.01,3.99-2.59,3.99-2.59-1.41-2.59-3.99ZM182.46,54.19c0-2.16-.53-2.84-1.27-2.84s-1.27.69-1.27,2.84.53,2.91,1.27,2.91,1.27-.75,1.27-2.91Z"/><path d="M184.56,57.1l.66-.88c.46.46,1.04.83,1.81.83.83,0,1.41-.43,1.41-1.15,0-.79-.51-1.3-2.24-1.3v-1.01c1.49,0,1.98-.52,1.98-1.22,0-.64-.42-1.02-1.13-1.02-.59,0-1.06.28-1.53.72l-.71-.85c.65-.58,1.38-.96,2.3-.96,1.46,0,2.46.73,2.46,2.02,0,.85-.5,1.43-1.33,1.75v.05c.9.24,1.59.88,1.59,1.9,0,1.39-1.21,2.2-2.68,2.2-1.23,0-2.05-.48-2.59-1.08Z"/><path d="M10.98,68.59c0-2.58,1.01-3.93,2.59-3.93s2.59,1.36,2.59,3.93-1.01,3.99-2.59,3.99-2.59-1.41-2.59-3.99ZM14.85,68.59c0-2.16-.53-2.84-1.27-2.84s-1.27.69-1.27,2.84.53,2.91,1.27,2.91,1.27-.75,1.27-2.91Z"/><path d="M20.79,65.98h-3.61v-1.17h5.12v.85c-1.79,2.22-2.1,3.81-2.23,6.78h-1.4c.13-2.71.65-4.42,2.12-6.46Z"/><path d="M26.95,65.98h-3.61v-1.17h5.12v.85c-1.79,2.22-2.1,3.81-2.23,6.78h-1.4c.13-2.71.65-4.42,2.12-6.46Z"/><path d="M32.55,67.68c0-.44.04-1.14.06-1.59h-.05c-.19.4-.41.78-.62,1.18l-1.39,2.13h4.25v1.07h-5.62v-.94l3.02-4.73h1.64v7.63h-1.3v-4.76Z"/><path d="M35.61,68.59c0-2.58,1.01-3.93,2.59-3.93s2.59,1.36,2.59,3.93-1.01,3.99-2.59,3.99-2.59-1.41-2.59-3.99ZM39.47,68.59c0-2.16-.53-2.84-1.27-2.84s-1.27.69-1.27,2.84.53,2.91,1.27,2.91,1.27-.75,1.27-2.91Z"/><path d="M41.74,71.64c2.12-2.06,3.45-3.4,3.45-4.56,0-.8-.44-1.31-1.26-1.31-.59,0-1.08.39-1.49.84l-.77-.76c.7-.75,1.4-1.18,2.44-1.18,1.46,0,2.41.93,2.41,2.34s-1.26,2.75-2.78,4.34c.4-.04.91-.08,1.28-.08h1.87v1.17h-5.15v-.8Z"/><path d="M57.18,68.59c0-2.58,1.01-3.93,2.59-3.93s2.59,1.36,2.59,3.93-1.01,3.99-2.59,3.99-2.59-1.41-2.59-3.99ZM61.04,68.59c0-2.16-.53-2.84-1.27-2.84s-1.27.69-1.27,2.84.53,2.91,1.27,2.91,1.27-.75,1.27-2.91Z"/><path d="M63.33,68.59c0-2.58,1.01-3.93,2.59-3.93s2.59,1.36,2.59,3.93-1.01,3.99-2.59,3.99-2.59-1.41-2.59-3.99ZM67.2,68.59c0-2.16-.53-2.84-1.27-2.84s-1.27.69-1.27,2.84.53,2.91,1.27,2.91,1.27-.75,1.27-2.91Z"/><path d="M69.49,68.59c0-2.58,1.01-3.93,2.59-3.93s2.59,1.36,2.59,3.93-1.01,3.99-2.59,3.99-2.59-1.41-2.59-3.99ZM73.35,68.59c0-2.16-.53-2.84-1.27-2.84s-1.27.69-1.27,2.84.53,2.91,1.27,2.91,1.27-.75,1.27-2.91Z"/><path d="M76.05,71.31h1.71v-5.01h-1.41v-.87c.76-.14,1.28-.34,1.76-.63h1.03v6.51h1.5v1.13h-4.59v-1.13Z"/><path d="M85.45,65.98h-3.61v-1.17h5.12v.85c-1.79,2.22-2.1,3.81-2.23,6.78h-1.4c.13-2.71.65-4.42,2.12-6.46Z"/><path d="M91.61,65.98h-3.61v-1.17h5.12v.85c-1.79,2.22-2.1,3.81-2.23,6.78h-1.4c.13-2.71.65-4.42,2.12-6.46Z"/><path d="M103.37,68.59c0-2.58,1.01-3.93,2.59-3.93s2.59,1.36,2.59,3.93-1.01,3.99-2.59,3.99-2.59-1.41-2.59-3.99ZM107.23,68.59c0-2.16-.53-2.84-1.27-2.84s-1.27.69-1.27,2.84.53,2.91,1.27,2.91,1.27-.75,1.27-2.91Z"/><path d="M109.53,68.59c0-2.58,1.01-3.93,2.59-3.93s2.59,1.36,2.59,3.93-1.01,3.99-2.59,3.99-2.59-1.41-2.59-3.99ZM113.39,68.59c0-2.16-.53-2.84-1.27-2.84s-1.27.69-1.27,2.84.53,2.91,1.27,2.91,1.27-.75,1.27-2.91Z"/><path d="M115.68,68.59c0-2.58,1.01-3.93,2.59-3.93s2.59,1.36,2.59,3.93-1.01,3.99-2.59,3.99-2.59-1.41-2.59-3.99ZM119.54,68.59c0-2.16-.53-2.84-1.27-2.84s-1.27.69-1.27,2.84.53,2.91,1.27,2.91,1.27-.75,1.27-2.91Z"/><path d="M121.84,68.59c0-2.58,1.01-3.93,2.59-3.93s2.59,1.36,2.59,3.93-1.01,3.99-2.59,3.99-2.59-1.41-2.59-3.99ZM125.7,68.59c0-2.16-.53-2.84-1.27-2.84s-1.27.69-1.27,2.84.53,2.91,1.27,2.91,1.27-.75,1.27-2.91Z"/><path d="M127.99,68.59c0-2.58,1.01-3.93,2.59-3.93s2.59,1.36,2.59,3.93-1.01,3.99-2.59,3.99-2.59-1.41-2.59-3.99ZM131.86,68.59c0-2.16-.53-2.84-1.27-2.84s-1.27.69-1.27,2.84.53,2.91,1.27,2.91,1.27-.75,1.27-2.91Z"/><path d="M134.13,71.64c2.12-2.06,3.45-3.4,3.45-4.56,0-.8-.44-1.31-1.26-1.31-.59,0-1.08.39-1.49.84l-.77-.76c.7-.75,1.4-1.18,2.44-1.18,1.46,0,2.41.93,2.41,2.34s-1.26,2.75-2.78,4.34c.4-.04.91-.08,1.28-.08h1.87v1.17h-5.15v-.8Z"/><path d="M140.31,68.59c0-2.58,1.01-3.93,2.59-3.93s2.59,1.36,2.59,3.93-1.01,3.99-2.59,3.99-2.59-1.41-2.59-3.99ZM144.17,68.59c0-2.16-.53-2.84-1.27-2.84s-1.27.69-1.27,2.84.53,2.91,1.27,2.91,1.27-.75,1.27-2.91Z"/><path d="M155.72,68.59c0-2.58,1.01-3.93,2.59-3.93s2.59,1.36,2.59,3.93-1.01,3.99-2.59,3.99-2.59-1.41-2.59-3.99ZM159.58,68.59c0-2.16-.53-2.84-1.27-2.84s-1.27.69-1.27,2.84.53,2.91,1.27,2.91,1.27-.75,1.27-2.91Z"/><path d="M161.88,68.59c0-2.58,1.01-3.93,2.59-3.93s2.59,1.36,2.59,3.93-1.01,3.99-2.59,3.99-2.59-1.41-2.59-3.99ZM165.74,68.59c0-2.16-.53-2.84-1.27-2.84s-1.27.69-1.27,2.84.53,2.91,1.27,2.91,1.27-.75,1.27-2.91Z"/><path d="M168.03,68.59c0-2.58,1.01-3.93,2.59-3.93s2.59,1.36,2.59,3.93-1.01,3.99-2.59,3.99-2.59-1.41-2.59-3.99ZM171.89,68.59c0-2.16-.53-2.84-1.27-2.84s-1.27.69-1.27,2.84.53,2.91,1.27,2.91,1.27-.75,1.27-2.91Z"/><path d="M173.99,71.52l.64-.88c.46.44,1.01.82,1.78.82.85,0,1.47-.54,1.47-1.46s-.57-1.42-1.41-1.42c-.48,0-.76.13-1.22.43l-.66-.42.23-3.77h4.08v1.17h-2.88l-.16,1.84c.32-.16.62-.25,1.01-.25,1.31,0,2.4.74,2.4,2.38s-1.28,2.63-2.69,2.63c-1.24,0-2.04-.49-2.6-1.06Z"/><path d="M183.44,67.68c0-.44.04-1.14.06-1.59h-.05c-.19.4-.41.78-.62,1.18l-1.39,2.13h4.25v1.07h-5.62v-.94l3.02-4.73h1.64v7.63h-1.3v-4.76Z"/><path d="M186.5,68.59c0-2.58,1.01-3.93,2.59-3.93s2.59,1.36,2.59,3.93-1.01,3.99-2.59,3.99-2.59-1.41-2.59-3.99ZM190.36,68.59c0-2.16-.53-2.84-1.27-2.84s-1.27.69-1.27,2.84.53,2.91,1.27,2.91,1.27-.75,1.27-2.91Z"/><path d="M10.98,82.99c0-2.58,1.01-3.93,2.59-3.93s2.59,1.36,2.59,3.93-1.01,3.99-2.59,3.99-2.59-1.41-2.59-3.99ZM14.85,82.99c0-2.16-.53-2.84-1.27-2.84s-1.27.69-1.27,2.84.53,2.91,1.27,2.91,1.27-.75,1.27-2.91Z"/><path d="M17.14,82.99c0-2.58,1.01-3.93,2.59-3.93s2.59,1.36,2.59,3.93-1.01,3.99-2.59,3.99-2.59-1.41-2.59-3.99ZM21,82.99c0-2.16-.53-2.84-1.27-2.84s-1.27.69-1.27,2.84.53,2.91,1.27,2.91,1.27-.75,1.27-2.91Z"/><path d="M23.3,82.99c0-2.58,1.01-3.93,2.59-3.93s2.59,1.36,2.59,3.93-1.01,3.99-2.59,3.99-2.59-1.41-2.59-3.99ZM27.16,82.99c0-2.16-.53-2.84-1.27-2.84s-1.27.69-1.27,2.84.53,2.91,1.27,2.91,1.27-.75,1.27-2.91Z"/><path d="M29.85,85.71h1.71v-5.01h-1.41v-.87c.76-.14,1.28-.34,1.76-.63h1.03v6.51h1.5v1.13h-4.59v-1.13Z"/><path d="M39.26,80.38h-3.61v-1.17h5.12v.85c-1.79,2.22-2.1,3.81-2.23,6.78h-1.4c.13-2.71.65-4.42,2.12-6.46Z"/><path d="M45.41,80.38h-3.61v-1.17h5.12v.85c-1.79,2.22-2.1,3.81-2.23,6.78h-1.4c.13-2.71.65-4.42,2.12-6.46Z"/><path d="M59.23,82.99c0-2.58,1.01-3.93,2.59-3.93s2.59,1.36,2.59,3.93-1.01,3.99-2.59,3.99-2.59-1.41-2.59-3.99ZM63.09,82.99c0-2.16-.53-2.84-1.27-2.84s-1.27.69-1.27,2.84.53,2.91,1.27,2.91,1.27-.75,1.27-2.91Z"/><path d="M65.39,82.99c0-2.58,1.01-3.93,2.59-3.93s2.59,1.36,2.59,3.93-1.01,3.99-2.59,3.99-2.59-1.41-2.59-3.99ZM69.25,82.99c0-2.16-.53-2.84-1.27-2.84s-1.27.69-1.27,2.84.53,2.91,1.27,2.91,1.27-.75,1.27-2.91Z"/><path d="M71.54,82.99c0-2.58,1.01-3.93,2.59-3.93s2.59,1.36,2.59,3.93-1.01,3.99-2.59,3.99-2.59-1.41-2.59-3.99ZM75.4,82.99c0-2.16-.53-2.84-1.27-2.84s-1.27.69-1.27,2.84.53,2.91,1.27,2.91,1.27-.75,1.27-2.91Z"/><path d="M78.1,85.71h1.71v-5.01h-1.41v-.87c.76-.14,1.28-.34,1.76-.63h1.03v6.51h1.5v1.13h-4.59v-1.13Z"/><path d="M86.95,82.08c0-.44.04-1.14.06-1.59h-.05c-.19.4-.41.78-.62,1.18l-1.39,2.13h4.25v1.07h-5.62v-.94l3.02-4.73h1.64v7.63h-1.3v-4.76Z"/><path d="M90.01,82.99c0-2.58,1.01-3.93,2.59-3.93s2.59,1.36,2.59,3.93-1.01,3.99-2.59,3.99-2.59-1.41-2.59-3.99ZM93.87,82.99c0-2.16-.53-2.84-1.27-2.84s-1.27.69-1.27,2.84.53,2.91,1.27,2.91,1.27-.75,1.27-2.91Z"/><path d="M107.47,82.99c0-2.58,1.01-3.93,2.59-3.93s2.59,1.36,2.59,3.93-1.01,3.99-2.59,3.99-2.59-1.41-2.59-3.99ZM111.34,82.99c0-2.16-.53-2.84-1.27-2.84s-1.27.69-1.27,2.84.53,2.91,1.27,2.91,1.27-.75,1.27-2.91Z"/><path d="M113.63,82.99c0-2.58,1.01-3.93,2.59-3.93s2.59,1.36,2.59,3.93-1.01,3.99-2.59,3.99-2.59-1.41-2.59-3.99ZM117.49,82.99c0-2.16-.53-2.84-1.27-2.84s-1.27.69-1.27,2.84.53,2.91,1.27,2.91,1.27-.75,1.27-2.91Z"/><path d="M120.19,85.71h1.71v-5.01h-1.41v-.87c.76-.14,1.28-.34,1.76-.63h1.03v6.51h1.5v1.13h-4.59v-1.13Z"/><path d="M125.94,82.99c0-2.58,1.01-3.93,2.59-3.93s2.59,1.36,2.59,3.93-1.01,3.99-2.59,3.99-2.59-1.41-2.59-3.99ZM129.8,82.99c0-2.16-.53-2.84-1.27-2.84s-1.27.69-1.27,2.84.53,2.91,1.27,2.91,1.27-.75,1.27-2.91Z"/><path d="M132.1,82.99c0-2.58,1.01-3.93,2.59-3.93s2.59,1.36,2.59,3.93-1.01,3.99-2.59,3.99-2.59-1.41-2.59-3.99ZM135.96,82.99c0-2.16-.53-2.84-1.27-2.84s-1.27.69-1.27,2.84.53,2.91,1.27,2.91,1.27-.75,1.27-2.91Z"/><path d="M138.25,82.99c0-2.58,1.01-3.93,2.59-3.93s2.59,1.36,2.59,3.93-1.01,3.99-2.59,3.99-2.59-1.41-2.59-3.99ZM142.12,82.99c0-2.16-.53-2.84-1.27-2.84s-1.27.69-1.27,2.84.53,2.91,1.27,2.91,1.27-.75,1.27-2.91Z"/><path d="M155.72,82.99c0-2.58,1.01-3.93,2.59-3.93s2.59,1.36,2.59,3.93-1.01,3.99-2.59,3.99-2.59-1.41-2.59-3.99ZM159.58,82.99c0-2.16-.53-2.84-1.27-2.84s-1.27.69-1.27,2.84.53,2.91,1.27,2.91,1.27-.75,1.27-2.91Z"/><path d="M161.88,82.99c0-2.58,1.01-3.93,2.59-3.93s2.59,1.36,2.59,3.93-1.01,3.99-2.59,3.99-2.59-1.41-2.59-3.99ZM165.74,82.99c0-2.16-.53-2.84-1.27-2.84s-1.27.69-1.27,2.84.53,2.91,1.27,2.91,1.27-.75,1.27-2.91Z"/><path d="M168.43,85.71h1.71v-5.01h-1.41v-.87c.76-.14,1.28-.34,1.76-.63h1.03v6.51h1.5v1.13h-4.59v-1.13Z"/><path d="M177.29,82.08c0-.44.04-1.14.06-1.59h-.05c-.19.4-.41.78-.62,1.18l-1.39,2.13h4.25v1.07h-5.62v-.94l3.02-4.73h1.64v7.63h-1.3v-4.76Z"/><path d="M183.99,80.38h-3.61v-1.17h5.12v.85c-1.79,2.22-2.1,3.81-2.23,6.78h-1.4c.13-2.71.65-4.42,2.12-6.46Z"/><path d="M190.15,80.38h-3.61v-1.17h5.12v.85c-1.79,2.22-2.1,3.81-2.23,6.78h-1.4c.13-2.71.65-4.42,2.12-6.46Z"/><path d="M10.98,97.39c0-2.58,1.01-3.93,2.59-3.93s2.59,1.36,2.59,3.93-1.01,3.99-2.59,3.99-2.59-1.41-2.59-3.99ZM14.85,97.39c0-2.16-.53-2.84-1.27-2.84s-1.27.69-1.27,2.84.53,2.91,1.27,2.91,1.27-.75,1.27-2.91Z"/><path d="M17.19,97.65c0-2.96,1.43-4.19,3-4.19.92,0,1.58.39,2.04.86l-.74.84c-.28-.33-.76-.58-1.22-.58-.99,0-1.8.77-1.8,3.07,0,1.89.6,2.67,1.47,2.67.63,0,1.14-.52,1.14-1.45s-.45-1.36-1.2-1.36c-.45,0-.98.26-1.41.95l-.06-.97c.44-.61,1.15-.98,1.72-.98,1.31,0,2.23.77,2.23,2.36s-1.09,2.5-2.4,2.5c-1.49,0-2.76-1.16-2.76-3.73Z"/><path d="M23.27,100.44c2.12-2.06,3.45-3.4,3.45-4.56,0-.8-.44-1.31-1.26-1.31-.59,0-1.08.39-1.49.84l-.77-.76c.7-.75,1.4-1.18,2.44-1.18,1.46,0,2.41.93,2.41,2.34s-1.26,2.75-2.78,4.34c.4-.04.91-.08,1.28-.08h1.87v1.17h-5.15v-.8Z"/><path d="M32.55,96.48c0-.44.04-1.14.06-1.59h-.05c-.19.4-.41.78-.62,1.18l-1.39,2.13h4.25v1.07h-5.62v-.94l3.02-4.73h1.64v7.63h-1.3v-4.76Z"/><path d="M35.61,97.39c0-2.58,1.01-3.93,2.59-3.93s2.59,1.36,2.59,3.93-1.01,3.99-2.59,3.99-2.59-1.41-2.59-3.99ZM39.47,97.39c0-2.16-.53-2.84-1.27-2.84s-1.27.69-1.27,2.84.53,2.91,1.27,2.91,1.27-.75,1.27-2.91Z"/><path d="M41.57,100.3l.66-.88c.46.46,1.04.83,1.81.83.83,0,1.41-.43,1.41-1.15,0-.79-.51-1.3-2.24-1.3v-1.01c1.49,0,1.98-.52,1.98-1.22,0-.64-.42-1.02-1.13-1.02-.59,0-1.06.28-1.53.72l-.71-.85c.65-.58,1.38-.96,2.3-.96,1.46,0,2.46.73,2.46,2.02,0,.85-.5,1.43-1.33,1.75v.05c.9.24,1.59.88,1.59,1.9,0,1.39-1.21,2.2-2.68,2.2-1.23,0-2.05-.48-2.59-1.08Z"/><path d="M57.18,97.39c0-2.58,1.01-3.93,2.59-3.93s2.59,1.36,2.59,3.93-1.01,3.99-2.59,3.99-2.59-1.41-2.59-3.99ZM61.04,97.39c0-2.16-.53-2.84-1.27-2.84s-1.27.69-1.27,2.84.53,2.91,1.27,2.91,1.27-.75,1.27-2.91Z"/><path d="M66.98,94.78h-3.61v-1.17h5.12v.85c-1.79,2.22-2.1,3.81-2.23,6.78h-1.4c.13-2.71.65-4.42,2.12-6.46Z"/><path d="M69.29,100.3l.66-.88c.46.46,1.04.83,1.81.83.83,0,1.41-.43,1.41-1.15,0-.79-.51-1.3-2.24-1.3v-1.01c1.49,0,1.98-.52,1.98-1.22,0-.64-.42-1.02-1.13-1.02-.59,0-1.06.28-1.53.72l-.71-.85c.65-.58,1.38-.96,2.3-.96,1.46,0,2.46.73,2.46,2.02,0,.85-.5,1.43-1.33,1.75v.05c.9.24,1.59.88,1.59,1.9,0,1.39-1.21,2.2-2.68,2.2-1.23,0-2.05-.48-2.59-1.08Z"/><path d="M76.05,100.11h1.71v-5.01h-1.41v-.87c.76-.14,1.28-.34,1.76-.63h1.03v6.51h1.5v1.13h-4.59v-1.13Z"/><path d="M81.6,100.32l.64-.88c.46.44,1.01.82,1.78.82.85,0,1.47-.54,1.47-1.46s-.57-1.42-1.41-1.42c-.48,0-.76.13-1.22.43l-.66-.42.23-3.77h4.08v1.17h-2.88l-.16,1.84c.32-.16.62-.25,1.01-.25,1.31,0,2.4.74,2.4,2.38s-1.28,2.63-2.69,2.63c-1.24,0-2.04-.49-2.6-1.06Z"/><path d="M88,97.65c0-2.96,1.43-4.19,3-4.19.92,0,1.58.39,2.04.86l-.74.84c-.28-.33-.76-.58-1.22-.58-.99,0-1.8.77-1.8,3.07,0,1.89.6,2.67,1.47,2.67.63,0,1.14-.52,1.14-1.45s-.45-1.36-1.2-1.36c-.45,0-.98.26-1.41.95l-.06-.97c.44-.61,1.15-.98,1.72-.98,1.31,0,2.23.77,2.23,2.36s-1.09,2.5-2.4,2.5c-1.49,0-2.76-1.16-2.76-3.73Z"/><path d="M103.37,97.39c0-2.58,1.01-3.93,2.59-3.93s2.59,1.36,2.59,3.93-1.01,3.99-2.59,3.99-2.59-1.41-2.59-3.99ZM107.23,97.39c0-2.16-.53-2.84-1.27-2.84s-1.27.69-1.27,2.84.53,2.91,1.27,2.91,1.27-.75,1.27-2.91Z"/><path d="M109.57,97.65c0-2.96,1.43-4.19,3-4.19.92,0,1.58.39,2.04.86l-.74.84c-.28-.33-.76-.58-1.22-.58-.99,0-1.8.77-1.8,3.07,0,1.89.6,2.67,1.47,2.67.63,0,1.14-.52,1.14-1.45s-.45-1.36-1.2-1.36c-.45,0-.98.26-1.41.95l-.06-.97c.44-.61,1.15-.98,1.72-.98,1.31,0,2.23.77,2.23,2.36s-1.09,2.5-2.4,2.5c-1.49,0-2.76-1.16-2.76-3.73Z"/><path d="M116.09,100.11h1.71v-5.01h-1.41v-.87c.76-.14,1.28-.34,1.76-.63h1.03v6.51h1.5v1.13h-4.59v-1.13Z"/><path d="M124.94,96.48c0-.44.04-1.14.06-1.59h-.05c-.19.4-.41.78-.62,1.18l-1.39,2.13h4.25v1.07h-5.62v-.94l3.02-4.73h1.64v7.63h-1.3v-4.76Z"/><path d="M128.4,100.11h1.71v-5.01h-1.41v-.87c.76-.14,1.28-.34,1.76-.63h1.03v6.51h1.5v1.13h-4.59v-1.13Z"/><path d="M134.13,100.44c2.12-2.06,3.45-3.4,3.45-4.56,0-.8-.44-1.31-1.26-1.31-.59,0-1.08.39-1.49.84l-.77-.76c.7-.75,1.4-1.18,2.44-1.18,1.46,0,2.41.93,2.41,2.34s-1.26,2.75-2.78,4.34c.4-.04.91-.08,1.28-.08h1.87v1.17h-5.15v-.8Z"/><path d="M149.56,97.39c0-2.58,1.01-3.93,2.59-3.93s2.59,1.36,2.59,3.93-1.01,3.99-2.59,3.99-2.59-1.41-2.59-3.99ZM153.43,97.39c0-2.16-.53-2.84-1.27-2.84s-1.27.69-1.27,2.84.53,2.91,1.27,2.91,1.27-.75,1.27-2.91Z"/><path d="M155.72,97.39c0-2.58,1.01-3.93,2.59-3.93s2.59,1.36,2.59,3.93-1.01,3.99-2.59,3.99-2.59-1.41-2.59-3.99ZM159.58,97.39c0-2.16-.53-2.84-1.27-2.84s-1.27.69-1.27,2.84.53,2.91,1.27,2.91,1.27-.75,1.27-2.91Z"/><path d="M161.88,97.39c0-2.58,1.01-3.93,2.59-3.93s2.59,1.36,2.59,3.93-1.01,3.99-2.59,3.99-2.59-1.41-2.59-3.99ZM165.74,97.39c0-2.16-.53-2.84-1.27-2.84s-1.27.69-1.27,2.84.53,2.91,1.27,2.91,1.27-.75,1.27-2.91Z"/><path d="M168.03,97.39c0-2.58,1.01-3.93,2.59-3.93s2.59,1.36,2.59,3.93-1.01,3.99-2.59,3.99-2.59-1.41-2.59-3.99ZM171.89,97.39c0-2.16-.53-2.84-1.27-2.84s-1.27.69-1.27,2.84.53,2.91,1.27,2.91,1.27-.75,1.27-2.91Z"/><path d="M174.19,97.39c0-2.58,1.01-3.93,2.59-3.93s2.59,1.36,2.59,3.93-1.01,3.99-2.59,3.99-2.59-1.41-2.59-3.99ZM178.05,97.39c0-2.16-.53-2.84-1.27-2.84s-1.27.69-1.27,2.84.53,2.91,1.27,2.91,1.27-.75,1.27-2.91Z"/><path d="M183.44,96.48c0-.44.04-1.14.06-1.59h-.05c-.19.4-.41.78-.62,1.18l-1.39,2.13h4.25v1.07h-5.62v-.94l3.02-4.73h1.64v7.63h-1.3v-4.76Z"/><path d="M186.5,97.39c0-2.58,1.01-3.93,2.59-3.93s2.59,1.36,2.59,3.93-1.01,3.99-2.59,3.99-2.59-1.41-2.59-3.99ZM190.36,97.39c0-2.16-.53-2.84-1.27-2.84s-1.27.69-1.27,2.84.53,2.91,1.27,2.91,1.27-.75,1.27-2.91Z"/><path d="M10.98,111.79c0-2.58,1.01-3.93,2.59-3.93s2.59,1.36,2.59,3.93-1.01,3.99-2.59,3.99-2.59-1.41-2.59-3.99ZM14.85,111.79c0-2.16-.53-2.84-1.27-2.84s-1.27.69-1.27,2.84.53,2.91,1.27,2.91,1.27-.75,1.27-2.91Z"/><path d="M17.19,112.05c0-2.96,1.43-4.19,3-4.19.92,0,1.58.39,2.04.86l-.74.84c-.28-.33-.76-.58-1.22-.58-.99,0-1.8.77-1.8,3.07,0,1.89.6,2.67,1.47,2.67.63,0,1.14-.52,1.14-1.45s-.45-1.36-1.2-1.36c-.45,0-.98.26-1.41.95l-.06-.97c.44-.61,1.15-.98,1.72-.98,1.31,0,2.23.77,2.23,2.36s-1.09,2.5-2.4,2.5c-1.49,0-2.76-1.16-2.76-3.73Z"/><path d="M26.39,110.88c0-.44.04-1.14.06-1.59h-.05c-.19.4-.41.78-.62,1.18l-1.39,2.13h4.25v1.07h-5.62v-.94l3.02-4.73h1.64v7.63h-1.3v-4.76Z"/><path d="M29.25,114.72l.64-.88c.46.44,1.01.82,1.78.82.85,0,1.47-.54,1.47-1.46s-.57-1.42-1.41-1.42c-.48,0-.76.13-1.22.43l-.66-.42.23-3.77h4.08v1.17h-2.88l-.16,1.84c.32-.16.62-.25,1.01-.25,1.31,0,2.4.74,2.4,2.38s-1.28,2.63-2.69,2.63c-1.24,0-2.04-.49-2.6-1.06Z"/><path d="M35.41,114.72l.64-.88c.46.44,1.01.82,1.78.82.85,0,1.47-.54,1.47-1.46s-.57-1.42-1.41-1.42c-.48,0-.76.13-1.22.43l-.66-.42.23-3.77h4.08v1.17h-2.88l-.16,1.84c.32-.16.62-.25,1.01-.25,1.31,0,2.4.74,2.4,2.38s-1.28,2.63-2.69,2.63c-1.24,0-2.04-.49-2.6-1.06Z"/><path d="M41.76,111.79c0-2.58,1.01-3.93,2.59-3.93s2.59,1.36,2.59,3.93-1.01,3.99-2.59,3.99-2.59-1.41-2.59-3.99ZM45.62,111.79c0-2.16-.53-2.84-1.27-2.84s-1.27.69-1.27,2.84.53,2.91,1.27,2.91,1.27-.75,1.27-2.91Z"/><path d="M59.23,111.79c0-2.58,1.01-3.93,2.59-3.93s2.59,1.36,2.59,3.93-1.01,3.99-2.59,3.99-2.59-1.41-2.59-3.99ZM63.09,111.79c0-2.16-.53-2.84-1.27-2.84s-1.27.69-1.27,2.84.53,2.91,1.27,2.91,1.27-.75,1.27-2.91Z"/><path d="M65.18,114.72l.64-.88c.46.44,1.01.82,1.78.82.85,0,1.47-.54,1.47-1.46s-.57-1.42-1.41-1.42c-.48,0-.76.13-1.22.43l-.66-.42.23-3.77h4.08v1.17h-2.88l-.16,1.84c.32-.16.62-.25,1.01-.25,1.31,0,2.4.74,2.4,2.38s-1.28,2.63-2.69,2.63c-1.24,0-2.04-.49-2.6-1.06Z"/><path d="M75.19,109.18h-3.61v-1.17h5.12v.85c-1.79,2.22-2.1,3.81-2.23,6.78h-1.4c.13-2.71.65-4.42,2.12-6.46Z"/><path d="M77.5,114.72l.64-.88c.46.44,1.01.82,1.78.82.85,0,1.47-.54,1.47-1.46s-.57-1.42-1.41-1.42c-.48,0-.76.13-1.22.43l-.66-.42.23-3.77h4.08v1.17h-2.88l-.16,1.84c.32-.16.62-.25,1.01-.25,1.31,0,2.4.74,2.4,2.38s-1.28,2.63-2.69,2.63c-1.24,0-2.04-.49-2.6-1.06Z"/><path d="M83.9,112.05c0-2.96,1.43-4.19,3-4.19.92,0,1.58.39,2.04.86l-.74.84c-.28-.33-.76-.58-1.22-.58-.99,0-1.8.77-1.8,3.07,0,1.89.6,2.67,1.47,2.67.63,0,1.14-.52,1.14-1.45s-.45-1.36-1.2-1.36c-.45,0-.98.26-1.41.95l-.06-.97c.44-.61,1.15-.98,1.72-.98,1.31,0,2.23.77,2.23,2.36s-1.09,2.5-2.4,2.5c-1.49,0-2.76-1.16-2.76-3.73Z"/><path d="M90.01,111.79c0-2.58,1.01-3.93,2.59-3.93s2.59,1.36,2.59,3.93-1.01,3.99-2.59,3.99-2.59-1.41-2.59-3.99ZM93.87,111.79c0-2.16-.53-2.84-1.27-2.84s-1.27.69-1.27,2.84.53,2.91,1.27,2.91,1.27-.75,1.27-2.91Z"/><path d="M107.47,111.79c0-2.58,1.01-3.93,2.59-3.93s2.59,1.36,2.59,3.93-1.01,3.99-2.59,3.99-2.59-1.41-2.59-3.99ZM111.34,111.79c0-2.16-.53-2.84-1.27-2.84s-1.27.69-1.27,2.84.53,2.91,1.27,2.91,1.27-.75,1.27-2.91Z"/><path d="M113.68,112.05c0-2.96,1.43-4.19,3-4.19.92,0,1.58.39,2.04.86l-.74.84c-.28-.33-.76-.58-1.22-.58-.99,0-1.8.77-1.8,3.07,0,1.89.6,2.67,1.47,2.67.63,0,1.14-.52,1.14-1.45s-.45-1.36-1.2-1.36c-.45,0-.98.26-1.41.95l-.06-.97c.44-.61,1.15-.98,1.72-.98,1.31,0,2.23.77,2.23,2.36s-1.09,2.5-2.4,2.5c-1.49,0-2.76-1.16-2.76-3.73Z"/><path d="M119.76,114.84c2.12-2.06,3.45-3.4,3.45-4.56,0-.8-.44-1.31-1.26-1.31-.59,0-1.08.39-1.49.84l-.77-.76c.7-.75,1.4-1.18,2.44-1.18,1.46,0,2.41.93,2.41,2.34s-1.26,2.75-2.78,4.34c.4-.04.91-.08,1.28-.08h1.87v1.17h-5.15v-.8Z"/><path d="M125.74,114.72l.64-.88c.46.44,1.01.82,1.78.82.85,0,1.47-.54,1.47-1.46s-.57-1.42-1.41-1.42c-.48,0-.76.13-1.22.43l-.66-.42.23-3.77h4.08v1.17h-2.88l-.16,1.84c.32-.16.62-.25,1.01-.25,1.31,0,2.4.74,2.4,2.38s-1.28,2.63-2.69,2.63c-1.24,0-2.04-.49-2.6-1.06Z"/><path d="M135.2,110.88c0-.44.04-1.14.06-1.59h-.05c-.19.4-.41.78-.62,1.18l-1.39,2.13h4.25v1.07h-5.62v-.94l3.02-4.73h1.64v7.63h-1.3v-4.76Z"/><path d="M141.35,110.88c0-.44.04-1.14.06-1.59h-.05c-.19.4-.41.78-.62,1.18l-1.39,2.13h4.25v1.07h-5.62v-.94l3.02-4.73h1.64v7.63h-1.3v-4.76Z"/><path d="M155.72,111.79c0-2.58,1.01-3.93,2.59-3.93s2.59,1.36,2.59,3.93-1.01,3.99-2.59,3.99-2.59-1.41-2.59-3.99ZM159.58,111.79c0-2.16-.53-2.84-1.27-2.84s-1.27.69-1.27,2.84.53,2.91,1.27,2.91,1.27-.75,1.27-2.91Z"/><path d="M161.92,112.05c0-2.96,1.43-4.19,3-4.19.92,0,1.58.39,2.04.86l-.74.84c-.28-.33-.76-.58-1.22-.58-.99,0-1.8.77-1.8,3.07,0,1.89.6,2.67,1.47,2.67.63,0,1.14-.52,1.14-1.45s-.45-1.36-1.2-1.36c-.45,0-.98.26-1.41.95l-.06-.97c.44-.61,1.15-.98,1.72-.98,1.31,0,2.23.77,2.23,2.36s-1.09,2.5-2.4,2.5c-1.49,0-2.76-1.16-2.76-3.73Z"/><path d="M168.03,111.79c0-2.58,1.01-3.93,2.59-3.93s2.59,1.36,2.59,3.93-1.01,3.99-2.59,3.99-2.59-1.41-2.59-3.99ZM171.89,111.79c0-2.16-.53-2.84-1.27-2.84s-1.27.69-1.27,2.84.53,2.91,1.27,2.91,1.27-.75,1.27-2.91Z"/><path d="M173.99,114.72l.64-.88c.46.44,1.01.82,1.78.82.85,0,1.47-.54,1.47-1.46s-.57-1.42-1.41-1.42c-.48,0-.76.13-1.22.43l-.66-.42.23-3.77h4.08v1.17h-2.88l-.16,1.84c.32-.16.62-.25,1.01-.25,1.31,0,2.4.74,2.4,2.38s-1.28,2.63-2.69,2.63c-1.24,0-2.04-.49-2.6-1.06Z"/><path d="M180.14,114.72l.64-.88c.46.44,1.01.82,1.78.82.85,0,1.47-.54,1.47-1.46s-.57-1.42-1.41-1.42c-.48,0-.76.13-1.22.43l-.66-.42.23-3.77h4.08v1.17h-2.88l-.16,1.84c.32-.16.62-.25,1.01-.25,1.31,0,2.4.74,2.4,2.38s-1.28,2.63-2.69,2.63c-1.24,0-2.04-.49-2.6-1.06Z"/><path d="M189.6,110.88c0-.44.04-1.14.06-1.59h-.05c-.19.4-.41.78-.62,1.18l-1.39,2.13h4.25v1.07h-5.62v-.94l3.02-4.73h1.64v7.63h-1.3v-4.76Z"/><path d="M10.98,126.19c0-2.58,1.01-3.93,2.59-3.93s2.59,1.36,2.59,3.93-1.01,3.99-2.59,3.99-2.59-1.41-2.59-3.99ZM14.85,126.19c0-2.16-.53-2.84-1.27-2.84s-1.27.69-1.27,2.84.53,2.91,1.27,2.91,1.27-.75,1.27-2.91Z"/><path d="M17.14,126.19c0-2.58,1.01-3.93,2.59-3.93s2.59,1.36,2.59,3.93-1.01,3.99-2.59,3.99-2.59-1.41-2.59-3.99ZM21,126.19c0-2.16-.53-2.84-1.27-2.84s-1.27.69-1.27,2.84.53,2.91,1.27,2.91,1.27-.75,1.27-2.91Z"/><path d="M23.3,126.19c0-2.58,1.01-3.93,2.59-3.93s2.59,1.36,2.59,3.93-1.01,3.99-2.59,3.99-2.59-1.41-2.59-3.99ZM27.16,126.19c0-2.16-.53-2.84-1.27-2.84s-1.27.69-1.27,2.84.53,2.91,1.27,2.91,1.27-.75,1.27-2.91Z"/><path d="M29.85,128.91h1.71v-5.01h-1.41v-.87c.76-.14,1.28-.34,1.76-.63h1.03v6.51h1.5v1.13h-4.59v-1.13Z"/><path d="M39.26,123.58h-3.61v-1.17h5.12v.85c-1.79,2.22-2.1,3.81-2.23,6.78h-1.4c.13-2.71.65-4.42,2.12-6.46Z"/><path d="M42.17,128.91h1.71v-5.01h-1.41v-.87c.76-.14,1.28-.34,1.76-.63h1.03v6.51h1.5v1.13h-4.59v-1.13Z"/><path d="M59.23,126.19c0-2.58,1.01-3.93,2.59-3.93s2.59,1.36,2.59,3.93-1.01,3.99-2.59,3.99-2.59-1.41-2.59-3.99ZM63.09,126.19c0-2.16-.53-2.84-1.27-2.84s-1.27.69-1.27,2.84.53,2.91,1.27,2.91,1.27-.75,1.27-2.91Z"/><path d="M65.39,126.19c0-2.58,1.01-3.93,2.59-3.93s2.59,1.36,2.59,3.93-1.01,3.99-2.59,3.99-2.59-1.41-2.59-3.99ZM69.25,126.19c0-2.16-.53-2.84-1.27-2.84s-1.27.69-1.27,2.84.53,2.91,1.27,2.91,1.27-.75,1.27-2.91Z"/><path d="M71.94,128.91h1.71v-5.01h-1.41v-.87c.76-.14,1.28-.34,1.76-.63h1.03v6.51h1.5v1.13h-4.59v-1.13Z"/><path d="M80.8,125.28c0-.44.04-1.14.06-1.59h-.05c-.19.4-.41.78-.62,1.18l-1.39,2.13h4.25v1.07h-5.62v-.94l3.02-4.73h1.64v7.63h-1.3v-4.76Z"/><path d="M83.85,126.19c0-2.58,1.01-3.93,2.59-3.93s2.59,1.36,2.59,3.93-1.01,3.99-2.59,3.99-2.59-1.41-2.59-3.99ZM87.71,126.19c0-2.16-.53-2.84-1.27-2.84s-1.27.69-1.27,2.84.53,2.91,1.27,2.91,1.27-.75,1.27-2.91Z"/><path d="M90.41,128.91h1.71v-5.01h-1.41v-.87c.76-.14,1.28-.34,1.76-.63h1.03v6.51h1.5v1.13h-4.59v-1.13Z"/><path d="M107.48,126.19c0-2.58,1.01-3.93,2.59-3.93s2.59,1.36,2.59,3.93-1.01,3.99-2.59,3.99-2.59-1.41-2.59-3.99ZM111.34,126.19c0-2.16-.53-2.84-1.27-2.84s-1.27.69-1.27,2.84.53,2.91,1.27,2.91,1.27-.75,1.27-2.91Z"/><path d="M113.68,126.45c0-2.96,1.43-4.19,3-4.19.92,0,1.58.39,2.04.86l-.74.84c-.28-.33-.76-.58-1.22-.58-.99,0-1.8.77-1.8,3.07,0,1.89.6,2.67,1.47,2.67.63,0,1.14-.52,1.14-1.45s-.45-1.36-1.2-1.36c-.45,0-.98.26-1.41.95l-.06-.97c.44-.61,1.15-.98,1.72-.98,1.31,0,2.23.77,2.23,2.36s-1.09,2.5-2.4,2.5c-1.49,0-2.76-1.16-2.76-3.73Z"/><path d="M123.44,123.58h-3.61v-1.17h5.12v.85c-1.79,2.22-2.1,3.81-2.23,6.78h-1.4c.13-2.71.65-4.42,2.12-6.46Z"/><path d="M126.35,128.91h1.71v-5.01h-1.41v-.87c.76-.14,1.28-.34,1.76-.63h1.03v6.51h1.5v1.13h-4.59v-1.13Z"/><path d="M135.2,125.28c0-.44.04-1.14.06-1.59h-.05c-.19.4-.41.78-.62,1.18l-1.39,2.13h4.25v1.07h-5.62v-.94l3.02-4.73h1.64v7.63h-1.3v-4.76Z"/><path d="M138.05,129.12l.64-.88c.46.44,1.01.82,1.78.82.85,0,1.47-.54,1.47-1.46s-.57-1.42-1.41-1.42c-.48,0-.76.13-1.22.43l-.66-.42.23-3.77h4.08v1.17h-2.88l-.16,1.84c.32-.16.62-.25,1.01-.25,1.31,0,2.4.74,2.4,2.38s-1.28,2.63-2.69,2.63c-1.24,0-2.04-.49-2.6-1.06Z"/><path d="M155.72,126.19c0-2.58,1.01-3.93,2.59-3.93s2.59,1.36,2.59,3.93-1.01,3.99-2.59,3.99-2.59-1.41-2.59-3.99ZM159.58,126.19c0-2.16-.53-2.84-1.27-2.84s-1.27.69-1.27,2.84.53,2.91,1.27,2.91,1.27-.75,1.27-2.91Z"/><path d="M161.88,126.19c0-2.58,1.01-3.93,2.59-3.93s2.59,1.36,2.59,3.93-1.01,3.99-2.59,3.99-2.59-1.41-2.59-3.99ZM165.74,126.19c0-2.16-.53-2.84-1.27-2.84s-1.27.69-1.27,2.84.53,2.91,1.27,2.91,1.27-.75,1.27-2.91Z"/><path d="M168.08,126.45c0-2.96,1.43-4.19,3-4.19.92,0,1.58.39,2.04.86l-.74.84c-.28-.33-.76-.58-1.22-.58-.99,0-1.8.77-1.8,3.07,0,1.89.6,2.67,1.47,2.67.63,0,1.14-.52,1.14-1.45s-.45-1.36-1.2-1.36c-.45,0-.98.26-1.41.95l-.06-.97c.44-.61,1.15-.98,1.72-.98,1.31,0,2.23.77,2.23,2.36s-1.09,2.5-2.4,2.5c-1.49,0-2.76-1.16-2.76-3.73Z"/><path d="M173.99,129.12l.64-.88c.46.44,1.01.82,1.78.82.85,0,1.47-.54,1.47-1.46s-.57-1.42-1.41-1.42c-.48,0-.76.13-1.22.43l-.66-.42.23-3.77h4.08v1.17h-2.88l-.16,1.84c.32-.16.62-.25,1.01-.25,1.31,0,2.4.74,2.4,2.38s-1.28,2.63-2.69,2.63c-1.24,0-2.04-.49-2.6-1.06Z"/><path d="M180.39,126.45c0-2.96,1.43-4.19,3-4.19.92,0,1.58.39,2.04.86l-.74.84c-.28-.33-.76-.58-1.22-.58-.99,0-1.8.77-1.8,3.07,0,1.89.6,2.67,1.47,2.67.63,0,1.14-.52,1.14-1.45s-.45-1.36-1.2-1.36c-.45,0-.98.26-1.41.95l-.06-.97c.44-.61,1.15-.98,1.72-.98,1.31,0,2.23.77,2.23,2.36s-1.09,2.5-2.4,2.5c-1.49,0-2.76-1.16-2.76-3.73Z"/><path d="M186.55,126.45c0-2.96,1.43-4.19,3-4.19.92,0,1.58.39,2.04.86l-.74.84c-.28-.33-.76-.58-1.22-.58-.99,0-1.8.77-1.8,3.07,0,1.89.6,2.67,1.47,2.67.63,0,1.14-.52,1.14-1.45s-.45-1.36-1.2-1.36c-.45,0-.98.26-1.41.95l-.06-.97c.44-.61,1.15-.98,1.72-.98,1.31,0,2.23.77,2.23,2.36s-1.09,2.5-2.4,2.5c-1.49,0-2.76-1.16-2.76-3.73Z"/><path d="M10.98,140.59c0-2.58,1.01-3.93,2.59-3.93s2.59,1.36,2.59,3.93-1.01,3.99-2.59,3.99-2.59-1.41-2.59-3.99ZM14.85,140.59c0-2.16-.53-2.84-1.27-2.84s-1.27.69-1.27,2.84.53,2.91,1.27,2.91,1.27-.75,1.27-2.91Z"/><path d="M17.14,140.59c0-2.58,1.01-3.93,2.59-3.93s2.59,1.36,2.59,3.93-1.01,3.99-2.59,3.99-2.59-1.41-2.59-3.99ZM21,140.59c0-2.16-.53-2.84-1.27-2.84s-1.27.69-1.27,2.84.53,2.91,1.27,2.91,1.27-.75,1.27-2.91Z"/><path d="M23.3,140.59c0-2.58,1.01-3.93,2.59-3.93s2.59,1.36,2.59,3.93-1.01,3.99-2.59,3.99-2.59-1.41-2.59-3.99ZM27.16,140.59c0-2.16-.53-2.84-1.27-2.84s-1.27.69-1.27,2.84.53,2.91,1.27,2.91,1.27-.75,1.27-2.91Z"/><path d="M29.45,140.59c0-2.58,1.01-3.93,2.59-3.93s2.59,1.36,2.59,3.93-1.01,3.99-2.59,3.99-2.59-1.41-2.59-3.99ZM33.31,140.59c0-2.16-.53-2.84-1.27-2.84s-1.27.69-1.27,2.84.53,2.91,1.27,2.91,1.27-.75,1.27-2.91Z"/><path d="M35.61,140.59c0-2.58,1.01-3.93,2.59-3.93s2.59,1.36,2.59,3.93-1.01,3.99-2.59,3.99-2.59-1.41-2.59-3.99ZM39.47,140.59c0-2.16-.53-2.84-1.27-2.84s-1.27.69-1.27,2.84.53,2.91,1.27,2.91,1.27-.75,1.27-2.91Z"/><path d="M41.81,140.85c0-2.96,1.43-4.19,3-4.19.92,0,1.58.39,2.04.86l-.74.84c-.28-.33-.76-.58-1.22-.58-.99,0-1.8.77-1.8,3.07,0,1.89.6,2.67,1.47,2.67.63,0,1.14-.52,1.14-1.45s-.45-1.36-1.2-1.36c-.45,0-.98.26-1.41.95l-.06-.97c.44-.61,1.15-.98,1.72-.98,1.31,0,2.23.77,2.23,2.36s-1.09,2.5-2.4,2.5c-1.49,0-2.76-1.16-2.76-3.73Z"/><path d="M47.92,140.59c0-2.58,1.01-3.93,2.59-3.93s2.59,1.36,2.59,3.93-1.01,3.99-2.59,3.99-2.59-1.41-2.59-3.99ZM51.78,140.59c0-2.16-.53-2.84-1.27-2.84s-1.27.69-1.27,2.84.53,2.91,1.27,2.91,1.27-.75,1.27-2.91Z"/><path d="M63.33,140.59c0-2.58,1.01-3.93,2.59-3.93s2.59,1.36,2.59,3.93-1.01,3.99-2.59,3.99-2.59-1.41-2.59-3.99ZM67.2,140.59c0-2.16-.53-2.84-1.27-2.84s-1.27.69-1.27,2.84.53,2.91,1.27,2.91,1.27-.75,1.27-2.91Z"/><path d="M69.54,140.85c0-2.96,1.43-4.19,3-4.19.92,0,1.58.39,2.04.86l-.74.84c-.28-.33-.76-.58-1.22-.58-.99,0-1.8.77-1.8,3.07,0,1.89.6,2.67,1.47,2.67.63,0,1.14-.52,1.14-1.45s-.45-1.36-1.2-1.36c-.45,0-.98.26-1.41.95l-.06-.97c.44-.61,1.15-.98,1.72-.98,1.31,0,2.23.77,2.23,2.36s-1.09,2.5-2.4,2.5c-1.49,0-2.76-1.16-2.76-3.73Z"/><path d="M78.74,139.68c0-.44.04-1.14.06-1.59h-.05c-.19.4-.41.78-.62,1.18l-1.39,2.13h4.25v1.07h-5.62v-.94l3.02-4.73h1.64v7.63h-1.3v-4.76Z"/><path d="M82.2,143.31h1.71v-5.01h-1.41v-.87c.76-.14,1.28-.34,1.76-.63h1.03v6.51h1.5v1.13h-4.59v-1.13Z"/><path d="M91.06,139.68c0-.44.04-1.14.06-1.59h-.05c-.19.4-.41.78-.62,1.18l-1.39,2.13h4.25v1.07h-5.62v-.94l3.02-4.73h1.64v7.63h-1.3v-4.76Z"/><path d="M93.92,143.5l.66-.88c.46.46,1.04.83,1.81.83.83,0,1.41-.43,1.41-1.15,0-.79-.51-1.29-2.24-1.29v-1.01c1.49,0,1.98-.52,1.98-1.22,0-.64-.42-1.02-1.13-1.02-.59,0-1.06.28-1.53.72l-.71-.85c.65-.58,1.38-.96,2.3-.96,1.46,0,2.46.73,2.46,2.02,0,.85-.5,1.43-1.33,1.75v.05c.9.24,1.59.88,1.59,1.9,0,1.39-1.21,2.2-2.68,2.2-1.23,0-2.05-.47-2.59-1.08Z"/><path d="M109.53,140.59c0-2.58,1.01-3.93,2.59-3.93s2.59,1.36,2.59,3.93-1.01,3.99-2.59,3.99-2.59-1.41-2.59-3.99ZM113.39,140.59c0-2.16-.53-2.84-1.27-2.84s-1.27.69-1.27,2.84.53,2.91,1.27,2.91,1.27-.75,1.27-2.91Z"/><path d="M119.33,137.98h-3.61v-1.17h5.12v.85c-1.79,2.22-2.1,3.81-2.23,6.78h-1.4c.13-2.71.65-4.42,2.12-6.46Z"/><path d="M121.84,140.59c0-2.58,1.01-3.93,2.59-3.93s2.59,1.36,2.59,3.93-1.01,3.99-2.59,3.99-2.59-1.41-2.59-3.99ZM125.7,140.59c0-2.16-.53-2.84-1.27-2.84s-1.27.69-1.27,2.84.53,2.91,1.27,2.91,1.27-.75,1.27-2.91Z"/><path d="M128.4,143.31h1.71v-5.01h-1.41v-.87c.76-.14,1.28-.34,1.76-.63h1.03v6.51h1.5v1.13h-4.59v-1.13Z"/><path d="M133.95,143.52l.64-.88c.46.44,1.01.82,1.78.82.85,0,1.47-.54,1.47-1.46s-.57-1.42-1.41-1.42c-.48,0-.76.13-1.22.43l-.66-.42.23-3.77h4.08v1.17h-2.88l-.16,1.84c.32-.16.62-.24,1.01-.24,1.31,0,2.4.74,2.4,2.38s-1.28,2.63-2.69,2.63c-1.24,0-2.04-.49-2.6-1.06Z"/><path d="M140.71,143.31h1.71v-5.01h-1.41v-.87c.76-.14,1.28-.34,1.76-.63h1.03v6.51h1.5v1.13h-4.59v-1.13Z"/><path d="M155.72,140.59c0-2.58,1.01-3.93,2.59-3.93s2.59,1.36,2.59,3.93-1.01,3.99-2.59,3.99-2.59-1.41-2.59-3.99ZM159.58,140.59c0-2.16-.53-2.84-1.27-2.84s-1.27.69-1.27,2.84.53,2.91,1.27,2.91,1.27-.75,1.27-2.91Z"/><path d="M165.53,137.98h-3.61v-1.17h5.12v.85c-1.79,2.22-2.1,3.81-2.23,6.78h-1.4c.13-2.71.65-4.42,2.12-6.46Z"/><path d="M168.03,140.59c0-2.58,1.01-3.93,2.59-3.93s2.59,1.36,2.59,3.93-1.01,3.99-2.59,3.99-2.59-1.41-2.59-3.99ZM171.9,140.59c0-2.16-.53-2.84-1.27-2.84s-1.27.69-1.27,2.84.53,2.91,1.27,2.91,1.27-.75,1.27-2.91Z"/><path d="M174.59,143.31h1.71v-5.01h-1.41v-.87c.76-.14,1.28-.34,1.76-.63h1.03v6.51h1.5v1.13h-4.59v-1.13Z"/><path d="M180.15,143.5l.66-.88c.46.46,1.04.83,1.81.83.83,0,1.41-.43,1.41-1.15,0-.79-.51-1.29-2.24-1.29v-1.01c1.49,0,1.98-.52,1.98-1.22,0-.64-.42-1.02-1.13-1.02-.59,0-1.06.28-1.53.72l-.71-.85c.65-.58,1.38-.96,2.3-.96,1.46,0,2.46.73,2.46,2.02,0,.85-.5,1.43-1.33,1.75v.05c.9.24,1.59.88,1.59,1.9,0,1.39-1.21,2.2-2.68,2.2-1.23,0-2.05-.47-2.59-1.08Z"/><path d="M190.15,137.98h-3.61v-1.17h5.12v.85c-1.79,2.22-2.1,3.81-2.23,6.78h-1.4c.13-2.71.65-4.42,2.12-6.46Z"/><path d="M10.98,154.99c0-2.58,1.01-3.93,2.59-3.93s2.59,1.36,2.59,3.93-1.01,3.99-2.59,3.99-2.59-1.41-2.59-3.99ZM14.85,154.99c0-2.16-.53-2.84-1.27-2.84s-1.27.69-1.27,2.84.53,2.91,1.27,2.91,1.27-.75,1.27-2.91Z"/><path d="M17.19,155.25c0-2.96,1.43-4.19,3-4.19.92,0,1.58.39,2.04.86l-.74.84c-.28-.33-.76-.58-1.22-.58-.99,0-1.8.77-1.8,3.07,0,1.89.6,2.67,1.47,2.67.63,0,1.14-.52,1.14-1.45s-.45-1.36-1.2-1.36c-.45,0-.98.26-1.41.95l-.06-.97c.44-.61,1.15-.98,1.72-.98,1.31,0,2.23.77,2.23,2.36s-1.09,2.5-2.4,2.5c-1.49,0-2.76-1.16-2.76-3.73Z"/><path d="M26.95,152.38h-3.61v-1.17h5.12v.85c-1.79,2.22-2.1,3.81-2.23,6.78h-1.4c.13-2.71.65-4.42,2.12-6.46Z"/><path d="M29.85,157.71h1.71v-5.01h-1.41v-.87c.76-.14,1.28-.34,1.76-.63h1.03v6.51h1.5v1.13h-4.59v-1.13Z"/><path d="M35.41,157.92l.64-.88c.46.44,1.01.82,1.78.82.85,0,1.47-.54,1.47-1.46s-.57-1.42-1.41-1.42c-.48,0-.76.13-1.22.43l-.66-.42.23-3.77h4.08v1.17h-2.88l-.16,1.84c.32-.16.62-.24,1.01-.24,1.31,0,2.4.74,2.4,2.38s-1.28,2.63-2.69,2.63c-1.24,0-2.04-.49-2.6-1.06Z"/><path d="M42.17,157.71h1.71v-5.01h-1.41v-.87c.76-.14,1.28-.34,1.76-.63h1.03v6.51h1.5v1.13h-4.59v-1.13Z"/><path d="M59.23,154.99c0-2.58,1.01-3.93,2.59-3.93s2.59,1.36,2.59,3.93-1.01,3.99-2.59,3.99-2.59-1.41-2.59-3.99ZM63.09,154.99c0-2.16-.53-2.84-1.27-2.84s-1.27.69-1.27,2.84.53,2.91,1.27,2.91,1.27-.75,1.27-2.91Z"/><path d="M65.43,155.25c0-2.96,1.43-4.19,3-4.19.92,0,1.58.39,2.04.86l-.74.84c-.28-.33-.76-.58-1.22-.58-.99,0-1.8.77-1.8,3.07,0,1.89.6,2.67,1.47,2.67.63,0,1.14-.52,1.14-1.45s-.45-1.36-1.2-1.36c-.45,0-.98.26-1.41.95l-.06-.97c.44-.61,1.15-.98,1.72-.98,1.31,0,2.23.77,2.23,2.36s-1.09,2.5-2.4,2.5c-1.49,0-2.76-1.16-2.76-3.73Z"/><path d="M71.59,155.25c0-2.96,1.43-4.19,3-4.19.92,0,1.58.39,2.04.86l-.74.84c-.28-.33-.76-.58-1.22-.58-.99,0-1.8.77-1.8,3.07,0,1.89.6,2.67,1.47,2.67.63,0,1.14-.52,1.14-1.45s-.45-1.36-1.2-1.36c-.45,0-.98.26-1.41.95l-.06-.97c.44-.61,1.15-.98,1.72-.98,1.31,0,2.23.77,2.23,2.36s-1.09,2.5-2.4,2.5c-1.49,0-2.76-1.16-2.76-3.73Z"/><path d="M77.5,157.92l.64-.88c.46.44,1.01.82,1.78.82.85,0,1.47-.54,1.47-1.46s-.57-1.42-1.41-1.42c-.48,0-.76.13-1.22.43l-.66-.42.23-3.77h4.08v1.17h-2.88l-.16,1.84c.32-.16.62-.24,1.01-.24,1.31,0,2.4.74,2.4,2.38s-1.28,2.63-2.69,2.63c-1.24,0-2.04-.49-2.6-1.06Z"/><path d="M83.66,157.9l.66-.88c.46.46,1.04.83,1.81.83.83,0,1.41-.43,1.41-1.15,0-.79-.51-1.29-2.24-1.29v-1.01c1.49,0,1.98-.52,1.98-1.22,0-.64-.42-1.02-1.13-1.02-.59,0-1.06.28-1.53.72l-.71-.85c.65-.58,1.38-.96,2.3-.96,1.46,0,2.46.73,2.46,2.02,0,.85-.5,1.43-1.33,1.75v.05c.9.24,1.59.88,1.59,1.9,0,1.39-1.21,2.2-2.68,2.2-1.23,0-2.05-.47-2.59-1.08Z"/><path d="M93.66,152.38h-3.61v-1.17h5.12v.85c-1.79,2.22-2.1,3.81-2.23,6.78h-1.4c.13-2.71.65-4.42,2.12-6.46Z"/><path d="M107.48,154.99c0-2.58,1.01-3.93,2.59-3.93s2.59,1.36,2.59,3.93-1.01,3.99-2.59,3.99-2.59-1.41-2.59-3.99ZM111.34,154.99c0-2.16-.53-2.84-1.27-2.84s-1.27.69-1.27,2.84.53,2.91,1.27,2.91,1.27-.75,1.27-2.91Z"/><path d="M113.68,155.25c0-2.96,1.43-4.19,3-4.19.92,0,1.58.39,2.04.86l-.74.84c-.28-.33-.76-.58-1.22-.58-.99,0-1.8.77-1.8,3.07,0,1.89.6,2.67,1.47,2.67.63,0,1.14-.52,1.14-1.45s-.45-1.36-1.2-1.36c-.45,0-.98.26-1.41.95l-.06-.97c.44-.61,1.15-.98,1.72-.98,1.31,0,2.23.77,2.23,2.36s-1.09,2.5-2.4,2.5c-1.49,0-2.76-1.16-2.76-3.73Z"/><path d="M119.76,158.04c2.12-2.06,3.45-3.4,3.45-4.56,0-.8-.44-1.31-1.26-1.31-.59,0-1.08.39-1.49.84l-.77-.76c.7-.75,1.4-1.18,2.44-1.18,1.46,0,2.41.93,2.41,2.34s-1.26,2.75-2.78,4.34c.4-.04.91-.08,1.28-.08h1.87v1.17h-5.15v-.8Z"/><path d="M126.35,157.71h1.71v-5.01h-1.41v-.87c.76-.14,1.28-.34,1.76-.63h1.03v6.51h1.5v1.13h-4.59v-1.13Z"/><path d="M131.9,157.92l.64-.88c.46.44,1.01.82,1.78.82.85,0,1.47-.54,1.47-1.46s-.57-1.42-1.41-1.42c-.48,0-.76.13-1.22.43l-.66-.42.23-3.77h4.08v1.17h-2.88l-.16,1.84c.32-.16.62-.24,1.01-.24,1.31,0,2.4.74,2.4,2.38s-1.28,2.63-2.69,2.63c-1.24,0-2.04-.49-2.6-1.06Z"/><path d="M141.91,152.38h-3.61v-1.17h5.12v.85c-1.79,2.22-2.1,3.81-2.23,6.78h-1.4c.13-2.71.65-4.42,2.12-6.46Z"/><path d="M155.72,154.99c0-2.58,1.01-3.93,2.59-3.93s2.59,1.36,2.59,3.93-1.01,3.99-2.59,3.99-2.59-1.41-2.59-3.99ZM159.58,154.99c0-2.16-.53-2.84-1.27-2.84s-1.27.69-1.27,2.84.53,2.91,1.27,2.91,1.27-.75,1.27-2.91Z"/><path d="M161.88,154.99c0-2.58,1.01-3.93,2.59-3.93s2.59,1.36,2.59,3.93-1.01,3.99-2.59,3.99-2.59-1.41-2.59-3.99ZM165.74,154.99c0-2.16-.53-2.84-1.27-2.84s-1.27.69-1.27,2.84.53,2.91,1.27,2.91,1.27-.75,1.27-2.91Z"/><path d="M168.03,154.99c0-2.58,1.01-3.93,2.59-3.93s2.59,1.36,2.59,3.93-1.01,3.99-2.59,3.99-2.59-1.41-2.59-3.99ZM171.9,154.99c0-2.16-.53-2.84-1.27-2.84s-1.27.69-1.27,2.84.53,2.91,1.27,2.91,1.27-.75,1.27-2.91Z"/><path d="M174.59,157.71h1.71v-5.01h-1.41v-.87c.76-.14,1.28-.34,1.76-.63h1.03v6.51h1.5v1.13h-4.59v-1.13Z"/><path d="M183.44,154.08c0-.44.04-1.14.06-1.59h-.05c-.19.4-.41.78-.62,1.18l-1.39,2.13h4.25v1.07h-5.62v-.94l3.02-4.73h1.64v7.63h-1.3v-4.76Z"/><path d="M186.3,157.92l.64-.88c.46.44,1.01.82,1.78.82.85,0,1.47-.54,1.47-1.46s-.57-1.42-1.41-1.42c-.48,0-.76.13-1.22.43l-.66-.42.23-3.77h4.08v1.17h-2.88l-.16,1.84c.32-.16.62-.24,1.01-.24,1.31,0,2.4.74,2.4,2.38s-1.28,2.63-2.69,2.63c-1.24,0-2.04-.49-2.6-1.06Z"/><path d="M10.98,169.39c0-2.58,1.01-3.93,2.59-3.93s2.59,1.36,2.59,3.93-1.01,3.99-2.59,3.99-2.59-1.41-2.59-3.99ZM14.85,169.39c0-2.16-.53-2.84-1.27-2.84s-1.27.69-1.27,2.84.53,2.91,1.27,2.91,1.27-.75,1.27-2.91Z"/><path d="M17.14,169.39c0-2.58,1.01-3.93,2.59-3.93s2.59,1.36,2.59,3.93-1.01,3.99-2.59,3.99-2.59-1.41-2.59-3.99ZM21,169.39c0-2.16-.53-2.84-1.27-2.84s-1.27.69-1.27,2.84.53,2.91,1.27,2.91,1.27-.75,1.27-2.91Z"/><path d="M23.7,172.11h1.71v-5.01h-1.41v-.87c.76-.14,1.28-.34,1.76-.63h1.03v6.51h1.5v1.13h-4.59v-1.13Z"/><path d="M32.55,168.48c0-.44.04-1.14.06-1.59h-.05c-.19.4-.41.78-.62,1.18l-1.39,2.13h4.25v1.07h-5.62v-.94l3.02-4.73h1.64v7.63h-1.3v-4.76Z"/><path d="M35.61,169.39c0-2.58,1.01-3.93,2.59-3.93s2.59,1.36,2.59,3.93-1.01,3.99-2.59,3.99-2.59-1.41-2.59-3.99ZM39.47,169.39c0-2.16-.53-2.84-1.27-2.84s-1.27.69-1.27,2.84.53,2.91,1.27,2.91,1.27-.75,1.27-2.91Z"/><path d="M41.76,169.39c0-2.58,1.01-3.93,2.59-3.93s2.59,1.36,2.59,3.93-1.01,3.99-2.59,3.99-2.59-1.41-2.59-3.99ZM45.62,169.39c0-2.16-.53-2.84-1.27-2.84s-1.27.69-1.27,2.84.53,2.91,1.27,2.91,1.27-.75,1.27-2.91Z"/><path d="M57.18,169.39c0-2.58,1.01-3.93,2.59-3.93s2.59,1.36,2.59,3.93-1.01,3.99-2.59,3.99-2.59-1.41-2.59-3.99ZM61.04,169.39c0-2.16-.53-2.84-1.27-2.84s-1.27.69-1.27,2.84.53,2.91,1.27,2.91,1.27-.75,1.27-2.91Z"/><path d="M63.33,169.39c0-2.58,1.01-3.93,2.59-3.93s2.59,1.36,2.59,3.93-1.01,3.99-2.59,3.99-2.59-1.41-2.59-3.99ZM67.2,169.39c0-2.16-.53-2.84-1.27-2.84s-1.27.69-1.27,2.84.53,2.91,1.27,2.91,1.27-.75,1.27-2.91Z"/><path d="M69.49,169.39c0-2.58,1.01-3.93,2.59-3.93s2.59,1.36,2.59,3.93-1.01,3.99-2.59,3.99-2.59-1.41-2.59-3.99ZM73.35,169.39c0-2.16-.53-2.84-1.27-2.84s-1.27.69-1.27,2.84.53,2.91,1.27,2.91,1.27-.75,1.27-2.91Z"/><path d="M75.65,169.39c0-2.58,1.01-3.93,2.59-3.93s2.59,1.36,2.59,3.93-1.01,3.99-2.59,3.99-2.59-1.41-2.59-3.99ZM79.51,169.39c0-2.16-.53-2.84-1.27-2.84s-1.27.69-1.27,2.84.53,2.91,1.27,2.91,1.27-.75,1.27-2.91Z"/><path d="M82.2,172.11h1.71v-5.01h-1.41v-.87c.76-.14,1.28-.34,1.76-.63h1.03v6.51h1.5v1.13h-4.59v-1.13Z"/><path d="M87.96,169.39c0-2.58,1.01-3.93,2.59-3.93s2.59,1.36,2.59,3.93-1.01,3.99-2.59,3.99-2.59-1.41-2.59-3.99ZM91.82,169.39c0-2.16-.53-2.84-1.27-2.84s-1.27.69-1.27,2.84.53,2.91,1.27,2.91,1.27-.75,1.27-2.91Z"/><path d="M94.11,169.39c0-2.58,1.01-3.93,2.59-3.93s2.59,1.36,2.59,3.93-1.01,3.99-2.59,3.99-2.59-1.41-2.59-3.99ZM97.97,169.39c0-2.16-.53-2.84-1.27-2.84s-1.27.69-1.27,2.84.53,2.91,1.27,2.91,1.27-.75,1.27-2.91Z"/><path d="M109.53,169.39c0-2.58,1.01-3.93,2.59-3.93s2.59,1.36,2.59,3.93-1.01,3.99-2.59,3.99-2.59-1.41-2.59-3.99ZM113.39,169.39c0-2.16-.53-2.84-1.27-2.84s-1.27.69-1.27,2.84.53,2.91,1.27,2.91,1.27-.75,1.27-2.91Z"/><path d="M115.73,169.65c0-2.96,1.43-4.19,3-4.19.92,0,1.58.39,2.04.86l-.74.84c-.28-.33-.76-.58-1.22-.58-.99,0-1.8.77-1.8,3.07,0,1.89.6,2.67,1.47,2.67.63,0,1.14-.52,1.14-1.45s-.45-1.36-1.2-1.36c-.45,0-.98.26-1.41.95l-.06-.97c.44-.61,1.15-.98,1.72-.98,1.31,0,2.23.77,2.23,2.36s-1.09,2.5-2.4,2.5c-1.49,0-2.76-1.16-2.76-3.73Z"/><path d="M125.49,166.78h-3.61v-1.17h5.12v.85c-1.79,2.22-2.1,3.81-2.23,6.78h-1.4c.13-2.71.65-4.42,2.12-6.46Z"/><path d="M128.4,172.11h1.71v-5.01h-1.41v-.87c.76-.14,1.28-.34,1.76-.63h1.03v6.51h1.5v1.13h-4.59v-1.13Z"/><path d="M137.25,168.48c0-.44.04-1.14.06-1.59h-.05c-.19.4-.41.78-.62,1.18l-1.39,2.13h4.25v1.07h-5.62v-.94l3.02-4.73h1.64v7.63h-1.3v-4.76Z"/><path d="M140.11,172.32l.64-.88c.46.44,1.01.82,1.78.82.85,0,1.47-.54,1.47-1.46s-.57-1.42-1.41-1.42c-.48,0-.76.13-1.22.43l-.66-.42.23-3.77h4.08v1.17h-2.88l-.16,1.84c.32-.16.62-.24,1.01-.24,1.31,0,2.4.74,2.4,2.38s-1.28,2.63-2.69,2.63c-1.24,0-2.04-.49-2.6-1.06Z"/><path d="M155.72,169.39c0-2.58,1.01-3.93,2.59-3.93s2.59,1.36,2.59,3.93-1.01,3.99-2.59,3.99-2.59-1.41-2.59-3.99ZM159.58,169.39c0-2.16-.53-2.84-1.27-2.84s-1.27.69-1.27,2.84.53,2.91,1.27,2.91,1.27-.75,1.27-2.91Z"/><path d="M162.28,172.11h1.71v-5.01h-1.41v-.87c.76-.14,1.28-.34,1.76-.63h1.03v6.51h1.5v1.13h-4.59v-1.13Z"/><path d="M168.44,172.11h1.71v-5.01h-1.41v-.87c.76-.14,1.28-.34,1.76-.63h1.03v6.51h1.5v1.13h-4.59v-1.13Z"/><path d="M174.59,172.11h1.71v-5.01h-1.41v-.87c.76-.14,1.28-.34,1.76-.63h1.03v6.51h1.5v1.13h-4.59v-1.13Z"/><path d="M180.39,169.65c0-2.96,1.43-4.19,3-4.19.92,0,1.58.39,2.04.86l-.74.84c-.28-.33-.76-.58-1.22-.58-.99,0-1.8.77-1.8,3.07,0,1.89.6,2.67,1.47,2.67.63,0,1.14-.52,1.14-1.45s-.45-1.36-1.2-1.36c-.45,0-.98.26-1.41.95l-.06-.97c.44-.61,1.15-.98,1.72-.98,1.31,0,2.23.77,2.23,2.36s-1.09,2.5-2.4,2.5c-1.49,0-2.76-1.16-2.76-3.73Z"/><path d="M186.55,169.65c0-2.96,1.43-4.19,3-4.19.92,0,1.58.39,2.04.86l-.74.84c-.28-.33-.76-.58-1.22-.58-.99,0-1.8.77-1.8,3.07,0,1.89.6,2.67,1.47,2.67.63,0,1.14-.52,1.14-1.45s-.45-1.36-1.2-1.36c-.45,0-.98.26-1.41.95l-.06-.97c.44-.61,1.15-.98,1.72-.98,1.31,0,2.23.77,2.23,2.36s-1.09,2.5-2.4,2.5c-1.49,0-2.76-1.16-2.76-3.73Z"/><path d="M10.98,183.79c0-2.58,1.01-3.93,2.59-3.93s2.59,1.36,2.59,3.93-1.01,3.99-2.59,3.99-2.59-1.41-2.59-3.99ZM14.85,183.79c0-2.16-.53-2.84-1.27-2.84s-1.27.69-1.27,2.84.53,2.91,1.27,2.91,1.27-.75,1.27-2.91Z"/><path d="M17.19,184.05c0-2.96,1.43-4.19,3-4.19.92,0,1.58.39,2.04.86l-.74.84c-.28-.33-.76-.58-1.22-.58-.99,0-1.8.77-1.8,3.07,0,1.89.6,2.67,1.47,2.67.63,0,1.14-.52,1.14-1.45s-.45-1.36-1.2-1.36c-.45,0-.98.26-1.41.95l-.06-.97c.44-.61,1.15-.98,1.72-.98,1.31,0,2.23.77,2.23,2.36s-1.09,2.5-2.4,2.5c-1.49,0-2.76-1.16-2.76-3.73Z"/><path d="M26.39,182.88c0-.44.04-1.14.06-1.59h-.05c-.19.4-.41.78-.62,1.18l-1.39,2.13h4.25v1.07h-5.62v-.94l3.02-4.73h1.64v7.63h-1.3v-4.76Z"/><path d="M29.85,186.51h1.71v-5.01h-1.41v-.87c.76-.14,1.28-.34,1.76-.63h1.03v6.51h1.5v1.13h-4.59v-1.13Z"/><path d="M38.71,182.88c0-.44.04-1.14.06-1.59h-.05c-.19.4-.41.78-.62,1.18l-1.39,2.13h4.25v1.07h-5.62v-.94l3.02-4.73h1.64v7.63h-1.3v-4.76Z"/><path d="M41.57,186.7l.66-.88c.46.46,1.04.83,1.81.83.83,0,1.41-.43,1.41-1.15,0-.79-.51-1.29-2.24-1.29v-1.01c1.49,0,1.98-.52,1.98-1.22,0-.64-.42-1.02-1.13-1.02-.59,0-1.06.28-1.53.72l-.71-.85c.65-.58,1.38-.96,2.3-.96,1.46,0,2.46.73,2.46,2.02,0,.85-.5,1.43-1.33,1.75v.05c.9.24,1.59.88,1.59,1.9,0,1.39-1.21,2.2-2.68,2.2-1.23,0-2.05-.47-2.59-1.08Z"/><path d="M59.23,183.79c0-2.58,1.01-3.93,2.59-3.93s2.59,1.36,2.59,3.93-1.01,3.99-2.59,3.99-2.59-1.41-2.59-3.99ZM63.09,183.79c0-2.16-.53-2.84-1.27-2.84s-1.27.69-1.27,2.84.53,2.91,1.27,2.91,1.27-.75,1.27-2.91Z"/><path d="M69.04,181.18h-3.61v-1.17h5.12v.85c-1.79,2.22-2.1,3.81-2.23,6.78h-1.4c.13-2.71.65-4.42,2.12-6.46Z"/><path d="M71.54,183.79c0-2.58,1.01-3.93,2.59-3.93s2.59,1.36,2.59,3.93-1.01,3.99-2.59,3.99-2.59-1.41-2.59-3.99ZM75.4,183.79c0-2.16-.53-2.84-1.27-2.84s-1.27.69-1.27,2.84.53,2.91,1.27,2.91,1.27-.75,1.27-2.91Z"/><path d="M78.1,186.51h1.71v-5.01h-1.41v-.87c.76-.14,1.28-.34,1.76-.63h1.03v6.51h1.5v1.13h-4.59v-1.13Z"/><path d="M83.65,186.72l.64-.88c.46.44,1.01.82,1.78.82.85,0,1.47-.54,1.47-1.46s-.57-1.42-1.41-1.42c-.48,0-.76.13-1.22.43l-.66-.42.23-3.77h4.08v1.17h-2.88l-.16,1.84c.32-.16.62-.24,1.01-.24,1.31,0,2.4.74,2.4,2.38s-1.28,2.63-2.69,2.63c-1.24,0-2.04-.49-2.6-1.06Z"/><path d="M90.41,186.51h1.71v-5.01h-1.41v-.87c.76-.14,1.28-.34,1.76-.63h1.03v6.51h1.5v1.13h-4.59v-1.13Z"/><path d="M107.48,183.79c0-2.58,1.01-3.93,2.59-3.93s2.59,1.36,2.59,3.93-1.01,3.99-2.59,3.99-2.59-1.41-2.59-3.99ZM111.34,183.79c0-2.16-.53-2.84-1.27-2.84s-1.27.69-1.27,2.84.53,2.91,1.27,2.91,1.27-.75,1.27-2.91Z"/><path d="M113.68,184.05c0-2.96,1.43-4.19,3-4.19.92,0,1.58.39,2.04.86l-.74.84c-.28-.33-.76-.58-1.22-.58-.99,0-1.8.77-1.8,3.07,0,1.89.6,2.67,1.47,2.67.63,0,1.14-.52,1.14-1.45s-.45-1.36-1.2-1.36c-.45,0-.98.26-1.41.95l-.06-.97c.44-.61,1.15-.98,1.72-.98,1.31,0,2.23.77,2.23,2.36s-1.09,2.5-2.4,2.5c-1.49,0-2.76-1.16-2.76-3.73Z"/><path d="M119.76,186.84c2.12-2.06,3.45-3.4,3.45-4.56,0-.8-.44-1.31-1.26-1.31-.59,0-1.08.39-1.49.84l-.77-.76c.7-.75,1.4-1.18,2.44-1.18,1.46,0,2.41.93,2.41,2.34s-1.26,2.75-2.78,4.34c.4-.04.91-.08,1.28-.08h1.87v1.17h-5.15v-.8Z"/><path d="M126.35,186.51h1.71v-5.01h-1.41v-.87c.76-.14,1.28-.34,1.76-.63h1.03v6.51h1.5v1.13h-4.59v-1.13Z"/><path d="M131.9,186.7l.66-.88c.46.46,1.04.83,1.81.83.83,0,1.41-.43,1.41-1.15,0-.79-.51-1.29-2.24-1.29v-1.01c1.49,0,1.98-.52,1.98-1.22,0-.64-.42-1.02-1.13-1.02-.59,0-1.06.28-1.53.72l-.71-.85c.65-.58,1.38-.96,2.3-.96,1.46,0,2.46.73,2.46,2.02,0,.85-.5,1.43-1.33,1.75v.05c.9.24,1.59.88,1.59,1.9,0,1.39-1.21,2.2-2.68,2.2-1.23,0-2.05-.47-2.59-1.08Z"/><path d="M141.91,181.18h-3.61v-1.17h5.12v.85c-1.79,2.22-2.1,3.81-2.23,6.78h-1.4c.13-2.71.65-4.42,2.12-6.46Z"/><path d="M155.72,183.79c0-2.58,1.01-3.93,2.59-3.93s2.59,1.36,2.59,3.93-1.01,3.99-2.59,3.99-2.59-1.41-2.59-3.99ZM159.58,183.79c0-2.16-.53-2.84-1.27-2.84s-1.27.69-1.27,2.84.53,2.91,1.27,2.91,1.27-.75,1.27-2.91Z"/><path d="M161.93,184.05c0-2.96,1.43-4.19,3-4.19.92,0,1.58.39,2.04.86l-.74.84c-.28-.33-.76-.58-1.22-.58-.99,0-1.8.77-1.8,3.07,0,1.89.6,2.67,1.47,2.67.63,0,1.14-.52,1.14-1.45s-.45-1.36-1.2-1.36c-.45,0-.98.26-1.41.95l-.06-.97c.44-.61,1.15-.98,1.72-.98,1.31,0,2.23.77,2.23,2.36s-1.09,2.5-2.4,2.5c-1.49,0-2.76-1.16-2.76-3.73Z"/><path d="M167.84,186.7l.66-.88c.46.46,1.04.83,1.81.83.83,0,1.41-.43,1.41-1.15,0-.79-.51-1.29-2.24-1.29v-1.01c1.49,0,1.98-.52,1.98-1.22,0-.64-.42-1.02-1.13-1.02-.59,0-1.06.28-1.53.72l-.71-.85c.65-.58,1.38-.96,2.3-.96,1.46,0,2.46.73,2.46,2.02,0,.85-.5,1.43-1.33,1.75v.05c.9.24,1.59.88,1.59,1.9,0,1.39-1.21,2.2-2.68,2.2-1.23,0-2.05-.47-2.59-1.08Z"/><path d="M173.99,186.72l.64-.88c.46.44,1.01.82,1.78.82.85,0,1.47-.54,1.47-1.46s-.57-1.42-1.41-1.42c-.48,0-.76.13-1.22.43l-.66-.42.23-3.77h4.08v1.17h-2.88l-.16,1.84c.32-.16.62-.24,1.01-.24,1.31,0,2.4.74,2.4,2.38s-1.28,2.63-2.69,2.63c-1.24,0-2.04-.49-2.6-1.06Z"/><path d="M180.14,186.72l.64-.88c.46.44,1.01.82,1.78.82.85,0,1.47-.54,1.47-1.46s-.57-1.42-1.41-1.42c-.48,0-.76.13-1.22.43l-.66-.42.23-3.77h4.08v1.17h-2.88l-.16,1.84c.32-.16.62-.24,1.01-.24,1.31,0,2.4.74,2.4,2.38s-1.28,2.63-2.69,2.63c-1.24,0-2.04-.49-2.6-1.06Z"/><path d="M186.9,186.51h1.71v-5.01h-1.41v-.87c.76-.14,1.28-.34,1.76-.63h1.03v6.51h1.5v1.13h-4.59v-1.13Z"/><path d="M11,198.19c0-2.58,1.01-3.93,2.59-3.93s2.59,1.36,2.59,3.93-1.01,3.99-2.59,3.99-2.59-1.41-2.59-3.99ZM14.86,198.19c0-2.16-.53-2.84-1.27-2.84s-1.27.69-1.27,2.84.53,2.91,1.27,2.91,1.27-.75,1.27-2.91Z"/><path d="M20.8,195.58h-3.61v-1.17h5.12v.85c-1.79,2.22-2.1,3.81-2.23,6.78h-1.4c.13-2.71.65-4.42,2.12-6.46Z"/><path d="M23.28,201.24c2.12-2.06,3.45-3.4,3.45-4.56,0-.8-.44-1.31-1.26-1.31-.59,0-1.08.39-1.49.84l-.77-.76c.7-.75,1.4-1.18,2.44-1.18,1.46,0,2.41.93,2.41,2.34s-1.26,2.75-2.78,4.34c.4-.04.91-.08,1.28-.08h1.87v1.17h-5.15v-.8Z"/><path d="M29.87,200.91h1.71v-5.01h-1.41v-.87c.76-.14,1.28-.34,1.76-.63h1.03v6.51h1.5v1.13h-4.59v-1.13Z"/><path d="M35.42,201.12l.64-.88c.46.44,1.01.82,1.78.82.85,0,1.47-.54,1.47-1.46s-.57-1.42-1.41-1.42c-.48,0-.76.13-1.22.43l-.66-.42.23-3.77h4.08v1.17h-2.88l-.16,1.84c.32-.16.62-.24,1.01-.24,1.31,0,2.4.74,2.4,2.38s-1.28,2.63-2.69,2.63c-1.24,0-2.04-.49-2.6-1.06Z"/><path d="M42.18,200.91h1.71v-5.01h-1.41v-.87c.76-.14,1.28-.34,1.76-.63h1.03v6.51h1.5v1.13h-4.59v-1.13Z"/><path d="M57.18,198.19c0-2.58,1.01-3.93,2.59-3.93s2.59,1.36,2.59,3.93-1.01,3.99-2.59,3.99-2.59-1.41-2.59-3.99ZM61.04,198.19c0-2.16-.53-2.84-1.27-2.84s-1.27.69-1.27,2.84.53,2.91,1.27,2.91,1.27-.75,1.27-2.91Z"/><path d="M63.39,198.45c0-2.96,1.43-4.19,3-4.19.92,0,1.58.39,2.04.86l-.74.84c-.28-.33-.76-.58-1.22-.58-.99,0-1.8.77-1.8,3.07,0,1.89.6,2.67,1.47,2.67.63,0,1.14-.52,1.14-1.45s-.45-1.36-1.2-1.36c-.45,0-.98.26-1.41.95l-.06-.97c.44-.61,1.15-.98,1.72-.98,1.31,0,2.23.77,2.23,2.36s-1.09,2.5-2.4,2.5c-1.49,0-2.76-1.16-2.76-3.73Z"/><path d="M69.54,198.45c0-2.96,1.43-4.19,3-4.19.92,0,1.58.39,2.04.86l-.74.84c-.28-.33-.76-.58-1.22-.58-.99,0-1.8.77-1.8,3.07,0,1.89.6,2.67,1.47,2.67.63,0,1.14-.52,1.14-1.45s-.45-1.36-1.2-1.36c-.45,0-.98.26-1.41.95l-.06-.97c.44-.61,1.15-.98,1.72-.98,1.31,0,2.23.77,2.23,2.36s-1.09,2.5-2.4,2.5c-1.49,0-2.76-1.16-2.76-3.73Z"/><path d="M76.05,200.91h1.71v-5.01h-1.41v-.87c.76-.14,1.28-.34,1.76-.63h1.03v6.51h1.5v1.13h-4.59v-1.13Z"/><path d="M84.9,197.28c0-.44.04-1.14.06-1.59h-.05c-.19.4-.41.78-.62,1.18l-1.39,2.13h4.25v1.07h-5.62v-.94l3.02-4.73h1.64v7.63h-1.3v-4.76Z"/><path d="M88.36,200.91h1.71v-5.01h-1.41v-.87c.76-.14,1.28-.34,1.76-.63h1.03v6.51h1.5v1.13h-4.59v-1.13Z"/><path d="M103.37,198.19c0-2.58,1.01-3.93,2.59-3.93s2.59,1.36,2.59,3.93-1.01,3.99-2.59,3.99-2.59-1.41-2.59-3.99ZM107.23,198.19c0-2.16-.53-2.84-1.27-2.84s-1.27.69-1.27,2.84.53,2.91,1.27,2.91,1.27-.75,1.27-2.91Z"/><path d="M109.52,198.19c0-2.58,1.01-3.93,2.59-3.93s2.59,1.36,2.59,3.93-1.01,3.99-2.59,3.99-2.59-1.41-2.59-3.99ZM113.39,198.19c0-2.16-.53-2.84-1.27-2.84s-1.27.69-1.27,2.84.53,2.91,1.27,2.91,1.27-.75,1.27-2.91Z"/><path d="M115.68,198.19c0-2.58,1.01-3.93,2.59-3.93s2.59,1.36,2.59,3.93-1.01,3.99-2.59,3.99-2.59-1.41-2.59-3.99ZM119.54,198.19c0-2.16-.53-2.84-1.27-2.84s-1.27.69-1.27,2.84.53,2.91,1.27,2.91,1.27-.75,1.27-2.91Z"/><path d="M121.84,198.19c0-2.58,1.01-3.93,2.59-3.93s2.59,1.36,2.59,3.93-1.01,3.99-2.59,3.99-2.59-1.41-2.59-3.99ZM125.7,198.19c0-2.16-.53-2.84-1.27-2.84s-1.27.69-1.27,2.84.53,2.91,1.27,2.91,1.27-.75,1.27-2.91Z"/><path d="M128.4,200.91h1.71v-5.01h-1.41v-.87c.76-.14,1.28-.34,1.76-.63h1.03v6.51h1.5v1.13h-4.59v-1.13Z"/><path d="M134.12,201.24c2.12-2.06,3.45-3.4,3.45-4.56,0-.8-.44-1.31-1.26-1.31-.59,0-1.08.39-1.49.84l-.77-.76c.7-.75,1.4-1.18,2.44-1.18,1.46,0,2.41.93,2.41,2.34s-1.26,2.75-2.78,4.34c.4-.04.91-.08,1.28-.08h1.87v1.17h-5.15v-.8Z"/><path d="M140.3,198.19c0-2.58,1.01-3.93,2.59-3.93s2.59,1.36,2.59,3.93-1.01,3.99-2.59,3.99-2.59-1.41-2.59-3.99ZM144.17,198.19c0-2.16-.53-2.84-1.27-2.84s-1.27.69-1.27,2.84.53,2.91,1.27,2.91,1.27-.75,1.27-2.91Z"/><path d="M155.71,198.19c0-2.58,1.01-3.93,2.59-3.93s2.59,1.36,2.59,3.93-1.01,3.99-2.59,3.99-2.59-1.41-2.59-3.99ZM159.57,198.19c0-2.16-.53-2.84-1.27-2.84s-1.27.69-1.27,2.84.53,2.91,1.27,2.91,1.27-.75,1.27-2.91Z"/><path d="M165.52,195.58h-3.61v-1.17h5.12v.85c-1.79,2.22-2.1,3.81-2.23,6.78h-1.4c.13-2.71.65-4.42,2.12-6.46Z"/><path d="M167.83,201.1l.66-.88c.46.46,1.04.83,1.81.83.83,0,1.41-.43,1.41-1.15,0-.79-.51-1.29-2.24-1.29v-1.01c1.49,0,1.98-.52,1.98-1.22,0-.64-.42-1.02-1.13-1.02-.59,0-1.06.28-1.53.72l-.71-.85c.65-.58,1.38-.96,2.3-.96,1.46,0,2.46.73,2.46,2.02,0,.85-.5,1.43-1.33,1.75v.05c.9.24,1.59.88,1.59,1.9,0,1.39-1.21,2.2-2.68,2.2-1.23,0-2.05-.47-2.59-1.08Z"/><path d="M173.98,201.12l.64-.88c.46.44,1.01.82,1.78.82.85,0,1.47-.54,1.47-1.46s-.57-1.42-1.41-1.42c-.48,0-.76.13-1.22.43l-.66-.42.23-3.77h4.08v1.17h-2.88l-.16,1.84c.32-.16.62-.24,1.01-.24,1.31,0,2.4.74,2.4,2.38s-1.28,2.63-2.69,2.63c-1.24,0-2.04-.49-2.6-1.06Z"/><path d="M180.14,201.1l.66-.88c.46.46,1.04.83,1.81.83.83,0,1.41-.43,1.41-1.15,0-.79-.51-1.29-2.24-1.29v-1.01c1.49,0,1.98-.52,1.98-1.22,0-.64-.42-1.02-1.13-1.02-.59,0-1.06.28-1.53.72l-.71-.85c.65-.58,1.38-.96,2.3-.96,1.46,0,2.46.73,2.46,2.02,0,.85-.5,1.43-1.33,1.75v.05c.9.24,1.59.88,1.59,1.9,0,1.39-1.21,2.2-2.68,2.2-1.23,0-2.05-.47-2.59-1.08Z"/><path d="M190.14,195.58h-3.61v-1.17h5.12v.85c-1.79,2.22-2.1,3.81-2.23,6.78h-1.4c.13-2.71.65-4.42,2.12-6.46Z"/><path d="M16.28,212.59c0-2.58,1.01-3.93,2.59-3.93s2.59,1.36,2.59,3.93-1.01,3.99-2.59,3.99-2.59-1.41-2.59-3.99ZM20.14,212.59c0-2.16-.53-2.84-1.27-2.84s-1.27.69-1.27,2.84.53,2.91,1.27,2.91,1.27-.75,1.27-2.91Z"/><path d="M22.49,212.85c0-2.96,1.43-4.19,3-4.19.92,0,1.58.39,2.04.86l-.74.84c-.28-.33-.76-.58-1.22-.58-.99,0-1.8.77-1.8,3.07,0,1.89.6,2.67,1.47,2.67.63,0,1.14-.52,1.14-1.45s-.45-1.36-1.2-1.36c-.45,0-.98.26-1.41.95l-.06-.97c.44-.61,1.15-.98,1.72-.98,1.31,0,2.23.77,2.23,2.36s-1.09,2.5-2.4,2.5c-1.49,0-2.76-1.16-2.76-3.73Z"/><path d="M31.69,211.68c0-.44.04-1.14.06-1.59h-.05c-.19.4-.41.78-.62,1.18l-1.39,2.13h4.25v1.07h-5.62v-.94l3.02-4.73h1.64v7.63h-1.3v-4.76Z"/><path d="M34.55,215.52l.64-.88c.46.44,1.01.82,1.78.82.85,0,1.47-.54,1.47-1.46s-.57-1.42-1.41-1.42c-.48,0-.76.13-1.22.43l-.66-.42.23-3.77h4.08v1.17h-2.88l-.16,1.84c.32-.16.62-.24,1.01-.24,1.31,0,2.4.74,2.4,2.38s-1.28,2.63-2.69,2.63c-1.24,0-2.04-.49-2.6-1.06Z"/><path d="M40.95,212.85c0-2.96,1.43-4.19,3-4.19.92,0,1.58.39,2.04.86l-.74.84c-.28-.33-.76-.58-1.22-.58-.99,0-1.8.77-1.8,3.07,0,1.89.6,2.67,1.47,2.67.63,0,1.14-.52,1.14-1.45s-.45-1.36-1.2-1.36c-.45,0-.98.26-1.41.95l-.06-.97c.44-.61,1.15-.98,1.72-.98,1.31,0,2.23.77,2.23,2.36s-1.09,2.5-2.4,2.5c-1.49,0-2.76-1.16-2.76-3.73Z"/><path d="M47.04,215.64c2.12-2.06,3.45-3.4,3.45-4.56,0-.8-.44-1.31-1.26-1.31-.59,0-1.08.39-1.49.84l-.77-.76c.7-.75,1.4-1.18,2.44-1.18,1.46,0,2.41.93,2.41,2.34s-1.26,2.75-2.78,4.34c.4-.04.91-.08,1.28-.08h1.87v1.17h-5.15v-.8Z"/><path d="M61,212.59c0-2.58,1.01-3.93,2.59-3.93s2.59,1.36,2.59,3.93-1.01,3.99-2.59,3.99-2.59-1.41-2.59-3.99ZM64.86,212.59c0-2.16-.53-2.84-1.27-2.84s-1.27.69-1.27,2.84.53,2.91,1.27,2.91,1.27-.75,1.27-2.91Z"/><path d="M67.2,212.85c0-2.96,1.43-4.19,3-4.19.92,0,1.58.39,2.04.86l-.74.84c-.28-.33-.76-.58-1.22-.58-.99,0-1.8.77-1.8,3.07,0,1.89.6,2.67,1.47,2.67.63,0,1.14-.52,1.14-1.45s-.45-1.36-1.2-1.36c-.45,0-.98.26-1.41.95l-.06-.97c.44-.61,1.15-.98,1.72-.98,1.31,0,2.23.77,2.23,2.36s-1.09,2.5-2.4,2.5c-1.49,0-2.76-1.16-2.76-3.73Z"/><path d="M73.28,215.64c2.12-2.06,3.45-3.4,3.45-4.56,0-.8-.44-1.31-1.26-1.31-.59,0-1.08.39-1.49.84l-.77-.76c.7-.75,1.4-1.18,2.44-1.18,1.46,0,2.41.93,2.41,2.34s-1.26,2.75-2.78,4.34c.4-.04.91-.08,1.28-.08h1.87v1.17h-5.15v-.8Z"/><path d="M79.26,215.52l.64-.88c.46.44,1.01.82,1.78.82.85,0,1.47-.54,1.47-1.46s-.57-1.42-1.41-1.42c-.48,0-.76.13-1.22.43l-.66-.42.23-3.77h4.08v1.17h-2.88l-.16,1.84c.32-.16.62-.24,1.01-.24,1.31,0,2.4.74,2.4,2.38s-1.28,2.63-2.69,2.63c-1.24,0-2.04-.49-2.6-1.06Z"/><path d="M85.67,212.85c0-2.96,1.43-4.19,3-4.19.92,0,1.58.39,2.04.86l-.74.84c-.28-.33-.76-.58-1.22-.58-.99,0-1.8.77-1.8,3.07,0,1.89.6,2.67,1.47,2.67.63,0,1.14-.52,1.14-1.45s-.45-1.36-1.2-1.36c-.45,0-.98.26-1.41.95l-.06-.97c.44-.61,1.15-.98,1.72-.98,1.31,0,2.23.77,2.23,2.36s-1.09,2.5-2.4,2.5c-1.49,0-2.76-1.16-2.76-3.73Z"/><path d="M94.87,211.68c0-.44.04-1.14.06-1.59h-.05c-.19.4-.41.78-.62,1.18l-1.39,2.13h4.25v1.07h-5.62v-.94l3.02-4.73h1.64v7.63h-1.3v-4.76Z"/><path d="M105.71,212.59c0-2.58,1.01-3.93,2.59-3.93s2.59,1.36,2.59,3.93-1.01,3.99-2.59,3.99-2.59-1.41-2.59-3.99ZM109.57,212.59c0-2.16-.53-2.84-1.27-2.84s-1.27.69-1.27,2.84.53,2.91,1.27,2.91,1.27-.75,1.27-2.91Z"/><path d="M111.87,212.59c0-2.58,1.01-3.93,2.59-3.93s2.59,1.36,2.59,3.93-1.01,3.99-2.59,3.99-2.59-1.41-2.59-3.99ZM115.73,212.59c0-2.16-.53-2.84-1.27-2.84s-1.27.69-1.27,2.84.53,2.91,1.27,2.91,1.27-.75,1.27-2.91Z"/><path d="M118.02,212.59c0-2.58,1.01-3.93,2.59-3.93s2.59,1.36,2.59,3.93-1.01,3.99-2.59,3.99-2.59-1.41-2.59-3.99ZM121.88,212.59c0-2.16-.53-2.84-1.27-2.84s-1.27.69-1.27,2.84.53,2.91,1.27,2.91,1.27-.75,1.27-2.91Z"/><path d="M124.18,212.59c0-2.58,1.01-3.93,2.59-3.93s2.59,1.36,2.59,3.93-1.01,3.99-2.59,3.99-2.59-1.41-2.59-3.99ZM128.04,212.59c0-2.16-.53-2.84-1.27-2.84s-1.27.69-1.27,2.84.53,2.91,1.27,2.91,1.27-.75,1.27-2.91Z"/><path d="M130.33,212.59c0-2.58,1.01-3.93,2.59-3.93s2.59,1.36,2.59,3.93-1.01,3.99-2.59,3.99-2.59-1.41-2.59-3.99ZM134.2,212.59c0-2.16-.53-2.84-1.27-2.84s-1.27.69-1.27,2.84.53,2.91,1.27,2.91,1.27-.75,1.27-2.91Z"/><path d="M136.49,212.59c0-2.58,1.01-3.93,2.59-3.93s2.59,1.36,2.59,3.93-1.01,3.99-2.59,3.99-2.59-1.41-2.59-3.99ZM140.35,212.59c0-2.16-.53-2.84-1.27-2.84s-1.27.69-1.27,2.84.53,2.91,1.27,2.91,1.27-.75,1.27-2.91Z"/><path d="M150.42,212.59c0-2.58,1.01-3.93,2.59-3.93s2.59,1.36,2.59,3.93-1.01,3.99-2.59,3.99-2.59-1.41-2.59-3.99ZM154.29,212.59c0-2.16-.53-2.84-1.27-2.84s-1.27.69-1.27,2.84.53,2.91,1.27,2.91,1.27-.75,1.27-2.91Z"/><path d="M156.58,212.59c0-2.58,1.01-3.93,2.59-3.93s2.59,1.36,2.59,3.93-1.01,3.99-2.59,3.99-2.59-1.41-2.59-3.99ZM160.44,212.59c0-2.16-.53-2.84-1.27-2.84s-1.27.69-1.27,2.84.53,2.91,1.27,2.91,1.27-.75,1.27-2.91Z"/><path d="M163.14,215.31h1.71v-5.01h-1.41v-.87c.76-.14,1.28-.34,1.76-.63h1.03v6.51h1.5v1.13h-4.59v-1.13Z"/><path d="M171.99,211.68c0-.44.04-1.14.06-1.59h-.05c-.19.4-.41.78-.62,1.18l-1.39,2.13h4.25v1.07h-5.62v-.94l3.02-4.73h1.64v7.63h-1.3v-4.76Z"/><path d="M175.05,212.59c0-2.58,1.01-3.93,2.59-3.93s2.59,1.36,2.59,3.93-1.01,3.99-2.59,3.99-2.59-1.41-2.59-3.99ZM178.91,212.59c0-2.16-.53-2.84-1.27-2.84s-1.27.69-1.27,2.84.53,2.91,1.27,2.91,1.27-.75,1.27-2.91Z"/><path d="M181.01,215.5l.66-.88c.46.46,1.04.83,1.81.83.83,0,1.41-.43,1.41-1.15,0-.79-.51-1.29-2.24-1.29v-1.01c1.49,0,1.98-.52,1.98-1.22,0-.64-.42-1.02-1.13-1.02-.59,0-1.06.28-1.53.72l-.71-.85c.65-.58,1.38-.96,2.3-.96,1.46,0,2.46.73,2.46,2.02,0,.85-.5,1.43-1.33,1.75v.05c.9.24,1.59.88,1.59,1.9,0,1.39-1.21,2.2-2.68,2.2-1.23,0-2.05-.47-2.59-1.08Z"/><path d="M30.92,3.16h2.36l2.08,5.75c.26.75.5,1.54.76,2.31h.07c.26-.77.48-1.56.74-2.31l2.04-5.75h2.36v11.78h-1.92v-5.39c0-1.09.17-2.65.27-3.75h-.07l-.95,2.74-1.94,5.29h-1.24l-1.94-5.29-.94-2.74h-.07c.1,1.09.27,2.66.27,3.75v5.39h-1.88V3.16Z"/><path d="M43.67,12.56c0-1.89,1.57-2.88,5.2-3.27-.03-.95-.41-1.74-1.61-1.74-.88,0-1.71.4-2.48.87l-.76-1.38c.97-.61,2.23-1.16,3.63-1.16,2.21,0,3.3,1.36,3.3,3.82v5.24h-1.7l-.16-.98h-.06c-.79.68-1.7,1.2-2.74,1.2-1.55,0-2.61-1.05-2.61-2.59ZM48.87,12.57v-1.99c-2.4.3-3.2.93-3.2,1.82,0,.78.53,1.12,1.27,1.12s1.27-.35,1.92-.96Z"/><path d="M52.85,10.52c0-2.95,2.08-4.65,4.44-4.65,1.12,0,1.94.43,2.59.99l-1.01,1.35c-.47-.41-.91-.65-1.47-.65-1.43,0-2.41,1.18-2.41,2.95s.97,2.94,2.35,2.94c.69,0,1.33-.34,1.83-.76l.84,1.37c-.83.73-1.88,1.09-2.89,1.09-2.41,0-4.26-1.7-4.26-4.63Z"/><path d="M61.75,2.22h2.07v3.29l-.09,1.71c.74-.7,1.62-1.34,2.83-1.34,1.89,0,2.72,1.28,2.72,3.51v5.55h-2.07v-5.28c0-1.45-.42-2-1.38-2-.78,0-1.29.38-2.02,1.1v6.18h-2.07V2.22Z"/><path d="M71.56,3.37c0-.7.55-1.17,1.28-1.17s1.28.48,1.28,1.17-.55,1.17-1.28,1.17-1.28-.49-1.28-1.17ZM71.79,6.1h2.07v8.84h-2.07V6.1Z"/><path d="M76.51,6.1h1.7l.16,1.2h.06c.79-.77,1.69-1.41,2.9-1.41,1.89,0,2.72,1.28,2.72,3.51v5.55h-2.07v-5.28c0-1.45-.42-2-1.38-2-.78,0-1.29.38-2.02,1.1v6.18h-2.07V6.1Z"/><path d="M86.01,10.52c0-2.87,1.99-4.65,4.08-4.65,2.39,0,3.65,1.73,3.65,4.2,0,.4-.04.79-.09,1.01h-5.61c.17,1.57,1.18,2.46,2.61,2.46.76,0,1.4-.24,2.05-.64l.71,1.29c-.84.57-1.91.96-3.03.96-2.44,0-4.36-1.71-4.36-4.63ZM91.94,9.68c0-1.36-.61-2.19-1.82-2.19-1.03,0-1.94.77-2.12,2.19h3.93Z"/><path d="M99.5,3.16h2.09v10.02h4.89v1.76h-6.98V3.16Z"/><path d="M107.88,12.56c0-1.89,1.57-2.88,5.2-3.27-.03-.95-.41-1.74-1.61-1.74-.88,0-1.71.4-2.48.87l-.76-1.38c.97-.61,2.23-1.16,3.63-1.16,2.21,0,3.3,1.36,3.3,3.82v5.24h-1.7l-.16-.98h-.06c-.79.68-1.7,1.2-2.74,1.2-1.55,0-2.61-1.05-2.61-2.59ZM113.08,12.57v-1.99c-2.4.3-3.2.93-3.2,1.82,0,.78.53,1.12,1.27,1.12s1.27-.35,1.92-.96Z"/><path d="M117.64,6.1h1.7l.16,1.2h.06c.79-.77,1.69-1.41,2.9-1.41,1.89,0,2.72,1.28,2.72,3.51v5.55h-2.07v-5.28c0-1.45-.42-2-1.38-2-.78,0-1.29.38-2.02,1.1v6.18h-2.07V6.1Z"/><path d="M127.11,16.55c0-.75.46-1.4,1.27-1.89v-.07c-.45-.3-.8-.76-.8-1.48s.47-1.29.98-1.65v-.07c-.6-.45-1.17-1.29-1.17-2.33,0-2.03,1.64-3.18,3.49-3.18.49,0,.95.09,1.31.22h3.16v1.54h-1.61c.29.33.5.88.5,1.48,0,1.97-1.49,3.02-3.36,3.02-.37,0-.8-.08-1.2-.23-.27.23-.43.45-.43.85,0,.5.36.8,1.43.8h1.57c2.11,0,3.24.66,3.24,2.18,0,1.74-1.83,3.12-4.72,3.12-2.11,0-3.68-.76-3.68-2.3ZM133.51,16.07c0-.68-.55-.89-1.56-.89h-1.21c-.48,0-.86-.04-1.2-.12-.48.36-.68.76-.68,1.17,0,.81.86,1.27,2.25,1.27s2.4-.67,2.4-1.43ZM132.43,9.06c0-1.11-.67-1.74-1.53-1.74s-1.53.63-1.53,1.74.68,1.78,1.53,1.78,1.53-.66,1.53-1.78Z"/><path d="M136.98,11.64v-5.55h2.07v5.28c0,1.45.42,2,1.38,2,.78,0,1.29-.36,1.96-1.22v-6.06h2.07v8.84h-1.7l-.16-1.3h-.06c-.78.92-1.64,1.52-2.85,1.52-1.89,0-2.72-1.28-2.72-3.51Z"/><path d="M146.61,12.56c0-1.89,1.57-2.88,5.2-3.27-.03-.95-.41-1.74-1.61-1.74-.88,0-1.71.4-2.48.87l-.76-1.38c.97-.61,2.23-1.16,3.63-1.16,2.21,0,3.3,1.36,3.3,3.82v5.24h-1.7l-.16-.98h-.06c-.79.68-1.7,1.2-2.74,1.2-1.55,0-2.61-1.05-2.61-2.59ZM151.81,12.57v-1.99c-2.4.3-3.2.93-3.2,1.82,0,.78.53,1.12,1.27,1.12s1.27-.35,1.92-.96Z"/><path d="M155.77,16.55c0-.75.46-1.4,1.27-1.89v-.07c-.45-.3-.8-.76-.8-1.48s.47-1.29.98-1.65v-.07c-.6-.45-1.17-1.29-1.17-2.33,0-2.03,1.64-3.18,3.49-3.18.49,0,.95.09,1.31.22h3.16v1.54h-1.61c.29.33.5.88.5,1.48,0,1.97-1.49,3.02-3.36,3.02-.37,0-.8-.08-1.2-.23-.27.23-.43.45-.43.85,0,.5.36.8,1.43.8h1.57c2.11,0,3.24.66,3.24,2.18,0,1.74-1.83,3.12-4.72,3.12-2.11,0-3.68-.76-3.68-2.3ZM162.17,16.07c0-.68-.55-.89-1.56-.89h-1.21c-.48,0-.86-.04-1.2-.12-.48.36-.68.76-.68,1.17,0,.81.86,1.27,2.25,1.27s2.4-.67,2.4-1.43ZM161.09,9.06c0-1.11-.67-1.74-1.53-1.74s-1.53.63-1.53,1.74.68,1.78,1.53,1.78,1.53-.66,1.53-1.78Z"/><path d="M164.86,10.52c0-2.87,2-4.65,4.08-4.65,2.39,0,3.65,1.73,3.65,4.2,0,.4-.04.79-.09,1.01h-5.61c.17,1.57,1.18,2.46,2.61,2.46.76,0,1.4-.24,2.05-.64l.71,1.29c-.84.57-1.91.96-3.03.96-2.44,0-4.36-1.71-4.36-4.63ZM170.8,9.68c0-1.36-.6-2.19-1.81-2.19-1.03,0-1.94.77-2.12,2.19h3.93Z"/></g></svg>