<?xml version="1.0" encoding="UTF-8"?><svg id="b" xmlns="http://www.w3.org/2000/svg" xmlns:xlink="http://www.w3.org/1999/xlink" viewBox="0 0 509.99 116.65"><defs><style>.e{fill:#4468b1;}.e,.f,.g{fill-rule:evenodd;}.h{fill:url(#d);}.f{fill:#ec2026;}.i{fill:#010101;}.g{fill:none;stroke:#010101;stroke-miterlimit:10;stroke-width:.5px;}</style><linearGradient id="d" x1="6.59" y1="50.15" x2="503.01" y2="50.15" gradientUnits="userSpaceOnUse"><stop offset="0" stop-color="#eb2428"/><stop offset=".6" stop-color="#fff"/><stop offset="1" stop-color="#4468b1"/></linearGradient></defs><g id="c"><rect class="h" x="6.59" y="48.2" width="496.42" height="3.91"/><polygon class="f" points="60.24 56.13 55.23 64.81 65.26 64.81 60.24 56.13"/><polygon class="f" points="157.74 56.13 152.73 64.81 162.75 64.81 157.74 56.13"/><polygon class="f" points="6.99 34.57 13.99 22.45 0 22.45 6.99 34.57"/><polygon class="e" points="502.99 34.57 509.99 22.45 496 22.45 502.99 34.57"/><path class="i" d="M49.9,78.81h-3.46v-.42c.32,0,.56-.03.7-.08s.24-.16.28-.32c.04-.16.06-.39.06-.71v-4.15c0-.29-.02-.52-.06-.68-.04-.16-.13-.28-.28-.35-.15-.07-.38-.1-.7-.1v-.42h3.49v.42c-.33,0-.57.04-.72.1-.15.07-.24.19-.27.35-.03.17-.05.39-.05.68v4.15c0,.31.02.54.06.7.04.16.13.27.27.32.14.06.37.08.69.08v.42Z"/><path class="i" d="M53.88,78.81h-3.19v-.42c.31,0,.54-.02.69-.07.15-.05.25-.15.29-.3.04-.15.07-.37.07-.67v-4.42c0-.27-.03-.47-.1-.6-.07-.13-.17-.21-.32-.25-.15-.04-.36-.06-.62-.06v-.44h3.11c.56,0,1.09.05,1.61.16.51.11.97.29,1.37.55.4.26.71.62.95,1.07.23.45.35,1.03.35,1.74s-.1,1.27-.31,1.74c-.21.47-.5.85-.88,1.14-.38.29-.83.5-1.34.63s-1.06.19-1.66.19ZM53.69,78.26c.59,0,1.1-.08,1.53-.25.42-.17.75-.47.98-.91.23-.44.34-1.06.34-1.89,0-.99-.24-1.75-.71-2.28-.48-.53-1.22-.79-2.22-.79h-.21c-.07,0-.16,0-.26.01v6.08c.09,0,.19.01.29.02.09,0,.19,0,.27,0Z"/><path class="i" d="M62.52,78.81h-3.51v-.42c.28,0,.49-.02.63-.07.14-.04.24-.14.29-.29.05-.15.08-.37.08-.68v-4.51c0-.22-.02-.39-.07-.51-.04-.12-.14-.21-.28-.26-.14-.05-.36-.08-.65-.08v-.42h3.26c.53,0,1.01.06,1.45.17.44.11.78.3,1.04.57.26.27.38.64.38,1.11,0,.4-.09.73-.26.98-.17.25-.39.45-.66.59-.27.14-.56.25-.86.32v.06c.12.07.25.19.39.36.14.17.33.42.57.75.24.33.55.78.95,1.35.18.24.35.4.52.46.17.07.38.1.63.1v.42h-2.24c-.26-.45-.48-.82-.66-1.11s-.33-.54-.45-.73-.24-.37-.33-.53c-.1-.16-.2-.32-.31-.49-.1-.17-.2-.27-.3-.31-.09-.04-.24-.06-.43-.06h-.25v1.79c0,.29.03.52.08.67.05.15.15.25.31.29.15.04.39.07.7.07v.42ZM61.43,75.08h.42c.38-.01.71-.07.97-.18.27-.1.47-.27.62-.5.14-.23.21-.54.21-.94,0-.43-.12-.76-.36-1.02s-.63-.38-1.18-.38c-.12,0-.23,0-.35,0-.11,0-.23.01-.34.03v2.97Z"/><path class="i" d="M68.79,78.81h-2.44v-.42c.2,0,.36-.03.48-.09.12-.06.23-.18.34-.35.11-.17.23-.42.37-.75l2.37-5.67h.89l2.46,5.84c.15.35.31.61.47.78.16.17.37.25.63.25v.42h-3.31v-.42c.1,0,.2,0,.3-.02s.2-.05.27-.1.11-.14.11-.25c0-.08-.02-.19-.06-.34-.04-.14-.09-.29-.15-.45l-.36-.91-.09-.26-1.11-2.99h-.04l-1.21,2.99-.08.26-.44,1.07c-.03.1-.06.2-.09.3-.03.11-.05.21-.05.3,0,.17.06.28.17.32.11.05.31.07.58.07v.42ZM71.34,76.45h-2.92l.19-.53h2.54l.19.53Z"/><path class="i" d="M131.51,78.93h-6.15v-.42c.27,0,.48-.02.63-.06.15-.04.26-.13.32-.26.06-.13.09-.34.09-.62v-4.44c0-.28-.02-.49-.07-.63-.05-.14-.15-.24-.3-.29-.15-.05-.38-.08-.68-.08v-.43h6.04l.07,1.93h-.48c-.05-.34-.13-.61-.23-.8-.1-.19-.26-.32-.47-.4-.22-.07-.54-.11-.96-.11h-1.52v2.63h1.1c.35,0,.61-.02.79-.07.17-.04.29-.14.34-.28.05-.14.08-.36.08-.64h.45v2.54h-.45c0-.31-.03-.53-.08-.68-.06-.14-.17-.23-.34-.27-.17-.04-.43-.06-.79-.06h-1.1v2.84h1.34c.39,0,.7-.02.95-.06.24-.04.44-.12.58-.23.15-.11.27-.26.36-.46.1-.2.19-.45.29-.77h.46l-.27,2.12Z"/><path class="i" d="M135.67,78.93h-3.19v-.42c.31,0,.54-.02.69-.07.15-.05.25-.15.29-.3.04-.15.07-.37.07-.67v-4.42c0-.27-.03-.47-.1-.6-.07-.13-.17-.21-.32-.25-.15-.04-.36-.06-.62-.06v-.44h3.11c.56,0,1.09.05,1.61.16.51.11.97.29,1.37.55.4.26.71.62.95,1.07.23.45.35,1.03.35,1.74s-.1,1.27-.31,1.74c-.21.47-.5.85-.88,1.14-.38.29-.83.5-1.34.63s-1.06.19-1.66.19ZM135.48,78.38c.59,0,1.1-.08,1.53-.25.42-.17.75-.47.98-.91.23-.44.34-1.06.34-1.89,0-.99-.24-1.75-.71-2.28-.48-.53-1.22-.79-2.22-.79h-.21c-.07,0-.16,0-.26.01v6.08c.09,0,.19.01.29.02.09,0,.19,0,.27,0Z"/><path class="i" d="M144.14,79.01h-.71l-2.32-5.76c-.16-.42-.32-.7-.47-.86-.15-.15-.36-.24-.63-.26v-.42h3.2v.42c-.28,0-.47.03-.57.09-.1.06-.15.15-.15.26,0,.14.04.33.13.56l1.24,3.08.31.89h.07l1.28-3.2.5,1.09h-.28l-1.59,4.11ZM148.1,79.01h-.76l-1.66-4.42-.14-.37-.36-1.03c-.11-.32-.21-.56-.3-.7-.09-.15-.19-.24-.31-.29-.12-.04-.28-.07-.48-.07v-.42h3.22v.42c-.55,0-.83.14-.83.41,0,.09.02.19.06.29.04.11.08.22.12.34l1.08,2.87.31.97h.07l1.18-3.53s.04-.11.07-.2.06-.19.08-.3c.02-.11.03-.21.03-.31,0-.22-.07-.36-.2-.43-.14-.07-.32-.1-.54-.1v-.42h2.4v.42c-.26,0-.45.07-.57.18-.12.11-.24.31-.34.59l-2.1,6.12Z"/><path class="i" d="M152.45,78.93h-2.44v-.42c.2,0,.36-.03.48-.09.12-.06.23-.18.34-.35.11-.17.23-.42.37-.75l2.37-5.67h.89l2.46,5.84c.15.35.31.61.47.78.16.17.37.25.63.25v.42h-3.31v-.42c.1,0,.2,0,.3-.02s.2-.05.27-.1.11-.14.11-.25c0-.08-.02-.19-.06-.34-.04-.14-.09-.29-.15-.45l-.36-.91-.09-.26-1.11-2.99h-.04l-1.21,2.99-.08.26-.44,1.07c-.03.1-.06.2-.09.3-.03.11-.05.21-.05.3,0,.17.06.28.17.32.11.05.31.07.58.07v.42ZM155,76.57h-2.92l.19-.53h2.54l.19.53Z"/><path class="i" d="M162.03,78.93h-3.51v-.42c.28,0,.49-.02.63-.07.14-.04.24-.14.29-.29.05-.15.08-.37.08-.68v-4.51c0-.22-.02-.39-.07-.51-.04-.12-.14-.21-.28-.26-.14-.05-.36-.08-.65-.08v-.42h3.26c.53,0,1.01.06,1.45.17.44.11.78.3,1.04.57.26.27.38.64.38,1.11,0,.4-.09.73-.26.98-.17.25-.39.45-.66.59-.27.14-.56.25-.86.32v.06c.12.07.25.19.39.36.14.17.33.42.57.75.24.33.55.78.95,1.35.18.24.35.4.52.46.17.07.38.1.63.1v.42h-2.24c-.26-.45-.48-.82-.66-1.11s-.33-.54-.45-.73-.24-.37-.33-.53c-.1-.16-.2-.32-.31-.49-.1-.17-.2-.27-.3-.31-.09-.04-.24-.06-.43-.06h-.25v1.79c0,.29.03.52.08.67.05.15.15.25.31.29.15.04.39.07.7.07v.42ZM160.94,75.2h.42c.38-.01.71-.07.97-.18.27-.1.47-.27.62-.5.14-.23.21-.54.21-.94,0-.43-.12-.76-.36-1.02s-.63-.38-1.18-.38c-.12,0-.23,0-.35,0-.11,0-.23.01-.34.03v2.97Z"/><path class="i" d="M169.41,78.93h-3.19v-.42c.31,0,.54-.02.69-.07.15-.05.25-.15.29-.3.04-.15.07-.37.07-.67v-4.42c0-.27-.03-.47-.1-.6-.07-.13-.17-.21-.32-.25-.15-.04-.36-.06-.62-.06v-.44h3.11c.56,0,1.09.05,1.61.16.51.11.97.29,1.37.55.4.26.71.62.95,1.07.23.45.35,1.03.35,1.74s-.1,1.27-.31,1.74c-.21.47-.5.85-.88,1.14-.38.29-.83.5-1.34.63s-1.06.19-1.66.19ZM169.22,78.38c.59,0,1.1-.08,1.53-.25.42-.17.75-.47.98-.91.23-.44.34-1.06.34-1.89,0-.99-.24-1.75-.71-2.28-.48-.53-1.22-.79-2.22-.79h-.21c-.07,0-.16,0-.26.01v6.08c.09,0,.19.01.29.02.09,0,.19,0,.27,0Z"/><path class="i" d="M181.63,78.93h-4.3v-.41c.52,0,.89-.05,1.12-.16.22-.11.34-.3.34-.57v-4.41c0-.19-.03-.33-.08-.41-.05-.08-.15-.13-.29-.13-.07,0-.18,0-.31.02-.14.01-.28.03-.43.05-.15.02-.29.05-.41.08v-.47l2.33-.6h.57v5.88c0,.27.12.46.35.57.23.11.6.16,1.11.16v.41Z"/><path class="i" d="M183.6,79.03c-.26,0-.45-.07-.58-.21-.13-.14-.2-.32-.2-.54,0-.23.07-.42.2-.57s.33-.21.59-.21.44.07.58.22c.14.15.2.33.2.56s-.07.4-.2.54c-.14.14-.33.21-.59.21Z"/><path class="i" d="M187.79,79.05c-.45,0-.83-.09-1.14-.28-.31-.19-.56-.45-.75-.78s-.33-.72-.42-1.16-.13-.91-.13-1.42c0-.73.09-1.35.28-1.89.19-.53.46-.94.83-1.23.37-.29.82-.43,1.35-.43.48,0,.9.14,1.26.41.36.27.64.67.85,1.2.2.53.3,1.19.3,1.96,0,.49-.05.96-.14,1.39-.09.44-.23.82-.43,1.16s-.45.59-.75.78c-.31.19-.68.28-1.11.28ZM187.78,78.59c.32,0,.56-.25.74-.76s.26-1.28.26-2.32c0-1.09-.08-1.9-.25-2.42-.17-.52-.42-.78-.76-.78-.32,0-.56.26-.73.78-.17.52-.26,1.31-.26,2.38s.09,1.82.26,2.34c.17.52.42.78.74.78Z"/><path class="g" d="M6.48,84.36s0,4.58,7.58,4.58c7.57,0,79.43,0,82.57,0s5.91,4.08,5.91,4.08c0,0,2.77-4.08,5.91-4.08s74.99,0,82.57,0,7.58-4.58,7.58-4.58"/><path class="i" d="M2.36,6.63H.18v-.29c.18,0,.31-.02.39-.05.08-.03.13-.09.16-.18.02-.09.03-.2.03-.34V1.84c0-.16-.04-.26-.11-.29-.07-.03-.16-.05-.26-.05-.07,0-.15,0-.26.02v-.29l1.18-.26h.41v4.78c0,.15.01.27.04.35.02.09.08.14.17.18.09.03.23.05.42.05v.29Z"/><path class="i" d="M4.63,6.71c-.6,0-1.07-.17-1.39-.5s-.49-.83-.49-1.51c0-.38.07-.71.21-1.01.14-.29.35-.52.64-.69.28-.17.63-.25,1.05-.25.61,0,1.07.17,1.39.51.32.34.48.8.48,1.38,0,.45-.08.83-.23,1.14-.15.31-.37.54-.64.7-.28.16-.61.24-1.01.24ZM4.66,6.34c.19,0,.35-.06.47-.17s.21-.29.26-.53c.06-.24.08-.56.08-.95,0-.5-.07-.89-.21-1.17-.14-.28-.36-.42-.67-.42-.27,0-.47.13-.6.4-.13.26-.2.64-.2,1.12,0,.6.07,1.04.22,1.32.14.28.36.42.65.41Z"/><path class="i" d="M10.26,5.34l.19.12c-.11.23-.23.44-.36.63-.14.19-.31.34-.52.46s-.48.17-.81.17c-.36,0-.67-.08-.92-.23-.26-.15-.46-.37-.6-.65-.14-.28-.21-.62-.21-1.02s.07-.77.22-1.08c.14-.31.36-.56.65-.73s.65-.26,1.08-.26.77.08,1.01.25c.24.17.36.38.36.62,0,.15-.05.27-.14.35-.09.08-.21.12-.35.12s-.24-.03-.31-.1c-.07-.07-.12-.15-.16-.25s-.08-.2-.12-.29c-.04-.1-.1-.18-.17-.24-.07-.07-.18-.1-.32-.1-.28,0-.48.11-.62.34-.13.23-.2.56-.2,1,0,.47.08.84.25,1.11.17.27.46.4.88.4.27,0,.49-.05.66-.15.17-.1.33-.25.49-.46Z"/><path class="i" d="M11.85,6.71c-.3,0-.54-.08-.72-.23-.18-.15-.27-.38-.27-.68,0-.22.05-.4.14-.55.1-.15.22-.27.38-.38.16-.1.33-.19.52-.26s.38-.13.56-.18c.18-.05.35-.09.49-.14v-.37c0-.35-.04-.58-.13-.7-.09-.12-.24-.18-.44-.18-.19,0-.31.04-.37.12-.06.08-.09.24-.09.47,0,.16-.04.28-.14.35s-.2.11-.33.11c-.1,0-.2-.04-.29-.12s-.14-.2-.14-.36.06-.31.18-.44.29-.24.51-.33c.22-.09.48-.13.78-.13.48,0,.84.1,1.07.3.23.2.35.51.35.94v1.77c0,.16.02.26.06.31.04.05.1.07.19.07.06,0,.13-.02.2-.06s.13-.09.18-.15l.16.16c-.13.19-.27.34-.42.45-.15.11-.35.16-.62.16-.25,0-.42-.05-.5-.14-.08-.1-.14-.25-.16-.46l-.05-.14v-1.35c-.22.06-.41.13-.58.21-.17.08-.3.17-.39.29-.09.12-.14.28-.14.49,0,.2.04.35.12.44.08.1.19.15.32.15.13,0,.25-.03.36-.09.11-.06.24-.16.39-.3l.06.39h-.11c-.12.11-.24.2-.34.28-.11.08-.22.14-.34.18-.12.04-.27.06-.45.06Z"/><path class="i" d="M17.02,6.63h-2.18v-.29c.18,0,.31-.02.39-.05.08-.03.13-.09.16-.18.02-.09.03-.2.03-.34V1.84c0-.16-.04-.26-.11-.29-.07-.03-.16-.05-.26-.05-.07,0-.15,0-.26.02v-.29l1.18-.26h.41v4.78c0,.15.01.27.04.35.02.09.08.14.17.18.09.03.23.05.42.05v.29Z"/><path class="i" d="M21.17,6.71c-.6,0-1.07-.17-1.39-.5s-.49-.83-.49-1.51c0-.38.07-.71.21-1.01.14-.29.35-.52.64-.69.28-.17.63-.25,1.05-.25.61,0,1.07.17,1.39.51.32.34.48.8.48,1.38,0,.45-.08.83-.23,1.14-.15.31-.37.54-.64.7-.28.16-.61.24-1.01.24ZM21.2,6.34c.19,0,.35-.06.47-.17s.21-.29.26-.53c.06-.24.08-.56.08-.95,0-.5-.07-.89-.21-1.17-.14-.28-.36-.42-.67-.42-.27,0-.47.13-.6.4-.13.26-.2.64-.2,1.12,0,.6.07,1.04.22,1.32.14.28.36.42.65.41Z"/><path class="i" d="M25.64,6.63h-2.1v-.29c.18,0,.3-.02.38-.05.08-.03.13-.09.14-.18s.03-.2.03-.34v-2.13c0-.14-.03-.24-.08-.28-.06-.05-.14-.07-.24-.07-.07,0-.14,0-.22.02v-.3l1.15-.23h.34v.76s.02.19.02.19v2.04c0,.14.01.26.03.34.02.09.07.15.16.18.08.03.21.05.4.05v.29ZM28.12,6.63h-2.09v-.29c.18,0,.3-.02.38-.05.08-.03.13-.09.14-.18.02-.08.03-.2.03-.35v-1.32c0-.28-.03-.49-.08-.64-.06-.15-.13-.25-.24-.3s-.22-.08-.36-.08-.25.02-.36.07c-.11.05-.2.11-.29.18-.09.07-.18.14-.27.22l-.05-.46h.13c.21-.2.42-.37.6-.49.19-.13.41-.19.65-.19.4,0,.71.13.92.38s.32.63.32,1.13v1.5c0,.14.01.26.04.34.03.09.08.15.16.18.08.03.2.05.36.05v.29Z"/><path class="i" d="M30.63,6.63h-2.18v-.29c.18,0,.31-.02.39-.05.08-.03.13-.09.16-.18.02-.09.03-.2.03-.34V1.84c0-.16-.04-.26-.11-.29-.07-.03-.16-.05-.26-.05-.07,0-.15,0-.26.02v-.29l1.18-.26h.41v4.78c0,.15.01.27.04.35.02.09.08.14.17.18.09.03.23.05.42.05v.29Z"/><path class="i" d="M33.1,6.63h-2.16v-.29c.18,0,.31-.01.39-.04s.13-.09.16-.17c.03-.09.04-.2.04-.35v-2.11c0-.18-.04-.28-.1-.32s-.16-.06-.28-.06c-.05,0-.12,0-.21.02v-.3l1.13-.22h.43v2.98c0,.15.01.27.04.36.03.09.08.14.17.18.08.03.22.05.39.05v.29ZM32.01,2.22c-.18,0-.32-.05-.42-.16-.1-.1-.16-.24-.16-.4s.05-.29.15-.4c.1-.11.24-.16.42-.16s.33.05.43.16.15.24.15.4-.05.3-.15.4-.24.16-.43.16Z"/><path class="i" d="M35.59,6.63h-2.1v-.29c.18,0,.3-.02.38-.05.08-.03.13-.09.14-.18s.03-.2.03-.34v-2.13c0-.14-.03-.24-.08-.28-.06-.05-.14-.07-.24-.07-.07,0-.14,0-.22.02v-.3l1.15-.23h.34v.76s.02.19.02.19v2.04c0,.14.01.26.03.34.02.09.07.15.16.18.08.03.21.05.4.05v.29ZM38.07,6.63h-2.09v-.29c.18,0,.3-.02.38-.05.08-.03.13-.09.14-.18.02-.08.03-.2.03-.35v-1.32c0-.28-.03-.49-.08-.64-.06-.15-.13-.25-.24-.3s-.22-.08-.36-.08-.25.02-.36.07c-.11.05-.2.11-.29.18-.09.07-.18.14-.27.22l-.05-.46h.13c.21-.2.42-.37.6-.49.19-.13.41-.19.65-.19.4,0,.71.13.92.38s.32.63.32,1.13v1.5c0,.14.01.26.04.34.03.09.08.15.16.18.08.03.2.05.36.05v.29Z"/><path class="i" d="M40.26,6.72c-.37,0-.68-.08-.95-.23-.26-.15-.47-.37-.61-.67-.14-.29-.22-.65-.22-1.07,0-.46.08-.83.25-1.13.17-.29.39-.51.67-.66.28-.14.59-.22.92-.22.48,0,.87.15,1.16.46s.45.75.46,1.34h-2.55v-.35s1.48,0,1.48,0c0-.21-.02-.4-.07-.56-.05-.17-.12-.3-.21-.4-.09-.1-.22-.14-.38-.14-.27,0-.47.11-.58.34-.12.22-.17.57-.17,1.02,0,.36.05.65.14.86s.23.38.4.48c.17.1.37.15.6.15.21,0,.39-.02.53-.07.14-.05.26-.12.37-.2.1-.09.2-.19.28-.29l.19.13c-.08.15-.17.3-.26.45-.09.14-.2.27-.33.38-.12.11-.28.2-.46.27-.18.07-.4.1-.66.1Z"/><path class="i" d="M1.62,16.3c-.3,0-.55-.08-.76-.25-.21-.17-.36-.39-.46-.66-.1-.28-.15-.59-.15-.93,0-.47.08-.87.25-1.18.17-.31.39-.54.66-.7s.58-.23.92-.23c.13,0,.26.01.38.04s.26.08.38.14h.02v-.97c0-.18-.02-.29-.06-.34-.04-.05-.14-.08-.29-.08-.04,0-.11,0-.22,0v-.3l1.18-.28h.36v4.76c0,.2.03.33.1.4.06.06.17.09.32.09h.17v.29l-1.29.15h-.24v-.53h-.03c-.15.13-.33.26-.53.38s-.44.18-.71.18ZM2.09,15.67c.17,0,.3-.03.42-.08.11-.05.23-.12.37-.21v-2c-.03-.15-.11-.3-.22-.42-.12-.13-.29-.19-.52-.19-.25,0-.45.12-.6.35-.15.23-.23.59-.23,1.08,0,.52.07.89.2,1.12.13.23.33.35.59.35Z"/><path class="i" d="M6.62,16.32c-.37,0-.68-.08-.95-.23-.26-.15-.47-.37-.61-.67-.14-.29-.22-.65-.22-1.07,0-.46.08-.83.25-1.13.17-.29.39-.51.67-.66.28-.14.59-.22.92-.22.48,0,.87.15,1.16.46s.45.75.46,1.34h-2.55v-.35s1.48,0,1.48,0c0-.21-.02-.4-.07-.56-.05-.17-.12-.3-.21-.4-.09-.1-.22-.14-.38-.14-.27,0-.47.11-.58.34-.12.22-.17.57-.17,1.02,0,.36.05.65.14.86s.23.38.4.48c.17.1.37.15.6.15.21,0,.39-.02.53-.07.14-.05.26-.12.37-.2.1-.09.2-.19.28-.29l.19.13c-.08.15-.17.3-.26.45-.09.14-.2.27-.33.38-.12.11-.28.2-.46.27-.18.07-.4.1-.66.1Z"/><path class="i" d="M9.76,10.58h.35v2.44h.02c.14-.17.31-.32.51-.46.2-.14.44-.21.72-.21s.52.07.72.21.35.34.46.6c.11.26.16.58.16.95,0,.5-.09.91-.27,1.24s-.42.56-.74.72c-.31.16-.68.24-1.1.24-.37,0-.68-.04-.92-.12-.24-.08-.42-.15-.52-.2v-4.42c0-.18-.02-.3-.06-.35-.04-.05-.13-.08-.28-.08-.07,0-.15,0-.23.02v-.3l1.19-.28ZM10.11,13.44v2.12c.06.09.14.17.26.25.11.08.25.12.42.12.21,0,.38-.07.5-.21s.21-.33.27-.57c.06-.24.08-.51.08-.81,0-.27-.02-.5-.07-.7-.05-.2-.12-.35-.23-.46-.11-.11-.25-.16-.44-.16s-.34.05-.48.15c-.14.1-.25.19-.32.27Z"/><path class="i" d="M14.79,16.31c-.38,0-.66-.1-.85-.31s-.28-.58-.28-1.12v-1.57c0-.16-.02-.27-.05-.34-.03-.07-.09-.11-.17-.13s-.19-.03-.34-.03v-.29l1.22-.11h.3v2.29c0,.26.03.46.08.59.05.13.12.22.22.27.09.05.2.07.32.07.18,0,.33-.04.46-.11.12-.07.26-.17.42-.3v-1.94c0-.15-.02-.26-.06-.33s-.11-.11-.2-.13c-.1-.02-.23-.02-.41-.02v-.29l1.36-.11h.28v2.82c0,.25.03.4.1.47s.21.1.42.1h.06v.26l-1.25.22h-.26v-.67h-.04c-.16.17-.31.3-.44.4s-.27.18-.41.23c-.14.05-.3.07-.47.07Z"/><path class="i" d="M19.4,18.11c-.36,0-.64-.04-.84-.12-.21-.08-.35-.18-.43-.31-.08-.13-.12-.27-.12-.43,0-.14.05-.28.15-.41.1-.13.26-.28.46-.46v-.1l.31.09c-.06.1-.11.21-.15.32s-.06.22-.06.32c0,.2.09.35.28.44s.49.15.91.15c.31,0,.55-.03.72-.09.17-.06.29-.14.36-.24s.1-.2.1-.31c0-.12-.04-.22-.11-.29-.07-.07-.17-.12-.29-.15-.12-.03-.26-.05-.4-.06-.14,0-.29-.01-.43-.01-.24,0-.42,0-.55,0s-.23,0-.3,0c-.07,0-.12,0-.16,0l-.2-.06c-.05-.02-.12-.05-.21-.09-.09-.04-.17-.11-.24-.2-.07-.09-.1-.2-.1-.35s.03-.26.09-.37c.06-.11.14-.21.25-.31.1-.1.22-.19.34-.3v-.11l.33.16c-.04.05-.08.11-.12.17-.04.06-.06.12-.08.18s-.02.11-.02.17c0,.07.02.12.07.16.05.04.14.07.28.09s.36.03.66.03c.41,0,.75.03,1.02.08.28.05.49.14.63.28.14.14.21.35.21.64s-.07.52-.22.71c-.15.19-.34.35-.58.46-.24.11-.5.2-.78.25-.28.05-.54.08-.79.08ZM19.81,15.01c-.15,0-.29-.01-.42-.04-.13-.03-.26-.07-.39-.12l-.15-.1c-.1-.06-.2-.13-.3-.21-.1-.08-.19-.19-.25-.33-.07-.14-.1-.32-.1-.54,0-.3.08-.54.22-.74.15-.19.34-.34.59-.43.24-.1.5-.14.77-.14.16,0,.32.01.48.04s.33.06.48.11c.15.05.28.11.38.18v.31c.05.07.11.17.16.3.06.12.08.29.08.5,0,.28-.07.51-.22.7-.15.18-.34.31-.57.4-.24.09-.49.13-.77.13ZM19.81,14.67c.18,0,.32-.07.44-.2.11-.13.17-.38.17-.75,0-.34-.06-.59-.18-.75-.12-.17-.29-.25-.5-.25-.18,0-.33.07-.44.21-.12.14-.17.38-.17.71s.06.6.18.77.29.25.5.25ZM21.87,12.5v.47h-.87s-.26-.45-.26-.45l1.14-.02Z"/><path class="i" d="M23.5,18.11c-.36,0-.64-.04-.84-.12-.21-.08-.35-.18-.43-.31-.08-.13-.12-.27-.12-.43,0-.14.05-.28.15-.41.1-.13.26-.28.46-.46v-.1l.31.09c-.06.1-.11.21-.15.32s-.06.22-.06.32c0,.2.09.35.28.44s.49.15.91.15c.31,0,.55-.03.72-.09.17-.06.29-.14.36-.24s.1-.2.1-.31c0-.12-.04-.22-.11-.29-.07-.07-.17-.12-.29-.15-.12-.03-.26-.05-.4-.06-.14,0-.29-.01-.43-.01-.24,0-.42,0-.55,0s-.23,0-.3,0c-.07,0-.12,0-.16,0l-.2-.06c-.05-.02-.12-.05-.21-.09-.09-.04-.17-.11-.24-.2-.07-.09-.1-.2-.1-.35s.03-.26.09-.37c.06-.11.14-.21.25-.31.1-.1.22-.19.34-.3v-.11l.33.16c-.04.05-.08.11-.12.17-.04.06-.06.12-.08.18s-.02.11-.02.17c0,.07.02.12.07.16.05.04.14.07.28.09s.36.03.66.03c.41,0,.75.03,1.02.08.28.05.49.14.63.28.14.14.21.35.21.64s-.07.52-.22.71c-.15.19-.34.35-.58.46-.24.11-.5.2-.78.25-.28.05-.54.08-.79.08ZM23.91,15.01c-.15,0-.29-.01-.42-.04-.13-.03-.26-.07-.39-.12l-.15-.1c-.1-.06-.2-.13-.3-.21-.1-.08-.19-.19-.25-.33-.07-.14-.1-.32-.1-.54,0-.3.08-.54.22-.74.15-.19.34-.34.59-.43.24-.1.5-.14.77-.14.16,0,.32.01.48.04s.33.06.48.11c.15.05.28.11.38.18v.31c.05.07.11.17.16.3.06.12.08.29.08.5,0,.28-.07.51-.22.7-.15.18-.34.31-.57.4-.24.09-.49.13-.77.13ZM23.91,14.67c.18,0,.32-.07.44-.2.11-.13.17-.38.17-.75,0-.34-.06-.59-.18-.75-.12-.17-.29-.25-.5-.25-.18,0-.33.07-.44.21-.12.14-.17.38-.17.71s.06.6.18.77.29.25.5.25ZM25.98,12.5v.47h-.87s-.26-.45-.26-.45l1.14-.02Z"/><path class="i" d="M28.39,16.23h-2.16v-.29c.18,0,.31-.01.39-.04s.13-.09.16-.17c.03-.09.04-.2.04-.35v-2.11c0-.18-.04-.28-.1-.32s-.16-.06-.28-.06c-.05,0-.12,0-.21.02v-.3l1.13-.22h.43v2.98c0,.15.01.27.04.36.03.09.08.14.17.18.08.03.22.05.39.05v.29ZM27.3,11.82c-.18,0-.32-.05-.42-.16-.1-.1-.16-.24-.16-.4s.05-.29.15-.4c.1-.11.24-.16.42-.16s.33.05.43.16.15.24.15.4-.05.3-.15.4-.24.16-.43.16Z"/><path class="i" d="M30.88,16.23h-2.1v-.29c.18,0,.3-.02.38-.05.08-.03.13-.09.14-.18s.03-.2.03-.34v-2.13c0-.14-.03-.24-.08-.28-.06-.05-.14-.07-.24-.07-.07,0-.14,0-.22.02v-.3l1.15-.23h.34v.76s.02.19.02.19v2.04c0,.14.01.26.03.34.02.09.07.15.16.18.08.03.21.05.4.05v.29ZM33.36,16.23h-2.09v-.29c.18,0,.3-.02.38-.05.08-.03.13-.09.14-.18.02-.08.03-.2.03-.35v-1.32c0-.28-.03-.49-.08-.64-.06-.15-.13-.25-.24-.3s-.22-.08-.36-.08-.25.02-.36.07c-.11.05-.2.11-.29.18-.09.07-.18.14-.27.22l-.05-.46h.13c.21-.2.42-.37.6-.49.19-.13.41-.19.65-.19.4,0,.71.13.92.38s.32.63.32,1.13v1.5c0,.14.01.26.04.34.03.09.08.15.16.18.08.03.2.05.36.05v.29Z"/><path class="i" d="M35.07,18.11c-.36,0-.64-.04-.84-.12-.21-.08-.35-.18-.43-.31-.08-.13-.12-.27-.12-.43,0-.14.05-.28.15-.41.1-.13.26-.28.46-.46v-.1l.31.09c-.06.1-.11.21-.15.32s-.06.22-.06.32c0,.2.09.35.28.44s.49.15.91.15c.31,0,.55-.03.72-.09.17-.06.29-.14.36-.24s.1-.2.1-.31c0-.12-.04-.22-.11-.29-.07-.07-.17-.12-.29-.15-.12-.03-.26-.05-.4-.06-.14,0-.29-.01-.43-.01-.24,0-.42,0-.55,0s-.23,0-.3,0c-.07,0-.12,0-.16,0l-.2-.06c-.05-.02-.12-.05-.21-.09-.09-.04-.17-.11-.24-.2-.07-.09-.1-.2-.1-.35s.03-.26.09-.37c.06-.11.14-.21.25-.31.1-.1.22-.19.34-.3v-.11l.33.16c-.04.05-.08.11-.12.17-.04.06-.06.12-.08.18s-.02.11-.02.17c0,.07.02.12.07.16.05.04.14.07.28.09s.36.03.66.03c.41,0,.75.03,1.02.08.28.05.49.14.63.28.14.14.21.35.21.64s-.07.52-.22.71c-.15.19-.34.35-.58.46-.24.11-.5.2-.78.25-.28.05-.54.08-.79.08ZM35.48,15.01c-.15,0-.29-.01-.42-.04-.13-.03-.26-.07-.39-.12l-.15-.1c-.1-.06-.2-.13-.3-.21-.1-.08-.19-.19-.25-.33-.07-.14-.1-.32-.1-.54,0-.3.08-.54.22-.74.15-.19.34-.34.59-.43.24-.1.5-.14.77-.14.16,0,.32.01.48.04s.33.06.48.11c.15.05.28.11.38.18v.31c.05.07.11.17.16.3.06.12.08.29.08.5,0,.28-.07.51-.22.7-.15.18-.34.31-.57.4-.24.09-.49.13-.77.13ZM35.48,14.67c.18,0,.32-.07.44-.2.11-.13.17-.38.17-.75,0-.34-.06-.59-.18-.75-.12-.17-.29-.25-.5-.25-.18,0-.33.07-.44.21-.12.14-.17.38-.17.71s.06.6.18.77.29.25.5.25ZM37.54,12.5v.47h-.87s-.26-.45-.26-.45l1.14-.02Z"/><path class="i" d="M461.81,6.63h-2.33v-.29c.18,0,.31-.01.39-.04.08-.03.14-.08.16-.16.03-.08.04-.19.04-.34v-2.05c0-.14-.02-.25-.05-.33-.03-.07-.12-.11-.27-.11-.08,0-.16,0-.25.02v-.3l1.16-.25h.36v.83h.02c.14-.19.26-.35.36-.48.1-.13.2-.23.3-.3.1-.07.23-.1.39-.1.19,0,.33.05.42.16s.14.24.14.42c0,.2-.04.35-.14.44s-.19.13-.3.13c-.11,0-.2-.03-.28-.08s-.14-.1-.2-.16c-.05-.05-.1-.08-.14-.08-.09,0-.19.05-.28.14s-.19.2-.28.33v1.71c0,.17.02.3.07.38s.13.14.24.17.26.04.46.04v.29Z"/><path class="i" d="M464.65,6.72c-.37,0-.68-.08-.95-.23-.26-.15-.47-.37-.61-.67-.14-.29-.22-.65-.22-1.07,0-.46.08-.83.25-1.13.17-.29.39-.51.67-.66.28-.14.58-.22.92-.22.48,0,.87.15,1.16.46.29.31.45.75.46,1.34h-2.55v-.35s1.48,0,1.48,0c0-.21-.02-.4-.07-.56s-.12-.3-.21-.4c-.09-.1-.22-.14-.38-.14-.27,0-.47.11-.58.34-.12.22-.17.57-.17,1.02,0,.36.05.65.14.86.1.22.23.38.4.48.17.1.37.15.6.15.21,0,.39-.02.53-.07.14-.05.26-.12.37-.2.1-.09.2-.19.28-.29l.19.13c-.08.15-.17.3-.26.45-.09.14-.2.27-.33.38-.12.11-.28.2-.46.27s-.4.1-.66.1Z"/><path class="i" d="M468.91,6.63h-2.1v-.29c.17,0,.29-.02.37-.05.08-.03.13-.09.15-.18.02-.08.03-.2.03-.35v-2.12c0-.15-.03-.25-.08-.29-.05-.05-.14-.07-.25-.07-.07,0-.14,0-.22.02v-.3l1.14-.23h.34v.76l.02.2v2.05c0,.14.01.26.04.34.03.08.08.14.16.17.08.03.21.05.38.05v.29ZM471.32,6.63h-2.1v-.29c.17,0,.29-.02.37-.05.08-.03.13-.1.15-.19s.03-.22.03-.38v-1.38c0-.36-.05-.61-.16-.74s-.26-.19-.44-.19c-.12,0-.24.02-.35.07-.11.05-.21.11-.31.18-.1.07-.18.15-.26.24l-.06-.48h.14c.19-.18.39-.33.58-.47s.43-.21.71-.21c.31,0,.55.08.73.25.18.17.3.39.36.67.01.06.02.12.03.18s.01.13.01.19v1.68c0,.15.01.28.04.37.03.09.08.15.16.19.08.04.21.06.38.06v.29ZM473.72,6.63h-2.06v-.29c.17,0,.29-.02.36-.06.07-.04.12-.1.14-.2s.03-.21.03-.36v-1.36c0-.25-.03-.44-.08-.58s-.12-.23-.22-.29c-.09-.05-.2-.08-.33-.08-.17,0-.33.05-.49.15s-.3.21-.42.33l-.1-.45h.13c.21-.21.42-.38.63-.51.21-.13.44-.2.69-.2.35,0,.63.12.84.35.21.23.32.61.32,1.12v1.5c0,.15.01.27.04.36.02.09.08.16.16.2.08.04.2.06.37.06v.29Z"/><path class="i" d="M476.03,6.71c-.6,0-1.07-.17-1.39-.5s-.49-.83-.49-1.51c0-.38.07-.71.21-1.01.14-.29.35-.52.64-.69.28-.17.63-.25,1.05-.25.61,0,1.07.17,1.39.51.32.34.48.8.48,1.38,0,.45-.08.83-.23,1.14-.15.31-.37.54-.64.7-.28.16-.61.24-1.01.24ZM476.05,6.34c.19,0,.35-.06.47-.17s.21-.29.26-.53c.06-.24.08-.56.08-.95,0-.5-.07-.89-.21-1.17-.14-.28-.36-.42-.67-.42-.27,0-.47.13-.6.4-.13.26-.2.64-.2,1.12,0,.6.07,1.04.22,1.32.14.28.36.42.65.41Z"/><path class="i" d="M480.83,5.8l.18.19c-.1.14-.21.27-.31.38-.11.11-.24.2-.38.26-.15.06-.34.1-.58.1-.29,0-.51-.08-.66-.25-.14-.17-.22-.46-.22-.88v-2.28h-.48v-.28c.21-.13.4-.3.58-.5.18-.2.34-.47.5-.81h.38v1.16h.96v.43h-.96v2.02c0,.29.03.48.08.59s.16.16.31.16.26-.03.34-.08c.08-.05.17-.12.27-.21Z"/><path class="i" d="M483.02,6.72c-.37,0-.68-.08-.95-.23-.26-.15-.47-.37-.61-.67-.14-.29-.22-.65-.22-1.07,0-.46.08-.83.25-1.13.17-.29.39-.51.67-.66.28-.14.59-.22.92-.22.48,0,.87.15,1.16.46s.45.75.46,1.34h-2.55v-.35s1.48,0,1.48,0c0-.21-.02-.4-.07-.56-.05-.17-.12-.3-.21-.4-.09-.1-.22-.14-.38-.14-.27,0-.47.11-.58.34-.12.22-.17.57-.17,1.02,0,.36.05.65.14.86s.23.38.4.48c.17.1.37.15.6.15.21,0,.39-.02.53-.07.14-.05.26-.12.37-.2.1-.09.2-.19.28-.29l.19.13c-.08.15-.17.3-.26.45-.09.14-.2.27-.33.38-.12.11-.28.2-.46.27-.18.07-.4.1-.66.1Z"/><path class="i" d="M488.97,6.71c-.6,0-1.07-.17-1.39-.5s-.49-.83-.49-1.51c0-.38.07-.71.21-1.01.14-.29.35-.52.64-.69.28-.17.63-.25,1.05-.25.61,0,1.07.17,1.39.51.32.34.48.8.48,1.38,0,.45-.08.83-.23,1.14-.15.31-.37.54-.64.7-.28.16-.61.24-1.01.24ZM488.99,6.34c.19,0,.35-.06.47-.17s.21-.29.26-.53c.06-.24.08-.56.08-.95,0-.5-.07-.89-.21-1.17-.14-.28-.36-.42-.67-.42-.27,0-.47.13-.6.4-.13.26-.2.64-.2,1.12,0,.6.07,1.04.22,1.32.14.28.36.42.65.41Z"/><path class="i" d="M493.43,6.63h-2.1v-.29c.18,0,.3-.02.38-.05.08-.03.13-.09.14-.18s.03-.2.03-.34v-2.13c0-.14-.03-.24-.08-.28-.06-.05-.14-.07-.24-.07-.07,0-.14,0-.22.02v-.3l1.15-.23h.34v.76s.02.19.02.19v2.04c0,.14.01.26.03.34.02.09.07.15.16.18.08.03.21.05.4.05v.29ZM495.91,6.63h-2.09v-.29c.18,0,.3-.02.38-.05.08-.03.13-.09.14-.18.02-.08.03-.2.03-.35v-1.32c0-.28-.03-.49-.08-.64-.06-.15-.13-.25-.24-.3s-.22-.08-.36-.08-.25.02-.36.07c-.11.05-.2.11-.29.18-.09.07-.18.14-.27.22l-.05-.46h.13c.21-.2.42-.37.6-.49.19-.13.41-.19.65-.19.4,0,.71.13.92.38s.32.63.32,1.13v1.5c0,.14.01.26.04.34.03.09.08.15.16.18.08.03.2.05.36.05v.29Z"/><path class="i" d="M498.43,6.63h-2.18v-.29c.18,0,.31-.02.39-.05.08-.03.13-.09.16-.18.02-.09.03-.2.03-.34V1.84c0-.16-.04-.26-.11-.29-.07-.03-.16-.05-.26-.05-.07,0-.15,0-.26.02v-.29l1.18-.26h.41v4.78c0,.15.01.27.04.35.02.09.08.14.17.18.09.03.23.05.42.05v.29Z"/><path class="i" d="M500.9,6.63h-2.16v-.29c.18,0,.31-.01.39-.04s.13-.09.16-.17c.03-.09.04-.2.04-.35v-2.11c0-.18-.04-.28-.1-.32s-.16-.06-.28-.06c-.05,0-.12,0-.21.02v-.3l1.13-.22h.43v2.98c0,.15.01.27.04.36.03.09.08.14.17.18.08.03.22.05.39.05v.29ZM499.8,2.22c-.18,0-.32-.05-.42-.16-.1-.1-.16-.24-.16-.4s.05-.29.15-.4c.1-.11.24-.16.42-.16s.33.05.43.16.15.24.15.4-.05.3-.15.4-.24.16-.43.16Z"/><path class="i" d="M503.39,6.63h-2.1v-.29c.18,0,.3-.02.38-.05.08-.03.13-.09.14-.18s.03-.2.03-.34v-2.13c0-.14-.03-.24-.08-.28-.06-.05-.14-.07-.24-.07-.07,0-.14,0-.22.02v-.3l1.15-.23h.34v.76s.02.19.02.19v2.04c0,.14.01.26.03.34.02.09.07.15.16.18.08.03.21.05.4.05v.29ZM505.87,6.63h-2.09v-.29c.18,0,.3-.02.38-.05.08-.03.13-.09.14-.18.02-.08.03-.2.03-.35v-1.32c0-.28-.03-.49-.08-.64-.06-.15-.13-.25-.24-.3s-.22-.08-.36-.08-.25.02-.36.07c-.11.05-.2.11-.29.18-.09.07-.18.14-.27.22l-.05-.46h.13c.21-.2.42-.37.6-.49.19-.13.41-.19.65-.19.4,0,.71.13.92.38s.32.63.32,1.13v1.5c0,.14.01.26.04.34.03.09.08.15.16.18.08.03.2.05.36.05v.29Z"/><path class="i" d="M508.06,6.72c-.37,0-.68-.08-.95-.23-.26-.15-.47-.37-.61-.67-.14-.29-.22-.65-.22-1.07,0-.46.08-.83.25-1.13.17-.29.39-.51.67-.66.28-.14.59-.22.92-.22.48,0,.87.15,1.16.46s.45.75.46,1.34h-2.55v-.35s1.48,0,1.48,0c0-.21-.02-.4-.07-.56-.05-.17-.12-.3-.21-.4-.09-.1-.22-.14-.38-.14-.27,0-.47.11-.58.34-.12.22-.17.57-.17,1.02,0,.36.05.65.14.86s.23.38.4.48c.17.1.37.15.6.15.21,0,.39-.02.53-.07.14-.05.26-.12.37-.2.1-.09.2-.19.28-.29l.19.13c-.08.15-.17.3-.26.45-.09.14-.2.27-.33.38-.12.11-.28.2-.46.27-.18.07-.4.1-.66.1Z"/><path class="i" d="M473.99,16.3c-.3,0-.55-.08-.76-.25-.21-.17-.36-.39-.46-.66-.1-.28-.15-.59-.15-.93,0-.47.08-.87.25-1.18.17-.31.39-.54.66-.7s.58-.23.92-.23c.13,0,.26.01.38.04s.26.08.38.14h.02v-.97c0-.18-.02-.29-.06-.34-.04-.05-.14-.08-.29-.08-.04,0-.11,0-.22,0v-.3l1.18-.28h.36v4.76c0,.2.03.33.1.4.06.06.17.09.32.09h.17v.29l-1.29.15h-.24v-.53h-.03c-.15.13-.33.26-.53.38s-.44.18-.71.18ZM474.46,15.67c.17,0,.3-.03.42-.08.11-.05.23-.12.37-.21v-2c-.03-.15-.11-.3-.22-.42-.12-.13-.29-.19-.52-.19-.25,0-.45.12-.6.35-.15.23-.23.59-.23,1.08,0,.52.07.89.2,1.12.13.23.33.35.59.35Z"/><path class="i" d="M478.99,16.32c-.37,0-.68-.08-.95-.23-.26-.15-.47-.37-.61-.67-.14-.29-.22-.65-.22-1.07,0-.46.08-.83.25-1.13.17-.29.39-.51.67-.66.28-.14.59-.22.92-.22.48,0,.87.15,1.16.46s.45.75.46,1.34h-2.55v-.35s1.48,0,1.48,0c0-.21-.02-.4-.07-.56-.05-.17-.12-.3-.21-.4-.09-.1-.22-.14-.38-.14-.27,0-.47.11-.58.34-.12.22-.17.57-.17,1.02,0,.36.05.65.14.86s.23.38.4.48c.17.1.37.15.6.15.21,0,.39-.02.53-.07.14-.05.26-.12.37-.2.1-.09.2-.19.28-.29l.19.13c-.08.15-.17.3-.26.45-.09.14-.2.27-.33.38-.12.11-.28.2-.46.27-.18.07-.4.1-.66.1Z"/><path class="i" d="M482.13,10.58h.35v2.44h.02c.14-.17.31-.32.51-.46.2-.14.44-.21.72-.21s.52.07.72.21.35.34.46.6c.11.26.16.58.16.95,0,.5-.09.91-.27,1.24s-.42.56-.74.72c-.31.16-.68.24-1.1.24-.37,0-.68-.04-.92-.12-.24-.08-.42-.15-.52-.2v-4.42c0-.18-.02-.3-.06-.35-.04-.05-.13-.08-.28-.08-.07,0-.15,0-.23.02v-.3l1.19-.28ZM482.48,13.44v2.12c.06.09.14.17.26.25.11.08.25.12.42.12.21,0,.38-.07.5-.21s.21-.33.27-.57c.06-.24.08-.51.08-.81,0-.27-.02-.5-.07-.7-.05-.2-.12-.35-.23-.46-.11-.11-.25-.16-.44-.16s-.34.05-.48.15c-.14.1-.25.19-.32.27Z"/><path class="i" d="M487.16,16.31c-.38,0-.66-.1-.85-.31s-.28-.58-.28-1.12v-1.57c0-.16-.02-.27-.05-.34-.03-.07-.09-.11-.17-.13s-.19-.03-.34-.03v-.29l1.22-.11h.3v2.29c0,.26.03.46.08.59.05.13.12.22.22.27.09.05.2.07.32.07.18,0,.33-.04.46-.11.12-.07.26-.17.42-.3v-1.94c0-.15-.02-.26-.06-.33s-.11-.11-.2-.13c-.1-.02-.23-.02-.41-.02v-.29l1.36-.11h.28v2.82c0,.25.03.4.1.47s.21.1.42.1h.06v.26l-1.25.22h-.26v-.67h-.04c-.16.17-.31.3-.44.4s-.27.18-.41.23c-.14.05-.3.07-.47.07Z"/><path class="i" d="M491.77,18.11c-.36,0-.64-.04-.84-.12-.21-.08-.35-.18-.43-.31-.08-.13-.12-.27-.12-.43,0-.14.05-.28.15-.41.1-.13.26-.28.46-.46v-.1l.31.09c-.06.1-.11.21-.15.32s-.06.22-.06.32c0,.2.09.35.28.44s.49.15.91.15c.31,0,.55-.03.72-.09.17-.06.29-.14.36-.24s.1-.2.1-.31c0-.12-.04-.22-.11-.29-.07-.07-.17-.12-.29-.15-.12-.03-.26-.05-.4-.06-.14,0-.29-.01-.43-.01-.24,0-.42,0-.55,0s-.23,0-.3,0c-.07,0-.12,0-.16,0l-.2-.06c-.05-.02-.12-.05-.21-.09-.09-.04-.17-.11-.24-.2-.07-.09-.1-.2-.1-.35s.03-.26.09-.37c.06-.11.14-.21.25-.31.1-.1.22-.19.34-.3v-.11l.33.16c-.04.05-.08.11-.12.17-.04.06-.06.12-.08.18s-.02.11-.02.17c0,.07.02.12.07.16.05.04.14.07.28.09s.36.03.66.03c.41,0,.75.03,1.02.08.28.05.49.14.63.28.14.14.21.35.21.64s-.07.52-.22.71c-.15.19-.34.35-.58.46-.24.11-.5.2-.78.25-.28.05-.54.08-.79.08ZM492.18,15.01c-.15,0-.29-.01-.42-.04-.13-.03-.26-.07-.39-.12l-.15-.1c-.1-.06-.2-.13-.3-.21-.1-.08-.19-.19-.25-.33-.07-.14-.1-.32-.1-.54,0-.3.08-.54.22-.74.15-.19.34-.34.59-.43.24-.1.5-.14.77-.14.16,0,.32.01.48.04s.33.06.48.11c.15.05.28.11.38.18v.31c.05.07.11.17.16.3.06.12.08.29.08.5,0,.28-.07.51-.22.7-.15.18-.34.31-.57.4-.24.09-.49.13-.77.13ZM492.18,14.67c.18,0,.32-.07.44-.2.11-.13.17-.38.17-.75,0-.34-.06-.59-.18-.75-.12-.17-.29-.25-.5-.25-.18,0-.33.07-.44.21-.12.14-.17.38-.17.71s.06.6.18.77.29.25.5.25ZM494.24,12.5v.47h-.87s-.26-.45-.26-.45l1.14-.02Z"/><path class="i" d="M495.87,18.11c-.36,0-.64-.04-.84-.12-.21-.08-.35-.18-.43-.31-.08-.13-.12-.27-.12-.43,0-.14.05-.28.15-.41.1-.13.26-.28.46-.46v-.1l.31.09c-.06.1-.11.21-.15.32s-.06.22-.06.32c0,.2.09.35.28.44s.49.15.91.15c.31,0,.55-.03.72-.09.17-.06.29-.14.36-.24s.1-.2.1-.31c0-.12-.04-.22-.11-.29-.07-.07-.17-.12-.29-.15-.12-.03-.26-.05-.4-.06-.14,0-.29-.01-.43-.01-.24,0-.42,0-.55,0s-.23,0-.3,0c-.07,0-.12,0-.16,0l-.2-.06c-.05-.02-.12-.05-.21-.09-.09-.04-.17-.11-.24-.2-.07-.09-.1-.2-.1-.35s.03-.26.09-.37c.06-.11.14-.21.25-.31.1-.1.22-.19.34-.3v-.11l.33.16c-.04.05-.08.11-.12.17-.04.06-.06.12-.08.18s-.02.11-.02.17c0,.07.02.12.07.16.05.04.14.07.28.09s.36.03.66.03c.41,0,.75.03,1.02.08.28.05.49.14.63.28.14.14.21.35.21.64s-.07.52-.22.71c-.15.19-.34.35-.58.46-.24.11-.5.2-.78.25-.28.05-.54.08-.79.08ZM496.28,15.01c-.15,0-.29-.01-.42-.04-.13-.03-.26-.07-.39-.12l-.15-.1c-.1-.06-.2-.13-.3-.21-.1-.08-.19-.19-.25-.33-.07-.14-.1-.32-.1-.54,0-.3.08-.54.22-.74.15-.19.34-.34.59-.43.24-.1.5-.14.77-.14.16,0,.32.01.48.04s.33.06.48.11c.15.05.28.11.38.18v.31c.05.07.11.17.16.3.06.12.08.29.08.5,0,.28-.07.51-.22.7-.15.18-.34.31-.57.4-.24.09-.49.13-.77.13ZM496.28,14.67c.18,0,.32-.07.44-.2.11-.13.17-.38.17-.75,0-.34-.06-.59-.18-.75-.12-.17-.29-.25-.5-.25-.18,0-.33.07-.44.21-.12.14-.17.38-.17.71s.06.6.18.77.29.25.5.25ZM498.35,12.5v.47h-.87s-.26-.45-.26-.45l1.14-.02Z"/><path class="i" d="M500.76,16.23h-2.16v-.29c.18,0,.31-.01.39-.04s.13-.09.16-.17c.03-.09.04-.2.04-.35v-2.11c0-.18-.04-.28-.1-.32s-.16-.06-.28-.06c-.05,0-.12,0-.21.02v-.3l1.13-.22h.43v2.98c0,.15.01.27.04.36.03.09.08.14.17.18.08.03.22.05.39.05v.29ZM499.67,11.82c-.18,0-.32-.05-.42-.16-.1-.1-.16-.24-.16-.4s.05-.29.15-.4c.1-.11.24-.16.42-.16s.33.05.43.16.15.24.15.4-.05.3-.15.4-.24.16-.43.16Z"/><path class="i" d="M503.25,16.23h-2.1v-.29c.18,0,.3-.02.38-.05.08-.03.13-.09.14-.18s.03-.2.03-.34v-2.13c0-.14-.03-.24-.08-.28-.06-.05-.14-.07-.24-.07-.07,0-.14,0-.22.02v-.3l1.15-.23h.34v.76s.02.19.02.19v2.04c0,.14.01.26.03.34.02.09.07.15.16.18.08.03.21.05.4.05v.29ZM505.73,16.23h-2.09v-.29c.18,0,.3-.02.38-.05.08-.03.13-.09.14-.18.02-.08.03-.2.03-.35v-1.32c0-.28-.03-.49-.08-.64-.06-.15-.13-.25-.24-.3s-.22-.08-.36-.08-.25.02-.36.07c-.11.05-.2.11-.29.18-.09.07-.18.14-.27.22l-.05-.46h.13c.21-.2.42-.37.6-.49.19-.13.41-.19.65-.19.4,0,.71.13.92.38s.32.63.32,1.13v1.5c0,.14.01.26.04.34.03.09.08.15.16.18.08.03.2.05.36.05v.29Z"/><path class="i" d="M507.44,18.11c-.36,0-.64-.04-.84-.12-.21-.08-.35-.18-.43-.31-.08-.13-.12-.27-.12-.43,0-.14.05-.28.15-.41.1-.13.26-.28.46-.46v-.1l.31.09c-.06.1-.11.21-.15.32s-.06.22-.06.32c0,.2.09.35.28.44s.49.15.91.15c.31,0,.55-.03.72-.09.17-.06.29-.14.36-.24s.1-.2.1-.31c0-.12-.04-.22-.11-.29-.07-.07-.17-.12-.29-.15-.12-.03-.26-.05-.4-.06-.14,0-.29-.01-.43-.01-.24,0-.42,0-.55,0s-.23,0-.3,0c-.07,0-.12,0-.16,0l-.2-.06c-.05-.02-.12-.05-.21-.09-.09-.04-.17-.11-.24-.2-.07-.09-.1-.2-.1-.35s.03-.26.09-.37c.06-.11.14-.21.25-.31.1-.1.22-.19.34-.3v-.11l.33.16c-.04.05-.08.11-.12.17-.04.06-.06.12-.08.18s-.02.11-.02.17c0,.07.02.12.07.16.05.04.14.07.28.09s.36.03.66.03c.41,0,.75.03,1.02.08.28.05.49.14.63.28.14.14.21.35.21.64s-.07.52-.22.71c-.15.19-.34.35-.58.46-.24.11-.5.2-.78.25-.28.05-.54.08-.79.08ZM507.85,15.01c-.15,0-.29-.01-.42-.04-.13-.03-.26-.07-.39-.12l-.15-.1c-.1-.06-.2-.13-.3-.21-.1-.08-.19-.19-.25-.33-.07-.14-.1-.32-.1-.54,0-.3.08-.54.22-.74.15-.19.34-.34.59-.43.24-.1.5-.14.77-.14.16,0,.32.01.48.04s.33.06.48.11c.15.05.28.11.38.18v.31c.05.07.11.17.16.3.06.12.08.29.08.5,0,.28-.07.51-.22.7-.15.18-.34.31-.57.4-.24.09-.49.13-.77.13ZM507.85,14.67c.18,0,.32-.07.44-.2.11-.13.17-.38.17-.75,0-.34-.06-.59-.18-.75-.12-.17-.29-.25-.5-.25-.18,0-.33.07-.44.21-.12.14-.17.38-.17.71s.06.6.18.77.29.25.5.25ZM509.91,12.5v.47h-.87s-.26-.45-.26-.45l1.14-.02Z"/><path class="i" d="M246.29,103.94c-.21,0-.4-.02-.55-.07-.15-.05-.28-.1-.39-.16h-.03l-.17.21h-.25l.26-1.43h.28c.04.35.12.63.22.82.1.2.29.3.56.3.18,0,.32-.04.43-.13.1-.08.16-.21.16-.38s-.05-.32-.16-.46c-.1-.14-.25-.29-.43-.47-.12-.13-.24-.26-.34-.37-.11-.11-.19-.24-.26-.36-.07-.13-.1-.27-.1-.43,0-.3.11-.55.32-.73s.51-.28.88-.28c.19,0,.37.02.53.07s.29.1.38.16h.03l.21-.22h.22l-.18,1.28h-.27c-.02-.31-.09-.55-.2-.72-.12-.17-.29-.26-.52-.26-.17,0-.3.04-.38.13-.08.09-.12.19-.12.3,0,.09.03.18.08.27.05.09.13.18.22.28.09.1.2.21.32.35.2.21.37.4.51.58.14.18.2.4.2.65,0,.21-.06.4-.18.56s-.29.29-.51.38c-.22.09-.47.14-.76.14Z"/><path class="i" d="M249.18,103.92c-.2,0-.35-.04-.46-.13-.11-.08-.16-.23-.16-.42,0-.07,0-.15.02-.24.01-.09.03-.17.04-.24l.52-2.43h-.47l.05-.28c.19-.09.35-.18.48-.26.13-.08.25-.19.37-.32.12-.13.25-.31.4-.53h.4l-.77,3.67c-.04.2-.06.33-.06.4,0,.05,0,.09.03.12.02.03.06.05.12.05.1,0,.19-.03.28-.09.09-.06.2-.17.32-.32l.22.16c-.08.11-.17.23-.29.36s-.26.25-.43.35c-.17.1-.37.15-.61.15ZM250.86,100.47h-.87l.06-.38h.89l-.08.38Z"/><path class="i" d="M252.1,103.94c-.2,0-.38-.05-.55-.14-.17-.09-.3-.24-.4-.45-.1-.21-.15-.48-.15-.83,0-.37.06-.71.18-1.02.12-.31.27-.58.47-.8.2-.23.42-.4.67-.53.25-.13.51-.19.78-.19.23,0,.41.04.53.13.12.09.22.19.3.3h.05l.3-.38h.56l-.58,2.77c-.03.13-.04.23-.04.29,0,.05.01.1.04.14.02.04.07.06.15.06.08,0,.15-.02.21-.06.06-.04.12-.09.17-.15.05-.06.1-.11.14-.16l.22.18c-.08.12-.17.24-.28.37-.11.13-.24.23-.4.32s-.36.13-.6.13c-.18,0-.32-.03-.41-.1-.09-.07-.14-.18-.14-.35,0-.04,0-.08,0-.12,0-.04.01-.09.02-.13h-.06c-.18.23-.36.41-.54.53-.18.13-.4.19-.64.19ZM252.49,103.32c.15,0,.28-.04.39-.12.11-.08.21-.19.3-.34.09-.15.16-.32.21-.52.03-.11.06-.24.1-.4.03-.15.06-.31.08-.46.02-.16.04-.3.04-.42,0-.2-.04-.38-.12-.52-.08-.15-.22-.22-.4-.22-.17,0-.32.06-.46.18-.13.12-.25.29-.34.49-.1.2-.17.43-.22.68s-.08.51-.08.77c0,.34.04.57.14.69s.21.18.37.18Z"/><path class="i" d="M256.32,103.92c-.2,0-.35-.04-.46-.13-.11-.08-.16-.23-.16-.42,0-.07,0-.15.02-.24.01-.09.03-.17.04-.24l.52-2.43h-.47l.05-.28c.19-.09.35-.18.48-.26.13-.08.25-.19.37-.32.12-.13.25-.31.4-.53h.4l-.77,3.67c-.04.2-.06.33-.06.4,0,.05,0,.09.03.12.02.03.06.05.12.05.1,0,.19-.03.28-.09.09-.06.2-.17.32-.32l.22.16c-.08.11-.17.23-.29.36s-.26.25-.43.35c-.17.1-.37.15-.61.15ZM258,100.47h-.87l.06-.38h.89l-.08.38Z"/><path class="i" d="M259.49,103.94c-.33,0-.59-.07-.79-.2s-.34-.31-.43-.53c-.09-.22-.14-.46-.14-.73,0-.3.05-.6.16-.9.1-.3.25-.56.45-.81s.44-.44.72-.58c.28-.14.6-.22.95-.22.14,0,.29.02.44.06.15.04.28.11.38.22.11.11.16.28.16.5,0,.26-.08.49-.24.67s-.36.34-.6.46c-.25.12-.5.21-.77.26-.27.06-.52.1-.75.11v-.29c.26-.01.49-.07.7-.17s.38-.25.5-.43c.12-.18.19-.39.19-.64,0-.13-.02-.23-.06-.3s-.11-.1-.22-.1c-.14,0-.27.06-.4.19-.13.13-.24.29-.34.49-.1.2-.17.42-.23.66-.06.24-.08.47-.08.69,0,.37.07.62.22.75s.34.2.58.2c.21,0,.41-.04.58-.13.17-.09.34-.23.49-.42l.2.16c-.24.38-.5.64-.79.79-.29.15-.59.22-.89.22Z"/><path class="i" d="M261.21,105.65c-.28,0-.51-.06-.68-.18-.17-.12-.26-.29-.26-.51,0-.12.04-.22.1-.31.07-.09.17-.14.3-.14.14,0,.25.04.31.12.06.08.1.17.12.27.02.1.05.19.08.27s.08.12.16.12c.08,0,.16-.05.23-.14.07-.1.13-.22.18-.37.05-.15.09-.31.13-.47.04-.17.07-.32.09-.47.02-.15.04-.27.06-.35l.5-3.14c.04-.29.09-.57.15-.82s.14-.47.24-.64c.07-.13.17-.26.28-.37.11-.11.26-.2.44-.28.18-.07.41-.11.69-.11.18,0,.34.03.49.08.14.05.26.13.34.23.08.1.13.23.13.39,0,.13-.04.24-.13.31-.09.07-.19.11-.3.11-.13,0-.23-.04-.28-.12-.06-.08-.09-.17-.12-.27-.02-.11-.05-.21-.07-.3-.03-.09-.08-.13-.17-.13-.15,0-.27.1-.38.29-.1.19-.18.46-.23.79l-.57,3.66c-.03.16-.07.35-.12.56-.05.21-.12.43-.2.66s-.19.43-.33.62c-.13.19-.3.35-.49.46-.19.12-.42.18-.68.18ZM264.25,100.49h-2.45l.06-.41h2.45l-.06.41Z"/><path class="i" d="M265.07,103.92c-.22,0-.38-.06-.47-.18-.09-.12-.14-.28-.14-.47,0-.1,0-.2.03-.3.02-.11.04-.2.06-.29l.4-1.71c.02-.08.03-.15.04-.2,0-.06.01-.1.01-.14,0-.06-.02-.12-.06-.16-.04-.04-.11-.06-.21-.06-.06,0-.12,0-.17,0-.05,0-.08,0-.1,0v-.3l1.29-.09h.35l-.57,2.48s-.02.09-.03.16c-.01.07-.02.14-.02.2,0,.1.02.18.05.25.03.06.09.1.16.1.1,0,.21-.04.32-.12.11-.08.22-.19.33-.33s.21-.29.31-.46.18-.35.26-.52.12-.35.16-.51l.26-1.21h.96l-.58,2.8c-.03.17-.05.29-.05.34,0,.03.01.06.03.09s.06.04.13.04c.09,0,.18-.03.26-.09s.15-.12.21-.18.09-.1.1-.12l.22.16c-.1.15-.2.29-.32.42s-.25.22-.41.3-.35.11-.58.11c-.21,0-.37-.04-.48-.12-.1-.08-.16-.2-.16-.36,0-.12.01-.24.04-.36.03-.12.06-.26.1-.42h-.09c-.06.1-.14.21-.24.36-.1.14-.21.28-.35.42-.13.14-.29.25-.47.34-.18.09-.38.14-.6.14Z"/><path class="i" d="M269.71,103.92c-.23,0-.4-.05-.49-.14-.09-.09-.14-.21-.14-.35,0-.1.01-.21.04-.34.02-.13.05-.27.08-.41l.74-3.64c.02-.11.02-.2.02-.26,0-.05-.01-.1-.04-.16s-.1-.08-.2-.08c-.07,0-.15,0-.26.02v-.28l1.31-.09h.27l-.92,4.63s0,.07-.02.16c-.01.08-.02.15-.02.2,0,.05.02.09.05.12s.07.04.12.04c.13,0,.25-.05.34-.14.09-.1.17-.18.24-.25l.22.16c-.08.13-.18.26-.3.38s-.25.23-.41.32-.37.12-.62.12Z"/><path class="i" d="M274.71,103.92c-.29,0-.55-.06-.78-.17-.23-.11-.41-.28-.54-.51-.13-.23-.2-.53-.2-.89,0-.32.05-.62.15-.91s.24-.54.43-.76c.19-.22.42-.39.68-.52.26-.13.56-.19.88-.19.3,0,.56.06.78.17.22.11.4.29.53.52.13.23.2.53.2.9,0,.32-.05.62-.15.9-.1.28-.25.53-.43.75-.19.22-.41.39-.67.51-.26.12-.55.18-.88.18ZM274.79,103.58c.15,0,.3-.06.42-.18.13-.12.24-.28.32-.48.09-.2.16-.43.2-.69.05-.26.07-.53.07-.8,0-.21-.01-.4-.04-.57-.03-.17-.08-.3-.17-.39-.08-.1-.2-.14-.36-.14-.17,0-.31.06-.44.18-.13.12-.24.28-.32.48-.09.2-.15.43-.2.69-.04.26-.07.53-.07.8,0,.2.01.39.04.55.03.17.09.3.18.4.09.1.21.15.36.15Z"/><path class="i" d="M278.1,103.92c-.22,0-.38-.06-.47-.18-.09-.12-.14-.28-.14-.47,0-.1,0-.2.03-.3.02-.11.04-.2.06-.29l.4-1.71c.02-.08.03-.15.04-.2,0-.06.01-.1.01-.14,0-.06-.02-.12-.06-.16-.04-.04-.11-.06-.21-.06-.06,0-.12,0-.17,0-.05,0-.08,0-.1,0v-.3l1.29-.09h.35l-.57,2.48s-.02.09-.03.16c-.01.07-.02.14-.02.2,0,.1.02.18.05.25.03.06.09.1.16.1.1,0,.21-.04.32-.12.11-.08.22-.19.33-.33s.21-.29.31-.46.18-.35.26-.52.12-.35.16-.51l.26-1.21h.96l-.58,2.8c-.03.17-.05.29-.05.34,0,.03.01.06.03.09s.06.04.13.04c.09,0,.18-.03.26-.09s.15-.12.21-.18.09-.1.1-.12l.22.16c-.1.15-.2.29-.32.42s-.25.22-.41.3-.35.11-.58.11c-.21,0-.37-.04-.48-.12-.1-.08-.16-.2-.16-.36,0-.12.01-.24.04-.36.03-.12.06-.26.1-.42h-.09c-.06.1-.14.21-.24.36-.1.14-.21.28-.35.42-.13.14-.29.25-.47.34-.18.09-.38.14-.6.14Z"/><path class="i" d="M282.81,103.92c-.2,0-.35-.04-.46-.13-.11-.08-.16-.23-.16-.42,0-.07,0-.15.02-.24.01-.09.03-.17.04-.24l.52-2.43h-.47l.05-.28c.19-.09.35-.18.48-.26.13-.08.25-.19.37-.32.12-.13.25-.31.4-.53h.4l-.77,3.67c-.04.2-.06.33-.06.4,0,.05,0,.09.03.12.02.03.06.05.12.05.1,0,.19-.03.28-.09.09-.06.2-.17.32-.32l.22.16c-.08.11-.17.23-.29.36s-.26.25-.43.35c-.17.1-.37.15-.61.15ZM284.49,100.47h-.87l.06-.38h.89l-.08.38Z"/><path class="i" d="M286.33,102.13h-1.8l.14-.62h1.8l-.14.62Z"/><path class="i" d="M288.63,103.92c-.29,0-.55-.06-.78-.17-.23-.11-.41-.28-.54-.51-.13-.23-.2-.53-.2-.89,0-.32.05-.62.15-.91s.24-.54.43-.76c.19-.22.42-.39.68-.52.26-.13.56-.19.88-.19.3,0,.56.06.78.17.22.11.4.29.53.52.13.23.2.53.2.9,0,.32-.05.62-.15.9-.1.28-.25.53-.43.75-.19.22-.41.39-.67.51-.26.12-.55.18-.88.18ZM288.71,103.58c.15,0,.3-.06.42-.18.13-.12.24-.28.32-.48.09-.2.16-.43.2-.69.05-.26.07-.53.07-.8,0-.21-.01-.4-.04-.57-.03-.17-.08-.3-.17-.39-.08-.1-.2-.14-.36-.14-.17,0-.31.06-.44.18-.13.12-.24.28-.32.48-.09.2-.15.43-.2.69-.04.26-.07.53-.07.8,0,.2.01.39.04.55.03.17.09.3.18.4.09.1.21.15.36.15Z"/><path class="i" d="M290.75,105.65c-.28,0-.51-.06-.68-.18-.17-.12-.26-.29-.26-.51,0-.12.04-.22.1-.31.07-.09.17-.14.3-.14.14,0,.25.04.31.12.06.08.1.17.12.27.02.1.05.19.08.27s.08.12.16.12c.08,0,.16-.05.23-.14.07-.1.13-.22.18-.37.05-.15.09-.31.13-.47.04-.17.07-.32.09-.47.02-.15.04-.27.06-.35l.5-3.14c.04-.29.09-.57.15-.82s.14-.47.24-.64c.07-.13.17-.26.28-.37.11-.11.26-.2.44-.28.18-.07.41-.11.69-.11.18,0,.34.03.49.08.14.05.26.13.34.23.08.1.13.23.13.39,0,.13-.04.24-.13.31-.09.07-.19.11-.3.11-.13,0-.23-.04-.28-.12-.06-.08-.09-.17-.12-.27-.02-.11-.05-.21-.07-.3-.03-.09-.08-.13-.17-.13-.15,0-.27.1-.38.29-.1.19-.18.46-.23.79l-.57,3.66c-.03.16-.07.35-.12.56-.05.21-.12.43-.2.66s-.19.43-.33.62c-.13.19-.3.35-.49.46-.19.12-.42.18-.68.18ZM293.79,100.49h-2.45l.06-.41h2.45l-.06.41Z"/><path class="i" d="M295.69,102.13h-1.8l.14-.62h1.8l-.14.62Z"/><path class="i" d="M297.94,105.59h-1.9l1.02-4.79s0-.05.01-.08c0-.02,0-.05,0-.08,0-.08-.02-.14-.07-.18-.05-.04-.12-.06-.24-.06-.05,0-.13,0-.24.02v-.27l1.27-.12h.26l-.12.61h.08l-.8,3.92s-.01.09-.02.15-.01.12-.01.16c0,.11.05.2.16.29.11.09.32.13.64.13l-.06.29ZM298.18,103.92c-.19,0-.35-.03-.5-.09s-.25-.11-.32-.15l.09-.48c.08.08.18.15.29.22.11.07.25.1.4.1.23,0,.43-.09.6-.26.17-.17.31-.42.4-.72.1-.31.14-.67.14-1.08,0-.27-.03-.47-.08-.6-.05-.14-.12-.23-.2-.27s-.15-.07-.23-.07c-.15,0-.29.05-.41.14-.12.09-.22.21-.3.35-.08.14-.16.29-.22.45l.04-.69c.15-.16.29-.3.41-.42.12-.12.25-.21.39-.27.13-.06.29-.09.46-.09.21,0,.41.05.58.15.17.1.31.26.41.47.1.21.15.48.15.82,0,.5-.1.93-.29,1.3-.19.37-.45.66-.76.87s-.67.31-1.06.31Z"/><path class="i" d="M301.5,103.92c-.23,0-.4-.05-.49-.14-.09-.09-.14-.21-.14-.35,0-.1.01-.21.04-.34.02-.13.05-.27.08-.41l.74-3.64c.02-.11.02-.2.02-.26,0-.05-.01-.1-.04-.16s-.1-.08-.2-.08c-.07,0-.15,0-.26.02v-.28l1.31-.09h.27l-.92,4.63s0,.07-.02.16c-.01.08-.02.15-.02.2,0,.05.02.09.05.12s.07.04.12.04c.13,0,.25-.05.34-.14.09-.1.17-.18.24-.25l.22.16c-.08.13-.18.26-.3.38s-.25.23-.41.32-.37.12-.62.12Z"/><path class="i" d="M304.27,103.94c-.2,0-.38-.05-.55-.14-.17-.09-.3-.24-.4-.45-.1-.21-.15-.48-.15-.83,0-.37.06-.71.18-1.02.12-.31.27-.58.47-.8.2-.23.42-.4.67-.53.25-.13.51-.19.78-.19.23,0,.41.04.53.13.12.09.22.19.3.3h.05l.3-.38h.56l-.58,2.77c-.03.13-.04.23-.04.29,0,.05.01.1.04.14.02.04.07.06.15.06.08,0,.15-.02.21-.06.06-.04.12-.09.17-.15.05-.06.1-.11.14-.16l.22.18c-.08.12-.17.24-.28.37-.11.13-.24.23-.4.32s-.36.13-.6.13c-.18,0-.32-.03-.41-.1-.09-.07-.14-.18-.14-.35,0-.04,0-.08,0-.12,0-.04.01-.09.02-.13h-.06c-.18.23-.36.41-.54.53-.18.13-.4.19-.64.19ZM304.67,103.32c.15,0,.28-.04.39-.12.11-.08.21-.19.3-.34.09-.15.16-.32.21-.52.03-.11.06-.24.1-.4.03-.15.06-.31.08-.46.02-.16.04-.3.04-.42,0-.2-.04-.38-.12-.52-.08-.15-.22-.22-.4-.22-.17,0-.32.06-.46.18-.13.12-.25.29-.34.49-.1.2-.17.43-.22.68s-.08.51-.08.77c0,.34.04.57.14.69s.21.18.37.18Z"/><path class="i" d="M309.03,103.94c-.32,0-.57-.06-.76-.19-.19-.13-.34-.3-.42-.52s-.13-.47-.13-.74c0-.34.06-.66.17-.96s.27-.57.47-.8c.2-.23.43-.41.7-.54.27-.13.55-.2.86-.2.29,0,.54.06.73.19.19.13.29.32.29.58,0,.16-.05.3-.14.43s-.23.19-.41.19c-.12,0-.21-.03-.28-.09s-.1-.15-.1-.26c0-.11.02-.2.07-.29.04-.08.07-.16.07-.22,0-.06-.03-.11-.08-.15-.05-.04-.14-.06-.26-.06-.19,0-.36.06-.5.17-.14.11-.26.27-.35.46-.09.19-.16.4-.21.64-.05.23-.07.47-.07.71,0,.27.03.48.08.63.06.15.14.26.25.32.11.06.25.09.42.09.25,0,.45-.05.62-.15s.31-.22.43-.37l.19.15c-.11.18-.24.34-.39.49-.16.15-.33.27-.54.36-.2.09-.44.14-.71.14Z"/><path class="i" d="M312.49,103.94c-.33,0-.59-.07-.79-.2s-.34-.31-.43-.53c-.09-.22-.14-.46-.14-.73,0-.3.05-.6.16-.9.1-.3.25-.56.45-.81s.44-.44.72-.58c.28-.14.6-.22.95-.22.14,0,.29.02.44.06.15.04.28.11.38.22.11.11.16.28.16.5,0,.26-.08.49-.24.67s-.36.34-.6.46c-.25.12-.5.21-.77.26-.27.06-.52.1-.75.11v-.29c.26-.01.49-.07.7-.17s.38-.25.5-.43c.12-.18.19-.39.19-.64,0-.13-.02-.23-.06-.3s-.11-.1-.22-.1c-.14,0-.27.06-.4.19-.13.13-.24.29-.34.49-.1.2-.17.42-.23.66-.06.24-.08.47-.08.69,0,.37.07.62.22.75s.34.2.58.2c.21,0,.41-.04.58-.13.17-.09.34-.23.49-.42l.2.16c-.24.38-.5.64-.79.79-.29.15-.59.22-.89.22Z"/><path class="i" d="M317.62,103.93c-.32,0-.58-.11-.79-.34s-.31-.59-.31-1.08c0-.36.05-.69.16-.99s.26-.57.45-.8c.19-.23.41-.41.65-.54.24-.13.5-.19.77-.19.17,0,.32.02.44.07.12.05.23.12.33.22h.03l.24-1.23c.02-.12.02-.2.02-.26,0-.07-.02-.13-.05-.18-.03-.05-.11-.07-.23-.07-.05,0-.13,0-.25.02v-.28l1.29-.09h.3l-.91,4.66c-.03.16-.04.26-.04.31,0,.06.02.1.06.12s.08.04.13.04c.11,0,.22-.05.32-.14.1-.09.18-.18.24-.25l.22.16c-.09.12-.19.25-.3.38s-.24.24-.39.32c-.15.08-.35.12-.58.12-.2,0-.34-.04-.43-.13s-.13-.2-.13-.34c0-.04,0-.08,0-.12s0-.08.01-.11h-.06c-.18.23-.36.41-.54.53-.18.12-.39.18-.63.18ZM317.99,103.32c.15,0,.29-.04.41-.12.12-.08.23-.19.31-.32s.15-.28.18-.43c.08-.31.13-.6.18-.85.04-.25.06-.44.06-.56s-.02-.25-.06-.35c-.04-.11-.11-.19-.19-.26s-.19-.1-.32-.1c-.17,0-.31.06-.45.19-.13.13-.25.29-.34.5-.09.21-.16.44-.21.68s-.07.49-.07.74c0,.36.04.59.14.71.09.12.21.18.35.18Z"/><path class="i" d="M322.34,103.94c-.33,0-.59-.07-.79-.2s-.34-.31-.43-.53c-.09-.22-.14-.46-.14-.73,0-.3.05-.6.16-.9.1-.3.25-.56.45-.81s.44-.44.72-.58c.28-.14.6-.22.95-.22.14,0,.29.02.44.06.15.04.28.11.38.22.11.11.16.28.16.5,0,.26-.08.49-.24.67s-.36.34-.6.46c-.25.12-.5.21-.77.26-.27.06-.52.1-.75.11v-.29c.26-.01.49-.07.7-.17s.38-.25.5-.43c.12-.18.19-.39.19-.64,0-.13-.02-.23-.06-.3s-.11-.1-.22-.1c-.14,0-.27.06-.4.19-.13.13-.24.29-.34.49-.1.2-.17.42-.23.66-.06.24-.08.47-.08.69,0,.37.07.62.22.75s.34.2.58.2c.21,0,.41-.04.58-.13.17-.09.34-.23.49-.42l.2.16c-.24.38-.5.64-.79.79-.29.15-.59.22-.89.22Z"/><path class="i" d="M325.95,103.93c-.49,0-.95-.1-1.38-.3l.91-4.58s.01-.05.02-.12c0-.06.01-.12.01-.16,0-.09-.03-.15-.08-.18s-.12-.04-.2-.04c-.04,0-.12,0-.25,0v-.29l1.22-.08h.36l-.47,2.35h.05c.13-.13.25-.23.36-.32.11-.08.22-.14.34-.18.11-.04.24-.06.38-.06.32,0,.59.11.81.34.22.23.33.58.33,1.06,0,.37-.05.71-.16,1.01s-.26.57-.46.8c-.2.23-.45.41-.75.53-.3.12-.64.19-1.02.19ZM326.18,103.5c.26,0,.47-.09.64-.28.17-.18.3-.43.39-.75.08-.32.13-.67.13-1.07,0-.35-.05-.59-.15-.72-.1-.12-.22-.19-.36-.19s-.27.04-.38.13c-.12.09-.22.19-.3.32-.08.12-.15.25-.19.36l-.38,1.94c.05.05.13.1.24.16s.23.09.36.09Z"/><path class="i" d="M329.62,103.92c-.22,0-.38-.06-.47-.18-.09-.12-.14-.28-.14-.47,0-.1,0-.2.03-.3.02-.11.04-.2.06-.29l.4-1.71c.02-.08.03-.15.04-.2,0-.06.01-.1.01-.14,0-.06-.02-.12-.06-.16-.04-.04-.11-.06-.21-.06-.06,0-.12,0-.17,0-.05,0-.08,0-.1,0v-.3l1.29-.09h.35l-.57,2.48s-.02.09-.03.16c-.01.07-.02.14-.02.2,0,.1.02.18.05.25.03.06.09.1.16.1.1,0,.21-.04.32-.12.11-.08.22-.19.33-.33s.21-.29.31-.46.18-.35.26-.52.12-.35.16-.51l.26-1.21h.96l-.58,2.8c-.03.17-.05.29-.05.34,0,.03.01.06.03.09s.06.04.13.04c.09,0,.18-.03.26-.09s.15-.12.21-.18.09-.1.1-.12l.22.16c-.1.15-.2.29-.32.42s-.25.22-.41.3-.35.11-.58.11c-.21,0-.37-.04-.48-.12-.1-.08-.16-.2-.16-.36,0-.12.01-.24.04-.36.03-.12.06-.26.1-.42h-.09c-.06.1-.14.21-.24.36-.1.14-.21.28-.35.42-.13.14-.29.25-.47.34-.18.09-.38.14-.6.14Z"/><path class="i" d="M334.72,105.65c-.41,0-.74-.04-.98-.13-.24-.09-.42-.21-.52-.35-.11-.15-.16-.31-.16-.48,0-.15.04-.3.13-.42.08-.13.21-.24.36-.33s.35-.16.57-.21l.22.13c-.12.06-.23.16-.33.29s-.15.28-.15.45c0,.11.03.22.1.33.06.11.17.2.31.26.14.07.33.1.56.1.33,0,.57-.06.74-.17.17-.11.25-.25.25-.42,0-.14-.05-.25-.16-.34-.1-.09-.24-.17-.42-.23-.17-.06-.37-.12-.58-.16s-.42-.09-.63-.12v-.13c-.09-.04-.17-.11-.24-.2-.07-.09-.1-.2-.1-.32,0-.17.07-.32.22-.44.14-.12.3-.2.48-.25v-.05c-.11-.04-.23-.11-.34-.19s-.22-.2-.3-.34c-.08-.14-.12-.32-.12-.54,0-.27.07-.51.2-.72s.33-.37.58-.49c.25-.12.54-.18.88-.18.18,0,.33.01.46.04.13.02.25.05.36.09.11.04.21.08.32.12v.29c.05.07.11.17.17.29.06.12.09.27.09.45,0,.23-.06.44-.18.64-.12.19-.3.35-.54.47-.24.12-.53.19-.88.2-.18.02-.3.07-.38.15-.08.08-.12.16-.12.23,0,.07.05.13.15.18.1.05.23.09.39.12.16.04.33.08.51.13s.35.11.51.19c.16.08.29.19.39.32.1.13.15.3.15.5,0,.36-.16.66-.49.9-.33.24-.82.36-1.48.36ZM335.06,102.27c.18,0,.32-.06.42-.17.1-.11.17-.25.21-.42s.06-.34.06-.51c0-.28-.05-.5-.14-.65-.09-.15-.23-.23-.4-.23-.2,0-.37.09-.49.28-.12.19-.18.46-.18.8,0,.3.04.52.12.67.08.15.21.22.4.22ZM337.14,100.09l-.05.53-.78-.13-.42-.4h1.25Z"/><path class="i" d="M338.47,105.65c-.41,0-.74-.04-.98-.13-.24-.09-.42-.21-.52-.35-.11-.15-.16-.31-.16-.48,0-.15.04-.3.13-.42.08-.13.21-.24.36-.33s.35-.16.57-.21l.22.13c-.12.06-.23.16-.33.29s-.15.28-.15.45c0,.11.03.22.1.33.06.11.17.2.31.26.14.07.33.1.56.1.33,0,.57-.06.74-.17.17-.11.25-.25.25-.42,0-.14-.05-.25-.16-.34-.1-.09-.24-.17-.42-.23-.17-.06-.37-.12-.58-.16s-.42-.09-.63-.12v-.13c-.09-.04-.17-.11-.24-.2-.07-.09-.1-.2-.1-.32,0-.17.07-.32.22-.44.14-.12.3-.2.48-.25v-.05c-.11-.04-.23-.11-.34-.19s-.22-.2-.3-.34c-.08-.14-.12-.32-.12-.54,0-.27.07-.51.2-.72s.33-.37.58-.49c.25-.12.54-.18.88-.18.18,0,.33.01.46.04.13.02.25.05.36.09.11.04.21.08.32.12v.29c.05.07.11.17.17.29.06.12.09.27.09.45,0,.23-.06.44-.18.64-.12.19-.3.35-.54.47-.24.12-.53.19-.88.2-.18.02-.3.07-.38.15-.08.08-.12.16-.12.23,0,.07.05.13.15.18.1.05.23.09.39.12.16.04.33.08.51.13s.35.11.51.19c.16.08.29.19.39.32.1.13.15.3.15.5,0,.36-.16.66-.49.9-.33.24-.82.36-1.48.36ZM338.82,102.27c.18,0,.32-.06.42-.17.1-.11.17-.25.21-.42s.06-.34.06-.51c0-.28-.05-.5-.14-.65-.09-.15-.23-.23-.4-.23-.2,0-.37.09-.49.28-.12.19-.18.46-.18.8,0,.3.04.52.12.67.08.15.21.22.4.22ZM340.9,100.09l-.05.53-.78-.13-.42-.4h1.25Z"/><path class="i" d="M341.82,103.92c-.2,0-.35-.04-.45-.13s-.15-.2-.15-.34c0-.07,0-.15.02-.25.02-.1.05-.27.1-.5l.39-1.82c.02-.11.02-.19.02-.26,0-.05-.02-.1-.05-.15-.03-.05-.1-.07-.21-.07-.07,0-.16,0-.26.02v-.3l1.28-.09h.33l-.59,2.82c-.03.17-.05.28-.05.34,0,.1.05.15.15.15.14,0,.25-.05.35-.14.09-.1.17-.18.24-.25l.22.16c-.09.13-.19.26-.3.38s-.24.23-.41.31-.38.12-.64.13ZM342.49,99.45c-.17,0-.31-.05-.41-.15-.1-.1-.15-.23-.15-.4s.05-.31.15-.41.24-.15.42-.15c.19,0,.33.05.42.15s.14.23.14.4-.05.31-.15.41c-.1.1-.24.15-.42.15Z"/><path class="i" d="M344.61,103.83h-.95l.63-2.97c.02-.12.03-.2.03-.25,0-.07-.02-.13-.06-.17s-.11-.06-.2-.06c-.05,0-.13,0-.25.02v-.29l1.23-.09h.3l-.39,1.6h.18l-.52,2.21ZM346.61,103.92c-.25,0-.41-.05-.5-.14-.09-.1-.14-.22-.14-.36,0-.06,0-.12.02-.18,0-.06.02-.09.02-.12l.48-1.75c.04-.17.06-.3.06-.39,0-.09-.01-.16-.04-.22-.03-.06-.08-.09-.16-.09-.1,0-.2.05-.32.16-.12.11-.24.25-.36.42-.12.17-.24.36-.35.55-.11.19-.21.38-.3.56s-.15.33-.19.44l.19-1.1c.06-.12.15-.28.26-.47.11-.19.24-.38.4-.57s.33-.35.54-.48.45-.19.72-.19c.24,0,.4.06.48.18.08.12.12.26.12.43,0,.11,0,.21-.02.31-.02.09-.03.18-.05.25l-.47,1.82c-.02.08-.02.14-.02.18,0,.11.05.16.16.16.13,0,.24-.05.34-.14s.17-.18.23-.25l.22.16s-.08.12-.14.2c-.06.09-.14.18-.25.28-.1.1-.23.18-.38.24-.15.06-.33.1-.54.1Z"/><path class="i" d="M349.51,105.65c-.41,0-.74-.04-.98-.13-.24-.09-.42-.21-.52-.35-.11-.15-.16-.31-.16-.48,0-.15.04-.3.13-.42.08-.13.21-.24.36-.33s.35-.16.57-.21l.22.13c-.12.06-.23.16-.33.29s-.15.28-.15.45c0,.11.03.22.1.33.06.11.17.2.31.26.14.07.33.1.56.1.33,0,.57-.06.74-.17.17-.11.25-.25.25-.42,0-.14-.05-.25-.16-.34-.1-.09-.24-.17-.42-.23-.17-.06-.37-.12-.58-.16s-.42-.09-.63-.12v-.13c-.09-.04-.17-.11-.24-.2-.07-.09-.1-.2-.1-.32,0-.17.07-.32.22-.44.14-.12.3-.2.48-.25v-.05c-.11-.04-.23-.11-.34-.19s-.22-.2-.3-.34c-.08-.14-.12-.32-.12-.54,0-.27.07-.51.2-.72s.33-.37.58-.49c.25-.12.54-.18.88-.18.18,0,.33.01.46.04.13.02.25.05.36.09.11.04.21.08.32.12v.29c.05.07.11.17.17.29.06.12.09.27.09.45,0,.23-.06.44-.18.64-.12.19-.3.35-.54.47-.24.12-.53.19-.88.2-.18.02-.3.07-.38.15-.08.08-.12.16-.12.23,0,.07.05.13.15.18.1.05.23.09.39.12.16.04.33.08.51.13s.35.11.51.19c.16.08.29.19.39.32.1.13.15.3.15.5,0,.36-.16.66-.49.9-.33.24-.82.36-1.48.36ZM349.86,102.27c.18,0,.32-.06.42-.17.1-.11.17-.25.21-.42s.06-.34.06-.51c0-.28-.05-.5-.14-.65-.09-.15-.23-.23-.4-.23-.2,0-.37.09-.49.28-.12.19-.18.46-.18.8,0,.3.04.52.12.67.08.15.21.22.4.22ZM351.94,100.09l-.05.53-.78-.13-.42-.4h1.25Z"/><path class="g" d="M204.66,84.36s0,4.58,7.58,4.58c7.57,0,79.43,0,82.57,0s5.91,4.08,5.91,4.08c0,0,2.77-4.08,5.91-4.08s74.99,0,82.57,0,7.58-4.58,7.58-4.58"/><polygon class="f" points="302.74 56.13 297.73 64.81 307.75 64.81 302.74 56.13"/><path class="i" d="M276.51,78.93h-6.15v-.42c.27,0,.48-.02.63-.06.15-.04.26-.13.32-.26.06-.13.09-.34.09-.62v-4.44c0-.28-.02-.49-.07-.63-.05-.14-.15-.24-.3-.29-.15-.05-.38-.08-.68-.08v-.43h6.04l.07,1.93h-.48c-.05-.34-.13-.61-.23-.8-.1-.19-.26-.32-.47-.4-.22-.07-.54-.11-.96-.11h-1.52v2.63h1.1c.35,0,.61-.02.79-.07.17-.04.29-.14.34-.28.05-.14.08-.36.08-.64h.45v2.54h-.45c0-.31-.03-.53-.08-.68-.06-.14-.17-.23-.34-.27-.17-.04-.43-.06-.79-.06h-1.1v2.84h1.34c.39,0,.7-.02.95-.06.24-.04.44-.12.58-.23.15-.11.27-.26.36-.46.1-.2.19-.45.29-.77h.46l-.27,2.12Z"/><path class="i" d="M280.67,78.93h-3.19v-.42c.31,0,.54-.02.69-.07.15-.05.25-.15.29-.3.04-.15.07-.37.07-.67v-4.42c0-.27-.03-.47-.1-.6-.07-.13-.17-.21-.32-.25-.15-.04-.36-.06-.62-.06v-.44h3.11c.56,0,1.09.05,1.61.16.51.11.97.29,1.37.55.4.26.71.62.95,1.07.23.45.35,1.03.35,1.74s-.1,1.27-.31,1.74c-.21.47-.5.85-.88,1.14-.38.29-.83.5-1.34.63s-1.06.19-1.66.19ZM280.48,78.38c.59,0,1.1-.08,1.53-.25.42-.17.75-.47.98-.91.23-.44.34-1.06.34-1.89,0-.99-.24-1.75-.71-2.28-.48-.53-1.22-.79-2.22-.79h-.21c-.07,0-.16,0-.26.01v6.08c.09,0,.19.01.29.02.09,0,.19,0,.27,0Z"/><path class="i" d="M289.14,79.01h-.71l-2.32-5.76c-.16-.42-.32-.7-.47-.86-.15-.15-.36-.24-.63-.26v-.42h3.2v.42c-.28,0-.47.03-.57.09-.1.06-.15.15-.15.26,0,.14.04.33.13.56l1.24,3.08.31.89h.07l1.28-3.2.5,1.09h-.28l-1.59,4.11ZM293.1,79.01h-.76l-1.66-4.42-.14-.37-.36-1.03c-.11-.32-.21-.56-.3-.7-.09-.15-.19-.24-.31-.29-.12-.04-.28-.07-.48-.07v-.42h3.22v.42c-.55,0-.83.14-.83.41,0,.09.02.19.06.29.04.11.08.22.12.34l1.08,2.87.31.97h.07l1.18-3.53s.04-.11.07-.2.06-.19.08-.3c.02-.11.03-.21.03-.31,0-.22-.07-.36-.2-.43-.14-.07-.32-.1-.54-.1v-.42h2.4v.42c-.26,0-.45.07-.57.18-.12.11-.24.31-.34.59l-2.1,6.12Z"/><path class="i" d="M297.45,78.93h-2.44v-.42c.2,0,.36-.03.48-.09.12-.06.23-.18.34-.35.11-.17.23-.42.37-.75l2.37-5.67h.89l2.46,5.84c.15.35.31.61.47.78.16.17.37.25.63.25v.42h-3.31v-.42c.1,0,.2,0,.3-.02s.2-.05.27-.1.11-.14.11-.25c0-.08-.02-.19-.06-.34-.04-.14-.09-.29-.15-.45l-.36-.91-.09-.26-1.11-2.99h-.04l-1.21,2.99-.08.26-.44,1.07c-.03.1-.06.2-.09.3-.03.11-.05.21-.05.3,0,.17.06.28.17.32.11.05.31.07.58.07v.42ZM300,76.57h-2.92l.19-.53h2.54l.19.53Z"/><path class="i" d="M307.03,78.93h-3.51v-.42c.28,0,.49-.02.63-.07.14-.04.24-.14.29-.29.05-.15.08-.37.08-.68v-4.51c0-.22-.02-.39-.07-.51-.04-.12-.14-.21-.28-.26-.14-.05-.36-.08-.65-.08v-.42h3.26c.53,0,1.01.06,1.45.17.44.11.78.3,1.04.57.26.27.38.64.38,1.11,0,.4-.09.73-.26.98-.17.25-.39.45-.66.59-.27.14-.56.25-.86.32v.06c.12.07.25.19.39.36.14.17.33.42.57.75.24.33.55.78.95,1.35.18.24.35.4.52.46.17.07.38.1.63.1v.42h-2.24c-.26-.45-.48-.82-.66-1.11s-.33-.54-.45-.73-.24-.37-.33-.53c-.1-.16-.2-.32-.31-.49-.1-.17-.2-.27-.3-.31-.09-.04-.24-.06-.43-.06h-.25v1.79c0,.29.03.52.08.67.05.15.15.25.31.29.15.04.39.07.7.07v.42ZM305.94,75.2h.42c.38-.01.71-.07.97-.18.27-.1.47-.27.62-.5.14-.23.21-.54.21-.94,0-.43-.12-.76-.36-1.02s-.63-.38-1.18-.38c-.12,0-.23,0-.35,0-.11,0-.23.01-.34.03v2.97Z"/><path class="i" d="M314.41,78.93h-3.19v-.42c.31,0,.54-.02.69-.07.15-.05.25-.15.29-.3.04-.15.07-.37.07-.67v-4.42c0-.27-.03-.47-.1-.6-.07-.13-.17-.21-.32-.25-.15-.04-.36-.06-.62-.06v-.44h3.11c.56,0,1.09.05,1.61.16.51.11.97.29,1.37.55.4.26.71.62.95,1.07.23.45.35,1.03.35,1.74s-.1,1.27-.31,1.74c-.21.47-.5.85-.88,1.14-.38.29-.83.5-1.34.63s-1.06.19-1.66.19ZM314.22,78.38c.59,0,1.1-.08,1.53-.25.42-.17.75-.47.98-.91.23-.44.34-1.06.34-1.89,0-.99-.24-1.75-.71-2.28-.48-.53-1.22-.79-2.22-.79h-.21c-.07,0-.16,0-.26.01v6.08c.09,0,.19.01.29.02.09,0,.19,0,.27,0Z"/><path class="i" d="M326.44,78.93h-4.4v-.6l1.52-1.53c.35-.36.64-.69.87-.98.23-.3.4-.6.52-.91s.18-.66.18-1.06c0-.37-.1-.66-.29-.88-.19-.22-.48-.33-.87-.33-.33,0-.61.07-.85.2s-.45.4-.65.8l-.41-.15c.19-.54.49-.95.88-1.24.4-.29.89-.43,1.46-.43.42,0,.8.08,1.12.23.32.15.58.37.76.65s.28.61.28.98c0,.34-.07.67-.21.97-.14.3-.35.61-.64.92s-.64.65-1.06,1.02l-1.34,1.18v.08l.73-.07h1.36c.29,0,.5-.07.62-.2.12-.13.24-.36.36-.69h.41l-.35,2.04Z"/><path class="i" d="M328.6,79.03c-.26,0-.45-.07-.58-.21-.13-.14-.2-.32-.2-.54,0-.23.07-.42.2-.57s.33-.21.59-.21.44.07.58.22c.14.15.2.33.2.56s-.07.4-.2.54c-.14.14-.33.21-.59.21Z"/><path class="i" d="M332.79,79.05c-.45,0-.83-.09-1.14-.28-.31-.19-.56-.45-.75-.78s-.33-.72-.42-1.16-.13-.91-.13-1.42c0-.73.09-1.35.28-1.89.19-.53.46-.94.83-1.23.37-.29.82-.43,1.35-.43.48,0,.9.14,1.26.41.36.27.64.67.85,1.2.2.53.3,1.19.3,1.96,0,.49-.05.96-.14,1.39-.09.44-.23.82-.43,1.16s-.45.59-.75.78c-.31.19-.68.28-1.11.28ZM332.78,78.59c.32,0,.56-.25.74-.76s.26-1.28.26-2.32c0-1.09-.08-1.9-.25-2.42-.17-.52-.42-.78-.76-.78-.32,0-.56.26-.73.78-.17.52-.26,1.31-.26,2.38s.09,1.82.26,2.34c.17.52.42.78.74.78Z"/></g></svg>