<?xml version="1.0" encoding="UTF-8"?><svg id="b" xmlns="http://www.w3.org/2000/svg" xmlns:xlink="http://www.w3.org/1999/xlink" viewBox="0 0 188.47 209.9"><defs><style>.e{fill:#fff;}.f{fill:url(#d);}.g{fill:#2b7cd3;}.h{opacity:.1;}.h,.i{isolation:isolate;}.i{opacity:.2;}.j{fill:#185abd;}.k{fill:#41a5ee;}.l{fill:#103f91;}</style><linearGradient id="d" x1="15.87" y1="1773.39" x2="75.45" y2="1670.19" gradientTransform="translate(0 1848.68) scale(1 -1)" gradientUnits="userSpaceOnUse"><stop offset="0" stop-color="#2368c4"/><stop offset=".5" stop-color="#1a5dbe"/><stop offset="1" stop-color="#1146ac"/></linearGradient></defs><g id="c"><path d="M1.75.96h3.71c2.61,0,4.55.91,4.55,3.63s-1.94,3.82-4.48,3.82h-1.69v4.33H1.75V.96ZM5.36,6.73c1.76,0,2.59-.7,2.59-2.15s-.92-1.96-2.67-1.96h-1.45v4.1h1.53Z"/><path d="M12.04,3.89h1.7l.16,1.58h.06c.63-1.15,1.57-1.79,2.51-1.79.45,0,.73.06,1,.18l-.36,1.8c-.31-.09-.54-.14-.91-.14-.71,0-1.56.48-2.09,1.83v5.39h-2.07V3.9h0Z"/><path d="M17.99,8.32c0-2.95,2-4.65,4.21-4.65s4.21,1.7,4.21,4.65-2,4.63-4.21,4.63-4.21-1.7-4.21-4.63ZM24.27,8.32c0-1.77-.78-2.95-2.07-2.95s-2.07,1.18-2.07,2.95.78,2.94,2.07,2.94,2.07-1.17,2.07-2.94Z"/><path d="M27.85,14.34c0-.75.46-1.4,1.28-1.89v-.07c-.45-.3-.8-.76-.8-1.48s.47-1.29.98-1.65v-.07c-.6-.45-1.17-1.29-1.17-2.33,0-2.03,1.64-3.18,3.49-3.18.49,0,.95.09,1.31.22h3.16v1.54h-1.61c.29.33.5.88.5,1.48,0,1.97-1.49,3.02-3.36,3.02-.37,0-.8-.08-1.2-.23-.27.23-.43.45-.43.85,0,.5.36.8,1.43.8h1.57c2.11,0,3.24.66,3.24,2.18,0,1.74-1.83,3.12-4.72,3.12-2.11,0-3.68-.76-3.68-2.3h0ZM34.25,13.86c0-.68-.55-.89-1.56-.89h-1.21c-.48,0-.86-.04-1.2-.12-.48.36-.68.76-.68,1.17,0,.81.86,1.27,2.25,1.27s2.4-.67,2.4-1.43ZM33.17,6.85c0-1.11-.67-1.74-1.53-1.74s-1.53.63-1.53,1.74.68,1.78,1.53,1.78,1.53-.66,1.53-1.78Z"/><path d="M37.82,3.89h1.7l.16,1.58h.06c.63-1.15,1.57-1.79,2.51-1.79.45,0,.73.06,1,.18l-.36,1.8c-.31-.09-.54-.14-.91-.14-.71,0-1.56.48-2.09,1.83v5.39h-2.07V3.9h0Z"/><path d="M43.59,10.36c0-1.89,1.57-2.88,5.2-3.27-.03-.95-.41-1.74-1.61-1.74-.88,0-1.71.4-2.48.87l-.76-1.38c.97-.61,2.23-1.16,3.63-1.16,2.21,0,3.3,1.36,3.3,3.82v5.24h-1.7l-.16-.98h-.06c-.79.68-1.7,1.2-2.74,1.2-1.55,0-2.61-1.05-2.61-2.59h-.01ZM48.79,10.36v-1.99c-2.4.3-3.2.93-3.2,1.82,0,.78.53,1.12,1.28,1.12s1.27-.35,1.92-.96h0Z"/><path d="M53.35,3.89h1.7l.16,1.21h.06c.75-.78,1.61-1.42,2.71-1.42,1.3,0,2.03.59,2.44,1.58.85-.9,1.72-1.58,2.84-1.58,1.87,0,2.73,1.28,2.73,3.51v5.55h-2.07v-5.28c0-1.45-.43-2-1.36-2-.56,0-1.17.36-1.85,1.1v6.18h-2.07v-5.28c0-1.45-.43-2-1.36-2-.55,0-1.17.36-1.85,1.1v6.18h-2.07V3.9h-.01Z"/><path d="M68.53,3.89h1.7l.16,1.21h.06c.75-.78,1.61-1.42,2.71-1.42,1.3,0,2.03.59,2.44,1.58.85-.9,1.72-1.58,2.84-1.58,1.87,0,2.73,1.28,2.73,3.51v5.55h-2.07v-5.28c0-1.45-.43-2-1.36-2-.56,0-1.17.36-1.85,1.1v6.18h-2.07v-5.28c0-1.45-.43-2-1.36-2-.55,0-1.17.36-1.85,1.1v6.18h-2.07V3.9h-.01Z"/><path d="M83.46,1.17c0-.7.55-1.17,1.28-1.17s1.28.48,1.28,1.17-.55,1.17-1.28,1.17-1.28-.49-1.28-1.17ZM83.7,3.89h2.07v8.84h-2.07V3.89Z"/><path d="M88.42,3.89h1.7l.16,1.2h.06c.79-.77,1.69-1.41,2.9-1.41,1.89,0,2.72,1.28,2.72,3.51v5.55h-2.08v-5.28c0-1.45-.42-2-1.38-2-.78,0-1.29.38-2.02,1.1v6.18h-2.07V3.9h.01Z"/><path d="M97.89,14.34c0-.75.46-1.4,1.28-1.89v-.07c-.45-.3-.8-.76-.8-1.48s.47-1.29.98-1.65v-.07c-.6-.45-1.17-1.29-1.17-2.33,0-2.03,1.64-3.18,3.49-3.18.49,0,.95.09,1.31.22h3.16v1.54h-1.61c.29.33.5.88.5,1.48,0,1.97-1.49,3.02-3.36,3.02-.37,0-.8-.08-1.2-.23-.27.23-.43.45-.43.85,0,.5.36.8,1.43.8h1.57c2.11,0,3.24.66,3.24,2.18,0,1.74-1.83,3.12-4.72,3.12-2.11,0-3.68-.76-3.68-2.3h0ZM104.29,13.86c0-.68-.55-.89-1.56-.89h-1.21c-.48,0-.86-.04-1.2-.12-.48.36-.68.76-.68,1.17,0,.81.86,1.27,2.25,1.27s2.4-.67,2.4-1.43ZM103.21,6.85c0-1.11-.67-1.74-1.53-1.74s-1.53.63-1.53,1.74.68,1.78,1.53,1.78,1.53-.66,1.53-1.78Z"/><path d="M111.46,10.46V.02h2.07v10.55c0,.51.23.69.45.69.09,0,.17,0,.32-.04l.26,1.55c-.25.1-.6.18-1.09.18-1.47,0-2.01-.95-2.01-2.49Z"/><path d="M115.86,10.36c0-1.89,1.57-2.88,5.2-3.27-.03-.95-.41-1.74-1.61-1.74-.88,0-1.71.4-2.49.87l-.76-1.38c.97-.61,2.22-1.16,3.63-1.16,2.21,0,3.3,1.36,3.3,3.82v5.24h-1.7l-.16-.98h-.06c-.79.68-1.7,1.2-2.74,1.2-1.55,0-2.61-1.05-2.61-2.59h0ZM121.06,10.36v-1.99c-2.4.3-3.2.93-3.2,1.82,0,.78.53,1.12,1.27,1.12s1.27-.35,1.92-.96h.01Z"/><path d="M125.62,3.89h1.7l.16,1.2h.06c.79-.77,1.69-1.41,2.9-1.41,1.89,0,2.72,1.28,2.72,3.51v5.55h-2.07v-5.28c0-1.45-.42-2-1.38-2-.78,0-1.29.38-2.02,1.1v6.18h-2.07V3.9h0Z"/><path d="M135.1,14.34c0-.75.46-1.4,1.28-1.89v-.07c-.45-.3-.8-.76-.8-1.48s.47-1.29.98-1.65v-.07c-.6-.45-1.17-1.29-1.17-2.33,0-2.03,1.64-3.18,3.49-3.18.49,0,.95.09,1.31.22h3.16v1.54h-1.61c.29.33.5.88.5,1.48,0,1.97-1.49,3.02-3.36,3.02-.37,0-.8-.08-1.2-.23-.27.23-.43.45-.43.85,0,.5.36.8,1.43.8h1.57c2.11,0,3.24.66,3.24,2.18,0,1.74-1.83,3.12-4.72,3.12-2.11,0-3.68-.76-3.68-2.3h0ZM141.49,13.86c0-.68-.55-.89-1.56-.89h-1.21c-.48,0-.86-.04-1.2-.12-.48.36-.68.76-.68,1.17,0,.81.86,1.27,2.25,1.27s2.4-.67,2.4-1.43ZM140.41,6.85c0-1.11-.67-1.74-1.53-1.74s-1.53.63-1.53,1.74.68,1.78,1.53,1.78,1.53-.66,1.53-1.78Z"/><path d="M144.96,9.43V3.88h2.07v5.28c0,1.45.42,2,1.38,2,.78,0,1.29-.36,1.96-1.22V3.88h2.07v8.84h-1.7l-.16-1.3h-.06c-.78.92-1.63,1.52-2.84,1.52-1.89,0-2.72-1.28-2.72-3.51h0Z"/><path d="M154.59,10.36c0-1.89,1.57-2.88,5.2-3.27-.03-.95-.41-1.74-1.61-1.74-.88,0-1.71.4-2.48.87l-.76-1.38c.97-.61,2.23-1.16,3.63-1.16,2.21,0,3.3,1.36,3.3,3.82v5.24h-1.7l-.16-.98h-.06c-.79.68-1.7,1.2-2.74,1.2-1.55,0-2.61-1.05-2.61-2.59h-.01ZM159.79,10.36v-1.99c-2.4.3-3.2.93-3.2,1.82,0,.78.53,1.12,1.28,1.12s1.27-.35,1.92-.96h0Z"/><path d="M163.75,14.34c0-.75.46-1.4,1.27-1.89v-.07c-.45-.3-.8-.76-.8-1.48s.47-1.29.98-1.65v-.07c-.61-.45-1.17-1.29-1.17-2.33,0-2.03,1.64-3.18,3.49-3.18.49,0,.95.09,1.31.22h3.16v1.54h-1.61c.29.33.5.88.5,1.48,0,1.97-1.49,3.02-3.36,3.02-.38,0-.8-.08-1.2-.23-.27.23-.43.45-.43.85,0,.5.36.8,1.43.8h1.57c2.11,0,3.24.66,3.24,2.18,0,1.74-1.83,3.12-4.72,3.12-2.11,0-3.68-.76-3.68-2.3h.02ZM170.15,13.86c0-.68-.55-.89-1.56-.89h-1.21c-.47,0-.86-.04-1.2-.12-.47.36-.68.76-.68,1.17,0,.81.86,1.27,2.25,1.27s2.4-.67,2.4-1.43ZM169.07,6.85c0-1.11-.67-1.74-1.53-1.74s-1.53.63-1.53,1.74.68,1.78,1.53,1.78,1.53-.66,1.53-1.78Z"/><path d="M172.85,8.32c0-2.87,2-4.65,4.08-4.65,2.39,0,3.65,1.73,3.65,4.2,0,.4-.04.79-.09,1.01h-5.61c.17,1.57,1.18,2.46,2.61,2.46.76,0,1.4-.24,2.05-.64l.71,1.29c-.84.57-1.91.96-3.03.96-2.44,0-4.36-1.71-4.36-4.63h-.01ZM178.78,7.47c0-1.36-.61-2.19-1.82-2.19-1.03,0-1.94.77-2.12,2.19h3.94Z"/><path d="M181.68,11.72l.96-1.32c.79.61,1.54.99,2.44.99.97,0,1.42-.45,1.42-1.06,0-.74-.96-1.07-1.9-1.43-1.16-.44-2.48-1.1-2.48-2.58s1.24-2.64,3.22-2.64c1.23,0,2.22.5,2.94,1.06l-.95,1.27c-.62-.45-1.24-.77-1.94-.77-.89,0-1.31.43-1.31.98,0,.7.89.97,1.85,1.32,1.2.45,2.54,1.02,2.54,2.67,0,1.52-1.2,2.74-3.44,2.74-1.21,0-2.48-.52-3.35-1.23h0Z"/><path class="k" d="M170.87,43.87H49.12c-4.2,0-7.61,3.41-7.61,7.61h0v33.9l70.56,20.75,66.41-20.75v-33.9c0-4.2-3.41-7.61-7.61-7.61h0Z"/><path class="g" d="M178.48,85.38H41.51v41.51l70.56,12.45,66.41-12.45v-41.51h0Z"/><path class="j" d="M41.51,126.89v41.51l66.41,8.3,70.56-8.3v-41.51H41.51h0Z"/><path class="l" d="M49.12,209.9h121.75c4.2,0,7.61-3.41,7.61-7.61h0v-33.9H41.51v33.9c0,4.2,3.41,7.61,7.61,7.61h0Z"/><path class="h" d="M92.01,77.08h-50.5v103.76h50.5c4.2-.01,7.59-3.41,7.61-7.61v-88.55c-.01-4.2-3.41-7.59-7.61-7.61h0Z"/><path class="i" d="M87.86,81.23h-46.35v103.76h46.35c4.2-.01,7.59-3.41,7.61-7.61v-88.55c-.01-4.2-3.41-7.59-7.61-7.61h0Z"/><path class="i" d="M87.86,81.23h-46.35v95.46h46.35c4.2-.01,7.59-3.41,7.61-7.61v-80.25c-.01-4.2-3.41-7.59-7.61-7.61h0Z"/><path class="i" d="M83.71,81.23h-42.2v95.46h42.2c4.2-.01,7.59-3.41,7.61-7.61v-80.25c-.01-4.2-3.41-7.59-7.61-7.61h0Z"/><path class="f" d="M7.61,81.23h76.1c4.2,0,7.61,3.41,7.61,7.61v76.1c0,4.2-3.41,7.61-7.61,7.61H7.61c-4.2,0-7.61-3.41-7.61-7.61v-76.1c0-4.2,3.41-7.61,7.61-7.61Z"/><path class="e" d="M31.22,139.58c.15,1.17.25,2.2.29,3.07h.17c.07-.83.2-1.83.42-3,.21-1.17.4-2.16.57-2.97l8-34.52h10.35l8.3,34.01c.48,2.11.83,4.26,1.03,6.42h.14c.15-2.09.44-4.17.86-6.23l6.62-34.21h9.42l-11.63,49.48h-11l-7.89-32.76c-.23-.94-.49-2.17-.78-3.69s-.46-2.62-.54-3.32h-.14c-.09.81-.27,2-.54,3.59-.27,1.59-.48,2.76-.64,3.52l-7.41,32.66h-11.19l-11.69-49.45h9.59l7.21,34.6c.16.71.32,1.66.46,2.83l.02-.03Z"/></g></svg>