<?xml version="1.0" encoding="UTF-8" standalone="no"?>
<svg
   id="slide_6"
   version="1.1"
   viewBox="0 0 800 426"
   sodipodi:docname="how-to-debug4.svg"
   inkscape:version="1.1.2 (0a00cf5339, 2022-02-04)"
   xmlns:inkscape="http://www.inkscape.org/namespaces/inkscape"
   xmlns:sodipodi="http://sodipodi.sourceforge.net/DTD/sodipodi-0.dtd"
   xmlns="http://www.w3.org/2000/svg"
   xmlns:svg="http://www.w3.org/2000/svg">
  <sodipodi:namedview
     id="namedview148"
     pagecolor="#ffffff"
     bordercolor="#666666"
     borderopacity="1.0"
     inkscape:pageshadow="2"
     inkscape:pageopacity="0.0"
     inkscape:pagecheckerboard="0"
     showgrid="false"
     inkscape:zoom="1.64125"
     inkscape:cx="399.69535"
     inkscape:cy="213.25209"
     inkscape:window-width="3840"
     inkscape:window-height="2130"
     inkscape:window-x="0"
     inkscape:window-y="0"
     inkscape:window-maximized="1"
     inkscape:current-layer="slide_6" />
  <!-- Generator: Adobe Illustrator 29.2.1, SVG Export Plug-In . SVG Version: 2.1.0 Build 116)  -->
  <defs
     id="defs4">
    <style
       id="style2">
      .st0, .st1, .st2, .st3, .st4, .st5 {
        stroke: #404041;
      }

      .st0, .st2 {
        stroke-linecap: round;
        stroke-linejoin: round;
      }

      .st0, .st2, .st3 {
        fill: #e2e4e6;
      }

      .st1 {
        fill: gray;
      }

      .st1, .st3, .st4, .st5 {
        stroke-miterlimit: 10;
      }

      .st2 {
        display: none;
      }

      .st4 {
        fill: #fff;
      }

      .st5 {
        fill: #b3b3b3;
      }
    </style>
  </defs>
  <g
     id="g108">
    <rect
       class="st5"
       x="367.4"
       y="158.5"
       width="139"
       height="138.9"
       rx="24.3"
       ry="24.3"
       id="rect72" />
    <g
       id="g96">
      <g
         id="g84">
        <rect
           class="st3"
           x="387.5"
           y="270.5"
           width="21.9"
           height="10.6"
           rx="3.9"
           ry="3.9"
           id="rect74" />
        <rect
           class="st1"
           x="398.5"
           y="263.7"
           width="12.8"
           height="24.7"
           rx="5.6"
           ry="5.6"
           id="rect76" />
        <rect
           class="st3"
           x="407.2"
           y="282.5"
           width="7.5"
           height="2.9"
           rx=".7"
           ry=".7"
           id="rect78" />
        <rect
           class="st3"
           x="407.2"
           y="275"
           width="7.5"
           height="2.9"
           rx=".7"
           ry=".7"
           id="rect80" />
        <rect
           class="st3"
           x="407.2"
           y="267.5"
           width="7.5"
           height="2.9"
           rx=".7"
           ry=".7"
           id="rect82" />
      </g>
      <g
         id="g94">
        <rect
           class="st3"
           x="424.6"
           y="268.1"
           width="8.1"
           height="8.5"
           rx="2.4"
           ry="2.4"
           id="rect86" />
        <rect
           class="st3"
           x="424.6"
           y="279.1"
           width="8.1"
           height="8.5"
           rx="2.4"
           ry="2.4"
           id="rect88" />
        <rect
           class="st3"
           x="471"
           y="273.6"
           width="19.5"
           height="8.5"
           rx="2.4"
           ry="2.4"
           transform="translate(758.6 -203) rotate(90)"
           id="rect90" />
        <rect
           class="st1"
           x="435.6"
           y="268.1"
           width="37.3"
           height="19.5"
           rx="2.8"
           ry="2.8"
           id="rect92" />
      </g>
    </g>
    <g
       id="g104">
      <path
         class="st4"
         d="M412.2,200.2l-5.1-5.1c-.9-1-2.5-.9-3.4,0-1,.9-1,2.5,0,3.5l5.8,5.5c.5.5,1.1.3,1.7.3h5c-3.3,4.1-5.5,9.1-6.3,14.1h-8.2c-1.6,0-2.8,1.7-2.2,3.3.4,1,1.4,1.7,2.4,1.7h7.6c0,4.2,1.1,8.3,2.9,11.6h-1.8c-.6,0-1.2.4-1.7.8l-5.7,5.9c-.9,1-.9,2.5,0,3.5.5.5,1.1.7,1.7.7s1.2-.2,1.7-.7l5-5.2h3.9c4.7,6,12.1,9.8,19.6,10.3v-50.3h-23Z"
         id="path98" />
      <path
         class="st4"
         d="M472.1,218.5h-8.4c-1-5-3.7-10-6.8-14.1h5.6c.6,0,1.3.1,1.7-.3l5.8-5.7c.9-1,.9-2.4,0-3.3-1-.9-2.5-1-3.4,0l-5.1,5.1h-23v50.3c7.5-.5,14.8-5.1,19.5-10.3h4l5,5.2c.5.5,1.1.7,1.7.7s1.2-.2,1.7-.7c.9-1,.9-2.5,0-3.5l-5.7-6c-.4-.5-1.1-.8-1.7-.8h-1.8c1.9-3.3,2.9-7.5,3-11.6h7.7c1.1,0,2.1-.7,2.4-1.7.5-1.6-.7-3.3-2.2-3.3h0s0,0,0,0Z"
         id="path100" />
      <path
         class="st4"
         d="M421.4,196.8h31c0-5.8-2.9-10.2-7.3-13l3.1-3.1c.9-.9.9-2.4,0-3.4-.9-.9-2.5-.9-3.4,0l-4.5,4.5c-1.1-.3-2.3-.4-3.5-.4s-2.4.1-3.5.4l-4.5-4.5c-.9-.9-2.5-.9-3.4,0-.9.9-.9,2.5,0,3.4l3.1,3c-4.4,2.7-7.2,7.1-7.2,13h0s0,0,0,0Z"
         id="path102" />
    </g>
    <rect
       class="st4"
       x="459.3"
       y="175.5"
       width="13.4"
       height="13.4"
       rx="6.6"
       ry="6.6"
       id="rect106" />
  </g>
  <g
     id="Layer_2">
    <g
       id="g126">
      <polygon
         class="st0"
         points="362.1 226.8 362.1 224.3 332.6 224.3 326.2 218 320.5 218 320.5 220.7 325 220.7 331.4 226.9 362.1 226.8"
         id="polygon110" />
      <polygon
         class="st2"
         points="328.5 265.1 331.4 265.1 331.4 258.7 345.4 241.9 362.7 241.9 362.7 238.6 344.3 238.6 328.5 257.5 328.5 265.1"
         id="polygon112" />
      <polygon
         class="st2"
         points="362.6 231.1 362.6 233.9 335.9 233.9 330.1 240.6 325.5 240.6 325.5 237.6 329 237.6 334.7 231 362.6 231.1"
         id="polygon114" />
      <polygon
         class="st0"
         points="362.1 220.9 362.1 218.3 334.8 218.3 328.8 212 320 211.9 320 214.8 327.7 214.8 333.6 221 362.1 220.9"
         id="polygon116" />
      <polygon
         class="st0"
         points="362.1 214.9 362.1 212.3 336.4 212.3 330.8 206.1 320 206 320 208.8 329.7 208.8 335.3 215 362.1 214.9"
         id="polygon118" />
      <polygon
         class="st0"
         points="362.1 208.9 362.1 206.5 337.9 206.5 325 192.1 320 192.1 320 195 324 195 336.9 209 362.1 208.9"
         id="polygon120" />
      <polygon
         class="st0"
         points="362.1 203 362.1 200.5 339.4 200.5 327.2 186.1 320 186.1 320 189.1 326 189.1 338.4 203.1 362.1 203"
         id="polygon122" />
      <polygon
         class="st2"
         points="327.5 173.2 330.4 173.2 330.4 179.2 343 194.8 362.3 194.8 362.3 197.9 342 197.9 327.5 180.3 327.5 173.2"
         id="polygon124" />
    </g>
    <g
       id="g144">
      <polygon
         class="st0"
         points="331.4 230.4 325 236.6 320.5 236.6 320.5 239.3 326.2 239.3 332.6 233.1 362.1 233.1 362.1 230.5 331.4 230.4"
         id="polygon128" />
      <polygon
         class="st2"
         points="328.5 199.8 344.3 218.7 362.7 218.7 362.7 215.4 345.4 215.4 331.4 198.7 331.4 192.2 328.5 192.2 328.5 199.8"
         id="polygon130" />
      <polygon
         class="st2"
         points="334.7 226.3 329 219.7 325.5 219.7 325.5 216.8 330.1 216.8 335.9 223.5 362.6 223.5 362.6 226.2 334.7 226.3"
         id="polygon132" />
      <polygon
         class="st0"
         points="333.6 236.4 327.7 242.6 320 242.6 320 245.4 328.8 245.3 334.8 239 362.1 239 362.1 236.5 333.6 236.4"
         id="polygon134" />
      <polygon
         class="st0"
         points="335.3 242.3 329.7 248.5 320 248.5 320 251.4 330.8 251.3 336.4 245 362.1 245 362.1 242.4 335.3 242.3"
         id="polygon136" />
      <polygon
         class="st0"
         points="336.9 248.3 324 262.3 320 262.3 320 265.3 325 265.3 337.9 250.8 362.1 250.8 362.1 248.4 336.9 248.3"
         id="polygon138" />
      <polygon
         class="st0"
         points="338.4 254.3 326 268.3 320 268.3 320 271.2 327.2 271.2 339.4 256.8 362.1 256.8 362.1 254.4 338.4 254.3"
         id="polygon140" />
      <polygon
         class="st2"
         points="327.5 277 342 259.5 362.3 259.5 362.3 262.5 343 262.5 330.4 278.1 330.4 284.1 327.5 284.1 327.5 277"
         id="polygon142" />
    </g>
  </g>
</svg>
