<?xml version="1.0" encoding="UTF-8" standalone="no"?>
<svg
   id="slide_6"
   viewBox="0 0 800 426"
   version="1.1"
   sodipodi:docname="how-to-debug2.svg"
   inkscape:version="1.1.2 (0a00cf5339, 2022-02-04)"
   xmlns:inkscape="http://www.inkscape.org/namespaces/inkscape"
   xmlns:sodipodi="http://sodipodi.sourceforge.net/DTD/sodipodi-0.dtd"
   xmlns="http://www.w3.org/2000/svg"
   xmlns:svg="http://www.w3.org/2000/svg">
  <sodipodi:namedview
     id="namedview113"
     pagecolor="#ffffff"
     bordercolor="#666666"
     borderopacity="1.0"
     inkscape:pageshadow="2"
     inkscape:pageopacity="0.0"
     inkscape:pagecheckerboard="0"
     showgrid="false"
     inkscape:zoom="1.64125"
     inkscape:cx="399.69535"
     inkscape:cy="213.25209"
     inkscape:window-width="3840"
     inkscape:window-height="2130"
     inkscape:window-x="0"
     inkscape:window-y="0"
     inkscape:window-maximized="1"
     inkscape:current-layer="slide_6" />
  <defs
     id="defs4">
    <style
       id="style2">.cls-1{fill:#b3b3b3;}.cls-1,.cls-2,.cls-3,.cls-4{stroke:#404041;stroke-miterlimit:10;}.cls-2{fill:#e2e4e6;}.cls-5{fill:#f6a6b0;}.cls-3{fill:#fff;}.cls-4{fill:gray;}</style>
  </defs>
  <g
     id="g110">
    <rect
       class="cls-1"
       x="501.0753"
       y="43.5697"
       width="138.9944"
       height="138.8747"
       rx="24.3102"
       ry="24.3102"
       id="rect86" />
    <g
       id="g108">
      <g
         id="g100">
        <path
           class="cls-3"
           d="M523.5869,81.3833v5.9141h-4.2021v-17.4307h6.9561c1.333,0,2.5117,.2451,3.5381,.7358,1.0254,.4912,1.8193,1.1895,2.3818,2.0952s.8438,1.9336,.8438,3.083c0,1.6997-.6084,3.0586-1.8252,4.0762-1.2178,1.0176-2.8877,1.5264-5.0107,1.5264h-2.6816Zm0-3.2441h2.7539c.8145,0,1.4346-.2036,1.8613-.6108,.4268-.4067,.6406-.9814,.6406-1.7236,0-.8145-.2197-1.4648-.6582-1.9517-.4395-.4868-1.0381-.7339-1.7959-.7422h-2.8018v5.0283Z"
           id="path88" />
        <path
           class="cls-3"
           d="M544.2725,81.1318h-2.2754v6.1655h-4.2021v-17.4307h6.8604c2.0674,0,3.6836,.4585,4.8486,1.375,1.165,.917,1.748,2.2124,1.748,3.8867,0,1.2119-.2461,2.2163-.7363,3.0137-.4912,.7974-1.2598,1.4434-2.3047,1.9375l3.6396,7.0381v.1797h-4.502l-3.0762-6.1655Zm-2.2754-3.2324h2.6582c.7979,0,1.3984-.21,1.8018-.6299s.6045-1.0063,.6045-1.7583-.2031-1.3423-.6104-1.77c-.4072-.4282-1.0059-.6421-1.7959-.6421h-2.6582v4.8003Z"
           id="path90" />
        <path
           class="cls-3"
           d="M560.7188,87.2974h-4.1895v-17.4307h4.1895v17.4307Z"
           id="path92" />
        <path
           class="cls-3"
           d="M580.6494,87.2974h-4.1787l-6.1777-10.8462v10.8462h-4.2021v-17.4307h4.2021l6.166,10.8462v-10.8462h4.1904v17.4307Z"
           id="path94" />
        <path
           class="cls-3"
           d="M599.0957,73.1108h-5.2324v14.1865h-4.2021v-14.1865h-5.1357v-3.2441h14.5703v3.2441Z"
           id="path96" />
        <path
           class="cls-3"
           d="M614.2969,80.3535h-6.7764v6.9438h-4.2021v-17.4307h11.6611v3.2441h-7.459v4.0107h6.7764v3.2319Z"
           id="path98" />
      </g>
      <g
         id="g106">
        <polygon
           class="cls-3"
           points="518.4399 111.8089 526.0288 104.22 554.6333 132.8244 526.6126 160.8451 519.0236 153.2562 539.4554 132.8244 518.4399 111.8089"
           id="polygon102" />
        <rect
           class="cls-3"
           x="558.1359"
           y="151.5049"
           width="60.7115"
           height="10.5078"
           id="rect104" />
      </g>
    </g>
  </g>
</svg>
