<?xml version="1.0" encoding="UTF-8"?><svg id="b" xmlns="http://www.w3.org/2000/svg" viewBox="0 0 496.42 140.32"><defs><style>.h{stroke-dasharray:5.86 3.91;}.h,.i,.j,.k,.l,.m,.n{stroke-miterlimit:10;}.h,.i,.j,.k,.l,.n{fill:none;}.h,.j,.k,.l,.n{stroke:#010101;stroke-width:.5px;}.i,.m{stroke:#000;stroke-width:.75px;}.j{stroke-dasharray:5.87 3.91;}.o,.m{fill:#fff;}.p{fill:#ec2026;}.q{fill:#4368b1;}.l{stroke-dasharray:5.8 3.87;}.r{fill:#b7bcdf;}.s{fill:#010101;}.t{fill:#f2c2c6;}.n{stroke-dasharray:5.97 3.98;}</style></defs><g id="c"><rect class="r" x="269.12" y=".5" width="226.8" height="139.32"/><path class="q" d="M495.42,1v138.32h-225.8V1h225.8M496.42,0h-227.8v140.32h227.8V0h0Z"/><path class="s" d="M278.45,17.79v-2c0-.14.01-.23.04-.26.03-.04.1-.05.23-.05.06,0,.1,0,.14.01.03,0,.06.02.08.04s.03.05.03.07c0,.03,0,.07,0,.13.02.38.13.71.31.97.19.27.43.46.72.58.29.12.56.2.81.24s.5.06.76.06c.51,0,.88-.13,1.1-.39.22-.26.33-.56.33-.89s-.15-.67-.44-.96c-.12-.11-.25-.19-.39-.22-.14-.04-.48-.12-1-.25-.67-.15-1.12-.27-1.37-.36-.25-.1-.49-.27-.74-.51-.4-.42-.6-.91-.6-1.47,0-.62.21-1.14.64-1.57s1.04-.63,1.83-.63c.75,0,1.38.2,1.89.59l.52-.48c.09-.08.17-.12.23-.12h0c.09,0,.15.02.18.06.02.04.03.12.03.25v2.01c0,.13-.01.22-.04.25s-.11.05-.25.05c-.12,0-.2-.01-.22-.04-.03-.02-.05-.11-.08-.25-.08-.47-.25-.85-.49-1.15s-.51-.49-.79-.59c-.28-.1-.58-.14-.9-.14-.48,0-.83.12-1.05.36-.21.24-.32.5-.32.79s.1.56.29.75c.2.2.41.32.65.38l1.6.33c.56.11,1.03.38,1.42.81.39.43.59.94.59,1.54,0,.63-.22,1.18-.65,1.65s-1.08.71-1.95.71-1.6-.2-2.13-.6l-.55.5c-.08.06-.15.1-.23.1-.1,0-.16-.02-.18-.06-.02-.04-.04-.12-.04-.25Z"/><path class="s" d="M285.12,15.5c0-.72.24-1.32.72-1.79.48-.48,1.14-.71,1.99-.71.76,0,1.34.2,1.75.6.41.41.62.98.62,1.69,0,.14-.02.22-.07.25-.05.03-.14.05-.28.05h-3.32c0,1.35.52,2.02,1.55,2.02h.01c.35,0,.66-.08.94-.24.28-.16.48-.37.59-.63.04-.1.08-.16.11-.19.03-.03.1-.04.19-.04.19,0,.28.06.28.19,0,.05-.02.12-.06.21s-.12.21-.22.34-.24.26-.39.38-.37.21-.64.29c-.27.08-.57.12-.9.12-.87,0-1.57-.24-2.09-.71-.52-.47-.78-1.08-.78-1.83ZM286.52,15.21h2.63c-.04-1.22-.48-1.83-1.32-1.83-.45,0-.79.19-1.04.57-.15.23-.24.65-.26,1.26Z"/><path class="s" d="M291.08,17.97v-.52h.64v-3.4c0-.2-.03-.33-.1-.37-.07-.04-.25-.06-.54-.06v-.52l1.83-.09v1.25c.29-.83.77-1.24,1.43-1.25.3,0,.57.08.8.24.23.16.34.38.34.66,0,.2-.07.37-.21.49-.14.12-.31.18-.49.18s-.35-.06-.49-.17-.21-.28-.21-.5c0-.2.07-.37.22-.5-.26,0-.48.07-.68.21s-.33.33-.43.56c-.1.23-.17.46-.21.68-.04.22-.07.44-.07.66v1.93h.96v.52c-.25-.02-.73-.03-1.45-.03-.15,0-.59.01-1.34.03Z"/><path class="s" d="M296.04,13.61v-.52c.07,0,.27,0,.59.02s.55.02.66.02c.54,0,1-.01,1.37-.03v.52h-.6l1.4,3,1.28-2.75c.04-.07.05-.12.05-.13,0-.08-.16-.12-.48-.12h-.04v-.52c.46.02.79.03,1,.03.3,0,.59-.01.87-.03v.52c-.32,0-.53.02-.62.05-.09.03-.16.09-.2.18l-1.83,3.92c-.08.18-.22.26-.41.26s-.33-.09-.41-.27l-1.93-4.14h-.7Z"/><path class="s" d="M302.42,15.5c0-.72.24-1.32.72-1.79.48-.48,1.14-.71,1.99-.71.76,0,1.34.2,1.75.6.41.41.62.98.62,1.69,0,.14-.02.22-.07.25-.05.03-.14.05-.28.05h-3.32c0,1.35.52,2.02,1.55,2.02h.01c.35,0,.66-.08.94-.24.28-.16.48-.37.59-.63.04-.1.08-.16.11-.19.03-.03.1-.04.19-.04.19,0,.28.06.28.19,0,.05-.02.12-.06.21s-.12.21-.22.34-.24.26-.39.38-.37.21-.64.29c-.27.08-.57.12-.9.12-.87,0-1.57-.24-2.09-.71-.52-.47-.78-1.08-.78-1.83ZM303.83,15.21h2.63c-.04-1.22-.48-1.83-1.32-1.83-.45,0-.79.19-1.04.57-.15.23-.24.65-.26,1.26Z"/><path class="s" d="M308.39,17.97v-.52h.64v-3.4c0-.2-.03-.33-.1-.37-.07-.04-.25-.06-.54-.06v-.52l1.83-.09v1.25c.29-.83.77-1.24,1.43-1.25.3,0,.57.08.8.24.23.16.34.38.34.66,0,.2-.07.37-.21.49-.14.12-.31.18-.49.18s-.35-.06-.49-.17-.21-.28-.21-.5c0-.2.07-.37.22-.5-.26,0-.48.07-.68.21s-.33.33-.43.56c-.1.23-.17.46-.21.68-.04.22-.07.44-.07.66v1.93h.96v.52c-.25-.02-.73-.03-1.45-.03-.15,0-.59.01-1.34.03Z"/><path class="s" d="M317.7,19.15c0-.14.04-.24.13-.31s.17-.11.26-.11c.1,0,.17.03.21.08s.07.11.07.18c0,.07-.02.14-.07.21s-.11.12-.19.15c.14.06.33.09.56.09.29,0,.55-.12.76-.38.11-.13.18-.25.23-.35.04-.11.09-.27.14-.49l.17-.67c-.28.28-.57.42-.85.42s-.53-.12-.71-.35-.27-.52-.27-.87c0-.57.19-1.09.57-1.58.38-.49.8-.73,1.24-.73.3,0,.52.15.67.46.02-.1.06-.18.12-.22s.13-.07.19-.07c.14,0,.21.07.21.21,0,.03-.01.09-.03.17l-.87,3.5c-.08.32-.27.59-.56.81-.29.22-.64.33-1.05.33-.64,0-.96-.16-.96-.46ZM318.7,17.1s0,.1.01.15.02.13.05.22.07.17.13.23.15.09.25.09c.2,0,.4-.11.62-.32.21-.22.34-.4.38-.55l.37-1.46.03-.11s0-.08-.02-.15c-.01-.07-.04-.15-.07-.24-.03-.09-.09-.18-.17-.25s-.18-.1-.29-.1c-.15,0-.31.08-.47.23-.16.15-.3.34-.4.56-.09.2-.18.48-.27.86s-.14.65-.14.84Z"/><path class="s" d="M321.71,17.34c0-.08.02-.19.05-.31l1.01-4v-.06s.02-.06.02-.07c0-.03,0-.06-.02-.07s-.05-.03-.11-.04-.15-.02-.28-.02-.19-.03-.2-.09c0-.05,0-.08.03-.11s.04-.04.06-.04.05-.01.09-.02l.79-.06s.07-.02.13-.02c.08,0,.11.03.11.09,0,.02,0,.06-.02.11l-1.14,4.57c-.03.13-.05.25-.05.37,0,.22.07.32.21.32h0c.2,0,.37-.3.51-.9l.05-.2s.05-.04.12-.04c.08,0,.12.03.12.08,0,.01-.01.06-.03.15-.02.09-.05.2-.09.34-.04.13-.08.24-.12.33-.14.28-.33.42-.57.42-.19,0-.36-.07-.49-.2s-.19-.31-.19-.51Z"/><path class="s" d="M323.87,16.75c0-.58.21-1.11.64-1.59s.89-.72,1.39-.72c.35,0,.63.12.85.37.22.25.33.56.33.95,0,.58-.21,1.11-.64,1.59-.42.48-.89.72-1.39.72-.34,0-.62-.12-.84-.35s-.33-.56-.33-.96ZM324.44,17.07c0,.27.06.48.18.61.12.14.26.21.43.21.19,0,.38-.08.57-.23s.34-.34.46-.57c.12-.22.22-.51.3-.85s.13-.61.13-.8c0-.24-.05-.44-.16-.59s-.26-.23-.45-.23c-.16,0-.33.06-.51.19s-.34.31-.48.54c-.12.21-.23.5-.32.86s-.14.65-.14.87Z"/><path class="s" d="M328,16.85c0-.26.03-.48.09-.66l.79-3.16v-.06s.03-.06.03-.07c0-.03,0-.06-.02-.07s-.05-.03-.11-.04-.15-.02-.28-.02-.19-.03-.2-.09c0-.05,0-.08.03-.11s.04-.04.06-.04.05-.01.09-.02l.79-.06s.07-.02.13-.02c.08,0,.11.03.11.09,0,.02,0,.06-.03.1l-.57,2.24c.3-.28.58-.42.85-.42h0c.26,0,.49.11.68.32.19.22.29.52.29.92,0,.59-.19,1.13-.58,1.63-.39.5-.81.75-1.26.75-.28,0-.51-.12-.67-.35s-.25-.52-.25-.87ZM328.45,17.12c0,.27.05.47.14.59s.2.18.33.18c.18,0,.34-.08.5-.26s.27-.34.35-.5c.11-.25.21-.56.31-.95s.14-.67.14-.85-.03-.34-.1-.49c-.07-.15-.18-.22-.34-.22-.27,0-.55.2-.84.59-.08.1-.13.23-.18.37-.2.8-.3,1.31-.3,1.55Z"/><path class="s" d="M331.22,16.82c0-.58.2-1.12.58-1.63.39-.5.81-.76,1.25-.76.3,0,.53.16.67.47.04-.21.15-.31.32-.31.14,0,.22.07.22.21,0,.04-.01.09-.03.17l-.54,2.18c-.04.15-.05.29-.05.41,0,.22.07.33.2.33h0c.2,0,.38-.32.54-.95.02-.09.04-.14.06-.16.02-.02.05-.03.1-.03.08,0,.12.03.12.08,0,.01,0,.06-.03.14s-.05.19-.09.32-.08.24-.12.33c-.14.3-.34.45-.58.45-.15,0-.29-.05-.42-.14s-.21-.23-.25-.42c-.31.37-.63.56-.96.56-.29,0-.53-.12-.71-.36-.18-.24-.26-.53-.26-.88ZM331.76,17.18c0,.18.03.34.1.49s.18.22.34.22c.2,0,.41-.11.62-.33.22-.22.34-.41.38-.57l.37-1.51s.02-.08.02-.11c0-.19-.05-.36-.15-.52-.1-.16-.23-.23-.4-.23s-.32.08-.49.26-.3.38-.4.63c-.08.19-.17.47-.26.84s-.14.65-.14.84Z"/><path class="s" d="M335.19,17.34c0-.08.02-.19.05-.31l1.01-4v-.06s.02-.06.02-.07c0-.03,0-.06-.02-.07s-.05-.03-.11-.04-.15-.02-.28-.02-.19-.03-.2-.09c0-.05,0-.08.03-.11s.04-.04.06-.04.05-.01.09-.02l.79-.06s.07-.02.13-.02c.08,0,.11.03.11.09,0,.02,0,.06-.02.11l-1.14,4.57c-.03.13-.05.25-.05.37,0,.22.07.32.21.32h0c.2,0,.37-.3.51-.9l.05-.2s.05-.04.12-.04c.08,0,.12.03.12.08,0,.01-.01.06-.03.15-.02.09-.05.2-.09.34-.04.13-.08.24-.12.33-.14.28-.33.42-.57.42-.19,0-.36-.07-.49-.2s-.19-.31-.19-.51Z"/><path class="s" d="M339.96,17.29c0-.16.04-.29.12-.37s.17-.12.28-.12c.08,0,.15.02.2.07.05.05.07.11.07.18,0,.03,0,.07-.01.11,0,.04-.05.1-.11.17s-.16.11-.29.12c.1.3.35.45.76.45h.01c.15,0,.29-.02.42-.07.13-.04.23-.1.3-.17s.13-.15.18-.23.08-.16.1-.23.03-.13.03-.19c0-.1-.02-.19-.06-.26-.04-.07-.1-.13-.17-.17-.08-.04-.15-.07-.21-.09-.06-.02-.15-.04-.27-.07-.07-.02-.13-.03-.17-.04s-.11-.04-.19-.08-.15-.08-.2-.13-.09-.12-.13-.21-.06-.2-.06-.31c0-.27.11-.53.32-.79s.53-.39.95-.39c.25,0,.45.07.61.2.15.13.23.29.23.48,0,.15-.03.27-.1.34s-.14.11-.23.11-.14-.02-.18-.07c-.04-.05-.05-.1-.05-.16s.02-.12.07-.2.13-.12.24-.13c-.08-.26-.27-.39-.59-.39-.28,0-.48.08-.61.26s-.2.33-.2.48c0,.11.03.2.09.27.06.07.12.11.17.13.06.02.14.04.25.06.09.03.17.05.22.07.05.02.13.05.23.09s.19.1.25.16c.06.06.12.14.17.24s.07.22.07.35c0,.09-.01.18-.04.29-.03.1-.08.22-.15.35-.07.13-.16.24-.27.35-.11.1-.25.19-.43.26-.18.07-.38.11-.61.11-.29,0-.54-.07-.73-.21s-.29-.33-.29-.56Z"/><path class="s" d="M343.48,16.75c0-.58.21-1.11.64-1.59s.89-.72,1.39-.72c.25,0,.45.07.61.2s.24.29.24.49c0,.14-.04.26-.12.35s-.17.13-.28.13c-.08,0-.15-.03-.2-.08-.05-.05-.07-.11-.07-.18,0-.01,0-.02,0-.04s.01-.05.02-.09c.01-.04.03-.08.05-.11.02-.03.06-.06.12-.09.06-.03.12-.05.19-.06-.08-.23-.27-.34-.56-.34-.19,0-.37.07-.56.21-.19.14-.35.34-.49.59-.1.19-.2.46-.29.81s-.13.63-.13.84c0,.25.05.44.16.59s.26.23.47.23c.09,0,.19,0,.31-.03.11-.02.29-.09.52-.22.23-.13.43-.31.61-.53.05-.06.08-.09.1-.09.03,0,.06.02.08.05s.04.06.04.08c0,.05-.06.15-.19.29-.13.14-.33.28-.61.42s-.57.21-.88.21c-.35,0-.64-.12-.85-.36-.22-.24-.32-.56-.32-.96Z"/><path class="s" d="M346.76,16.75c0-.58.21-1.11.64-1.59s.89-.72,1.39-.72c.35,0,.63.12.85.37.22.25.33.56.33.95,0,.58-.21,1.11-.64,1.59-.42.48-.89.72-1.39.72-.34,0-.62-.12-.84-.35s-.33-.56-.33-.96ZM347.32,17.07c0,.27.06.48.18.61.12.14.26.21.43.21.19,0,.38-.08.57-.23s.34-.34.46-.57c.12-.22.22-.51.3-.85s.13-.61.13-.8c0-.24-.05-.44-.16-.59s-.26-.23-.45-.23c-.16,0-.33.06-.51.19s-.34.31-.48.54c-.12.21-.23.5-.32.86s-.14.65-.14.87Z"/><path class="s" d="M350.08,19.43c0-.1.06-.15.17-.15.16,0,.26-.02.31-.05.05-.03.09-.1.12-.23l.91-3.66c.04-.15.05-.28.05-.4,0-.21-.07-.32-.21-.32-.12,0-.23.08-.32.24-.09.16-.17.4-.25.71-.02.09-.03.14-.05.16s-.04.03-.09.03c-.07,0-.11-.03-.11-.08,0-.01,0-.06.03-.14.02-.08.05-.19.09-.32.04-.13.08-.25.12-.35.14-.28.32-.42.54-.42h0c.13,0,.27.04.4.12.13.08.22.23.26.44.32-.37.64-.56.97-.56.26,0,.49.11.68.32.19.22.29.52.29.92,0,.59-.19,1.13-.58,1.63-.39.5-.8.75-1.25.75-.17,0-.31-.05-.42-.15s-.18-.21-.22-.31l-.29,1.17c-.06.23-.09.36-.09.38,0,.03,0,.05.02.07,0,.02.04.03.11.04.06.01.15.02.27.02s.18.03.18.1c0,.1-.05.15-.15.15-.08,0-.21,0-.38-.01-.17,0-.3-.01-.39-.01-.06,0-.17,0-.32.01s-.26.01-.33.01h0c-.06,0-.09-.03-.09-.1ZM351.63,17.14c0,.05.01.13.03.23s.08.21.17.33c.09.12.2.18.34.18.18,0,.34-.08.5-.26s.27-.34.35-.5c.11-.25.21-.56.31-.95s.14-.67.14-.85-.03-.34-.1-.49c-.06-.15-.17-.22-.33-.22-.2,0-.4.11-.61.33-.21.22-.33.41-.37.57l-.38,1.51c-.04.07-.06.1-.06.11Z"/><path class="s" d="M354.55,16.66c0-.66.21-1.19.64-1.6.43-.41.88-.62,1.35-.62.24,0,.44.07.59.2.15.13.22.29.22.48,0,.03,0,.05,0,.08s-.01.08-.04.16-.05.14-.09.21-.1.13-.19.2c-.09.07-.19.13-.31.18-.3.12-.68.18-1.16.18h-.31c-.09.35-.14.65-.14.88,0,.13.01.26.04.38.03.12.09.23.18.34.1.11.22.16.38.16.09,0,.19,0,.31-.03s.29-.09.52-.22c.23-.13.43-.31.61-.53.05-.06.08-.09.1-.09.03,0,.06.02.09.05.03.03.04.06.04.08,0,.05-.07.15-.2.29-.13.14-.33.28-.61.42s-.57.21-.88.21c-.36,0-.64-.14-.84-.41-.2-.28-.3-.6-.3-.99ZM355.3,15.95h.17c.08,0,.15,0,.22,0s.17-.01.31-.02.26-.04.37-.08.22-.09.33-.14.2-.14.26-.24c.06-.1.09-.22.09-.36s-.04-.25-.13-.35-.21-.14-.37-.14c-.04,0-.08,0-.13.01-.05,0-.13.04-.24.08s-.22.11-.32.2c-.1.08-.2.22-.3.4s-.19.4-.25.64Z"/><rect class="t" x=".5" y=".5" width="226.8" height="139.32"/><path class="p" d="M226.8,1v138.32H1V1h225.8M227.8,0H0v140.32h227.8V0h0Z"/><path class="s" d="M9.1,17.01c-.8-.73-1.2-1.66-1.2-2.81s.4-2.08,1.2-2.81c.8-.73,1.88-1.09,3.22-1.09.83,0,1.55.25,2.17.75l.72-.65c.07-.06.14-.1.21-.1.09,0,.14.02.17.06s.03.12.03.25v2.36c0,.15-.02.24-.05.27s-.12.05-.25.05c-.12,0-.2-.01-.22-.04-.03-.02-.05-.09-.06-.2-.12-.68-.41-1.22-.87-1.63s-1-.61-1.61-.61c-.94,0-1.69.28-2.25.84-.48.5-.73,1.35-.73,2.54,0,1.1.22,1.91.65,2.44.53.62,1.31.93,2.36.93.62,0,1.19-.19,1.7-.56.51-.38.78-.9.82-1.58,0-.09.03-.14.06-.16.04-.02.1-.03.19-.03.1,0,.17.01.21.04.04.03.05.09.05.19,0,.67-.31,1.28-.92,1.82s-1.41.8-2.38.8c-1.35,0-2.43-.36-3.23-1.09Z"/><path class="s" d="M16.84,17.97v-.52h.76v-6.09c0-.2-.04-.33-.12-.37s-.29-.06-.65-.06v-.52l1.95-.09v7.12h.76v.52c-.75-.02-1.2-.03-1.35-.03-.2,0-.65.01-1.35.03Z"/><path class="s" d="M20.35,17.97v-.52h.76v-3.4c0-.2-.04-.33-.11-.37s-.28-.06-.62-.06v-.52l1.92-.09v4.44h.68v.52c-.79-.02-1.22-.03-1.29-.03-.21,0-.66.01-1.34.03ZM20.97,11.79c-.16-.17-.24-.37-.24-.6s.08-.44.24-.6c.16-.17.35-.25.59-.25s.44.08.61.25c.17.17.25.37.25.6s-.08.44-.25.6c-.17.17-.37.25-.6.25s-.43-.08-.59-.25Z"/><path class="s" d="M23.7,15.5c0-.72.24-1.32.72-1.79.48-.48,1.14-.71,1.99-.71.76,0,1.34.2,1.75.6.41.41.62.98.62,1.69,0,.14-.02.22-.07.25-.05.03-.14.05-.28.05h-3.32c0,1.35.52,2.02,1.55,2.02h.01c.35,0,.66-.08.94-.24.28-.16.48-.37.59-.63.04-.1.08-.16.11-.19.03-.03.1-.04.19-.04.19,0,.28.06.28.19,0,.05-.02.12-.06.21s-.12.21-.22.34-.24.26-.39.38-.37.21-.64.29c-.27.08-.57.12-.9.12-.87,0-1.57-.24-2.09-.71-.52-.47-.78-1.08-.78-1.83ZM25.1,15.21h2.63c-.04-1.22-.48-1.83-1.32-1.83-.45,0-.79.19-1.04.57-.15.23-.24.65-.26,1.26Z"/><path class="s" d="M29.69,17.97v-.52h.7v-3.4c0-.2-.04-.33-.11-.37-.07-.04-.27-.06-.6-.06v-.52l1.89-.09v1.19c.4-.79,1.03-1.19,1.9-1.19.56,0,.98.12,1.25.37.28.25.42.65.42,1.21v2.85h.76v.52c-.61-.02-1.08-.03-1.39-.03s-.77.01-1.39.03v-.52h.76v-2.97c0-.4-.05-.67-.16-.83s-.25-.24-.45-.24c-.4,0-.78.15-1.12.46-.34.3-.52.73-.52,1.28v2.3h.76v.52c-.58-.02-1.03-.03-1.36-.03s-.78.01-1.36.03Z"/><path class="s" d="M36.03,13.61v-.4c.51-.01.91-.24,1.2-.68.29-.44.43-.95.44-1.54h.52v2.1h1.61v.52h-1.61v3.04c0,.64.21.96.64.96.17,0,.33-.08.46-.25s.2-.42.2-.76v-.56h.52v.58c0,.41-.12.75-.36,1.02s-.56.41-.97.41c-1.16,0-1.74-.47-1.74-1.42v-3.01h-.9Z"/><path class="s" d="M45.68,17.34c0-.08.02-.19.05-.31l1.01-4v-.06s.02-.06.02-.07c0-.03,0-.06-.02-.07s-.05-.03-.11-.04-.15-.02-.28-.02-.19-.03-.2-.09c0-.05,0-.08.03-.11s.04-.04.06-.04.05-.01.09-.02l.79-.06s.07-.02.13-.02c.08,0,.11.03.11.09,0,.02,0,.06-.02.11l-1.14,4.57c-.03.13-.05.25-.05.37,0,.22.07.32.21.32h0c.2,0,.37-.3.51-.9l.05-.2s.05-.04.12-.04c.08,0,.12.03.12.08,0,.01-.01.06-.03.15-.02.09-.05.2-.09.34-.04.13-.08.24-.12.33-.14.28-.33.42-.57.42-.19,0-.36-.07-.49-.2s-.19-.31-.19-.51Z"/><path class="s" d="M47.84,16.75c0-.58.21-1.11.64-1.59s.89-.72,1.39-.72c.35,0,.63.12.85.37.22.25.33.56.33.95,0,.58-.21,1.11-.64,1.59-.42.48-.89.72-1.39.72-.34,0-.62-.12-.84-.35s-.33-.56-.33-.96ZM48.4,17.07c0,.27.06.48.18.61.12.14.26.21.43.21.19,0,.38-.08.57-.23s.34-.34.46-.57c.12-.22.22-.51.3-.85s.13-.61.13-.8c0-.24-.05-.44-.16-.59s-.26-.23-.45-.23c-.16,0-.33.06-.51.19s-.34.31-.48.54c-.12.21-.23.5-.32.86s-.14.65-.14.87Z"/><path class="s" d="M51.52,16.75c0-.58.21-1.11.64-1.59s.89-.72,1.39-.72c.25,0,.45.07.61.2s.24.29.24.49c0,.14-.04.26-.12.35s-.17.13-.28.13c-.08,0-.15-.03-.2-.08-.05-.05-.07-.11-.07-.18,0-.01,0-.02,0-.04s.01-.05.02-.09c.01-.04.03-.08.05-.11.02-.03.06-.06.12-.09.06-.03.12-.05.19-.06-.08-.23-.27-.34-.56-.34-.19,0-.37.07-.56.21-.19.14-.35.34-.49.59-.1.19-.2.46-.29.81s-.13.63-.13.84c0,.25.05.44.16.59s.26.23.47.23c.09,0,.19,0,.31-.03.11-.02.29-.09.52-.22.23-.13.43-.31.61-.53.05-.06.08-.09.1-.09.03,0,.06.02.08.05s.04.06.04.08c0,.05-.06.15-.19.29-.13.14-.33.28-.61.42s-.57.21-.88.21c-.35,0-.64-.12-.85-.36-.22-.24-.32-.56-.32-.96Z"/><path class="s" d="M54.78,16.82c0-.58.2-1.12.58-1.63.39-.5.81-.76,1.25-.76.3,0,.53.16.67.47.04-.21.15-.31.32-.31.14,0,.22.07.22.21,0,.04-.01.09-.03.17l-.54,2.18c-.04.15-.05.29-.05.41,0,.22.07.33.2.33h0c.2,0,.38-.32.54-.95.02-.09.04-.14.06-.16.02-.02.05-.03.1-.03.08,0,.12.03.12.08,0,.01,0,.06-.03.14s-.05.19-.09.32-.08.24-.12.33c-.14.3-.34.45-.58.45-.15,0-.29-.05-.42-.14s-.21-.23-.25-.42c-.31.37-.63.56-.96.56-.29,0-.53-.12-.71-.36-.18-.24-.26-.53-.26-.88ZM55.32,17.18c0,.18.03.34.1.49s.18.22.34.22c.2,0,.41-.11.62-.33.22-.22.34-.41.38-.57l.37-1.51s.02-.08.02-.11c0-.19-.05-.36-.15-.52-.1-.16-.23-.23-.4-.23s-.32.08-.49.26-.3.38-.4.63c-.08.19-.17.47-.26.84s-.14.65-.14.84Z"/><path class="s" d="M58.76,17.34c0-.08.02-.19.05-.31l1.01-4v-.06s.02-.06.02-.07c0-.03,0-.06-.02-.07s-.05-.03-.11-.04-.15-.02-.28-.02-.19-.03-.2-.09c0-.05,0-.08.03-.11s.04-.04.06-.04.05-.01.09-.02l.79-.06s.07-.02.13-.02c.08,0,.11.03.11.09,0,.02,0,.06-.02.11l-1.14,4.57c-.03.13-.05.25-.05.37,0,.22.07.32.21.32h0c.2,0,.37-.3.51-.9l.05-.2s.05-.04.12-.04c.08,0,.12.03.12.08,0,.01-.01.06-.03.15-.02.09-.05.2-.09.34-.04.13-.08.24-.12.33-.14.28-.33.42-.57.42-.19,0-.36-.07-.49-.2s-.19-.31-.19-.51Z"/><path class="s" d="M63.52,17.29c0-.16.04-.29.12-.37s.17-.12.28-.12c.08,0,.15.02.2.07.05.05.07.11.07.18,0,.03,0,.07-.01.11,0,.04-.05.1-.11.17s-.16.11-.29.12c.1.3.35.45.76.45h.01c.15,0,.29-.02.42-.07.13-.04.23-.1.3-.17s.13-.15.18-.23.08-.16.1-.23.03-.13.03-.19c0-.1-.02-.19-.06-.26-.04-.07-.1-.13-.17-.17-.08-.04-.15-.07-.21-.09-.06-.02-.15-.04-.27-.07-.07-.02-.13-.03-.17-.04s-.11-.04-.19-.08-.15-.08-.2-.13-.09-.12-.13-.21-.06-.2-.06-.31c0-.27.11-.53.32-.79s.53-.39.95-.39c.25,0,.45.07.61.2.15.13.23.29.23.48,0,.15-.03.27-.1.34s-.14.11-.23.11-.14-.02-.18-.07c-.04-.05-.05-.1-.05-.16s.02-.12.07-.2.13-.12.24-.13c-.08-.26-.27-.39-.59-.39-.28,0-.48.08-.61.26s-.2.33-.2.48c0,.11.03.2.09.27.06.07.12.11.17.13.06.02.14.04.25.06.09.03.17.05.22.07.05.02.13.05.23.09s.19.1.25.16c.06.06.12.14.17.24s.07.22.07.35c0,.09-.01.18-.04.29-.03.1-.08.22-.15.35-.07.13-.16.24-.27.35-.11.1-.25.19-.43.26-.18.07-.38.11-.61.11-.29,0-.54-.07-.73-.21s-.29-.33-.29-.56Z"/><path class="s" d="M67.04,16.75c0-.58.21-1.11.64-1.59s.89-.72,1.39-.72c.25,0,.45.07.61.2s.24.29.24.49c0,.14-.04.26-.12.35s-.17.13-.28.13c-.08,0-.15-.03-.2-.08-.05-.05-.07-.11-.07-.18,0-.01,0-.02,0-.04s.01-.05.02-.09c.01-.04.03-.08.05-.11.02-.03.06-.06.12-.09.06-.03.12-.05.19-.06-.08-.23-.27-.34-.56-.34-.19,0-.37.07-.56.21-.19.14-.35.34-.49.59-.1.19-.2.46-.29.81s-.13.63-.13.84c0,.25.05.44.16.59s.26.23.47.23c.09,0,.19,0,.31-.03.11-.02.29-.09.52-.22.23-.13.43-.31.61-.53.05-.06.08-.09.1-.09.03,0,.06.02.08.05s.04.06.04.08c0,.05-.06.15-.19.29-.13.14-.33.28-.61.42s-.57.21-.88.21c-.35,0-.64-.12-.85-.36-.22-.24-.32-.56-.32-.96Z"/><path class="s" d="M70.32,16.75c0-.58.21-1.11.64-1.59s.89-.72,1.39-.72c.35,0,.63.12.85.37.22.25.33.56.33.95,0,.58-.21,1.11-.64,1.59-.42.48-.89.72-1.39.72-.34,0-.62-.12-.84-.35s-.33-.56-.33-.96ZM70.88,17.07c0,.27.06.48.18.61.12.14.26.21.43.21.19,0,.38-.08.57-.23s.34-.34.46-.57c.12-.22.22-.51.3-.85s.13-.61.13-.8c0-.24-.05-.44-.16-.59s-.26-.23-.45-.23c-.16,0-.33.06-.51.19s-.34.31-.48.54c-.12.21-.23.5-.32.86s-.14.65-.14.87Z"/><path class="s" d="M73.64,19.43c0-.1.06-.15.17-.15.16,0,.26-.02.31-.05.05-.03.09-.1.12-.23l.91-3.66c.04-.15.05-.28.05-.4,0-.21-.07-.32-.21-.32-.12,0-.23.08-.32.24-.09.16-.17.4-.25.71-.02.09-.03.14-.05.16s-.04.03-.09.03c-.07,0-.11-.03-.11-.08,0-.01,0-.06.03-.14.02-.08.05-.19.09-.32.04-.13.08-.25.12-.35.14-.28.32-.42.54-.42h0c.13,0,.27.04.4.12.13.08.22.23.26.44.32-.37.64-.56.97-.56.26,0,.49.11.68.32.19.22.29.52.29.92,0,.59-.19,1.13-.58,1.63-.39.5-.8.75-1.25.75-.17,0-.31-.05-.42-.15s-.18-.21-.22-.31l-.29,1.17c-.06.23-.09.36-.09.38,0,.03,0,.05.02.07,0,.02.04.03.11.04.06.01.15.02.27.02s.18.03.18.1c0,.1-.05.15-.15.15-.08,0-.21,0-.38-.01-.17,0-.3-.01-.39-.01-.06,0-.17,0-.32.01s-.26.01-.33.01h0c-.06,0-.09-.03-.09-.1ZM75.19,17.14c0,.05.01.13.03.23s.08.21.17.33c.09.12.2.18.34.18.18,0,.34-.08.5-.26s.27-.34.35-.5c.11-.25.21-.56.31-.95s.14-.67.14-.85-.03-.34-.1-.49c-.06-.15-.17-.22-.33-.22-.2,0-.4.11-.61.33-.21.22-.33.41-.37.57l-.38,1.51c-.04.07-.06.1-.06.11Z"/><path class="s" d="M78.11,16.66c0-.66.21-1.19.64-1.6.43-.41.88-.62,1.35-.62.24,0,.44.07.59.2.15.13.22.29.22.48,0,.03,0,.05,0,.08s-.01.08-.04.16-.05.14-.09.21-.1.13-.19.2c-.09.07-.19.13-.31.18-.3.12-.68.18-1.16.18h-.31c-.09.35-.14.65-.14.88,0,.13.01.26.04.38.03.12.09.23.18.34.1.11.22.16.38.16.09,0,.19,0,.31-.03s.29-.09.52-.22c.23-.13.43-.31.61-.53.05-.06.08-.09.1-.09.03,0,.06.02.09.05.03.03.04.06.04.08,0,.05-.07.15-.2.29-.13.14-.33.28-.61.42s-.57.21-.88.21c-.36,0-.64-.14-.84-.41-.2-.28-.3-.6-.3-.99ZM78.86,15.95h.17c.08,0,.15,0,.22,0s.17-.01.31-.02.26-.04.37-.08.22-.09.33-.14.2-.14.26-.24c.06-.1.09-.22.09-.36s-.04-.25-.13-.35-.21-.14-.37-.14c-.04,0-.08,0-.13.01-.05,0-.13.04-.24.08s-.22.11-.32.2c-.1.08-.2.22-.3.4s-.19.4-.25.64Z"/><rect class="o" x="8.01" y="83.23" width="131.7" height="46.98"/><path d="M139.33,83.6v46.23H8.38v-46.23h130.95M140.08,82.85H7.63v47.73h132.45v-47.73h0Z"/><path class="s" d="M33.06,96.01v-.38h.85v-4.74h-.85v-.38h3c.72,0,1.3.14,1.72.42.42.28.64.63.64,1.06,0,.28-.11.54-.33.77-.22.23-.55.4-.99.52.51.19.81.5.89.94,0,.01.02.12.05.32.03.21.05.32.05.35.02.12.03.22.04.29s.04.17.07.28.09.19.17.25c.08.06.17.08.28.08.13,0,.24-.05.33-.14s.15-.23.17-.41c0-.04.01-.07.02-.09,0-.02.02-.04.05-.06.03-.02.07-.03.12-.03.13,0,.19.06.19.18,0,.04,0,.08-.02.14-.01.06-.04.13-.08.21s-.09.16-.15.24c-.06.07-.16.13-.28.19s-.27.08-.43.08c-.49,0-.88-.07-1.14-.21-.13-.07-.23-.14-.31-.22s-.13-.18-.16-.3c-.03-.12-.06-.42-.1-.91,0,0,0-.1-.02-.29-.01-.2-.08-.36-.21-.49-.17-.18-.4-.27-.71-.27h-.94v2.23h.85v.38c-.19-.02-.65-.02-1.39-.02s-1.2,0-1.39.02ZM35,93.12h.92c.25,0,.46-.03.63-.08.17-.05.31-.11.39-.18.09-.06.15-.16.2-.28s.07-.22.08-.29c0-.07,0-.17,0-.29s0-.23-.01-.31c0-.08-.03-.17-.08-.29s-.11-.2-.19-.27c-.08-.06-.21-.12-.38-.17s-.38-.08-.62-.08h-.93v2.22Z"/><path class="s" d="M39.93,92.85v-.38l1.45-.07v2.73c0,.24.03.41.1.5.07.09.25.13.53.13s.53-.1.71-.3c.18-.2.27-.46.27-.78v-1.53c0-.15-.03-.24-.08-.27-.06-.03-.21-.04-.46-.04v-.38l1.45-.07v2.91c0,.15.03.24.08.27.06.03.21.04.47.04v.38l-1.41.05v-.62c-.24.41-.62.62-1.13.62h0c-.45,0-.8-.07-1.05-.22s-.38-.42-.38-.81v-1.86c0-.15-.03-.24-.08-.27-.06-.03-.21-.04-.46-.04Z"/><path class="s" d="M45.01,96.01v-.38h.51v-2.47c0-.15-.03-.24-.08-.27-.05-.03-.19-.04-.43-.04v-.38l1.36-.07v.87c.29-.58.74-.86,1.37-.87.4,0,.7.09.9.27.2.18.3.47.3.88v2.07h.54v.38c-.44-.02-.77-.02-1-.02s-.56,0-1,.02v-.38h.54v-2.16c0-.29-.04-.49-.11-.61s-.18-.17-.32-.17c-.29,0-.56.11-.81.33s-.37.53-.37.93v1.67h.54v.38c-.42-.02-.74-.02-.98-.02s-.56,0-.98.02Z"/><path class="s" d="M49.57,92.83v-.29c.37-.01.66-.17.86-.49s.31-.69.32-1.12h.37v1.53h1.15v.38h-1.15v2.21c0,.46.15.7.46.7.13,0,.24-.06.33-.18.1-.12.14-.3.14-.55v-.41h.37v.42c0,.3-.09.55-.26.74-.17.2-.4.29-.7.29-.84,0-1.25-.34-1.25-1.03v-2.19h-.65Z"/><path class="s" d="M53.31,96.01v-.38h.55v-2.47c0-.15-.03-.24-.08-.27s-.2-.04-.45-.04v-.38l1.38-.07v3.23h.49v.38c-.57-.02-.88-.02-.93-.02-.15,0-.48,0-.97.02ZM53.75,91.51c-.11-.12-.17-.27-.17-.44s.06-.32.17-.44.25-.18.42-.18.32.06.44.18c.12.12.18.27.18.44s-.06.32-.18.44c-.12.12-.27.18-.43.18s-.31-.06-.42-.18Z"/><path class="s" d="M55.85,96.01v-.38h.51v-2.47c0-.15-.03-.24-.08-.27-.05-.03-.19-.04-.43-.04v-.38l1.36-.07v.87c.29-.58.75-.86,1.38-.87.67,0,1.06.26,1.17.77.29-.51.73-.77,1.33-.77.42,0,.72.09.92.27s.3.48.3.88v2.07h.54v.38c-.44-.02-.77-.02-1-.02s-.55,0-1,.02v-.38h.54v-2.16c0-.29-.04-.5-.11-.61s-.18-.17-.33-.17c-.29,0-.55.11-.8.33-.25.22-.37.53-.37.93v1.67h.54v.38c-.44-.02-.77-.02-.99-.02s-.55,0-1,.02v-.38h.54v-2.16c0-.29-.04-.5-.11-.61s-.19-.17-.33-.17c-.29,0-.55.11-.8.33-.25.22-.37.53-.37.93v1.67h.54v.38c-.44-.02-.77-.02-1-.02s-.54,0-.96.02Z"/><path class="s" d="M63.29,94.21c0-.52.17-.96.52-1.3.34-.35.82-.52,1.43-.52.54,0,.96.14,1.26.43.3.3.44.71.44,1.23,0,.1-.02.16-.05.19-.03.02-.1.03-.2.03h-2.39c0,.98.37,1.47,1.11,1.47h0c.25,0,.48-.06.68-.18.2-.12.34-.27.42-.46.03-.07.05-.12.08-.14s.07-.03.14-.03c.14,0,.2.05.2.14,0,.04-.01.09-.04.16s-.08.15-.16.25c-.08.1-.17.19-.28.28-.11.08-.27.16-.46.21-.19.06-.41.09-.64.09-.63,0-1.13-.17-1.5-.52-.37-.34-.56-.79-.56-1.33ZM64.3,94h1.89c-.03-.89-.34-1.33-.95-1.33-.32,0-.57.14-.75.41-.11.17-.17.47-.19.91Z"/><path class="s" d="M70.61,94.91c0-.23.08-.44.25-.64.04-.04.2-.18.5-.44l.59-.5c-.23-.53-.35-1.04-.35-1.54,0-.43.15-.78.45-1.03s.63-.38,1-.38c.28,0,.49.11.64.34.15.22.22.46.22.71s-.14.54-.43.88c-.22.25-.45.47-.69.68.25.54.72,1.18,1.4,1.91.47-.45.97-1.11,1.51-1.97-.13-.05-.32-.08-.57-.08v-.38c.22.02.54.02.96.02.27,0,.53,0,.78-.02v.38c-.18,0-.3,0-.38,0s-.16.02-.24.04c-.08.02-.14.06-.18.12l-.65.96c-.25.36-.58.76-.99,1.18.41.4.78.59,1.12.59.06,0,.13,0,.2-.02.08-.01.17-.04.28-.08.11-.04.2-.11.28-.2.08-.1.12-.21.13-.36h.37c-.01.32-.14.57-.4.76-.25.18-.55.28-.89.28-.53,0-1.09-.17-1.67-.5-.51.33-1.03.5-1.58.5-.46,0-.85-.11-1.18-.33s-.49-.51-.49-.86ZM71.62,94.62c0,.09,0,.18.03.28.02.1.05.22.1.36s.12.25.23.34c.11.09.24.13.4.13.42,0,.8-.12,1.16-.35-.59-.45-1.08-1.04-1.47-1.78-.3.21-.45.55-.45,1.02ZM72.44,91.49c0,.43.08.83.23,1.2.58-.53.87-.95.87-1.27,0-.17-.04-.34-.12-.51s-.2-.25-.37-.25c-.14,0-.27.07-.41.2s-.2.34-.2.64Z"/><path class="s" d="M80.62,97.18h.54v-4.03c0-.15-.03-.24-.08-.26-.06-.03-.21-.04-.46-.04v-.38l1.4-.07v.39c.33-.26.73-.39,1.2-.39.56,0,1.01.17,1.35.5.34.33.51.77.51,1.31s-.18,1-.55,1.33c-.37.33-.85.5-1.44.5-.39,0-.72-.12-1.01-.36v1.49h.54v.38c-.44-.02-.77-.02-1-.02s-.55,0-1,.02v-.38ZM82.06,95.07c0,.08,0,.13.01.15,0,.02.03.06.07.11.24.29.52.43.84.43.29,0,.54-.13.75-.38.21-.25.32-.64.32-1.17,0-.48-.09-.85-.28-1.11-.19-.26-.42-.39-.7-.39-.36,0-.66.13-.9.38-.06.06-.09.1-.1.12,0,.02-.01.07-.01.14v1.69Z"/><path class="s" d="M85.75,96.01v-.38h.46v-2.47c0-.15-.02-.24-.07-.27-.05-.03-.18-.04-.39-.04v-.38l1.31-.07v.91c.21-.6.55-.9,1.03-.91.22,0,.41.06.57.18.17.12.25.28.25.48,0,.15-.05.27-.15.36s-.22.13-.35.13-.25-.04-.35-.13-.15-.21-.15-.36c0-.14.05-.27.16-.37-.19,0-.35.05-.49.16-.14.1-.24.24-.31.41-.07.17-.12.33-.15.49-.03.16-.05.32-.05.48v1.4h.69v.38c-.18-.02-.53-.02-1.04-.02-.11,0-.43,0-.96.02Z"/><path class="s" d="M89.36,94.27c0-.55.18-1,.53-1.35.36-.35.85-.53,1.48-.53s1.12.18,1.48.53.54.8.54,1.35c0,.52-.18.95-.53,1.28-.35.34-.85.51-1.49.51s-1.13-.17-1.49-.51c-.35-.34-.53-.76-.53-1.28ZM90.37,94.18c0,.16,0,.28,0,.36s.01.2.03.35.05.26.09.34.1.17.17.26.17.16.28.2c.12.04.26.06.42.06s.3-.02.42-.06c.12-.04.21-.1.29-.2s.13-.18.17-.26.07-.19.09-.34c.02-.15.03-.26.03-.35s0-.2,0-.36c0-.55-.06-.92-.17-1.1-.17-.27-.45-.41-.84-.41-.42,0-.71.16-.87.46-.09.18-.13.53-.13,1.04Z"/><path class="s" d="M93.91,96.61c0-.12.03-.22.09-.32.06-.09.13-.17.22-.22.09-.05.16-.09.21-.11s.11-.04.15-.05c-.27-.19-.41-.44-.41-.77,0-.25.11-.48.33-.71-.12-.09-.22-.21-.29-.37s-.11-.31-.11-.47c0-.32.13-.6.38-.83s.64-.35,1.15-.35c.46,0,.82.09,1.09.27.26-.2.54-.3.85-.3.16,0,.28.05.37.15s.13.2.13.32c0,.1-.03.18-.09.24s-.15.1-.25.1-.18-.03-.25-.1-.09-.15-.09-.25c0-.05.01-.11.03-.16-.17.02-.34.07-.5.15.22.23.32.49.32.77,0,.32-.13.6-.4.83s-.67.35-1.21.35c-.37,0-.69-.07-.94-.21-.04.07-.06.16-.06.27s.03.2.1.31.17.17.32.2c.02,0,.22,0,.58,0,.32,0,.56,0,.71,0,.15,0,.32.03.5.06.18.04.35.09.49.15.4.2.6.54.6,1.02,0,.3-.17.55-.52.74-.34.2-.85.29-1.53.29s-1.21-.1-1.52-.31-.47-.44-.47-.7ZM94.59,96.59c0,.2.11.38.33.52.22.14.54.21.98.21.47,0,.82-.08,1.04-.22.22-.15.33-.31.33-.49,0-.33-.38-.5-1.14-.5h-.93c-.4,0-.61.16-.61.48ZM94.95,93.36c0,.06,0,.13,0,.23s0,.18,0,.23c0,.06.02.13.04.23.02.1.06.17.11.22s.12.1.21.14.21.06.34.06.24-.02.34-.06.16-.09.21-.14.08-.13.11-.22c.02-.1.04-.17.04-.23,0-.06,0-.13,0-.23s0-.18,0-.23c0-.06-.02-.13-.04-.23-.02-.1-.06-.17-.11-.22s-.12-.1-.21-.14-.21-.06-.34-.06-.24.02-.34.06-.16.09-.21.14-.08.13-.11.22c-.02.1-.04.17-.04.23Z"/><path class="s" d="M98.57,96.01v-.38h.46v-2.47c0-.15-.02-.24-.07-.27-.05-.03-.18-.04-.39-.04v-.38l1.31-.07v.91c.21-.6.55-.9,1.03-.91.22,0,.41.06.57.18.17.12.25.28.25.48,0,.15-.05.27-.15.36s-.22.13-.35.13-.25-.04-.35-.13-.15-.21-.15-.36c0-.14.05-.27.16-.37-.19,0-.35.05-.49.16-.14.1-.24.24-.31.41-.07.17-.12.33-.15.49-.03.16-.05.32-.05.48v1.4h.69v.38c-.18-.02-.53-.02-1.04-.02-.11,0-.43,0-.96.02Z"/><path class="s" d="M102.19,95.15c0-.76.85-1.18,2.55-1.26v-.27c0-.63-.28-.95-.84-.95-.21,0-.4.02-.58.05.13.08.19.21.19.39,0,.16-.05.28-.16.37-.11.09-.23.13-.38.13-.12,0-.23-.04-.33-.13s-.15-.21-.15-.37c0-.49.47-.74,1.41-.74.57,0,1,.11,1.29.34.29.22.44.52.44.9v1.72c0,.08,0,.13.02.16s.05.06.13.09c.07.03.19.04.34.04.05,0,.08,0,.1,0s.04.02.07.05.04.07.04.13c0,.09-.02.14-.06.16-.04.02-.1.03-.2.03h-.38c-.2,0-.35-.02-.47-.06-.12-.04-.2-.09-.25-.17-.04-.07-.07-.14-.08-.19s-.02-.12-.02-.21c-.22.44-.6.66-1.15.66-.16,0-.32-.01-.48-.04-.16-.02-.33-.07-.5-.13s-.31-.16-.41-.28c-.1-.13-.15-.28-.15-.46ZM103.09,95.14c0,.18.07.33.22.45.15.12.32.18.53.18.07,0,.14-.01.23-.03.08-.02.18-.06.29-.11.11-.05.2-.14.27-.27.07-.13.11-.28.11-.46v-.76c-.12,0-.23.01-.33.03s-.24.04-.42.09-.32.1-.44.16c-.12.06-.23.16-.32.29s-.14.27-.14.44Z"/><path class="s" d="M106.75,96.01v-.38h.51v-2.47c0-.15-.03-.24-.08-.27-.05-.03-.19-.04-.43-.04v-.38l1.36-.07v.87c.29-.58.75-.86,1.38-.87.67,0,1.06.26,1.17.77.29-.51.73-.77,1.33-.77.42,0,.72.09.92.27s.3.48.3.88v2.07h.54v.38c-.44-.02-.77-.02-1-.02s-.55,0-1,.02v-.38h.54v-2.16c0-.29-.04-.5-.11-.61s-.18-.17-.33-.17c-.29,0-.55.11-.8.33-.25.22-.37.53-.37.93v1.67h.54v.38c-.44-.02-.77-.02-.99-.02s-.55,0-1,.02v-.38h.54v-2.16c0-.29-.04-.5-.11-.61s-.19-.17-.33-.17c-.29,0-.55.11-.8.33-.25.22-.37.53-.37.93v1.67h.54v.38c-.44-.02-.77-.02-1-.02s-.54,0-.96.02Z"/><rect class="o" x="11.73" y="106.45" width="124.25" height="19.47"/><path d="M135.61,106.82v18.72H12.11v-18.72h123.5M136.36,106.07H11.36v20.22h125v-20.22h0Z"/><line class="m" x1="35.53" y1="106.07" x2="35.53" y2="126.29"/><line class="m" x1="61.08" y1="106.07" x2="61.08" y2="126.29"/><line class="m" x1="86.63" y1="106.07" x2="86.63" y2="126.29"/><line class="m" x1="112.19" y1="106.07" x2="112.19" y2="126.29"/><rect class="o" x="43.85" y="107.82" width="60.01" height="7.07"/><path class="s" d="M48.24,113.89v-.38h.86v-4.69h-.86v-.38h4.97l.25,1.93h-.38c-.03-.22-.06-.4-.09-.54-.04-.14-.09-.28-.16-.42s-.17-.25-.28-.33c-.11-.08-.26-.14-.44-.19-.18-.05-.4-.07-.65-.07h-1.21v2.06h.44c.36,0,.59-.07.69-.22s.16-.38.16-.72h.38v2.25h-.38c0-.34-.05-.58-.16-.72s-.33-.22-.69-.22h-.44v2.26h1.21c.24,0,.45-.02.64-.05.18-.04.34-.09.47-.18.13-.08.24-.17.32-.26.09-.09.16-.22.22-.37s.1-.3.13-.44c.03-.14.06-.31.1-.52h.38l-.37,2.19h-5.1Z"/><path class="s" d="M54.17,110.71v-.38c.05,0,.2,0,.43.01s.4.01.48.01c.4,0,.73,0,.99-.02v.38h-.43l1.02,2.18.93-2c.03-.05.04-.08.04-.1,0-.06-.12-.09-.35-.09h-.03v-.38c.34.02.58.02.73.02.22,0,.43,0,.63-.02v.38c-.23,0-.38.01-.45.04s-.11.07-.14.13l-1.33,2.85c-.06.13-.16.19-.3.19s-.24-.07-.3-.2l-1.4-3.01h-.51Z"/><path class="s" d="M58.81,112.09c0-.52.17-.96.52-1.3s.83-.52,1.45-.52c.55,0,.97.14,1.27.43.3.3.45.71.45,1.23,0,.1-.02.16-.05.19s-.1.03-.21.03h-2.41c0,.98.38,1.47,1.12,1.47h0c.25,0,.48-.06.69-.18s.35-.27.43-.46c.03-.07.05-.12.08-.14.02-.02.07-.03.14-.03.14,0,.21.05.21.14,0,.04-.01.09-.04.16s-.08.15-.16.25-.17.19-.29.28-.27.16-.46.21-.41.09-.65.09c-.64,0-1.14-.17-1.52-.52s-.57-.79-.57-1.33ZM59.84,111.88h1.91c-.03-.89-.35-1.33-.96-1.33-.33,0-.58.14-.76.41-.11.17-.17.47-.19.91Z"/><path class="s" d="M63.17,113.89v-.38h.51v-2.47c0-.15-.03-.24-.08-.27s-.2-.04-.43-.04v-.38l1.38-.07v.87c.29-.58.75-.86,1.38-.87.41,0,.71.09.91.27.2.18.3.47.3.88v2.07h.55v.38c-.45-.02-.78-.02-1.01-.02s-.56,0-1.01.02v-.38h.55v-2.16c0-.29-.04-.49-.11-.61s-.18-.17-.33-.17c-.29,0-.57.11-.82.33s-.38.53-.38.93v1.67h.55v.38c-.42-.02-.75-.02-.99-.02s-.56,0-.99.02Z"/><path class="s" d="M67.79,110.71v-.29c.37-.01.66-.17.87-.49s.32-.69.32-1.12h.38v1.53h1.17v.38h-1.17v2.21c0,.46.15.7.46.7.13,0,.24-.06.33-.18.1-.12.14-.3.14-.55v-.41h.38v.42c0,.3-.09.55-.26.74s-.41.29-.7.29c-.84,0-1.27-.34-1.27-1.03v-2.19h-.65Z"/><path class="s" d="M74.76,111.18c0-.85.27-1.55.8-2.07.53-.53,1.25-.79,2.15-.79s1.6.26,2.13.78.8,1.22.8,2.08c0,.24-.03.47-.08.7s-.14.46-.25.71c-.11.24-.29.46-.51.67-.23.2-.5.37-.81.49.08.11.15.2.22.27s.14.12.21.14.12.04.16.05.09,0,.16,0c.42,0,.65-.1.68-.31.02-.11.06-.16.14-.16.1,0,.14.07.14.21,0,.21-.03.42-.1.63s-.19.41-.36.59-.39.27-.64.27c-.14,0-.27-.03-.38-.08s-.2-.12-.27-.19-.13-.18-.2-.34-.11-.29-.14-.41-.08-.29-.14-.52c-.24.05-.49.07-.76.07-.91,0-1.63-.26-2.16-.78s-.79-1.19-.79-2.02ZM75.94,111.17c0,.22,0,.41.02.58.02.17.05.37.11.62.06.25.16.47.31.66.15.19.34.35.57.46-.02-.04-.02-.1-.02-.18,0-.19.08-.34.23-.47s.34-.19.54-.19c.16,0,.32.04.46.13s.25.17.31.25.14.18.22.31c.51-.35.77-1.07.77-2.15,0-.76-.11-1.33-.33-1.71-.32-.56-.79-.84-1.44-.84-.11,0-.22.01-.33.03s-.24.06-.38.12-.28.15-.41.27-.25.28-.35.46c-.2.38-.3.93-.3,1.65ZM77.21,113.3s0,.09.03.14c.02.05.07.09.15.14s.19.07.32.07c.25,0,.46-.04.66-.13-.12-.39-.34-.59-.66-.59-.13,0-.25.03-.35.1s-.15.16-.15.26Z"/><path class="s" d="M81.51,110.73v-.38l1.46-.07v2.73c0,.24.03.41.1.5.07.09.25.13.54.13s.53-.1.72-.3.28-.46.28-.78v-1.53c0-.15-.03-.24-.08-.27s-.21-.04-.47-.04v-.38l1.46-.07v2.91c0,.15.03.24.08.27s.21.04.47.04v.38l-1.42.05v-.62c-.24.41-.62.62-1.14.62h0c-.45,0-.81-.07-1.06-.22s-.38-.42-.38-.81v-1.86c0-.15-.03-.24-.08-.27s-.21-.04-.47-.04Z"/><path class="s" d="M86.51,112.09c0-.52.17-.96.52-1.3s.83-.52,1.45-.52c.55,0,.97.14,1.27.43.3.3.45.71.45,1.23,0,.1-.02.16-.05.19s-.1.03-.21.03h-2.41c0,.98.38,1.47,1.12,1.47h0c.25,0,.48-.06.69-.18s.35-.27.43-.46c.03-.07.05-.12.08-.14.02-.02.07-.03.14-.03.14,0,.21.05.21.14,0,.04-.01.09-.04.16s-.08.15-.16.25-.17.19-.29.28-.27.16-.46.21-.41.09-.65.09c-.64,0-1.14-.17-1.52-.52s-.57-.79-.57-1.33ZM87.54,111.88h1.91c-.03-.89-.35-1.33-.96-1.33-.33,0-.58.14-.76.41-.11.17-.17.47-.19.91Z"/><path class="s" d="M90.83,110.73v-.38l1.46-.07v2.73c0,.24.03.41.1.5.07.09.25.13.54.13s.53-.1.72-.3.28-.46.28-.78v-1.53c0-.15-.03-.24-.08-.27s-.21-.04-.47-.04v-.38l1.46-.07v2.91c0,.15.03.24.08.27s.21.04.47.04v.38l-1.42.05v-.62c-.24.41-.62.62-1.14.62h0c-.45,0-.81-.07-1.06-.22s-.38-.42-.38-.81v-1.86c0-.15-.03-.24-.08-.27s-.21-.04-.47-.04Z"/><path class="s" d="M95.83,112.09c0-.52.17-.96.52-1.3s.83-.52,1.45-.52c.55,0,.97.14,1.27.43.3.3.45.71.45,1.23,0,.1-.02.16-.05.19s-.1.03-.21.03h-2.41c0,.98.38,1.47,1.12,1.47h0c.25,0,.48-.06.69-.18s.35-.27.43-.46c.03-.07.05-.12.08-.14.02-.02.07-.03.14-.03.14,0,.21.05.21.14,0,.04-.01.09-.04.16s-.08.15-.16.25-.17.19-.29.28-.27.16-.46.21-.41.09-.65.09c-.64,0-1.14-.17-1.52-.52s-.57-.79-.57-1.33ZM96.85,111.88h1.91c-.03-.89-.35-1.33-.96-1.33-.33,0-.58.14-.76.41-.11.17-.17.47-.19.91Z"/><rect class="o" x="353.59" y="72.29" width="135.45" height="57.92"/><path d="M488.66,72.66v57.17h-134.7v-57.17h134.7M489.41,71.91h-136.2v58.67h136.2v-58.67h0Z"/><path class="s" d="M380.57,89.08v-.38h.86v-4.74h-.86v-.38h3.04c.73,0,1.31.14,1.74.42.43.28.64.63.64,1.06,0,.28-.11.54-.33.77-.22.23-.56.4-1,.52.52.19.82.5.9.94,0,.01.02.12.05.32.03.2.05.32.05.35.02.12.03.22.04.3.01.08.04.17.08.28s.1.19.17.25c.08.06.17.08.28.08.13,0,.24-.05.34-.14s.16-.23.18-.41c0-.04.01-.07.02-.09,0-.02.02-.04.05-.06s.07-.03.12-.03c.13,0,.19.06.19.18,0,.04,0,.08-.02.14s-.04.13-.08.21c-.04.08-.09.16-.16.24-.06.07-.16.13-.28.19-.12.05-.27.08-.43.08-.5,0-.88-.07-1.16-.21-.13-.07-.24-.14-.31-.22-.08-.08-.13-.18-.17-.3s-.07-.42-.1-.91c0,0,0-.1-.02-.3-.01-.2-.08-.36-.21-.49-.17-.18-.41-.27-.72-.27h-.95v2.23h.86v.38c-.19-.02-.66-.02-1.41-.02s-1.21,0-1.41.02ZM382.53,86.19h.93c.25,0,.46-.03.64-.08.18-.05.31-.11.4-.18.09-.06.15-.16.2-.28.05-.12.07-.22.08-.29,0-.07,0-.17,0-.29s0-.23-.01-.31-.03-.17-.08-.29c-.04-.11-.11-.2-.2-.27-.08-.06-.21-.12-.39-.17-.17-.05-.38-.08-.63-.08h-.94v2.22Z"/><path class="s" d="M387.51,85.92v-.38l1.46-.07v2.73c0,.24.04.41.1.5.07.09.25.13.54.13s.53-.1.72-.3.28-.46.28-.78v-1.53c0-.15-.03-.24-.08-.27s-.21-.04-.47-.04v-.38l1.46-.07v2.91c0,.15.03.24.08.27.06.03.21.04.47.04v.38l-1.42.05v-.62c-.24.41-.62.62-1.14.62h0c-.45,0-.81-.07-1.06-.22s-.38-.42-.38-.81v-1.86c0-.15-.03-.24-.08-.27-.06-.03-.21-.04-.47-.04Z"/><path class="s" d="M392.65,89.08v-.38h.51v-2.47c0-.15-.03-.24-.08-.27-.05-.03-.2-.04-.43-.04v-.38l1.38-.07v.87c.29-.58.75-.86,1.38-.87.41,0,.71.09.91.27.2.18.3.47.3.88v2.07h.55v.38c-.45-.02-.78-.02-1.01-.02s-.56,0-1.01.02v-.38h.55v-2.16c0-.29-.04-.49-.11-.61-.08-.11-.18-.17-.33-.17-.29,0-.57.11-.82.33s-.38.53-.38.93v1.67h.55v.38c-.42-.02-.75-.02-.99-.02s-.56,0-.99.02Z"/><path class="s" d="M397.27,85.9v-.29c.37-.01.66-.17.87-.49.21-.32.32-.69.32-1.12h.38v1.53h1.17v.38h-1.17v2.21c0,.46.15.7.46.7.13,0,.24-.06.33-.18s.14-.3.14-.55v-.41h.38v.42c0,.3-.09.55-.26.74s-.41.29-.7.29c-.85,0-1.27-.34-1.27-1.03v-2.19h-.65Z"/><path class="s" d="M401.05,89.08v-.38h.55v-2.47c0-.15-.03-.24-.08-.27-.05-.03-.2-.04-.45-.04v-.38l1.39-.07v3.23h.5v.38c-.58-.02-.89-.02-.94-.02-.16,0-.48,0-.98.02ZM401.5,84.58c-.11-.12-.17-.27-.17-.44s.06-.32.17-.44.26-.18.43-.18.32.06.44.18c.12.12.18.27.18.44s-.06.32-.19.44c-.12.12-.27.18-.44.18s-.31-.06-.43-.18Z"/><path class="s" d="M403.62,89.08v-.38h.51v-2.47c0-.15-.03-.24-.08-.27-.05-.03-.2-.04-.43-.04v-.38l1.38-.07v.87c.29-.58.75-.86,1.39-.87.68,0,1.07.26,1.18.77.29-.51.74-.77,1.35-.77.42,0,.73.09.93.27.2.18.3.48.3.88v2.07h.55v.38c-.45-.02-.78-.02-1.01-.02s-.56,0-1.01.02v-.38h.55v-2.16c0-.29-.04-.5-.11-.61-.07-.11-.19-.17-.34-.17-.29,0-.56.11-.81.33s-.38.53-.38.93v1.67h.55v.38c-.45-.02-.78-.02-1-.02s-.56,0-1.01.02v-.38h.55v-2.16c0-.29-.04-.5-.11-.61-.08-.11-.19-.17-.34-.17-.29,0-.56.11-.81.33-.25.22-.38.53-.38.93v1.67h.55v.38c-.45-.02-.78-.02-1.01-.02s-.55,0-.97.02Z"/><path class="s" d="M411.14,87.28c0-.52.17-.96.52-1.3.35-.35.83-.52,1.45-.52.55,0,.97.14,1.27.43.3.3.45.71.45,1.23,0,.1-.02.16-.05.19s-.1.03-.21.03h-2.41c0,.98.38,1.47,1.12,1.47h0c.25,0,.48-.06.69-.18.2-.12.35-.27.43-.46.03-.07.05-.12.08-.14.02-.02.07-.03.14-.03.14,0,.21.05.21.14,0,.04-.01.09-.04.16-.03.07-.08.15-.16.25-.08.1-.17.19-.29.28-.11.08-.27.16-.46.21s-.41.09-.65.09c-.63,0-1.14-.17-1.52-.52-.38-.34-.57-.79-.57-1.33ZM412.17,87.07h1.91c-.03-.89-.35-1.33-.96-1.33-.33,0-.58.14-.76.41-.11.17-.17.47-.19.91Z"/><path class="s" d="M418.55,87.98c0-.23.08-.44.25-.64.04-.04.2-.18.5-.44l.59-.5c-.24-.53-.36-1.04-.36-1.54,0-.43.15-.78.45-1.03.3-.26.64-.38,1.02-.38.28,0,.5.11.65.34.15.22.23.46.23.71s-.15.54-.44.88c-.22.25-.46.47-.7.68.25.55.73,1.18,1.42,1.91.47-.45.98-1.11,1.52-1.97-.13-.05-.32-.08-.58-.08v-.38c.22.02.54.02.97.02.27,0,.54,0,.79-.02v.38c-.18,0-.31,0-.38,0-.08,0-.16.02-.24.04-.08.02-.14.06-.18.12l-.66.95c-.25.36-.58.76-1,1.19.41.4.79.59,1.14.59.06,0,.13,0,.2-.02.08-.01.17-.04.28-.08s.2-.11.28-.2c.08-.1.12-.21.13-.36h.38c0,.32-.14.57-.4.76-.26.19-.56.28-.9.28-.54,0-1.1-.17-1.69-.5-.51.33-1.05.5-1.6.5-.46,0-.86-.11-1.19-.33-.33-.22-.5-.51-.5-.86ZM419.57,87.69c0,.09,0,.18.03.28s.05.22.1.36c.05.14.13.25.24.34s.25.13.41.13c.42,0,.81-.12,1.17-.35-.59-.45-1.09-1.04-1.48-1.78-.31.21-.46.55-.46,1.02ZM420.4,84.56c0,.43.08.83.23,1.2.58-.53.88-.95.88-1.27,0-.17-.04-.34-.12-.51-.08-.17-.21-.25-.37-.25-.14,0-.27.06-.41.2-.14.13-.2.34-.2.64Z"/><path class="s" d="M428.67,90.26h.55v-4.03c0-.15-.03-.24-.08-.26-.06-.03-.21-.04-.47-.04v-.38l1.41-.07v.39c.34-.26.74-.39,1.21-.39.57,0,1.03.17,1.37.5.34.34.51.77.51,1.31s-.19,1-.56,1.33-.86.5-1.46.5c-.39,0-.73-.12-1.02-.36v1.49h.55v.38c-.45-.02-.78-.02-1.01-.02s-.56,0-1.01.02v-.38ZM430.14,88.14c0,.08,0,.13.01.15,0,.02.03.06.07.11.24.29.52.43.85.43.29,0,.55-.13.76-.38.21-.25.32-.64.32-1.16,0-.48-.09-.85-.28-1.11s-.42-.39-.7-.39c-.36,0-.67.13-.91.38-.06.06-.09.1-.1.12,0,.02-.01.07-.01.14v1.69Z"/><path class="s" d="M433.86,89.08v-.38h.46v-2.47c0-.15-.02-.24-.07-.27-.05-.03-.18-.04-.39-.04v-.38l1.33-.07v.91c.21-.6.56-.9,1.04-.91.22,0,.41.06.58.18.17.12.25.28.25.48,0,.15-.05.27-.16.36s-.22.13-.36.13-.25-.04-.36-.13c-.1-.08-.16-.21-.16-.36,0-.14.05-.27.16-.37-.19,0-.35.05-.49.16s-.24.24-.31.41-.12.33-.15.49c-.03.16-.05.32-.05.48v1.4h.7v.38c-.18-.02-.53-.02-1.05-.02-.11,0-.43,0-.97.02Z"/><path class="s" d="M437.51,87.34c0-.55.18-1,.54-1.35s.86-.53,1.5-.53,1.13.18,1.5.53c.36.35.54.8.54,1.35,0,.52-.18.95-.54,1.28-.36.34-.86.51-1.5.51s-1.15-.17-1.5-.51c-.36-.34-.54-.77-.54-1.28ZM438.54,87.25c0,.16,0,.28,0,.36,0,.08.01.2.03.35.02.15.05.26.09.34s.1.16.17.26c.07.09.17.16.29.2.12.04.26.06.43.06s.31-.02.43-.06c.12-.04.22-.1.29-.2.07-.09.13-.18.17-.26.04-.08.07-.19.09-.34s.03-.26.03-.35c0-.08,0-.2,0-.36,0-.55-.06-.92-.17-1.1-.17-.27-.45-.41-.85-.41-.43,0-.72.15-.88.46-.09.18-.13.53-.13,1.04Z"/><path class="s" d="M442.11,89.68c0-.12.03-.22.09-.32.06-.09.13-.17.22-.22s.16-.09.21-.11.11-.04.16-.05c-.28-.19-.41-.44-.41-.77,0-.24.11-.48.33-.71-.12-.09-.22-.21-.29-.37s-.11-.31-.11-.47c0-.32.13-.6.39-.83s.65-.35,1.17-.35c.46,0,.83.09,1.1.27.26-.2.55-.3.86-.3.16,0,.29.05.37.15.08.1.13.2.13.32,0,.1-.03.18-.1.24-.06.07-.15.1-.25.1s-.18-.03-.25-.1c-.06-.06-.1-.15-.1-.25,0-.05.01-.11.03-.16-.17.02-.34.07-.5.15.22.23.33.49.33.77,0,.32-.14.6-.41.83-.27.23-.68.35-1.23.35-.38,0-.69-.07-.96-.21-.04.07-.06.16-.06.27s.03.2.1.31c.07.1.18.17.33.2.03,0,.22,0,.59,0,.33,0,.56,0,.72,0,.15,0,.32.03.51.06s.35.09.5.15c.41.2.61.54.61,1.02,0,.3-.17.55-.52.74-.35.2-.86.29-1.55.29s-1.22-.1-1.54-.31-.47-.44-.47-.7ZM442.8,89.67c0,.2.11.38.33.52.22.14.55.21.99.21.48,0,.83-.07,1.05-.22.22-.15.33-.31.33-.49,0-.33-.38-.5-1.15-.5h-.94c-.41,0-.61.16-.61.48ZM443.17,86.43c0,.06,0,.13,0,.23s0,.18,0,.23c0,.06.02.13.04.23s.06.17.11.22c.05.05.12.1.21.14s.21.06.34.06.25-.02.34-.06.17-.09.21-.14c.05-.05.08-.13.11-.22s.04-.17.04-.23c0-.06,0-.13,0-.23s0-.18,0-.23c0-.06-.02-.13-.04-.23s-.06-.17-.11-.22c-.05-.05-.12-.1-.21-.14s-.21-.06-.34-.06-.25.02-.34.06-.17.09-.21.14c-.05.05-.08.13-.11.22s-.04.17-.04.23Z"/><path class="s" d="M446.83,89.08v-.38h.46v-2.47c0-.15-.02-.24-.07-.27-.05-.03-.18-.04-.39-.04v-.38l1.33-.07v.91c.21-.6.56-.9,1.04-.91.22,0,.41.06.58.18.17.12.25.28.25.48,0,.15-.05.27-.16.36s-.22.13-.36.13-.25-.04-.36-.13c-.1-.08-.16-.21-.16-.36,0-.14.05-.27.16-.37-.19,0-.35.05-.49.16s-.24.24-.31.41-.12.33-.15.49c-.03.16-.05.32-.05.48v1.4h.7v.38c-.18-.02-.53-.02-1.05-.02-.11,0-.43,0-.97.02Z"/><path class="s" d="M450.49,88.22c0-.76.86-1.18,2.58-1.26v-.27c0-.63-.28-.95-.85-.95-.21,0-.41.02-.59.05.13.08.2.21.2.39,0,.16-.05.28-.16.37-.11.09-.23.13-.38.13-.12,0-.23-.04-.33-.13s-.15-.21-.15-.37c0-.49.48-.74,1.43-.74.57,0,1.01.11,1.31.34.3.22.45.52.45.9v1.72c0,.08,0,.13.02.16.01.03.05.06.13.09s.19.04.35.04c.05,0,.08,0,.1,0,.02,0,.04.02.07.05.03.03.04.07.04.13,0,.09-.02.14-.06.16-.04.02-.1.03-.2.03h-.38c-.2,0-.36-.02-.48-.06-.12-.04-.21-.09-.25-.17-.04-.07-.07-.14-.08-.19,0-.05-.02-.12-.02-.21-.22.44-.61.66-1.16.66-.16,0-.32-.01-.49-.04s-.33-.07-.5-.13c-.17-.06-.31-.16-.41-.28-.1-.13-.16-.28-.16-.46ZM451.4,88.21c0,.18.07.32.22.45.15.12.33.18.54.18.07,0,.14-.01.23-.03.08-.02.18-.06.29-.11.11-.05.2-.14.27-.27.07-.13.11-.28.11-.46v-.76c-.12,0-.23.01-.33.03s-.24.04-.42.09c-.18.05-.33.1-.45.16-.12.06-.23.16-.32.29-.09.13-.14.27-.14.44Z"/><path class="s" d="M455.1,89.08v-.38h.51v-2.47c0-.15-.03-.24-.08-.27-.05-.03-.2-.04-.43-.04v-.38l1.38-.07v.87c.29-.58.75-.86,1.39-.87.68,0,1.07.26,1.18.77.29-.51.74-.77,1.35-.77.42,0,.73.09.93.27.2.18.3.48.3.88v2.07h.55v.38c-.45-.02-.78-.02-1.01-.02s-.56,0-1.01.02v-.38h.55v-2.16c0-.29-.04-.5-.11-.61-.07-.11-.19-.17-.34-.17-.29,0-.56.11-.81.33s-.38.53-.38.93v1.67h.55v.38c-.45-.02-.78-.02-1-.02s-.56,0-1.01.02v-.38h.55v-2.16c0-.29-.04-.5-.11-.61-.08-.11-.19-.17-.34-.17-.29,0-.56.11-.81.33-.25.22-.38.53-.38.93v1.67h.55v.38c-.45-.02-.78-.02-1.01-.02s-.55,0-.97.02Z"/><rect class="o" x="274.5" y="72.29" width="73.55" height="57.92"/><path d="M347.68,72.66v57.17h-72.8v-57.17h72.8M348.43,71.91h-74.3v58.67h74.3v-58.67h0Z"/><path class="s" d="M302.35,88.85v-1.46c0-.1,0-.17.03-.19.02-.03.07-.04.16-.04.04,0,.07,0,.1,0,.02,0,.04.02.06.03.01.02.02.03.02.05,0,.02,0,.05,0,.09.02.28.09.51.23.71s.31.34.52.42c.21.09.41.15.59.18.18.03.37.05.55.05.37,0,.64-.1.8-.29s.24-.41.24-.65-.11-.48-.32-.7c-.09-.08-.18-.13-.29-.16-.11-.03-.35-.09-.73-.18-.48-.11-.82-.2-1-.26-.18-.07-.36-.19-.54-.37-.29-.31-.43-.66-.43-1.07,0-.45.16-.83.47-1.14s.76-.46,1.33-.46c.55,0,1,.14,1.37.43l.38-.35c.07-.06.12-.08.16-.08h0c.07,0,.11.01.13.04.02.03.03.09.03.18v1.46c0,.1,0,.16-.03.18-.02.03-.08.04-.18.04-.09,0-.14,0-.16-.03-.02-.02-.04-.08-.05-.18-.06-.34-.18-.62-.36-.84-.18-.21-.37-.36-.58-.43-.2-.07-.42-.1-.65-.1-.35,0-.61.09-.76.26-.16.17-.23.36-.23.58,0,.22.07.41.21.55.14.14.3.24.47.28l1.16.24c.41.08.75.28,1.03.59.28.31.43.69.43,1.12,0,.46-.16.86-.47,1.2-.31.34-.79.51-1.42.51s-1.17-.15-1.55-.44l-.4.36c-.06.05-.11.07-.17.07-.07,0-.12-.02-.13-.04-.02-.03-.03-.09-.03-.18Z"/><path class="s" d="M307.11,85.82v-.29c.37-.01.66-.17.87-.49.21-.32.31-.69.32-1.12h.38v1.53h1.17v.38h-1.17v2.21c0,.46.15.7.46.7.13,0,.24-.06.33-.18.1-.12.14-.3.14-.55v-.41h.38v.42c0,.3-.09.55-.26.74-.17.2-.41.29-.7.29-.84,0-1.27-.34-1.27-1.03v-2.19h-.65Z"/><path class="s" d="M310.87,85.83v-.38l1.46-.07v2.73c0,.24.03.41.1.5.07.09.25.13.54.13s.53-.1.72-.3.28-.46.28-.78v-1.53c0-.15-.03-.24-.08-.27s-.21-.04-.47-.04v-.38l1.46-.07v2.91c0,.15.03.24.08.27.06.03.21.04.47.04v.38l-1.42.05v-.62c-.24.41-.62.62-1.14.62h0c-.45,0-.81-.07-1.06-.22s-.38-.42-.38-.81v-1.86c0-.15-.03-.24-.08-.27-.06-.03-.21-.04-.47-.04Z"/><path class="s" d="M315.91,83.88v-.38l1.41-.06v2.34c.31-.26.71-.39,1.18-.39.58,0,1.04.17,1.39.5.35.34.53.77.53,1.31s-.19,1-.56,1.33c-.37.33-.86.5-1.46.5-.45,0-.84-.17-1.17-.5l-.39.45h-.38v-4.8c0-.15-.03-.24-.08-.27-.06-.03-.21-.04-.47-.04ZM317.37,88.2c.24.37.56.55.95.55.37,0,.66-.14.86-.42.14-.21.21-.58.21-1.13,0-.13,0-.24,0-.31,0-.08-.01-.18-.03-.32-.02-.14-.05-.25-.09-.34-.04-.09-.1-.18-.17-.27-.07-.09-.16-.16-.28-.21s-.25-.07-.41-.07c-.21,0-.4.05-.59.14s-.33.22-.45.37v2.01Z"/><rect class="o" x="145.6" y="49.35" width="73.55" height="80.86"/><path d="M218.78,49.72v80.11h-72.8V49.72h72.8M219.53,48.97h-74.3v81.61h74.3V48.97h0Z"/><path class="s" d="M163.36,79.62v-.38h.86v-4.74h-.86v-.38h3.44c.81,0,1.48.25,2,.75s.78,1.18.78,2.04-.26,1.5-.78,1.98-1.18.72-1.99.72h-3.45ZM165.31,79.24h1.17c.74,0,1.26-.22,1.57-.67.13-.18.22-.4.27-.64s.08-.58.08-1.02c0-.79-.11-1.36-.34-1.7-.33-.47-.86-.71-1.58-.71h-1.17v4.74Z"/><path class="s" d="M170.35,77.81c0-.52.17-.96.52-1.3s.83-.52,1.45-.52c.55,0,.97.14,1.27.43.3.3.45.71.45,1.23,0,.1-.02.16-.05.19s-.1.03-.21.03h-2.41c0,.98.38,1.47,1.12,1.47h0c.25,0,.48-.06.69-.18.2-.12.35-.27.43-.46.03-.07.05-.12.08-.14s.07-.03.14-.03c.14,0,.21.05.21.14,0,.04-.02.09-.04.16s-.08.15-.16.25-.17.19-.29.28-.27.16-.46.21-.41.09-.65.09c-.64,0-1.14-.17-1.52-.52s-.57-.79-.57-1.33ZM171.38,77.61h1.91c-.03-.89-.35-1.33-.96-1.33-.33,0-.58.14-.76.41-.11.17-.17.47-.19.91Z"/><path class="s" d="M174.61,74.5v-.38l1.41-.06v2.34c.31-.26.71-.39,1.18-.39.58,0,1.04.17,1.39.5s.53.77.53,1.31-.19,1-.56,1.33-.86.5-1.46.5c-.45,0-.84-.17-1.17-.5l-.39.45h-.38v-4.8c0-.15-.03-.24-.08-.27s-.21-.04-.47-.04ZM176.07,78.82c.24.37.56.55.95.55.37,0,.66-.14.86-.42.14-.21.21-.58.21-1.13,0-.13,0-.24,0-.31s-.01-.18-.03-.32-.05-.25-.09-.34c-.04-.09-.1-.18-.17-.27-.07-.09-.16-.16-.28-.21s-.25-.07-.41-.07c-.21,0-.4.05-.59.14s-.33.22-.45.37v2.01Z"/><path class="s" d="M179.77,76.46v-.38l1.46-.07v2.73c0,.24.03.41.1.5.07.09.25.13.54.13s.53-.1.72-.3.28-.46.28-.78v-1.53c0-.15-.03-.24-.08-.27s-.21-.04-.47-.04v-.38l1.46-.07v2.91c0,.15.03.24.08.27s.21.04.47.04v.38l-1.42.05v-.62c-.24.41-.62.62-1.14.62h0c-.45,0-.81-.07-1.06-.22s-.38-.42-.38-.81v-1.86c0-.15-.03-.24-.08-.27s-.21-.04-.47-.04Z"/><path class="s" d="M184.77,80.22c0-.12.03-.22.09-.32.06-.09.13-.17.22-.22.09-.05.16-.09.21-.11.06-.02.11-.04.16-.05-.27-.19-.41-.44-.41-.77,0-.24.11-.48.33-.71-.12-.09-.22-.21-.29-.37s-.11-.31-.11-.47c0-.32.13-.6.39-.83s.65-.35,1.17-.35c.46,0,.83.09,1.1.27.26-.2.55-.3.86-.3.16,0,.29.05.37.15s.13.2.13.32c0,.1-.03.18-.1.24-.06.07-.15.1-.25.1s-.18-.03-.25-.1-.1-.15-.1-.25c0-.05.01-.11.03-.16-.17.02-.34.07-.5.15.22.23.33.49.33.77,0,.32-.14.6-.41.83s-.68.35-1.23.35c-.37,0-.69-.07-.96-.21-.04.07-.06.16-.06.27s.03.2.1.31c.07.1.18.17.33.2.02,0,.22,0,.59,0,.33,0,.56,0,.72,0,.15,0,.32.03.51.06.19.04.35.09.5.15.41.2.61.54.61,1.02,0,.3-.17.55-.52.74s-.86.29-1.55.29-1.22-.1-1.54-.31-.47-.44-.47-.7ZM185.46,80.2c0,.2.11.38.33.52.22.14.55.21.99.21.48,0,.83-.07,1.05-.22s.33-.31.33-.49c0-.33-.38-.5-1.15-.5h-.94c-.41,0-.61.16-.61.48ZM185.83,76.96c0,.06,0,.13,0,.23s0,.18,0,.23.02.13.04.23.06.17.11.22.12.1.21.14.21.06.34.06.25-.02.34-.06c.09-.04.17-.09.21-.14s.08-.13.11-.22.04-.17.04-.23,0-.13,0-.23,0-.18,0-.23-.02-.13-.04-.23-.06-.17-.11-.22-.12-.1-.21-.14c-.09-.04-.21-.06-.34-.06s-.25.02-.34.06-.17.09-.21.14-.08.13-.11.22-.04.17-.04.23Z"/><path class="s" d="M189.37,80.22c0-.12.03-.22.09-.32.06-.09.13-.17.22-.22.09-.05.16-.09.21-.11.06-.02.11-.04.16-.05-.27-.19-.41-.44-.41-.77,0-.24.11-.48.33-.71-.12-.09-.22-.21-.29-.37s-.11-.31-.11-.47c0-.32.13-.6.39-.83s.65-.35,1.17-.35c.46,0,.83.09,1.1.27.26-.2.55-.3.86-.3.16,0,.29.05.37.15s.13.2.13.32c0,.1-.03.18-.1.24-.06.07-.15.1-.25.1s-.18-.03-.25-.1-.1-.15-.1-.25c0-.05.01-.11.03-.16-.17.02-.34.07-.5.15.22.23.33.49.33.77,0,.32-.14.6-.41.83s-.68.35-1.23.35c-.37,0-.69-.07-.96-.21-.04.07-.06.16-.06.27s.03.2.1.31c.07.1.18.17.33.2.02,0,.22,0,.59,0,.33,0,.56,0,.72,0,.15,0,.32.03.51.06.19.04.35.09.5.15.41.2.61.54.61,1.02,0,.3-.17.55-.52.74s-.86.29-1.55.29-1.22-.1-1.54-.31-.47-.44-.47-.7ZM190.05,80.2c0,.2.11.38.33.52.22.14.55.21.99.21.48,0,.83-.07,1.05-.22s.33-.31.33-.49c0-.33-.38-.5-1.15-.5h-.94c-.41,0-.61.16-.61.48ZM190.43,76.96c0,.06,0,.13,0,.23s0,.18,0,.23.02.13.04.23.06.17.11.22.12.1.21.14.21.06.34.06.25-.02.34-.06c.09-.04.17-.09.21-.14s.08-.13.11-.22.04-.17.04-.23,0-.13,0-.23,0-.18,0-.23-.02-.13-.04-.23-.06-.17-.11-.22-.12-.1-.21-.14c-.09-.04-.21-.06-.34-.06s-.25.02-.34.06-.17.09-.21.14-.08.13-.11.22-.04.17-.04.23Z"/><path class="s" d="M193.96,77.81c0-.52.17-.96.52-1.3s.83-.52,1.45-.52c.55,0,.97.14,1.27.43.3.3.45.71.45,1.23,0,.1-.02.16-.05.19s-.1.03-.21.03h-2.41c0,.98.38,1.47,1.12,1.47h0c.25,0,.48-.06.69-.18.2-.12.35-.27.43-.46.03-.07.05-.12.08-.14s.07-.03.14-.03c.14,0,.21.05.21.14,0,.04-.02.09-.04.16s-.08.15-.16.25-.17.19-.29.28-.27.16-.46.21-.41.09-.65.09c-.64,0-1.14-.17-1.52-.52s-.57-.79-.57-1.33ZM194.99,77.61h1.91c-.03-.89-.35-1.33-.96-1.33-.33,0-.58.14-.76.41-.11.17-.17.47-.19.91Z"/><path class="s" d="M198.3,79.62v-.38h.46v-2.47c0-.15-.02-.24-.07-.27s-.18-.04-.39-.04v-.38l1.33-.07v.91c.21-.6.56-.9,1.04-.91.22,0,.41.06.58.18.17.12.25.28.25.48,0,.15-.05.27-.16.36-.1.09-.22.13-.36.13s-.25-.04-.36-.13c-.1-.08-.16-.21-.16-.36,0-.14.05-.27.16-.37-.19,0-.35.05-.49.16-.14.1-.24.24-.31.41s-.12.33-.15.49-.05.32-.05.48v1.4h.7v.38c-.18-.02-.53-.02-1.05-.02-.11,0-.43,0-.97.02Z"/><path class="s" d="M166.47,84.1v-.38l1.41-.06v2.34c.31-.26.71-.39,1.18-.39.58,0,1.04.17,1.39.5s.53.77.53,1.31-.19,1-.56,1.33-.86.5-1.46.5c-.45,0-.84-.17-1.17-.5l-.39.45h-.38v-4.8c0-.15-.03-.24-.08-.27s-.21-.04-.47-.04ZM167.93,88.42c.24.37.56.55.95.55.37,0,.66-.14.86-.42.14-.21.21-.58.21-1.13,0-.13,0-.24,0-.31s-.01-.18-.03-.32-.05-.25-.09-.34c-.04-.09-.1-.18-.17-.27-.07-.09-.16-.16-.28-.21s-.25-.07-.41-.07c-.21,0-.4.05-.59.14s-.33.22-.45.37v2.01Z"/><path class="s" d="M171.53,88.35c0-.76.86-1.18,2.58-1.26v-.27c0-.63-.28-.95-.85-.95-.21,0-.41.02-.59.05.13.08.2.21.2.39,0,.16-.05.28-.16.37s-.23.13-.38.13c-.12,0-.23-.04-.33-.13-.1-.09-.15-.21-.15-.37,0-.49.48-.74,1.43-.74.57,0,1.01.11,1.31.34.3.22.45.52.45.9v1.72c0,.08,0,.13.02.16s.05.06.13.09.19.04.35.04c.05,0,.08,0,.1,0s.04.02.07.05.04.07.04.13c0,.09-.02.14-.06.16s-.1.03-.2.03h-.38c-.2,0-.36-.02-.48-.06s-.21-.09-.25-.17-.07-.14-.08-.19-.02-.12-.02-.21c-.22.44-.61.66-1.16.66-.16,0-.32-.01-.49-.04-.16-.02-.33-.07-.5-.13s-.31-.16-.41-.28-.16-.28-.16-.46ZM172.45,88.34c0,.18.07.32.22.45.15.12.33.18.54.18.07,0,.14-.01.23-.03.08-.02.18-.06.29-.11.11-.05.2-.14.27-.27s.11-.28.11-.46v-.76c-.12,0-.23.01-.33.03s-.24.04-.42.09c-.18.05-.33.1-.45.16-.12.06-.23.16-.32.29-.09.13-.14.27-.14.44Z"/><path class="s" d="M176.05,87.44c0-.51.17-.95.51-1.31s.84-.54,1.52-.54c.94,0,1.41.25,1.41.74,0,.16-.05.28-.15.37s-.22.13-.36.13c-.13,0-.24-.04-.35-.13-.11-.09-.16-.21-.16-.37,0-.15.06-.27.17-.37-.14-.03-.31-.05-.52-.05-.2,0-.37.04-.5.12s-.24.17-.31.27-.12.23-.15.39-.06.29-.06.38,0,.2,0,.33c0,1.03.37,1.54,1.11,1.54.5,0,.84-.22,1.02-.66.02-.05.04-.08.06-.1s.06-.02.13-.02c.13,0,.19.04.19.11,0,.02-.01.06-.03.12s-.07.14-.14.25c-.07.1-.16.2-.27.28s-.26.16-.46.23c-.2.07-.42.1-.66.1-.61,0-1.09-.17-1.45-.51s-.54-.78-.54-1.32Z"/><path class="s" d="M179.87,89.22v-.38h.55v-4.43c0-.15-.03-.24-.08-.27s-.21-.04-.47-.04v-.38l1.41-.06v3.66l1.51-1.2c-.06-.06-.14-.09-.25-.09h-.02v-.38c.37.02.67.02.92.02.27,0,.48,0,.62-.02v.38c-.17,0-.31,0-.4.02s-.16.03-.2.04-.07.04-.12.08l-1.04.81,1.36,1.69s.07.08.09.1.06.03.12.04.14.02.26.02h.14v.38c-.27-.02-.55-.02-.83-.02-.41,0-.74,0-.98.02v-.38c.16,0,.25-.02.25-.07,0-.01-.07-.1-.2-.28l-.81-1.01c-.13.09-.28.21-.46.34v1.02h.55v.38c-.58-.02-.9-.02-.96-.02-.05,0-.37,0-.96.02Z"/><path class="s" d="M184.42,87.41c0-.52.17-.96.52-1.3s.83-.52,1.45-.52c.55,0,.97.14,1.27.43.3.3.45.71.45,1.23,0,.1-.02.16-.05.19s-.1.03-.21.03h-2.41c0,.98.38,1.47,1.12,1.47h0c.25,0,.48-.06.69-.18.2-.12.35-.27.43-.46.03-.07.05-.12.08-.14s.07-.03.14-.03c.14,0,.21.05.21.14,0,.04-.02.09-.04.16s-.08.15-.16.25-.17.19-.29.28-.27.16-.46.21-.41.09-.65.09c-.64,0-1.14-.17-1.52-.52s-.57-.79-.57-1.33ZM185.44,87.21h1.91c-.03-.89-.35-1.33-.96-1.33-.33,0-.58.14-.76.41-.11.17-.17.47-.19.91Z"/><path class="s" d="M188.77,89.22v-.38h.51v-2.47c0-.15-.03-.24-.08-.27-.05-.03-.2-.04-.43-.04v-.38l1.38-.07v.87c.29-.58.75-.86,1.38-.87.41,0,.71.09.91.27s.3.47.3.88v2.07h.55v.38c-.45-.02-.78-.02-1.01-.02s-.56,0-1.01.02v-.38h.55v-2.16c0-.29-.04-.49-.11-.61s-.19-.17-.33-.17c-.29,0-.57.11-.82.33s-.38.53-.38.93v1.67h.55v.38c-.42-.02-.75-.02-.99-.02s-.56,0-.99.02Z"/><path class="s" d="M193.78,87.45c0-.55.19-1,.56-1.33s.86-.5,1.45-.5c.41,0,.77.12,1.08.36v-1.56c0-.15-.03-.24-.08-.27s-.21-.04-.47-.04v-.38l1.42-.06v4.86c0,.15.03.24.08.27s.21.04.47.04v.38l-1.46.05v-.39c-.33.26-.7.39-1.12.39-.59,0-1.05-.17-1.4-.51s-.52-.77-.52-1.31ZM194.8,87.45c0,.13,0,.24,0,.32,0,.08.01.19.03.32s.04.25.09.34.1.18.17.27c.07.09.16.16.28.21.12.05.25.07.41.07.41,0,.76-.19,1.04-.58v-2c-.24-.33-.56-.49-.95-.49s-.66.14-.86.42c-.14.21-.21.58-.21,1.12Z"/><polyline class="k" points="223.24 131.77 223.24 134.77 220.24 134.77"/><line class="n" x1="216.26" y1="134.77" x2="9.32" y2="134.77"/><polyline class="k" points="7.33 134.77 4.33 134.77 4.33 131.77"/><line class="l" x1="4.33" y1="127.9" x2="4.33" y2="33.17"/><polyline class="k" points="4.33 31.24 4.33 28.24 7.33 28.24"/><line class="n" x1="11.31" y1="28.24" x2="218.25" y2="28.24"/><polyline class="k" points="220.24 28.24 223.24 28.24 223.24 31.24"/><line class="l" x1="223.24" y1="35.1" x2="223.24" y2="129.84"/><path class="s" d="M146.54,41.2v-.38h.86v-4.74h-.86v-.38h3.44c.81,0,1.48.25,2,.75s.78,1.18.78,2.04-.26,1.5-.78,1.98-1.18.72-1.99.72h-3.45ZM148.49,40.82h1.17c.74,0,1.26-.22,1.57-.67.13-.18.22-.4.27-.64s.08-.58.08-1.02c0-.79-.11-1.36-.34-1.7-.33-.47-.86-.71-1.58-.71h-1.17v4.74Z"/><path class="s" d="M153.53,39.39c0-.52.17-.96.52-1.3s.83-.52,1.45-.52c.55,0,.97.14,1.27.43.3.3.45.71.45,1.23,0,.1-.02.16-.05.19s-.1.03-.21.03h-2.41c0,.98.38,1.47,1.12,1.47h0c.25,0,.48-.06.69-.18.2-.12.35-.27.43-.46.03-.07.05-.12.08-.14s.07-.03.14-.03c.14,0,.21.05.21.14,0,.04-.02.09-.04.16s-.08.15-.16.25-.17.19-.29.28-.27.16-.46.21-.41.09-.65.09c-.64,0-1.14-.17-1.52-.52s-.57-.79-.57-1.33ZM154.55,39.19h1.91c-.03-.89-.35-1.33-.96-1.33-.33,0-.58.14-.76.41-.11.17-.17.47-.19.91Z"/><path class="s" d="M157.78,36.08v-.38l1.41-.06v2.34c.31-.26.71-.39,1.18-.39.58,0,1.04.17,1.39.5s.53.77.53,1.31-.19,1-.56,1.33-.86.5-1.46.5c-.45,0-.84-.17-1.17-.5l-.39.45h-.38v-4.8c0-.15-.03-.24-.08-.27s-.21-.04-.47-.04ZM159.25,40.4c.24.37.56.55.95.55.37,0,.66-.14.86-.42.14-.21.21-.58.21-1.13,0-.13,0-.24,0-.31s-.01-.18-.03-.32-.05-.25-.09-.34c-.04-.09-.1-.18-.17-.27-.07-.09-.16-.16-.28-.21s-.25-.07-.41-.07c-.21,0-.4.05-.59.14s-.33.22-.45.37v2.01Z"/><path class="s" d="M162.95,38.04v-.38l1.46-.07v2.73c0,.24.03.41.1.5.07.09.25.13.54.13s.53-.1.72-.3.28-.46.28-.78v-1.53c0-.15-.03-.24-.08-.27s-.21-.04-.47-.04v-.38l1.46-.07v2.91c0,.15.03.24.08.27s.21.04.47.04v.38l-1.42.05v-.62c-.24.41-.62.62-1.14.62h0c-.45,0-.81-.07-1.06-.22s-.38-.42-.38-.81v-1.86c0-.15-.03-.24-.08-.27s-.21-.04-.47-.04Z"/><path class="s" d="M167.95,41.8c0-.12.03-.22.09-.32.06-.09.13-.17.22-.22.09-.05.16-.09.21-.11.06-.02.11-.04.16-.05-.27-.19-.41-.44-.41-.77,0-.24.11-.48.33-.71-.12-.09-.22-.21-.29-.37s-.11-.31-.11-.47c0-.32.13-.6.39-.83s.65-.35,1.17-.35c.46,0,.83.09,1.1.27.26-.2.55-.3.86-.3.16,0,.29.05.37.15s.13.2.13.32c0,.1-.03.18-.1.24-.06.07-.15.1-.25.1s-.18-.03-.25-.1-.1-.15-.1-.25c0-.05.01-.11.03-.16-.17.02-.34.07-.5.15.22.23.33.49.33.77,0,.32-.14.6-.41.83s-.68.35-1.23.35c-.37,0-.69-.07-.96-.21-.04.07-.06.16-.06.27s.03.2.1.31c.07.1.18.17.33.2.02,0,.22,0,.59,0,.33,0,.56,0,.72,0,.15,0,.32.03.51.06.19.04.35.09.5.15.41.2.61.54.61,1.02,0,.3-.17.55-.52.74s-.86.29-1.55.29-1.22-.1-1.54-.31-.47-.44-.47-.7ZM168.64,41.78c0,.2.11.38.33.52.22.14.55.21.99.21.48,0,.83-.07,1.05-.22s.33-.31.33-.49c0-.33-.38-.5-1.15-.5h-.94c-.41,0-.61.16-.61.48ZM169.01,38.54c0,.06,0,.13,0,.23s0,.18,0,.23.02.13.04.23.06.17.11.22.12.1.21.14.21.06.34.06.25-.02.34-.06c.09-.04.17-.09.21-.14s.08-.13.11-.22.04-.17.04-.23,0-.13,0-.23,0-.18,0-.23-.02-.13-.04-.23-.06-.17-.11-.22-.12-.1-.21-.14c-.09-.04-.21-.06-.34-.06s-.25.02-.34.06-.17.09-.21.14-.08.13-.11.22-.04.17-.04.23Z"/><path class="s" d="M172.55,41.8c0-.12.03-.22.09-.32.06-.09.13-.17.22-.22.09-.05.16-.09.21-.11.06-.02.11-.04.16-.05-.27-.19-.41-.44-.41-.77,0-.24.11-.48.33-.71-.12-.09-.22-.21-.29-.37s-.11-.31-.11-.47c0-.32.13-.6.39-.83s.65-.35,1.17-.35c.46,0,.83.09,1.1.27.26-.2.55-.3.86-.3.16,0,.29.05.37.15s.13.2.13.32c0,.1-.03.18-.1.24-.06.07-.15.1-.25.1s-.18-.03-.25-.1-.1-.15-.1-.25c0-.05.01-.11.03-.16-.17.02-.34.07-.5.15.22.23.33.49.33.77,0,.32-.14.6-.41.83s-.68.35-1.23.35c-.37,0-.69-.07-.96-.21-.04.07-.06.16-.06.27s.03.2.1.31c.07.1.18.17.33.2.02,0,.22,0,.59,0,.33,0,.56,0,.72,0,.15,0,.32.03.51.06.19.04.35.09.5.15.41.2.61.54.61,1.02,0,.3-.17.55-.52.74s-.86.29-1.55.29-1.22-.1-1.54-.31-.47-.44-.47-.7ZM173.23,41.78c0,.2.11.38.33.52.22.14.55.21.99.21.48,0,.83-.07,1.05-.22s.33-.31.33-.49c0-.33-.38-.5-1.15-.5h-.94c-.41,0-.61.16-.61.48ZM173.61,38.54c0,.06,0,.13,0,.23s0,.18,0,.23.02.13.04.23.06.17.11.22.12.1.21.14.21.06.34.06.25-.02.34-.06c.09-.04.17-.09.21-.14s.08-.13.11-.22.04-.17.04-.23,0-.13,0-.23,0-.18,0-.23-.02-.13-.04-.23-.06-.17-.11-.22-.12-.1-.21-.14c-.09-.04-.21-.06-.34-.06s-.25.02-.34.06-.17.09-.21.14-.08.13-.11.22-.04.17-.04.23Z"/><path class="s" d="M177.26,41.2v-.38h.55v-2.47c0-.15-.03-.24-.08-.27s-.2-.04-.45-.04v-.38l1.39-.07v3.23h.5v.38c-.58-.02-.89-.02-.94-.02-.16,0-.48,0-.98.02ZM177.71,36.7c-.11-.12-.17-.27-.17-.44s.06-.32.17-.44c.11-.12.26-.18.43-.18s.32.06.44.18.18.27.18.44-.06.32-.19.44-.27.18-.44.18-.31-.06-.43-.18Z"/><path class="s" d="M179.84,41.2v-.38h.51v-2.47c0-.15-.03-.24-.08-.27-.05-.03-.2-.04-.43-.04v-.38l1.38-.07v.87c.29-.58.75-.86,1.38-.87.41,0,.71.09.91.27s.3.47.3.88v2.07h.55v.38c-.45-.02-.78-.02-1.01-.02s-.56,0-1.01.02v-.38h.55v-2.16c0-.29-.04-.49-.11-.61s-.19-.17-.33-.17c-.29,0-.57.11-.82.33s-.38.53-.38.93v1.67h.55v.38c-.42-.02-.75-.02-.99-.02s-.56,0-.99.02Z"/><path class="s" d="M184.8,41.8c0-.12.03-.22.09-.32.06-.09.13-.17.22-.22.09-.05.16-.09.21-.11.06-.02.11-.04.16-.05-.27-.19-.41-.44-.41-.77,0-.24.11-.48.33-.71-.12-.09-.22-.21-.29-.37s-.11-.31-.11-.47c0-.32.13-.6.39-.83s.65-.35,1.17-.35c.46,0,.83.09,1.1.27.26-.2.55-.3.86-.3.16,0,.29.05.37.15s.13.2.13.32c0,.1-.03.18-.1.24-.06.07-.15.1-.25.1s-.18-.03-.25-.1-.1-.15-.1-.25c0-.05.01-.11.03-.16-.17.02-.34.07-.5.15.22.23.33.49.33.77,0,.32-.14.6-.41.83s-.68.35-1.23.35c-.37,0-.69-.07-.96-.21-.04.07-.06.16-.06.27s.03.2.1.31c.07.1.18.17.33.2.02,0,.22,0,.59,0,.33,0,.56,0,.72,0,.15,0,.32.03.51.06.19.04.35.09.5.15.41.2.61.54.61,1.02,0,.3-.17.55-.52.74s-.86.29-1.55.29-1.22-.1-1.54-.31-.47-.44-.47-.7ZM185.48,41.78c0,.2.11.38.33.52.22.14.55.21.99.21.48,0,.83-.07,1.05-.22s.33-.31.33-.49c0-.33-.38-.5-1.15-.5h-.94c-.41,0-.61.16-.61.48ZM185.86,38.54c0,.06,0,.13,0,.23s0,.18,0,.23.02.13.04.23.06.17.11.22.12.1.21.14.21.06.34.06.25-.02.34-.06c.09-.04.17-.09.21-.14s.08-.13.11-.22.04-.17.04-.23,0-.13,0-.23,0-.18,0-.23-.02-.13-.04-.23-.06-.17-.11-.22-.12-.1-.21-.14c-.09-.04-.21-.06-.34-.06s-.25.02-.34.06-.17.09-.21.14-.08.13-.11.22-.04.17-.04.23Z"/><path class="s" d="M192.5,41.02v-.87c0-.1,0-.17.03-.19s.07-.04.16-.04c.06,0,.11,0,.13.02s.04.04.06.1c.03.11.07.21.11.3s.1.18.19.29.2.19.34.25c.15.06.32.09.52.09.61,0,.91-.2.91-.6,0-.11-.03-.21-.09-.29-.06-.08-.15-.14-.26-.19-.11-.05-.2-.08-.28-.09-.07-.01-.16-.03-.27-.06-.26-.05-.44-.08-.54-.11-.1-.02-.22-.06-.35-.12s-.25-.13-.35-.22c-.21-.18-.32-.4-.32-.67,0-.17.03-.31.09-.44.06-.13.14-.23.24-.3s.21-.13.31-.18.22-.08.35-.09c.13-.02.23-.03.29-.03s.13,0,.2,0c.34,0,.61.05.81.16.21-.1.33-.16.36-.16.06,0,.11.02.12.04s.02.09.02.18v.64c0,.1,0,.16-.03.19s-.07.04-.17.04c-.08,0-.13-.01-.15-.03s-.03-.06-.04-.13c-.04-.44-.36-.67-.94-.67s-.9.18-.9.54c0,.1.02.18.06.25.04.07.02.09-.06.06-.08-.03-.13-.04-.12-.04,0,0,.31.07.94.2.2.05.42.1.64.15.22.05.41.13.55.23.29.23.44.51.44.84,0,.19-.03.35-.09.49s-.14.25-.24.33c-.1.08-.21.14-.31.2s-.22.09-.35.1-.23.03-.29.04-.13,0-.2,0c-.38,0-.7-.09-.95-.26l-.21.14c-.11.08-.19.12-.23.12h0c-.06,0-.11-.02-.12-.05s-.02-.09-.02-.18Z"/><path class="s" d="M196.08,39.39c0-.52.17-.96.52-1.3s.83-.52,1.45-.52c.55,0,.97.14,1.27.43.3.3.45.71.45,1.23,0,.1-.02.16-.05.19s-.1.03-.21.03h-2.41c0,.98.38,1.47,1.12,1.47h0c.25,0,.48-.06.69-.18.2-.12.35-.27.43-.46.03-.07.05-.12.08-.14s.07-.03.14-.03c.14,0,.21.05.21.14,0,.04-.02.09-.04.16s-.08.15-.16.25-.17.19-.29.28-.27.16-.46.21-.41.09-.65.09c-.64,0-1.14-.17-1.52-.52s-.57-.79-.57-1.33ZM197.1,39.19h1.91c-.03-.89-.35-1.33-.96-1.33-.33,0-.58.14-.76.41-.11.17-.17.47-.19.91Z"/><path class="s" d="M200.34,41.02v-.87c0-.1,0-.17.03-.19s.07-.04.16-.04c.06,0,.11,0,.13.02s.04.04.06.1c.03.11.07.21.11.3s.1.18.19.29.2.19.34.25c.15.06.32.09.52.09.61,0,.91-.2.91-.6,0-.11-.03-.21-.09-.29-.06-.08-.15-.14-.26-.19-.11-.05-.2-.08-.28-.09-.07-.01-.16-.03-.27-.06-.26-.05-.44-.08-.54-.11-.1-.02-.22-.06-.35-.12s-.25-.13-.35-.22c-.21-.18-.32-.4-.32-.67,0-.17.03-.31.09-.44.06-.13.14-.23.24-.3s.21-.13.31-.18.22-.08.35-.09c.13-.02.23-.03.29-.03s.13,0,.2,0c.34,0,.61.05.81.16.21-.1.33-.16.36-.16.06,0,.11.02.12.04s.02.09.02.18v.64c0,.1,0,.16-.03.19s-.07.04-.17.04c-.08,0-.13-.01-.15-.03s-.03-.06-.04-.13c-.04-.44-.36-.67-.94-.67s-.9.18-.9.54c0,.1.02.18.06.25.04.07.02.09-.06.06-.08-.03-.13-.04-.12-.04,0,0,.31.07.94.2.2.05.42.1.64.15.22.05.41.13.55.23.29.23.44.51.44.84,0,.19-.03.35-.09.49s-.14.25-.24.33c-.1.08-.21.14-.31.2s-.22.09-.35.1-.23.03-.29.04-.13,0-.2,0c-.38,0-.7-.09-.95-.26l-.21.14c-.11.08-.19.12-.23.12h0c-.06,0-.11-.02-.12-.05s-.02-.09-.02-.18Z"/><path class="s" d="M203.96,41.02v-.87c0-.1,0-.17.03-.19s.07-.04.16-.04c.06,0,.11,0,.13.02s.04.04.06.1c.03.11.07.21.11.3s.1.18.19.29.2.19.34.25c.15.06.32.09.52.09.61,0,.91-.2.91-.6,0-.11-.03-.21-.09-.29-.06-.08-.15-.14-.26-.19-.11-.05-.2-.08-.28-.09-.07-.01-.16-.03-.27-.06-.26-.05-.44-.08-.54-.11-.1-.02-.22-.06-.35-.12s-.25-.13-.35-.22c-.21-.18-.32-.4-.32-.67,0-.17.03-.31.09-.44.06-.13.14-.23.24-.3s.21-.13.31-.18.22-.08.35-.09c.13-.02.23-.03.29-.03s.13,0,.2,0c.34,0,.61.05.81.16.21-.1.33-.16.36-.16.06,0,.11.02.12.04s.02.09.02.18v.64c0,.1,0,.16-.03.19s-.07.04-.17.04c-.08,0-.13-.01-.15-.03s-.03-.06-.04-.13c-.04-.44-.36-.67-.94-.67s-.9.18-.9.54c0,.1.02.18.06.25.04.07.02.09-.06.06-.08-.03-.13-.04-.12-.04,0,0,.31.07.94.2.2.05.42.1.64.15.22.05.41.13.55.23.29.23.44.51.44.84,0,.19-.03.35-.09.49s-.14.25-.24.33c-.1.08-.21.14-.31.2s-.22.09-.35.1-.23.03-.29.04-.13,0-.2,0c-.38,0-.7-.09-.95-.26l-.21.14c-.11.08-.19.12-.23.12h0c-.06,0-.11-.02-.12-.05s-.02-.09-.02-.18Z"/><path class="s" d="M207.65,41.2v-.38h.55v-2.47c0-.15-.03-.24-.08-.27s-.2-.04-.45-.04v-.38l1.39-.07v3.23h.5v.38c-.58-.02-.89-.02-.94-.02-.16,0-.48,0-.98.02ZM208.1,36.7c-.11-.12-.17-.27-.17-.44s.06-.32.17-.44c.11-.12.26-.18.43-.18s.32.06.44.18.18.27.18.44-.06.32-.19.44-.27.18-.44.18-.31-.06-.43-.18Z"/><path class="s" d="M210.09,39.45c0-.55.18-1,.54-1.35s.86-.53,1.5-.53,1.13.18,1.5.53.54.8.54,1.35c0,.52-.18.95-.54,1.28s-.86.51-1.5.51-1.15-.17-1.5-.51-.54-.77-.54-1.28ZM211.11,39.36c0,.16,0,.28,0,.36s.01.2.03.35.05.26.09.34.1.16.17.26.17.16.29.2.26.06.43.06.31-.02.43-.06.22-.1.29-.2.13-.18.17-.26.07-.19.09-.34.03-.26.03-.35,0-.2,0-.36c0-.55-.06-.92-.17-1.1-.17-.27-.45-.41-.85-.41-.43,0-.72.15-.88.46-.09.18-.13.53-.13,1.04Z"/><path class="s" d="M214.82,41.2v-.38h.51v-2.47c0-.15-.03-.24-.08-.27-.05-.03-.2-.04-.43-.04v-.38l1.38-.07v.87c.29-.58.75-.86,1.38-.87.41,0,.71.09.91.27s.3.47.3.88v2.07h.55v.38c-.45-.02-.78-.02-1.01-.02s-.56,0-1.01.02v-.38h.55v-2.16c0-.29-.04-.49-.11-.61s-.19-.17-.33-.17c-.29,0-.57.11-.82.33s-.38.53-.38.93v1.67h.55v.38c-.42-.02-.75-.02-.99-.02s-.56,0-.99.02Z"/><polyline class="k" points="489.41 64.43 489.41 67.43 486.41 67.43"/><line class="j" x1="482.5" y1="67.43" x2="279.08" y2="67.43"/><polyline class="k" points="277.12 67.43 274.12 67.43 274.12 64.43"/><line class="h" x1="274.12" y1="60.53" x2="274.12" y2="33.19"/><polyline class="k" points="274.12 31.24 274.12 28.24 277.12 28.24"/><line class="j" x1="281.03" y1="28.24" x2="484.46" y2="28.24"/><polyline class="k" points="486.41 28.24 489.41 28.24 489.41 31.24"/><line class="h" x1="489.41" y1="35.14" x2="489.41" y2="62.48"/><path class="s" d="M328.22,49.68v-.38h.2c.16,0,.3,0,.43-.02.11-.01.18-.03.2-.04.02-.02.03-.07.03-.17v-4.5h-.86v-.38h1.83c.08,0,.13,0,.16.02.03.01.06.04.1.09l3.19,3.74v-3.24c0-.09-.01-.15-.03-.16-.02-.02-.09-.03-.21-.05-.14-.02-.28-.02-.42-.02h-.2v-.38c.22.02.58.02,1.08.02s.87,0,1.07-.02v.38h-.2c-.16,0-.3,0-.43.02-.11.01-.18.03-.2.04-.02.02-.03.07-.03.17v4.62c0,.11-.01.18-.03.21-.02.03-.08.05-.18.05-.07,0-.11,0-.12-.02-.02-.01-.05-.04-.09-.09l-3.99-4.69v4.18c0,.09,0,.15.03.17.02.02.09.03.21.04.14.02.29.02.43.02h.2v.38c-.22-.02-.58-.02-1.08-.02s-.87,0-1.07.02Z"/><path class="s" d="M335.36,47.94c0-.55.18-1,.54-1.35s.86-.53,1.5-.53,1.13.18,1.5.53c.36.35.54.8.54,1.35,0,.52-.18.95-.54,1.28-.36.34-.86.51-1.5.51s-1.15-.17-1.5-.51c-.36-.34-.54-.77-.54-1.28ZM336.38,47.85c0,.16,0,.28,0,.36,0,.08.01.2.03.35.02.15.05.26.09.34s.1.16.17.26c.07.09.17.16.29.2.12.04.26.06.43.06s.31-.02.43-.06c.12-.04.22-.1.29-.2.07-.09.13-.18.17-.26.04-.08.07-.19.09-.34s.03-.26.03-.35c0-.08,0-.2,0-.36,0-.55-.06-.92-.17-1.1-.17-.27-.46-.41-.85-.41-.43,0-.72.15-.88.46-.09.18-.13.53-.13,1.04Z"/><path class="s" d="M340.1,49.68v-.38h.51v-2.47c0-.15-.03-.24-.08-.27s-.2-.04-.43-.04v-.38l1.38-.07v.87c.29-.58.75-.86,1.38-.87.41,0,.71.09.91.27.2.18.3.47.3.88v2.07h.55v.38c-.45-.02-.78-.02-1.01-.02s-.56,0-1.01.02v-.38h.55v-2.16c0-.29-.04-.49-.11-.61-.08-.11-.19-.17-.33-.17-.29,0-.57.11-.82.33s-.38.53-.38.93v1.67h.55v.38c-.42-.02-.75-.02-.99-.02s-.56,0-.99.02Z"/><path class="s" d="M344.9,48.29v-.78h2.45v.78h-2.45Z"/><path class="s" d="M348.04,46.51v-.29c.37-.01.66-.17.87-.49.21-.32.31-.69.32-1.12h.38v1.53h1.17v.38h-1.17v2.21c0,.46.15.7.46.7.13,0,.24-.06.33-.18.1-.12.14-.3.14-.55v-.41h.38v.42c0,.3-.09.55-.26.74-.17.2-.41.29-.7.29-.84,0-1.27-.34-1.27-1.03v-2.19h-.65Z"/><path class="s" d="M351.82,49.68v-.38h.46v-2.47c0-.15-.02-.24-.07-.27-.05-.03-.18-.04-.39-.04v-.38l1.33-.07v.91c.21-.6.56-.9,1.04-.91.22,0,.41.06.58.18s.25.28.25.48c0,.15-.05.27-.16.36-.1.09-.22.13-.36.13s-.25-.04-.36-.13-.16-.21-.16-.36c0-.14.05-.27.16-.37-.19,0-.35.05-.49.16-.14.1-.24.24-.31.41s-.12.33-.15.49c-.03.16-.05.32-.05.48v1.4h.7v.38c-.18-.02-.53-.02-1.05-.02-.11,0-.43,0-.97.02Z"/><path class="s" d="M355.48,48.82c0-.76.86-1.18,2.58-1.26v-.27c0-.63-.28-.95-.85-.95-.21,0-.41.02-.58.05.13.08.2.21.2.39,0,.16-.05.28-.16.37-.11.09-.24.13-.38.13-.12,0-.23-.04-.33-.13-.1-.09-.15-.21-.15-.37,0-.49.48-.74,1.43-.74.57,0,1.01.11,1.31.34s.45.52.45.9v1.72c0,.08,0,.13.02.16,0,.03.05.06.13.09s.19.04.35.04c.05,0,.08,0,.1,0,.02,0,.04.02.07.05.02.03.04.07.04.13,0,.09-.02.14-.06.16-.04.02-.11.03-.2.03h-.38c-.2,0-.36-.02-.48-.06-.12-.04-.21-.09-.25-.17-.05-.07-.07-.14-.08-.19-.01-.05-.02-.12-.02-.21-.22.44-.61.66-1.16.66-.16,0-.32-.01-.49-.04-.16-.02-.33-.07-.5-.13-.17-.06-.31-.16-.42-.28-.1-.13-.16-.28-.16-.46ZM356.39,48.81c0,.18.07.32.22.45.15.12.33.18.54.18.07,0,.14-.01.23-.03.08-.02.18-.06.29-.11s.2-.14.27-.27c.07-.13.11-.28.11-.46v-.76c-.12,0-.23.01-.33.03s-.25.04-.42.09-.33.1-.45.16-.23.16-.33.29-.14.27-.14.44Z"/><path class="s" d="M360.09,49.68v-.38h.51v-2.47c0-.15-.03-.24-.08-.27s-.2-.04-.43-.04v-.38l1.38-.07v.87c.29-.58.75-.86,1.38-.87.41,0,.71.09.91.27.2.18.3.47.3.88v2.07h.55v.38c-.45-.02-.78-.02-1.01-.02s-.56,0-1.01.02v-.38h.55v-2.16c0-.29-.04-.49-.11-.61-.08-.11-.19-.17-.33-.17-.29,0-.57.11-.82.33s-.38.53-.38.93v1.67h.55v.38c-.42-.02-.75-.02-.99-.02s-.56,0-.99.02Z"/><path class="s" d="M365.1,49.51v-.87c0-.1,0-.17.03-.19.02-.03.07-.04.16-.04.06,0,.11,0,.13.02s.04.04.06.1c.03.11.07.21.11.3.04.09.1.18.19.29.08.11.2.19.34.25.15.06.32.09.52.09.61,0,.91-.2.91-.6,0-.11-.03-.21-.09-.29-.06-.08-.15-.14-.26-.19-.11-.05-.21-.08-.28-.09-.07-.01-.16-.03-.27-.06-.26-.05-.44-.08-.54-.11-.1-.02-.22-.06-.35-.12-.13-.06-.25-.13-.35-.22-.21-.18-.32-.4-.32-.67,0-.17.03-.31.09-.44.06-.13.14-.23.24-.3.1-.07.21-.13.31-.18s.22-.08.35-.09c.13-.02.23-.03.29-.03.06,0,.13,0,.2,0,.34,0,.61.05.81.16.21-.1.33-.16.36-.16.06,0,.11.02.12.04s.02.09.02.18v.64c0,.1,0,.16-.03.19s-.08.04-.17.04c-.08,0-.13-.01-.15-.03-.02-.02-.03-.06-.04-.13-.04-.44-.36-.67-.94-.67s-.9.18-.9.54c0,.1.02.18.06.25.04.07.02.09-.06.06-.08-.03-.13-.04-.12-.04,0,0,.31.07.94.2.2.05.42.1.64.15.22.05.41.13.55.23.29.23.44.51.44.84,0,.19-.03.35-.09.49s-.14.25-.24.33c-.1.08-.21.14-.31.2s-.22.09-.35.1-.23.03-.29.04-.13,0-.2,0c-.38,0-.7-.09-.95-.26l-.21.14c-.11.08-.19.12-.23.12h0c-.07,0-.11-.02-.12-.05s-.02-.09-.02-.18Z"/><path class="s" d="M368.75,46.51v-.38h.6v-.81c0-.42.16-.73.49-.93.32-.21.71-.31,1.16-.31.31,0,.54.07.7.21.16.14.24.3.24.49,0,.15-.05.27-.15.36-.1.09-.22.13-.36.13-.13,0-.24-.04-.35-.13s-.16-.21-.16-.37c0-.17.06-.3.19-.39-.04-.01-.08-.02-.14-.02s-.11,0-.17.01c-.06,0-.13.03-.21.07-.08.04-.15.09-.21.15s-.11.15-.15.28c-.04.12-.07.27-.07.44v.81h.96v.38h-.92v2.8h.7v.38c-.19-.02-.56-.02-1.11-.02-.11,0-.45,0-1.01.02v-.38h.55v-2.8h-.6Z"/><path class="s" d="M371.47,47.88c0-.52.17-.96.52-1.3.35-.35.83-.52,1.45-.52.55,0,.97.14,1.27.43.3.3.45.71.45,1.23,0,.1-.02.16-.05.19s-.1.03-.21.03h-2.41c0,.98.38,1.47,1.12,1.47h0c.25,0,.48-.06.69-.18s.35-.27.43-.46c.03-.07.05-.12.08-.14.02-.02.07-.03.14-.03.14,0,.21.05.21.14,0,.04-.02.09-.04.16-.03.07-.08.15-.16.25-.08.1-.17.19-.29.28-.12.08-.27.16-.46.21s-.41.09-.65.09c-.64,0-1.14-.17-1.52-.52-.38-.34-.57-.79-.57-1.33ZM372.5,47.68h1.91c-.03-.89-.35-1.33-.96-1.33-.33,0-.58.14-.76.41-.11.17-.17.47-.19.91Z"/><path class="s" d="M375.81,49.68v-.38h.46v-2.47c0-.15-.02-.24-.07-.27-.05-.03-.18-.04-.39-.04v-.38l1.33-.07v.91c.21-.6.56-.9,1.04-.91.22,0,.41.06.58.18s.25.28.25.48c0,.15-.05.27-.16.36-.1.09-.22.13-.36.13s-.25-.04-.36-.13-.16-.21-.16-.36c0-.14.05-.27.16-.37-.19,0-.35.05-.49.16-.14.1-.24.24-.31.41s-.12.33-.15.49c-.03.16-.05.32-.05.48v1.4h.7v.38c-.18-.02-.53-.02-1.05-.02-.11,0-.43,0-.97.02Z"/><path class="s" d="M379.47,48.82c0-.76.86-1.18,2.58-1.26v-.27c0-.63-.28-.95-.85-.95-.21,0-.41.02-.58.05.13.08.2.21.2.39,0,.16-.05.28-.16.37-.11.09-.24.13-.38.13-.12,0-.23-.04-.33-.13-.1-.09-.15-.21-.15-.37,0-.49.48-.74,1.43-.74.57,0,1.01.11,1.31.34s.45.52.45.9v1.72c0,.08,0,.13.02.16,0,.03.05.06.13.09s.19.04.35.04c.05,0,.08,0,.1,0,.02,0,.04.02.07.05.02.03.04.07.04.13,0,.09-.02.14-.06.16-.04.02-.11.03-.2.03h-.38c-.2,0-.36-.02-.48-.06-.12-.04-.21-.09-.25-.17-.05-.07-.07-.14-.08-.19-.01-.05-.02-.12-.02-.21-.22.44-.61.66-1.16.66-.16,0-.32-.01-.49-.04-.16-.02-.33-.07-.5-.13-.17-.06-.31-.16-.42-.28-.1-.13-.16-.28-.16-.46ZM380.38,48.81c0,.18.07.32.22.45.15.12.33.18.54.18.07,0,.14-.01.23-.03.08-.02.18-.06.29-.11s.2-.14.27-.27c.07-.13.11-.28.11-.46v-.76c-.12,0-.23.01-.33.03s-.25.04-.42.09-.33.1-.45.16-.23.16-.33.29-.14.27-.14.44Z"/><path class="s" d="M383.98,44.57v-.38l1.41-.06v2.34c.31-.26.71-.39,1.18-.39.58,0,1.04.17,1.39.5.35.34.53.77.53,1.31s-.19,1-.56,1.33c-.37.33-.86.5-1.46.5-.45,0-.84-.17-1.17-.5l-.39.45h-.38v-4.8c0-.15-.03-.24-.08-.27-.06-.03-.21-.04-.47-.04ZM385.44,48.89c.24.37.56.55.95.55.37,0,.66-.14.86-.42.14-.21.21-.58.21-1.13,0-.13,0-.24,0-.31,0-.08-.01-.18-.03-.32-.02-.14-.05-.25-.09-.34-.04-.09-.1-.18-.17-.27-.07-.09-.16-.16-.28-.21s-.25-.07-.41-.07c-.21,0-.4.05-.59.14s-.33.22-.45.37v2.01Z"/><path class="s" d="M389.16,49.68v-.38h.55v-4.43c0-.15-.03-.24-.08-.27-.06-.03-.21-.04-.47-.04v-.38l1.42-.06v5.18h.55v.38c-.54-.02-.87-.02-.98-.02-.14,0-.47,0-.98.02Z"/><path class="s" d="M391.59,47.88c0-.52.17-.96.52-1.3.35-.35.83-.52,1.45-.52.55,0,.97.14,1.27.43.3.3.45.71.45,1.23,0,.1-.02.16-.05.19s-.1.03-.21.03h-2.41c0,.98.38,1.47,1.12,1.47h0c.25,0,.48-.06.69-.18s.35-.27.43-.46c.03-.07.05-.12.08-.14.02-.02.07-.03.14-.03.14,0,.21.05.21.14,0,.04-.02.09-.04.16-.03.07-.08.15-.16.25-.08.1-.17.19-.29.28-.12.08-.27.16-.46.21s-.41.09-.65.09c-.64,0-1.14-.17-1.52-.52-.38-.34-.57-.79-.57-1.33ZM392.61,47.68h1.91c-.03-.89-.35-1.33-.96-1.33-.33,0-.58.14-.76.41-.11.17-.17.47-.19.91Z"/><path class="s" d="M398.99,49.68v-.38h.46v-2.47c0-.15-.02-.24-.07-.27-.05-.03-.18-.04-.39-.04v-.38l1.33-.07v.91c.21-.6.56-.9,1.04-.91.22,0,.41.06.58.18s.25.28.25.48c0,.15-.05.27-.16.36-.1.09-.22.13-.36.13s-.25-.04-.36-.13-.16-.21-.16-.36c0-.14.05-.27.16-.37-.19,0-.35.05-.49.16-.14.1-.24.24-.31.41s-.12.33-.15.49c-.03.16-.05.32-.05.48v1.4h.7v.38c-.18-.02-.53-.02-1.05-.02-.11,0-.43,0-.97.02Z"/><path class="s" d="M402.65,47.88c0-.52.17-.96.52-1.3.35-.35.83-.52,1.45-.52.55,0,.97.14,1.27.43.3.3.45.71.45,1.23,0,.1-.02.16-.05.19s-.1.03-.21.03h-2.41c0,.98.38,1.47,1.12,1.47h0c.25,0,.48-.06.69-.18s.35-.27.43-.46c.03-.07.05-.12.08-.14.02-.02.07-.03.14-.03.14,0,.21.05.21.14,0,.04-.02.09-.04.16-.03.07-.08.15-.16.25-.08.1-.17.19-.29.28-.12.08-.27.16-.46.21s-.41.09-.65.09c-.64,0-1.14-.17-1.52-.52-.38-.34-.57-.79-.57-1.33ZM403.67,47.68h1.91c-.03-.89-.35-1.33-.96-1.33-.33,0-.58.14-.76.41-.11.17-.17.47-.19.91Z"/><path class="s" d="M406.91,49.51v-.87c0-.1,0-.17.03-.19.02-.03.07-.04.16-.04.06,0,.11,0,.13.02s.04.04.06.1c.03.11.07.21.11.3.04.09.1.18.19.29.08.11.2.19.34.25.15.06.32.09.52.09.61,0,.91-.2.91-.6,0-.11-.03-.21-.09-.29-.06-.08-.15-.14-.26-.19-.11-.05-.21-.08-.28-.09-.07-.01-.16-.03-.27-.06-.26-.05-.44-.08-.54-.11-.1-.02-.22-.06-.35-.12-.13-.06-.25-.13-.35-.22-.21-.18-.32-.4-.32-.67,0-.17.03-.31.09-.44.06-.13.14-.23.24-.3.1-.07.21-.13.31-.18s.22-.08.35-.09c.13-.02.23-.03.29-.03.06,0,.13,0,.2,0,.34,0,.61.05.81.16.21-.1.33-.16.36-.16.06,0,.11.02.12.04s.02.09.02.18v.64c0,.1,0,.16-.03.19s-.08.04-.17.04c-.08,0-.13-.01-.15-.03-.02-.02-.03-.06-.04-.13-.04-.44-.36-.67-.94-.67s-.9.18-.9.54c0,.1.02.18.06.25.04.07.02.09-.06.06-.08-.03-.13-.04-.12-.04,0,0,.31.07.94.2.2.05.42.1.64.15.22.05.41.13.55.23.29.23.44.51.44.84,0,.19-.03.35-.09.49s-.14.25-.24.33c-.1.08-.21.14-.31.2s-.22.09-.35.1-.23.03-.29.04-.13,0-.2,0c-.38,0-.7-.09-.95-.26l-.21.14c-.11.08-.19.12-.23.12h0c-.07,0-.11-.02-.12-.05s-.02-.09-.02-.18Z"/><path class="s" d="M410.49,47.94c0-.55.18-1,.54-1.35s.86-.53,1.5-.53,1.13.18,1.5.53c.36.35.54.8.54,1.35,0,.52-.18.95-.54,1.28-.36.34-.86.51-1.5.51s-1.15-.17-1.5-.51c-.36-.34-.54-.77-.54-1.28ZM411.51,47.85c0,.16,0,.28,0,.36,0,.08.01.2.03.35.02.15.05.26.09.34s.1.16.17.26c.07.09.17.16.29.2.12.04.26.06.43.06s.31-.02.43-.06c.12-.04.22-.1.29-.2.07-.09.13-.18.17-.26.04-.08.07-.19.09-.34s.03-.26.03-.35c0-.08,0-.2,0-.36,0-.55-.06-.92-.17-1.1-.17-.27-.46-.41-.85-.41-.43,0-.72.15-.88.46-.09.18-.13.53-.13,1.04Z"/><path class="s" d="M415.19,46.52v-.38l1.46-.07v2.73c0,.24.03.41.1.5.07.09.25.13.54.13s.53-.1.72-.3.28-.46.28-.78v-1.53c0-.15-.03-.24-.08-.27s-.21-.04-.47-.04v-.38l1.46-.07v2.91c0,.15.03.24.08.27.06.03.21.04.47.04v.38l-1.42.05v-.62c-.24.41-.62.62-1.14.62h0c-.45,0-.81-.07-1.06-.22s-.38-.42-.38-.81v-1.86c0-.15-.03-.24-.08-.27-.06-.03-.21-.04-.47-.04Z"/><path class="s" d="M420.31,49.68v-.38h.46v-2.47c0-.15-.02-.24-.07-.27-.05-.03-.18-.04-.39-.04v-.38l1.33-.07v.91c.21-.6.56-.9,1.04-.91.22,0,.41.06.58.18s.25.28.25.48c0,.15-.05.27-.16.36-.1.09-.22.13-.36.13s-.25-.04-.36-.13-.16-.21-.16-.36c0-.14.05-.27.16-.37-.19,0-.35.05-.49.16-.14.1-.24.24-.31.41s-.12.33-.15.49c-.03.16-.05.32-.05.48v1.4h.7v.38c-.18-.02-.53-.02-1.05-.02-.11,0-.43,0-.97.02Z"/><path class="s" d="M424.01,47.91c0-.51.17-.95.51-1.31.34-.36.84-.54,1.52-.54.94,0,1.41.25,1.41.74,0,.16-.05.28-.16.37-.1.09-.22.13-.36.13-.13,0-.24-.04-.35-.13s-.16-.21-.16-.37c0-.15.05-.27.17-.37-.14-.03-.31-.05-.52-.05-.2,0-.37.04-.5.12-.14.08-.24.17-.31.27s-.12.23-.15.39-.06.29-.06.38c0,.09,0,.2,0,.33,0,1.03.37,1.54,1.11,1.54.5,0,.84-.22,1.02-.66.02-.05.04-.08.06-.1.02-.01.06-.02.13-.02.13,0,.19.04.19.11,0,.02-.01.06-.03.12-.02.06-.07.14-.14.25s-.16.2-.27.28-.26.16-.46.23-.42.1-.66.1c-.61,0-1.09-.17-1.45-.51-.36-.34-.54-.78-.54-1.32Z"/><path class="s" d="M428.05,47.88c0-.52.17-.96.52-1.3.35-.35.83-.52,1.45-.52.55,0,.97.14,1.27.43.3.3.45.71.45,1.23,0,.1-.02.16-.05.19s-.1.03-.21.03h-2.41c0,.98.38,1.47,1.12,1.47h0c.25,0,.48-.06.69-.18s.35-.27.43-.46c.03-.07.05-.12.08-.14.02-.02.07-.03.14-.03.14,0,.21.05.21.14,0,.04-.02.09-.04.16-.03.07-.08.15-.16.25-.08.1-.17.19-.29.28-.12.08-.27.16-.46.21s-.41.09-.65.09c-.64,0-1.14-.17-1.52-.52-.38-.34-.57-.79-.57-1.33ZM429.08,47.68h1.91c-.03-.89-.35-1.33-.96-1.33-.33,0-.58.14-.76.41-.11.17-.17.47-.19.91Z"/><path class="s" d="M432.31,49.51v-.87c0-.1,0-.17.03-.19.02-.03.07-.04.16-.04.06,0,.11,0,.13.02s.04.04.06.1c.03.11.07.21.11.3.04.09.1.18.19.29.08.11.2.19.34.25.15.06.32.09.52.09.61,0,.91-.2.91-.6,0-.11-.03-.21-.09-.29-.06-.08-.15-.14-.26-.19-.11-.05-.21-.08-.28-.09-.07-.01-.16-.03-.27-.06-.26-.05-.44-.08-.54-.11-.1-.02-.22-.06-.35-.12-.13-.06-.25-.13-.35-.22-.21-.18-.32-.4-.32-.67,0-.17.03-.31.09-.44.06-.13.14-.23.24-.3.1-.07.21-.13.31-.18s.22-.08.35-.09c.13-.02.23-.03.29-.03.06,0,.13,0,.2,0,.34,0,.61.05.81.16.21-.1.33-.16.36-.16.06,0,.11.02.12.04s.02.09.02.18v.64c0,.1,0,.16-.03.19s-.08.04-.17.04c-.08,0-.13-.01-.15-.03-.02-.02-.03-.06-.04-.13-.04-.44-.36-.67-.94-.67s-.9.18-.9.54c0,.1.02.18.06.25.04.07.02.09-.06.06-.08-.03-.13-.04-.12-.04,0,0,.31.07.94.2.2.05.42.1.64.15.22.05.41.13.55.23.29.23.44.51.44.84,0,.19-.03.35-.09.49s-.14.25-.24.33c-.1.08-.21.14-.31.2s-.22.09-.35.1-.23.03-.29.04-.13,0-.2,0c-.38,0-.7-.09-.95-.26l-.21.14c-.11.08-.19.12-.23.12h0c-.07,0-.11-.02-.12-.05s-.02-.09-.02-.18Z"/><g id="d"><rect class="o" x="358.02" y="106.46" width="127.02" height="19.47"/><path d="M484.66,106.83v18.72h-126.27v-18.72h126.27M485.41,106.08h-127.77v20.22h127.77v-20.22h0Z"/><line class="m" x1="383.19" y1="106.08" x2="383.19" y2="126.3"/><line class="m" x1="408.75" y1="106.08" x2="408.75" y2="126.3"/><line class="m" x1="434.3" y1="106.08" x2="434.3" y2="126.3"/><line class="m" x1="459.85" y1="106.08" x2="459.85" y2="126.3"/><rect class="o" x="392.99" y="107.83" width="60.01" height="7.07"/><path class="s" d="M395.91,113.88v-.38h.86v-4.69h-.86v-.38h4.97l.25,1.93h-.38c-.03-.22-.06-.4-.09-.54-.04-.14-.09-.28-.16-.42s-.17-.25-.28-.33c-.11-.08-.26-.14-.44-.19-.18-.05-.4-.07-.65-.07h-1.21v2.06h.44c.36,0,.59-.07.69-.22s.16-.38.16-.72h.38v2.25h-.38c0-.34-.05-.58-.16-.72s-.33-.22-.69-.22h-.44v2.26h1.21c.24,0,.45-.02.64-.05.18-.04.34-.09.47-.18.13-.08.24-.17.32-.26.09-.09.16-.22.22-.37s.1-.3.13-.44c.03-.14.06-.31.1-.52h.38l-.37,2.19h-5.1Z"/><path class="s" d="M401.84,110.7v-.38c.05,0,.2,0,.43.01s.4.01.48.01c.4,0,.73,0,.99-.02v.38h-.43l1.02,2.18.93-2c.03-.05.04-.08.04-.1,0-.06-.12-.09-.35-.09h-.03v-.38c.34.02.58.02.73.02.22,0,.43,0,.63-.02v.38c-.23,0-.38.01-.45.04s-.11.07-.14.13l-1.33,2.85c-.06.13-.16.19-.3.19s-.24-.07-.3-.2l-1.4-3.01h-.51Z"/><path class="s" d="M406.48,112.08c0-.52.17-.96.52-1.3s.83-.52,1.45-.52c.55,0,.97.14,1.27.43.3.3.45.71.45,1.23,0,.1-.02.16-.05.19s-.1.03-.21.03h-2.41c0,.98.38,1.47,1.12,1.47h0c.25,0,.48-.06.69-.18s.35-.27.43-.46c.03-.07.05-.12.08-.14.02-.02.07-.03.14-.03.14,0,.21.05.21.14,0,.04-.01.09-.04.16s-.08.15-.16.25-.17.19-.29.28-.27.16-.46.21-.41.09-.65.09c-.64,0-1.14-.17-1.52-.52s-.57-.79-.57-1.33ZM407.5,111.87h1.91c-.03-.89-.35-1.33-.96-1.33-.33,0-.58.14-.76.41-.11.17-.17.47-.19.91Z"/><path class="s" d="M410.84,113.88v-.38h.51v-2.47c0-.15-.03-.24-.08-.27s-.2-.04-.43-.04v-.38l1.38-.07v.87c.29-.58.75-.86,1.38-.87.41,0,.71.09.91.27.2.18.3.47.3.88v2.07h.55v.38c-.45-.02-.78-.02-1.01-.02s-.56,0-1.01.02v-.38h.55v-2.16c0-.29-.04-.49-.11-.61s-.18-.17-.33-.17c-.29,0-.57.11-.82.33s-.38.53-.38.93v1.67h.55v.38c-.42-.02-.75-.02-.99-.02s-.56,0-.99.02Z"/><path class="s" d="M415.45,110.7v-.29c.37-.01.66-.17.87-.49s.32-.69.32-1.12h.38v1.53h1.17v.38h-1.17v2.21c0,.46.15.7.46.7.13,0,.24-.06.33-.18.1-.12.14-.3.14-.55v-.41h.38v.42c0,.3-.09.55-.26.74s-.41.29-.7.29c-.84,0-1.27-.34-1.27-1.03v-2.19h-.65Z"/><path class="s" d="M422.43,111.17c0-.85.27-1.55.8-2.07.53-.53,1.25-.79,2.15-.79s1.6.26,2.13.78.8,1.22.8,2.08c0,.24-.03.47-.08.7s-.14.46-.25.71c-.11.24-.29.46-.51.67-.23.2-.5.37-.81.49.08.11.15.2.22.27s.14.12.21.14.12.04.16.05.09,0,.16,0c.42,0,.65-.1.68-.31.02-.11.06-.16.14-.16.1,0,.14.07.14.21,0,.21-.03.42-.1.63s-.19.41-.36.59-.39.27-.64.27c-.14,0-.27-.03-.38-.08s-.2-.12-.27-.19-.13-.18-.2-.34-.11-.29-.14-.41-.08-.29-.14-.52c-.24.05-.49.07-.76.07-.91,0-1.63-.26-2.16-.78s-.79-1.19-.79-2.02ZM423.61,111.16c0,.22,0,.41.02.58.02.17.05.37.11.62.06.25.16.47.31.66.15.19.34.35.57.46-.02-.04-.02-.1-.02-.18,0-.19.08-.34.23-.47s.34-.19.54-.19c.16,0,.32.04.46.13s.25.17.31.25.14.18.22.31c.51-.35.77-1.07.77-2.15,0-.76-.11-1.33-.33-1.71-.32-.56-.79-.84-1.44-.84-.11,0-.22.01-.33.03s-.24.06-.38.12-.28.15-.41.27-.25.28-.35.46c-.2.38-.3.93-.3,1.65ZM424.88,113.29s0,.09.03.14c.02.05.07.09.15.14s.19.07.32.07c.25,0,.46-.04.66-.13-.12-.39-.34-.59-.66-.59-.13,0-.25.03-.35.1s-.15.16-.15.26Z"/><path class="s" d="M429.18,110.72v-.38l1.46-.07v2.73c0,.24.03.41.1.5.07.09.25.13.54.13s.53-.1.72-.3.28-.46.28-.78v-1.53c0-.15-.03-.24-.08-.27s-.21-.04-.47-.04v-.38l1.46-.07v2.91c0,.15.03.24.08.27s.21.04.47.04v.38l-1.42.05v-.62c-.24.41-.62.62-1.14.62h0c-.45,0-.81-.07-1.06-.22s-.38-.42-.38-.81v-1.86c0-.15-.03-.24-.08-.27s-.21-.04-.47-.04Z"/><path class="s" d="M434.18,112.08c0-.52.17-.96.52-1.3s.83-.52,1.45-.52c.55,0,.97.14,1.27.43.3.3.45.71.45,1.23,0,.1-.02.16-.05.19s-.1.03-.21.03h-2.41c0,.98.38,1.47,1.12,1.47h0c.25,0,.48-.06.69-.18s.35-.27.43-.46c.03-.07.05-.12.08-.14.02-.02.07-.03.14-.03.14,0,.21.05.21.14,0,.04-.01.09-.04.16s-.08.15-.16.25-.17.19-.29.28-.27.16-.46.21-.41.09-.65.09c-.64,0-1.14-.17-1.52-.52s-.57-.79-.57-1.33ZM435.2,111.87h1.91c-.03-.89-.35-1.33-.96-1.33-.33,0-.58.14-.76.41-.11.17-.17.47-.19.91Z"/><path class="s" d="M438.5,110.72v-.38l1.46-.07v2.73c0,.24.03.41.1.5.07.09.25.13.54.13s.53-.1.72-.3.28-.46.28-.78v-1.53c0-.15-.03-.24-.08-.27s-.21-.04-.47-.04v-.38l1.46-.07v2.91c0,.15.03.24.08.27s.21.04.47.04v.38l-1.42.05v-.62c-.24.41-.62.62-1.14.62h0c-.45,0-.81-.07-1.06-.22s-.38-.42-.38-.81v-1.86c0-.15-.03-.24-.08-.27s-.21-.04-.47-.04Z"/><path class="s" d="M443.5,112.08c0-.52.17-.96.52-1.3s.83-.52,1.45-.52c.55,0,.97.14,1.27.43.3.3.45.71.45,1.23,0,.1-.02.16-.05.19s-.1.03-.21.03h-2.41c0,.98.38,1.47,1.12,1.47h0c.25,0,.48-.06.69-.18s.35-.27.43-.46c.03-.07.05-.12.08-.14.02-.02.07-.03.14-.03.14,0,.21.05.21.14,0,.04-.01.09-.04.16s-.08.15-.16.25-.17.19-.29.28-.27.16-.46.21-.41.09-.65.09c-.64,0-1.14-.17-1.52-.52s-.57-.79-.57-1.33ZM444.52,111.87h1.91c-.03-.89-.35-1.33-.96-1.33-.33,0-.58.14-.76.41-.11.17-.17.47-.19.91Z"/></g><g id="e"><rect class="o" x="8.01" y="49.35" width="131.7" height="28.15"/><path d="M139.33,49.72v27.4H8.38v-27.4h130.95M140.08,48.97H7.63v28.9h132.45v-28.9h0Z"/><line class="k" x1="131.97" y1="68.42" x2="153.26" y2="68.42"/><polygon class="s" points="129.33 68.42 133.06 69.95 132.17 68.42 133.06 66.9 129.33 68.42"/><polygon class="s" points="155.9 68.42 152.17 69.95 153.06 68.42 152.17 66.9 155.9 68.42"/><path class="s" d="M42.38,65.27v-.38h.86v-4.74h-.86v-.38h3.44c.81,0,1.48.25,2,.75s.78,1.18.78,2.04-.26,1.5-.78,1.98-1.18.72-1.99.72h-3.45ZM44.33,64.9h1.17c.74,0,1.26-.22,1.57-.67.13-.18.22-.4.27-.64s.08-.58.08-1.02c0-.79-.11-1.36-.34-1.7-.33-.47-.86-.71-1.58-.71h-1.17v4.74Z"/><path class="s" d="M49.37,63.47c0-.52.17-.96.52-1.3s.83-.52,1.45-.52c.55,0,.97.14,1.27.43.3.3.45.71.45,1.23,0,.1-.02.16-.05.19s-.1.03-.21.03h-2.41c0,.98.38,1.47,1.12,1.47h0c.25,0,.48-.06.69-.18.2-.12.35-.27.43-.46.03-.07.05-.12.08-.14s.07-.03.14-.03c.14,0,.21.05.21.14,0,.04-.02.09-.04.16s-.08.15-.16.25-.17.19-.29.28-.27.16-.46.21-.41.09-.65.09c-.64,0-1.14-.17-1.52-.52s-.57-.79-.57-1.33ZM50.39,63.26h1.91c-.03-.89-.35-1.33-.96-1.33-.33,0-.58.14-.76.41-.11.17-.17.47-.19.91Z"/><path class="s" d="M53.62,60.16v-.38l1.41-.06v2.34c.31-.26.71-.39,1.18-.39.58,0,1.04.17,1.39.5s.53.77.53,1.31-.19,1-.56,1.33-.86.5-1.46.5c-.45,0-.84-.17-1.17-.5l-.39.45h-.38v-4.8c0-.15-.03-.24-.08-.27s-.21-.04-.47-.04ZM55.09,64.48c.24.37.56.55.95.55.37,0,.66-.14.86-.42.14-.21.21-.58.21-1.13,0-.13,0-.24,0-.31s-.01-.18-.03-.32-.05-.25-.09-.34c-.04-.09-.1-.18-.17-.27-.07-.09-.16-.16-.28-.21s-.25-.07-.41-.07c-.21,0-.4.05-.59.14s-.33.22-.45.37v2.01Z"/><path class="s" d="M58.79,62.11v-.38l1.46-.07v2.73c0,.24.03.41.1.5.07.09.25.13.54.13s.53-.1.72-.3.28-.46.28-.78v-1.53c0-.15-.03-.24-.08-.27s-.21-.04-.47-.04v-.38l1.46-.07v2.91c0,.15.03.24.08.27s.21.04.47.04v.38l-1.42.05v-.62c-.24.41-.62.62-1.14.62h0c-.45,0-.81-.07-1.06-.22s-.38-.42-.38-.81v-1.86c0-.15-.03-.24-.08-.27s-.21-.04-.47-.04Z"/><path class="s" d="M63.79,65.87c0-.12.03-.22.09-.32.06-.09.13-.17.22-.22.09-.05.16-.09.21-.11.06-.02.11-.04.16-.05-.27-.19-.41-.44-.41-.77,0-.24.11-.48.33-.71-.12-.09-.22-.21-.29-.37s-.11-.31-.11-.47c0-.32.13-.6.39-.83s.65-.35,1.17-.35c.46,0,.83.09,1.1.27.26-.2.55-.3.86-.3.16,0,.29.05.37.15s.13.2.13.32c0,.1-.03.18-.1.24-.06.07-.15.1-.25.1s-.18-.03-.25-.1-.1-.15-.1-.25c0-.05.01-.11.03-.16-.17.02-.34.07-.5.15.22.23.33.49.33.77,0,.32-.14.6-.41.83s-.68.35-1.23.35c-.37,0-.69-.07-.96-.21-.04.07-.06.16-.06.27s.03.2.1.31c.07.1.18.17.33.2.02,0,.22,0,.59,0,.33,0,.56,0,.72,0,.15,0,.32.03.51.06.19.04.35.09.5.15.41.2.61.54.61,1.02,0,.3-.17.55-.52.74s-.86.29-1.55.29-1.22-.1-1.54-.31-.47-.44-.47-.7ZM64.47,65.86c0,.2.11.38.33.52.22.14.55.21.99.21.48,0,.83-.07,1.05-.22s.33-.31.33-.49c0-.33-.38-.5-1.15-.5h-.94c-.41,0-.61.16-.61.48ZM64.84,62.62c0,.06,0,.13,0,.23s0,.18,0,.23.02.13.04.23.06.17.11.22.12.1.21.14.21.06.34.06.25-.02.34-.06c.09-.04.17-.09.21-.14s.08-.13.11-.22.04-.17.04-.23,0-.13,0-.23,0-.18,0-.23-.02-.13-.04-.23-.06-.17-.11-.22-.12-.1-.21-.14c-.09-.04-.21-.06-.34-.06s-.25.02-.34.06-.17.09-.21.14-.08.13-.11.22-.04.17-.04.23Z"/><path class="s" d="M68.38,65.87c0-.12.03-.22.09-.32.06-.09.13-.17.22-.22.09-.05.16-.09.21-.11.06-.02.11-.04.16-.05-.27-.19-.41-.44-.41-.77,0-.24.11-.48.33-.71-.12-.09-.22-.21-.29-.37s-.11-.31-.11-.47c0-.32.13-.6.39-.83s.65-.35,1.17-.35c.46,0,.83.09,1.1.27.26-.2.55-.3.86-.3.16,0,.29.05.37.15s.13.2.13.32c0,.1-.03.18-.1.24-.06.07-.15.1-.25.1s-.18-.03-.25-.1-.1-.15-.1-.25c0-.05.01-.11.03-.16-.17.02-.34.07-.5.15.22.23.33.49.33.77,0,.32-.14.6-.41.83s-.68.35-1.23.35c-.37,0-.69-.07-.96-.21-.04.07-.06.16-.06.27s.03.2.1.31c.07.1.18.17.33.2.02,0,.22,0,.59,0,.33,0,.56,0,.72,0,.15,0,.32.03.51.06.19.04.35.09.5.15.41.2.61.54.61,1.02,0,.3-.17.55-.52.74s-.86.29-1.55.29-1.22-.1-1.54-.31-.47-.44-.47-.7ZM69.07,65.86c0,.2.11.38.33.52.22.14.55.21.99.21.48,0,.83-.07,1.05-.22s.33-.31.33-.49c0-.33-.38-.5-1.15-.5h-.94c-.41,0-.61.16-.61.48ZM69.44,62.62c0,.06,0,.13,0,.23s0,.18,0,.23.02.13.04.23.06.17.11.22.12.1.21.14.21.06.34.06.25-.02.34-.06c.09-.04.17-.09.21-.14s.08-.13.11-.22.04-.17.04-.23,0-.13,0-.23,0-.18,0-.23-.02-.13-.04-.23-.06-.17-.11-.22-.12-.1-.21-.14c-.09-.04-.21-.06-.34-.06s-.25.02-.34.06-.17.09-.21.14-.08.13-.11.22-.04.17-.04.23Z"/><path class="s" d="M72.98,63.47c0-.52.17-.96.52-1.3s.83-.52,1.45-.52c.55,0,.97.14,1.27.43.3.3.45.71.45,1.23,0,.1-.02.16-.05.19s-.1.03-.21.03h-2.41c0,.98.38,1.47,1.12,1.47h0c.25,0,.48-.06.69-.18.2-.12.35-.27.43-.46.03-.07.05-.12.08-.14s.07-.03.14-.03c.14,0,.21.05.21.14,0,.04-.02.09-.04.16s-.08.15-.16.25-.17.19-.29.28-.27.16-.46.21-.41.09-.65.09c-.64,0-1.14-.17-1.52-.52s-.57-.79-.57-1.33ZM74,63.26h1.91c-.03-.89-.35-1.33-.96-1.33-.33,0-.58.14-.76.41-.11.17-.17.47-.19.91Z"/><path class="s" d="M77.32,65.27v-.38h.46v-2.47c0-.15-.02-.24-.07-.27s-.18-.04-.39-.04v-.38l1.33-.07v.91c.21-.6.56-.9,1.04-.91.22,0,.41.06.58.18.17.12.25.28.25.48,0,.15-.05.27-.16.36-.1.09-.22.13-.36.13s-.25-.04-.36-.13c-.1-.08-.16-.21-.16-.36,0-.14.05-.27.16-.37-.19,0-.35.05-.49.16-.14.1-.24.24-.31.41s-.12.33-.15.49-.05.32-.05.48v1.4h.7v.38c-.18-.02-.53-.02-1.05-.02-.11,0-.43,0-.97.02Z"/><path class="s" d="M83.99,62.1v-.38c.05,0,.2,0,.43.01s.4.01.48.01c.4,0,.73,0,.99-.02v.38h-.43l1.02,2.18.93-2c.03-.05.04-.08.04-.1,0-.06-.12-.09-.35-.09h-.03v-.38c.34.02.58.02.73.02.22,0,.43,0,.63-.02v.38c-.23,0-.38.01-.45.04s-.11.07-.14.13l-1.33,2.85c-.06.13-.16.19-.3.19s-.24-.07-.3-.2l-1.4-3.01h-.51Z"/><path class="s" d="M89,65.27v-.38h.55v-2.47c0-.15-.03-.24-.08-.27s-.2-.04-.45-.04v-.38l1.39-.07v3.23h.5v.38c-.58-.02-.89-.02-.94-.02-.16,0-.48,0-.98.02ZM89.45,60.78c-.11-.12-.17-.27-.17-.44s.06-.32.17-.44c.11-.12.26-.18.43-.18s.32.06.44.18.18.27.18.44-.06.32-.19.44-.27.18-.44.18-.31-.06-.43-.18Z"/><path class="s" d="M91.44,63.47c0-.52.17-.96.52-1.3s.83-.52,1.45-.52c.55,0,.97.14,1.27.43.3.3.45.71.45,1.23,0,.1-.02.16-.05.19s-.1.03-.21.03h-2.41c0,.98.38,1.47,1.12,1.47h0c.25,0,.48-.06.69-.18.2-.12.35-.27.43-.46.03-.07.05-.12.08-.14s.07-.03.14-.03c.14,0,.21.05.21.14,0,.04-.02.09-.04.16s-.08.15-.16.25-.17.19-.29.28-.27.16-.46.21-.41.09-.65.09c-.64,0-1.14-.17-1.52-.52s-.57-.79-.57-1.33ZM92.46,63.26h1.91c-.03-.89-.35-1.33-.96-1.33-.33,0-.58.14-.76.41-.11.17-.17.47-.19.91Z"/><path class="s" d="M95.59,62.1v-.38c.54.02.83.02.87.02.33,0,.66,0,.98-.02v.38h-.45l.84,2.06.63-1.54c.02-.06.03-.1.04-.11,0-.02-.06-.16-.17-.42h-.47v-.38c.26.02.52.02.8.02.1,0,.4,0,.91-.02v.38h-.45l.91,2.24.84-2.05s0-.01.01-.03.01-.03.02-.04,0-.02,0-.03c0-.06-.15-.1-.46-.1v-.38c.35.02.61.02.77.02.22,0,.43,0,.62-.02v.38c-.15,0-.26,0-.34.02s-.13.03-.15.05-.04.05-.06.09l-1.15,2.82c-.02.06-.04.1-.05.12s-.04.04-.08.06-.09.03-.15.03c-.09,0-.15-.02-.19-.05s-.07-.09-.1-.17l-.85-2.07-.85,2.07c-.02.06-.04.1-.06.12s-.04.04-.08.06-.09.03-.15.03c-.09,0-.15-.02-.19-.05s-.07-.09-.1-.17l-1.22-2.99h-.47Z"/><path class="s" d="M102.34,65.1v-.87c0-.1,0-.17.03-.19s.07-.04.16-.04c.06,0,.11,0,.13.02s.04.04.06.1c.03.11.07.21.11.3s.1.18.19.29.2.19.34.25c.15.06.32.09.52.09.61,0,.91-.2.91-.6,0-.11-.03-.21-.09-.29-.06-.08-.15-.14-.26-.19-.11-.05-.2-.08-.28-.09-.07-.01-.16-.03-.27-.06-.26-.05-.44-.08-.54-.11-.1-.02-.22-.06-.35-.12s-.25-.13-.35-.22c-.21-.18-.32-.4-.32-.67,0-.17.03-.31.09-.44.06-.13.14-.23.24-.3s.21-.13.31-.18.22-.08.35-.09c.13-.02.23-.03.29-.03s.13,0,.2,0c.34,0,.61.05.81.16.21-.1.33-.16.36-.16.06,0,.11.02.12.04s.02.09.02.18v.64c0,.1,0,.16-.03.19s-.07.04-.17.04c-.08,0-.13-.01-.15-.03s-.03-.06-.04-.13c-.04-.44-.36-.67-.94-.67s-.9.18-.9.54c0,.1.02.18.06.25.04.07.02.09-.06.06-.08-.03-.13-.04-.12-.04,0,0,.31.07.94.2.2.05.42.1.64.15.22.05.41.13.55.23.29.23.44.51.44.84,0,.19-.03.35-.09.49s-.14.25-.24.33c-.1.08-.21.14-.31.2s-.22.09-.35.1-.23.03-.29.04-.13,0-.2,0c-.38,0-.7-.09-.95-.26l-.21.14c-.11.08-.19.12-.23.12h0c-.06,0-.11-.02-.12-.05s-.02-.09-.02-.18Z"/></g><g id="f"><line class="k" x1="370.98" y1="116.18" x2="323.06" y2="116.18"/><circle class="s" cx="370.89" cy="116.18" r="1.69"/><polygon class="s" points="320.41 116.18 324.14 114.66 323.26 116.18 324.14 117.7 320.41 116.18"/><line class="k" x1="311.36" y1="116.18" x2="195.15" y2="116.18"/><path class="s" d="M311.28,114.49c.93,0,1.69.76,1.69,1.69s-.76,1.69-1.69,1.69-1.69-.76-1.69-1.69.76-1.69,1.69-1.69Z"/><polygon class="s" points="192.51 116.18 196.24 114.66 195.35 116.18 196.24 117.7 192.51 116.18"/><line class="k" x1="182.33" y1="116.18" x2="133.82" y2="116.18"/><path class="s" d="M182.24,114.49c.93,0,1.69.76,1.69,1.69s-.76,1.69-1.69,1.69-1.69-.76-1.69-1.69.76-1.69,1.69-1.69Z"/><polygon class="s" points="131.17 116.18 134.9 114.66 134.02 116.18 134.9 117.7 131.17 116.18"/><path class="s" d="M377.63,116.18c0,3.72-3.02,6.74-6.74,6.74s-6.74-3.02-6.74-6.74,3.02-6.74,6.74-6.74,6.74,3.02,6.74,6.74"/><rect class="o" x="367.14" y="113.65" width="7.52" height="5.05"/><path d="M374.28,114.03v4.3h-6.77v-4.3h6.77M375.03,113.28h-8.27v5.8h8.27v-5.8h0Z"/><rect class="o" x="366.2" y="112.98" width="9.21" height="6.39"/><path d="M375.03,113.36v5.64h-8.46v-5.64h8.46M375.78,112.61h-9.96v7.14h9.96v-7.14h0Z"/><polyline class="i" points="365.99 113.28 370.89 116.15 375.78 113.28"/><path class="s" d="M318.02,116.18c0,3.72-3.02,6.74-6.74,6.74s-6.74-3.02-6.74-6.74,3.02-6.74,6.74-6.74,6.74,3.02,6.74,6.74"/><rect class="o" x="307.52" y="113.65" width="7.52" height="5.05"/><path d="M314.67,114.03v4.3h-6.77v-4.3h6.77M315.42,113.28h-8.27v5.8h8.27v-5.8h0Z"/><rect class="o" x="306.59" y="112.98" width="9.21" height="6.39"/><path d="M315.42,113.36v5.64h-8.46v-5.64h8.46M316.17,112.61h-9.96v7.14h9.96v-7.14h0Z"/><polyline class="i" points="306.38 113.28 311.27 116.15 316.17 113.28"/><path class="s" d="M189.12,116.18c0,3.72-3.02,6.74-6.74,6.74s-6.74-3.02-6.74-6.74,3.02-6.74,6.74-6.74,6.74,3.02,6.74,6.74"/><rect class="o" x="178.63" y="113.65" width="7.52" height="5.05"/><path d="M185.77,114.03v4.3h-6.77v-4.3h6.77M186.52,113.28h-8.27v5.8h8.27v-5.8h0Z"/><rect class="o" x="177.69" y="112.98" width="9.21" height="6.39"/><path d="M186.52,113.36v5.64h-8.46v-5.64h8.46M187.27,112.61h-9.96v7.14h9.96v-7.14h0Z"/><polyline class="i" points="177.48 113.28 182.38 116.15 187.27 113.28"/><path class="s" d="M131.17,116.18c0,3.72-3.02,6.74-6.74,6.74s-6.74-3.02-6.74-6.74,3.02-6.74,6.74-6.74,6.74,3.02,6.74,6.74"/><rect class="o" x="120.68" y="113.65" width="7.52" height="5.05"/><path d="M127.82,114.03v4.3h-6.77v-4.3h6.77M128.57,113.28h-8.27v5.8h8.27v-5.8h0Z"/><rect class="o" x="119.75" y="112.98" width="9.21" height="6.39"/><path d="M128.58,113.36v5.64h-8.46v-5.64h8.46M129.33,112.61h-9.96v7.14h9.96v-7.14h0Z"/><polyline class="i" points="119.53 113.28 124.43 116.15 129.33 113.28"/></g><g id="g"><path class="o" d="M155.26,113.8c-3.1,0-5.61-2.52-5.61-5.61s2.52-5.61,5.61-5.61,5.61,2.52,5.61,5.61-2.52,5.61-5.61,5.61Z"/><path d="M155.26,102.94c2.89,0,5.24,2.35,5.24,5.24s-2.35,5.24-5.24,5.24-5.24-2.35-5.24-5.24,2.35-5.24,5.24-5.24M155.26,102.19c-3.31,0-5.99,2.68-5.99,5.99s2.68,5.99,5.99,5.99,5.99-2.68,5.99-5.99-2.68-5.99-5.99-5.99h0Z"/><path class="s" d="M152.27,110.93v-.38h.89v-4.74h-.89v-.38h3.48c.62,0,1.11.13,1.46.4.35.26.53.59.53.98,0,.31-.12.58-.37.8s-.59.37-1.02.45c.48.04.87.18,1.18.43.31.25.46.57.46.94,0,.42-.17.77-.52,1.06s-.84.43-1.48.43h-3.71ZM154.18,107.93h1.25c.37,0,.66-.1.86-.31s.3-.48.3-.8c0-.11-.01-.21-.04-.32s-.07-.21-.13-.32c-.06-.11-.16-.2-.29-.26-.13-.07-.3-.1-.49-.1h-1.46v2.11ZM154.18,110.56h1.47c.18,0,.34-.02.49-.07s.25-.12.33-.2.14-.17.19-.25c.05-.08.08-.17.1-.27.02-.1.03-.17.04-.21s0-.08,0-.12c0-.36-.09-.65-.26-.87-.18-.23-.45-.34-.81-.34h-1.56v2.34Z"/><path class="o" d="M297.85,113.19c-3.09,0-5.61-2.52-5.61-5.61s2.52-5.61,5.61-5.61,5.61,2.52,5.61,5.61-2.52,5.61-5.61,5.61Z"/><path d="M297.85,102.34c2.89,0,5.24,2.35,5.24,5.24s-2.35,5.24-5.24,5.24-5.24-2.35-5.24-5.24,2.35-5.24,5.24-5.24M297.85,101.59c-3.31,0-5.99,2.68-5.99,5.99s2.68,5.99,5.99,5.99,5.99-2.68,5.99-5.99-2.68-5.99-5.99-5.99h0Z"/><path class="s" d="M294.7,110.33v-.38h.17c.28,0,.45-.01.53-.04.08-.03.13-.08.15-.14l1.98-4.82c.02-.06.04-.1.05-.12s.04-.04.08-.06c.04-.02.1-.03.17-.03.06,0,.1,0,.13,0,.03,0,.06.03.1.06.04.03.07.08.1.14l2.05,5h.78v.38c-.19-.02-.62-.02-1.3-.02-.74,0-1.21,0-1.41.02v-.38h.76l-.48-1.17h-2.14l-.4.97s-.03.05-.03.09c0,.07.24.11.71.11v.38c-.2-.02-.55-.02-1.05-.02-.02,0-.33,0-.94.02ZM296.57,108.4h1.82l-.91-2.22-.91,2.22Z"/><path class="o" d="M155.26,64.35c-3.1,0-5.61-2.52-5.61-5.61s2.52-5.61,5.61-5.61,5.61,2.52,5.61,5.61-2.52,5.61-5.61,5.61Z"/><path d="M155.26,53.5c2.89,0,5.24,2.35,5.24,5.24s-2.35,5.24-5.24,5.24-5.24-2.35-5.24-5.24,2.35-5.24,5.24-5.24M155.26,52.75c-3.31,0-5.99,2.68-5.99,5.99s2.68,5.99,5.99,5.99,5.99-2.68,5.99-5.99-2.68-5.99-5.99-5.99h0Z"/><path class="s" d="M153.32,60.79c-.58-.53-.87-1.21-.87-2.04s.29-1.51.87-2.04c.58-.53,1.36-.79,2.34-.79.6,0,1.13.18,1.58.54l.52-.47c.05-.05.1-.07.15-.07.06,0,.11.01.12.04s.02.09.02.18v1.72c0,.11-.01.17-.03.19s-.08.03-.19.03c-.09,0-.14,0-.16-.03-.02-.02-.04-.06-.04-.14-.09-.49-.3-.89-.63-1.18-.34-.29-.73-.44-1.17-.44-.68,0-1.23.2-1.63.61-.35.37-.53.98-.53,1.85,0,.8.16,1.39.47,1.77.38.45.96.68,1.72.68.45,0,.87-.14,1.24-.41.37-.27.57-.66.59-1.15,0-.07.02-.1.05-.12s.07-.02.14-.02c.08,0,.13,0,.15.03s.04.06.04.14c0,.49-.22.93-.67,1.32-.44.39-1.02.59-1.73.59-.98,0-1.77-.26-2.35-.79Z"/></g></g></svg>