<?xml version="1.0" encoding="UTF-8" standalone="no"?>
<svg
   id="b"
   viewBox="0 0 218.06898 44.732899"
   version="1.1"
   sodipodi:docname="architecture.svg"
   width="218.06898"
   height="44.732899"
   inkscape:version="1.1.2 (0a00cf5339, 2022-02-04)"
   xmlns:inkscape="http://www.inkscape.org/namespaces/inkscape"
   xmlns:sodipodi="http://sodipodi.sourceforge.net/DTD/sodipodi-0.dtd"
   xmlns="http://www.w3.org/2000/svg"
   xmlns:svg="http://www.w3.org/2000/svg">
  <sodipodi:namedview
     id="namedview322"
     pagecolor="#ffffff"
     bordercolor="#666666"
     borderopacity="1.0"
     inkscape:pageshadow="2"
     inkscape:pageopacity="0.0"
     inkscape:pagecheckerboard="0"
     showgrid="false"
     inkscape:zoom="2.6449377"
     inkscape:cx="141.78028"
     inkscape:cy="7.5616148"
     inkscape:window-width="1920"
     inkscape:window-height="1170"
     inkscape:window-x="0"
     inkscape:window-y="0"
     inkscape:window-maximized="1"
     inkscape:current-layer="c" />
  <defs
     id="defs4">
    <style
       id="style2">.d{stroke-dasharray:6.17 4.11;}.d,.e,.f,.g,.h{fill:none;stroke:#010101;stroke-miterlimit:10;stroke-width:.5px;}.e{stroke-dasharray:5.86 3.91;}.f{stroke-dasharray:5.87 3.91;}.i{fill:#fff;}.j{fill:#ec2026;}.k{fill:#4368b1;}.l{fill:#b7bcdf;}.m{fill:#010101;}.n{fill:#f2c2c6;}.h{stroke-dasharray:5.97 3.98;}</style>
  </defs>
  <g
     id="c"
     transform="translate(-30.005543,-54.754192)">
    <rect
       class="l"
       x="145.20476"
       y="55.304115"
       width="102.86977"
       height="44.182972"
       id="rect6"
       style="stroke-width:0.402955" />
    <path
       class="k"
       d="M 247.62097,55.304117 V 99.12911 H 145.20476 V 55.304117 h 102.41621 m 0.45356,-0.357989 H 144.75118 V 99.48709 h 103.32335 z"
       id="path8"
       style="stroke-width:0.402955" />
    <path
       class="m"
       d="m 159.93055,78.835271 v -2 c 0,-0.14 0.01,-0.23 0.04,-0.26 0.03,-0.04 0.1,-0.05 0.23,-0.05 0.06,0 0.1,0 0.14,0.01 0.03,0 0.06,0.02 0.08,0.04 0.02,0.02 0.03,0.05 0.03,0.07 0,0.03 0,0.07 0,0.13 0.02,0.38 0.13,0.71 0.31,0.97 0.19,0.27 0.43,0.46 0.72,0.58 0.29,0.12 0.56,0.2 0.81,0.24 0.25,0.04 0.5,0.06 0.76,0.06 0.51,0 0.88,-0.13 1.1,-0.39 0.22,-0.26 0.33,-0.56 0.33,-0.89 0,-0.33 -0.15,-0.67 -0.44,-0.96 -0.12,-0.11 -0.25,-0.19 -0.39,-0.22 -0.14,-0.04 -0.48,-0.12 -1,-0.25 -0.67,-0.15 -1.12,-0.27 -1.37,-0.36 -0.25,-0.1 -0.49,-0.27 -0.74,-0.51 -0.4,-0.42 -0.6,-0.91 -0.6,-1.47 0,-0.62 0.21,-1.14 0.64,-1.57 0.43,-0.43 1.04,-0.63 1.83,-0.63 0.75,0 1.38,0.2 1.89,0.59 l 0.52,-0.48 c 0.09,-0.08 0.17,-0.12 0.23,-0.12 v 0 c 0.09,0 0.15,0.02 0.18,0.06 0.02,0.04 0.03,0.12 0.03,0.25 v 2.01 c 0,0.13 -0.01,0.22 -0.04,0.25 -0.03,0.03 -0.11,0.05 -0.25,0.05 -0.12,0 -0.2,-0.01 -0.22,-0.04 -0.03,-0.02 -0.05,-0.11 -0.08,-0.25 -0.08,-0.47 -0.25,-0.85 -0.49,-1.15 -0.24,-0.3 -0.51,-0.49 -0.79,-0.59 -0.28,-0.1 -0.58,-0.14 -0.9,-0.14 -0.48,0 -0.83,0.12 -1.05,0.36 -0.21,0.24 -0.32,0.5 -0.32,0.79 0,0.29 0.1,0.56 0.29,0.75 0.2,0.2 0.41,0.32 0.65,0.38 l 1.6,0.33 c 0.56,0.11 1.03,0.38 1.42,0.81 0.39,0.43 0.59,0.94 0.59,1.54 0,0.63 -0.22,1.18 -0.65,1.65 -0.43,0.47 -1.08,0.71 -1.95,0.71 -0.87,0 -1.6,-0.2 -2.13,-0.6 l -0.55,0.5 c -0.08,0.06 -0.15,0.1 -0.23,0.1 -0.1,0 -0.16,-0.02 -0.18,-0.06 -0.02,-0.04 -0.04,-0.12 -0.04,-0.25 z"
       id="path10" />
    <path
       class="m"
       d="m 166.60055,76.545271 c 0,-0.72 0.24,-1.32 0.72,-1.79 0.48,-0.48 1.14,-0.71 1.99,-0.71 0.76,0 1.34,0.2 1.75,0.6 0.41,0.41 0.62,0.98 0.62,1.69 0,0.14 -0.02,0.22 -0.07,0.25 -0.05,0.03 -0.14,0.05 -0.28,0.05 h -3.32 c 0,1.35 0.52,2.02 1.55,2.02 h 0.01 c 0.35,0 0.66,-0.08 0.94,-0.24 0.28,-0.16 0.48,-0.37 0.59,-0.63 0.04,-0.1 0.08,-0.16 0.11,-0.19 0.03,-0.03 0.1,-0.04 0.19,-0.04 0.19,0 0.28,0.06 0.28,0.19 0,0.05 -0.02,0.12 -0.06,0.21 -0.04,0.09 -0.12,0.21 -0.22,0.34 -0.1,0.13 -0.24,0.26 -0.39,0.38 -0.15,0.12 -0.37,0.21 -0.64,0.29 -0.27,0.08 -0.57,0.12 -0.9,0.12 -0.87,0 -1.57,-0.24 -2.09,-0.71 -0.52,-0.47 -0.78,-1.08 -0.78,-1.83 z m 1.4,-0.29 h 2.63 c -0.04,-1.22 -0.48,-1.83 -1.32,-1.83 -0.45,0 -0.79,0.19 -1.04,0.57 -0.15,0.23 -0.24,0.65 -0.26,1.26 z"
       id="path12" />
    <path
       class="m"
       d="m 172.56055,79.015271 v -0.52 h 0.64 v -3.4 c 0,-0.2 -0.03,-0.33 -0.1,-0.37 -0.07,-0.04 -0.25,-0.06 -0.54,-0.06 v -0.52 l 1.83,-0.09 v 1.25 c 0.29,-0.83 0.77,-1.24 1.43,-1.25 0.3,0 0.57,0.08 0.8,0.24 0.23,0.16 0.34,0.38 0.34,0.66 0,0.2 -0.07,0.37 -0.21,0.49 -0.14,0.12 -0.31,0.18 -0.49,0.18 -0.18,0 -0.35,-0.06 -0.49,-0.17 -0.14,-0.11 -0.21,-0.28 -0.21,-0.5 0,-0.2 0.07,-0.37 0.22,-0.5 -0.26,0 -0.48,0.07 -0.68,0.21 -0.2,0.14 -0.33,0.33 -0.43,0.56 -0.1,0.23 -0.17,0.46 -0.21,0.68 -0.04,0.22 -0.07,0.44 -0.07,0.66 v 1.93 h 0.96 v 0.52 c -0.25,-0.02 -0.73,-0.03 -1.45,-0.03 -0.15,0 -0.59,0.01 -1.34,0.03 z"
       id="path14" />
    <path
       class="m"
       d="m 177.52055,74.655271 v -0.52 c 0.07,0 0.27,0 0.59,0.02 0.32,0.02 0.55,0.02 0.66,0.02 0.54,0 1,-0.01 1.37,-0.03 v 0.52 h -0.6 l 1.4,3 1.28,-2.75 c 0.04,-0.07 0.05,-0.12 0.05,-0.13 0,-0.08 -0.16,-0.12 -0.48,-0.12 h -0.04 v -0.52 c 0.46,0.02 0.79,0.03 1,0.03 0.3,0 0.59,-0.01 0.87,-0.03 v 0.52 c -0.32,0 -0.53,0.02 -0.62,0.05 -0.09,0.03 -0.16,0.09 -0.2,0.18 l -1.83,3.92 c -0.08,0.18 -0.22,0.26 -0.41,0.26 -0.19,0 -0.33,-0.09 -0.41,-0.27 l -1.93,-4.14 h -0.7 z"
       id="path16" />
    <path
       class="m"
       d="m 183.90055,76.545271 c 0,-0.72 0.24,-1.32 0.72,-1.79 0.48,-0.48 1.14,-0.71 1.99,-0.71 0.76,0 1.34,0.2 1.75,0.6 0.41,0.41 0.62,0.98 0.62,1.69 0,0.14 -0.02,0.22 -0.07,0.25 -0.05,0.03 -0.14,0.05 -0.28,0.05 h -3.32 c 0,1.35 0.52,2.02 1.55,2.02 h 0.01 c 0.35,0 0.66,-0.08 0.94,-0.24 0.28,-0.16 0.48,-0.37 0.59,-0.63 0.04,-0.1 0.08,-0.16 0.11,-0.19 0.03,-0.03 0.1,-0.04 0.19,-0.04 0.19,0 0.28,0.06 0.28,0.19 0,0.05 -0.02,0.12 -0.06,0.21 -0.04,0.09 -0.12,0.21 -0.22,0.34 -0.1,0.13 -0.24,0.26 -0.39,0.38 -0.15,0.12 -0.37,0.21 -0.64,0.29 -0.27,0.08 -0.57,0.12 -0.9,0.12 -0.87,0 -1.57,-0.24 -2.09,-0.71 -0.52,-0.47 -0.78,-1.08 -0.78,-1.83 z m 1.41,-0.29 h 2.63 c -0.04,-1.22 -0.48,-1.83 -1.32,-1.83 -0.45,0 -0.79,0.19 -1.04,0.57 -0.15,0.23 -0.24,0.65 -0.26,1.26 z"
       id="path18" />
    <path
       class="m"
       d="m 189.87055,79.015271 v -0.52 h 0.64 v -3.4 c 0,-0.2 -0.03,-0.33 -0.1,-0.37 -0.07,-0.04 -0.25,-0.06 -0.54,-0.06 v -0.52 l 1.83,-0.09 v 1.25 c 0.29,-0.83 0.77,-1.24 1.43,-1.25 0.3,0 0.57,0.08 0.8,0.24 0.23,0.16 0.34,0.38 0.34,0.66 0,0.2 -0.07,0.37 -0.21,0.49 -0.14,0.12 -0.31,0.18 -0.49,0.18 -0.18,0 -0.35,-0.06 -0.49,-0.17 -0.14,-0.11 -0.21,-0.28 -0.21,-0.5 0,-0.2 0.07,-0.37 0.22,-0.5 -0.26,0 -0.48,0.07 -0.68,0.21 -0.2,0.14 -0.33,0.33 -0.43,0.56 -0.1,0.23 -0.17,0.46 -0.21,0.68 -0.04,0.22 -0.07,0.44 -0.07,0.66 v 1.93 h 0.96 v 0.52 c -0.25,-0.02 -0.73,-0.03 -1.45,-0.03 -0.15,0 -0.59,0.01 -1.34,0.03 z"
       id="path20" />
    <path
       class="m"
       d="m 199.18055,80.195271 c 0,-0.14 0.04,-0.24 0.13,-0.31 0.09,-0.07 0.17,-0.11 0.26,-0.11 0.1,0 0.17,0.03 0.21,0.08 0.04,0.05 0.07,0.11 0.07,0.18 0,0.07 -0.02,0.14 -0.07,0.21 -0.05,0.07 -0.11,0.12 -0.19,0.15 0.14,0.06 0.33,0.09 0.56,0.09 0.29,0 0.55,-0.12 0.76,-0.38 0.11,-0.13 0.18,-0.25 0.23,-0.35 0.04,-0.11 0.09,-0.27 0.14,-0.49 l 0.17,-0.67 c -0.28,0.28 -0.57,0.42 -0.85,0.42 -0.28,0 -0.53,-0.12 -0.71,-0.35 -0.18,-0.23 -0.27,-0.52 -0.27,-0.87 0,-0.57 0.19,-1.09 0.57,-1.58 0.38,-0.49 0.8,-0.73 1.24,-0.73 0.3,0 0.52,0.15 0.67,0.46 0.02,-0.1 0.06,-0.18 0.12,-0.22 0.06,-0.04 0.13,-0.07 0.19,-0.07 0.14,0 0.21,0.07 0.21,0.21 0,0.03 -0.01,0.09 -0.03,0.17 l -0.87,3.5 c -0.08,0.32 -0.27,0.59 -0.56,0.81 -0.29,0.22 -0.64,0.33 -1.05,0.33 -0.64,0 -0.96,-0.16 -0.96,-0.46 z m 1,-2.05 c 0,0 0,0.1 0.01,0.15 0.01,0.05 0.02,0.13 0.05,0.22 0.03,0.09 0.07,0.17 0.13,0.23 0.06,0.06 0.15,0.09 0.25,0.09 0.2,0 0.4,-0.11 0.62,-0.32 0.21,-0.22 0.34,-0.4 0.38,-0.55 l 0.37,-1.46 0.03,-0.11 c 0,0 0,-0.08 -0.02,-0.15 -0.01,-0.07 -0.04,-0.15 -0.07,-0.24 -0.03,-0.09 -0.09,-0.18 -0.17,-0.25 -0.08,-0.07 -0.18,-0.1 -0.29,-0.1 -0.15,0 -0.31,0.08 -0.47,0.23 -0.16,0.15 -0.3,0.34 -0.4,0.56 -0.09,0.2 -0.18,0.48 -0.27,0.86 -0.09,0.38 -0.14,0.65 -0.14,0.84 z"
       id="path22" />
    <path
       class="m"
       d="m 203.19055,78.385271 c 0,-0.08 0.02,-0.19 0.05,-0.31 l 1.01,-4 v -0.06 c 0,0 0.02,-0.06 0.02,-0.07 0,-0.03 0,-0.06 -0.02,-0.07 -0.02,-0.01 -0.05,-0.03 -0.11,-0.04 -0.06,-0.01 -0.15,-0.02 -0.28,-0.02 -0.13,0 -0.19,-0.03 -0.2,-0.09 0,-0.05 0,-0.08 0.03,-0.11 0.03,-0.03 0.04,-0.04 0.06,-0.04 0.02,0 0.05,-0.01 0.09,-0.02 l 0.79,-0.06 c 0,0 0.07,-0.02 0.13,-0.02 0.08,0 0.11,0.03 0.11,0.09 0,0.02 0,0.06 -0.02,0.11 l -1.14,4.57 c -0.03,0.13 -0.05,0.25 -0.05,0.37 0,0.22 0.07,0.32 0.21,0.32 v 0 c 0.2,0 0.37,-0.3 0.51,-0.9 l 0.05,-0.2 c 0,0 0.05,-0.04 0.12,-0.04 0.08,0 0.12,0.03 0.12,0.08 0,0.01 -0.01,0.06 -0.03,0.15 -0.02,0.09 -0.05,0.2 -0.09,0.34 -0.04,0.13 -0.08,0.24 -0.12,0.33 -0.14,0.28 -0.33,0.42 -0.57,0.42 -0.19,0 -0.36,-0.07 -0.49,-0.2 -0.13,-0.13 -0.19,-0.31 -0.19,-0.51 z"
       id="path24" />
    <path
       class="m"
       d="m 205.35055,77.795271 c 0,-0.58 0.21,-1.11 0.64,-1.59 0.43,-0.48 0.89,-0.72 1.39,-0.72 0.35,0 0.63,0.12 0.85,0.37 0.22,0.25 0.33,0.56 0.33,0.95 0,0.58 -0.21,1.11 -0.64,1.59 -0.42,0.48 -0.89,0.72 -1.39,0.72 -0.34,0 -0.62,-0.12 -0.84,-0.35 -0.22,-0.23 -0.33,-0.56 -0.33,-0.96 z m 0.57,0.32 c 0,0.27 0.06,0.48 0.18,0.61 0.12,0.14 0.26,0.21 0.43,0.21 0.19,0 0.38,-0.08 0.57,-0.23 0.19,-0.15 0.34,-0.34 0.46,-0.57 0.12,-0.22 0.22,-0.51 0.3,-0.85 0.08,-0.34 0.13,-0.61 0.13,-0.8 0,-0.24 -0.05,-0.44 -0.16,-0.59 -0.11,-0.15 -0.26,-0.23 -0.45,-0.23 -0.16,0 -0.33,0.06 -0.51,0.19 -0.18,0.13 -0.34,0.31 -0.48,0.54 -0.12,0.21 -0.23,0.5 -0.32,0.86 -0.09,0.36 -0.14,0.65 -0.14,0.87 z"
       id="path26" />
    <path
       class="m"
       d="m 209.48055,77.895271 c 0,-0.26 0.03,-0.48 0.09,-0.66 l 0.79,-3.16 v -0.06 c 0,0 0.03,-0.06 0.03,-0.07 0,-0.03 0,-0.06 -0.02,-0.07 -0.02,-0.01 -0.05,-0.03 -0.11,-0.04 -0.06,-0.01 -0.15,-0.02 -0.28,-0.02 -0.13,0 -0.19,-0.03 -0.2,-0.09 0,-0.05 0,-0.08 0.03,-0.11 0.03,-0.03 0.04,-0.04 0.06,-0.04 0.02,0 0.05,-0.01 0.09,-0.02 l 0.79,-0.06 c 0,0 0.07,-0.02 0.13,-0.02 0.08,0 0.11,0.03 0.11,0.09 0,0.02 0,0.06 -0.03,0.1 l -0.57,2.24 c 0.3,-0.28 0.58,-0.42 0.85,-0.42 v 0 c 0.26,0 0.49,0.11 0.68,0.32 0.19,0.22 0.29,0.52 0.29,0.92 0,0.59 -0.19,1.13 -0.58,1.63 -0.39,0.5 -0.81,0.75 -1.26,0.75 -0.28,0 -0.51,-0.12 -0.67,-0.35 -0.16,-0.23 -0.25,-0.52 -0.25,-0.87 z m 0.45,0.27 c 0,0.27 0.05,0.47 0.14,0.59 0.09,0.12 0.2,0.18 0.33,0.18 0.18,0 0.34,-0.08 0.5,-0.26 0.16,-0.18 0.27,-0.34 0.35,-0.5 0.11,-0.25 0.21,-0.56 0.31,-0.95 0.1,-0.39 0.14,-0.67 0.14,-0.85 0,-0.18 -0.03,-0.34 -0.1,-0.49 -0.07,-0.15 -0.18,-0.22 -0.34,-0.22 -0.27,0 -0.55,0.2 -0.84,0.59 -0.08,0.1 -0.13,0.23 -0.18,0.37 -0.2,0.8 -0.3,1.31 -0.3,1.55 z"
       id="path28" />
    <path
       class="m"
       d="m 212.70055,77.865271 c 0,-0.58 0.2,-1.12 0.58,-1.63 0.39,-0.5 0.81,-0.76 1.25,-0.76 0.3,0 0.53,0.16 0.67,0.47 0.04,-0.21 0.15,-0.31 0.32,-0.31 0.14,0 0.22,0.07 0.22,0.21 0,0.04 -0.01,0.09 -0.03,0.17 l -0.54,2.18 c -0.04,0.15 -0.05,0.29 -0.05,0.41 0,0.22 0.07,0.33 0.2,0.33 v 0 c 0.2,0 0.38,-0.32 0.54,-0.95 0.02,-0.09 0.04,-0.14 0.06,-0.16 0.02,-0.02 0.05,-0.03 0.1,-0.03 0.08,0 0.12,0.03 0.12,0.08 0,0.01 0,0.06 -0.03,0.14 -0.03,0.08 -0.05,0.19 -0.09,0.32 -0.04,0.13 -0.08,0.24 -0.12,0.33 -0.14,0.3 -0.34,0.45 -0.58,0.45 -0.15,0 -0.29,-0.05 -0.42,-0.14 -0.13,-0.09 -0.21,-0.23 -0.25,-0.42 -0.31,0.37 -0.63,0.56 -0.96,0.56 -0.29,0 -0.53,-0.12 -0.71,-0.36 -0.18,-0.24 -0.26,-0.53 -0.26,-0.88 z m 0.54,0.36 c 0,0.18 0.03,0.34 0.1,0.49 0.07,0.15 0.18,0.22 0.34,0.22 0.2,0 0.41,-0.11 0.62,-0.33 0.22,-0.22 0.34,-0.41 0.38,-0.57 l 0.37,-1.51 c 0,0 0.02,-0.08 0.02,-0.11 0,-0.19 -0.05,-0.36 -0.15,-0.52 -0.1,-0.16 -0.23,-0.23 -0.4,-0.23 -0.17,0 -0.32,0.08 -0.49,0.26 -0.17,0.18 -0.3,0.38 -0.4,0.63 -0.08,0.19 -0.17,0.47 -0.26,0.84 -0.09,0.37 -0.14,0.65 -0.14,0.84 z"
       id="path30" />
    <path
       class="m"
       d="m 216.67055,78.385271 c 0,-0.08 0.02,-0.19 0.05,-0.31 l 1.01,-4 v -0.06 c 0,0 0.02,-0.06 0.02,-0.07 0,-0.03 0,-0.06 -0.02,-0.07 -0.02,-0.01 -0.05,-0.03 -0.11,-0.04 -0.06,-0.01 -0.15,-0.02 -0.28,-0.02 -0.13,0 -0.19,-0.03 -0.2,-0.09 0,-0.05 0,-0.08 0.03,-0.11 0.03,-0.03 0.04,-0.04 0.06,-0.04 0.02,0 0.05,-0.01 0.09,-0.02 l 0.79,-0.06 c 0,0 0.07,-0.02 0.13,-0.02 0.08,0 0.11,0.03 0.11,0.09 0,0.02 0,0.06 -0.02,0.11 l -1.14,4.57 c -0.03,0.13 -0.05,0.25 -0.05,0.37 0,0.22 0.07,0.32 0.21,0.32 v 0 c 0.2,0 0.37,-0.3 0.51,-0.9 l 0.05,-0.2 c 0,0 0.05,-0.04 0.12,-0.04 0.08,0 0.12,0.03 0.12,0.08 0,0.01 -0.01,0.06 -0.03,0.15 -0.02,0.09 -0.05,0.2 -0.09,0.34 -0.04,0.13 -0.08,0.24 -0.12,0.33 -0.14,0.28 -0.33,0.42 -0.57,0.42 -0.19,0 -0.36,-0.07 -0.49,-0.2 -0.13,-0.13 -0.19,-0.31 -0.19,-0.51 z"
       id="path32" />
    <path
       class="m"
       d="m 221.44055,78.335271 c 0,-0.16 0.04,-0.29 0.12,-0.37 0.08,-0.08 0.17,-0.12 0.28,-0.12 0.08,0 0.15,0.02 0.2,0.07 0.05,0.05 0.07,0.11 0.07,0.18 0,0.03 0,0.07 -0.01,0.11 0,0.04 -0.05,0.1 -0.11,0.17 -0.06,0.07 -0.16,0.11 -0.29,0.12 0.1,0.3 0.35,0.45 0.76,0.45 h 0.01 c 0.15,0 0.29,-0.02 0.42,-0.07 0.13,-0.04 0.23,-0.1 0.3,-0.17 0.07,-0.07 0.13,-0.15 0.18,-0.23 0.05,-0.08 0.08,-0.16 0.1,-0.23 0.02,-0.07 0.03,-0.13 0.03,-0.19 0,-0.1 -0.02,-0.19 -0.06,-0.26 -0.04,-0.07 -0.1,-0.13 -0.17,-0.17 -0.08,-0.04 -0.15,-0.07 -0.21,-0.09 -0.06,-0.02 -0.15,-0.04 -0.27,-0.07 -0.07,-0.02 -0.13,-0.03 -0.17,-0.04 -0.04,-0.01 -0.11,-0.04 -0.19,-0.08 -0.08,-0.04 -0.15,-0.08 -0.2,-0.13 -0.05,-0.05 -0.09,-0.12 -0.13,-0.21 -0.04,-0.09 -0.06,-0.2 -0.06,-0.31 0,-0.27 0.11,-0.53 0.32,-0.79 0.21,-0.26 0.53,-0.39 0.95,-0.39 0.25,0 0.45,0.07 0.61,0.2 0.15,0.13 0.23,0.29 0.23,0.48 0,0.15 -0.03,0.27 -0.1,0.34 -0.07,0.07 -0.14,0.11 -0.23,0.11 -0.09,0 -0.14,-0.02 -0.18,-0.07 -0.04,-0.05 -0.05,-0.1 -0.05,-0.16 0,-0.06 0.02,-0.12 0.07,-0.2 0.05,-0.08 0.13,-0.12 0.24,-0.13 -0.08,-0.26 -0.27,-0.39 -0.59,-0.39 -0.28,0 -0.48,0.08 -0.61,0.26 -0.13,0.18 -0.2,0.33 -0.2,0.48 0,0.11 0.03,0.2 0.09,0.27 0.06,0.07 0.12,0.11 0.17,0.13 0.06,0.02 0.14,0.04 0.25,0.06 0.09,0.03 0.17,0.05 0.22,0.07 0.05,0.02 0.13,0.05 0.23,0.09 0.1,0.04 0.19,0.1 0.25,0.16 0.06,0.06 0.12,0.14 0.17,0.24 0.05,0.1 0.07,0.22 0.07,0.35 0,0.09 -0.01,0.18 -0.04,0.29 -0.03,0.1 -0.08,0.22 -0.15,0.35 -0.07,0.13 -0.16,0.24 -0.27,0.35 -0.11,0.1 -0.25,0.19 -0.43,0.26 -0.18,0.07 -0.38,0.11 -0.61,0.11 -0.29,0 -0.54,-0.07 -0.73,-0.21 -0.19,-0.14 -0.29,-0.33 -0.29,-0.56 z"
       id="path34" />
    <path
       class="m"
       d="m 224.96055,77.795271 c 0,-0.58 0.21,-1.11 0.64,-1.59 0.43,-0.48 0.89,-0.72 1.39,-0.72 0.25,0 0.45,0.07 0.61,0.2 0.16,0.13 0.24,0.29 0.24,0.49 0,0.14 -0.04,0.26 -0.12,0.35 -0.08,0.09 -0.17,0.13 -0.28,0.13 -0.08,0 -0.15,-0.03 -0.2,-0.08 -0.05,-0.05 -0.07,-0.11 -0.07,-0.18 0,-0.01 0,-0.02 0,-0.04 0,-0.02 0.01,-0.05 0.02,-0.09 0.01,-0.04 0.03,-0.08 0.05,-0.11 0.02,-0.03 0.06,-0.06 0.12,-0.09 0.06,-0.03 0.12,-0.05 0.19,-0.06 -0.08,-0.23 -0.27,-0.34 -0.56,-0.34 -0.19,0 -0.37,0.07 -0.56,0.21 -0.19,0.14 -0.35,0.34 -0.49,0.59 -0.1,0.19 -0.2,0.46 -0.29,0.81 -0.09,0.35 -0.13,0.63 -0.13,0.84 0,0.25 0.05,0.44 0.16,0.59 0.11,0.15 0.26,0.23 0.47,0.23 0.09,0 0.19,0 0.31,-0.03 0.11,-0.02 0.29,-0.09 0.52,-0.22 0.23,-0.13 0.43,-0.31 0.61,-0.53 0.05,-0.06 0.08,-0.09 0.1,-0.09 0.03,0 0.06,0.02 0.08,0.05 0.02,0.03 0.04,0.06 0.04,0.08 0,0.05 -0.06,0.15 -0.19,0.29 -0.13,0.14 -0.33,0.28 -0.61,0.42 -0.28,0.14 -0.57,0.21 -0.88,0.21 -0.35,0 -0.64,-0.12 -0.85,-0.36 -0.22,-0.24 -0.32,-0.56 -0.32,-0.96 z"
       id="path36" />
    <path
       class="m"
       d="m 228.24055,77.795271 c 0,-0.58 0.21,-1.11 0.64,-1.59 0.43,-0.48 0.89,-0.72 1.39,-0.72 0.35,0 0.63,0.12 0.85,0.37 0.22,0.25 0.33,0.56 0.33,0.95 0,0.58 -0.21,1.11 -0.64,1.59 -0.42,0.48 -0.89,0.72 -1.39,0.72 -0.34,0 -0.62,-0.12 -0.84,-0.35 -0.22,-0.23 -0.33,-0.56 -0.33,-0.96 z m 0.56,0.32 c 0,0.27 0.06,0.48 0.18,0.61 0.12,0.14 0.26,0.21 0.43,0.21 0.19,0 0.38,-0.08 0.57,-0.23 0.19,-0.15 0.34,-0.34 0.46,-0.57 0.12,-0.22 0.22,-0.51 0.3,-0.85 0.08,-0.34 0.13,-0.61 0.13,-0.8 0,-0.24 -0.05,-0.44 -0.16,-0.59 -0.11,-0.15 -0.26,-0.23 -0.45,-0.23 -0.16,0 -0.33,0.06 -0.51,0.19 -0.18,0.13 -0.34,0.31 -0.48,0.54 -0.12,0.21 -0.23,0.5 -0.32,0.86 -0.09,0.36 -0.14,0.65 -0.14,0.87 z"
       id="path38" />
    <path
       class="m"
       d="m 231.56055,80.475271 c 0,-0.1 0.06,-0.15 0.17,-0.15 0.16,0 0.26,-0.02 0.31,-0.05 0.05,-0.03 0.09,-0.1 0.12,-0.23 l 0.91,-3.66 c 0.04,-0.15 0.05,-0.28 0.05,-0.4 0,-0.21 -0.07,-0.32 -0.21,-0.32 -0.12,0 -0.23,0.08 -0.32,0.24 -0.09,0.16 -0.17,0.4 -0.25,0.71 -0.02,0.09 -0.03,0.14 -0.05,0.16 -0.02,0.02 -0.04,0.03 -0.09,0.03 -0.07,0 -0.11,-0.03 -0.11,-0.08 0,-0.01 0,-0.06 0.03,-0.14 0.02,-0.08 0.05,-0.19 0.09,-0.32 0.04,-0.13 0.08,-0.25 0.12,-0.35 0.14,-0.28 0.32,-0.42 0.54,-0.42 v 0 c 0.13,0 0.27,0.04 0.4,0.12 0.13,0.08 0.22,0.23 0.26,0.44 0.32,-0.37 0.64,-0.56 0.97,-0.56 0.26,0 0.49,0.11 0.68,0.32 0.19,0.22 0.29,0.52 0.29,0.92 0,0.59 -0.19,1.13 -0.58,1.63 -0.39,0.5 -0.8,0.75 -1.25,0.75 -0.17,0 -0.31,-0.05 -0.42,-0.15 -0.11,-0.1 -0.18,-0.21 -0.22,-0.31 l -0.29,1.17 c -0.06,0.23 -0.09,0.36 -0.09,0.38 0,0.03 0,0.05 0.02,0.07 0,0.02 0.04,0.03 0.11,0.04 0.06,0.01 0.15,0.02 0.27,0.02 0.12,0 0.18,0.03 0.18,0.1 0,0.1 -0.05,0.15 -0.15,0.15 -0.08,0 -0.21,0 -0.38,-0.01 -0.17,0 -0.3,-0.01 -0.39,-0.01 -0.06,0 -0.17,0 -0.32,0.01 -0.15,0.01 -0.26,0.01 -0.33,0.01 v 0 c -0.06,0 -0.09,-0.03 -0.09,-0.1 z m 1.55,-2.29 c 0,0.05 0.01,0.13 0.03,0.23 0.02,0.1 0.08,0.21 0.17,0.33 0.09,0.12 0.2,0.18 0.34,0.18 0.18,0 0.34,-0.08 0.5,-0.26 0.16,-0.18 0.27,-0.34 0.35,-0.5 0.11,-0.25 0.21,-0.56 0.31,-0.95 0.1,-0.39 0.14,-0.67 0.14,-0.85 0,-0.18 -0.03,-0.34 -0.1,-0.49 -0.06,-0.15 -0.17,-0.22 -0.33,-0.22 -0.2,0 -0.4,0.11 -0.61,0.33 -0.21,0.22 -0.33,0.41 -0.37,0.57 l -0.38,1.51 c -0.04,0.07 -0.06,0.1 -0.06,0.11 z"
       id="path40" />
    <path
       class="m"
       d="m 236.03055,77.705271 c 0,-0.66 0.21,-1.19 0.64,-1.6 0.43,-0.41 0.88,-0.62 1.35,-0.62 0.24,0 0.44,0.07 0.59,0.2 0.15,0.13 0.22,0.29 0.22,0.48 0,0.03 0,0.05 0,0.08 0,0.03 -0.01,0.08 -0.04,0.16 -0.03,0.08 -0.05,0.14 -0.09,0.21 -0.04,0.07 -0.1,0.13 -0.19,0.2 -0.09,0.07 -0.19,0.13 -0.31,0.18 -0.3,0.12 -0.68,0.18 -1.16,0.18 h -0.31 c -0.09,0.35 -0.14,0.65 -0.14,0.88 0,0.13 0.01,0.26 0.04,0.38 0.03,0.12 0.09,0.23 0.18,0.34 0.1,0.11 0.22,0.16 0.38,0.16 0.09,0 0.19,0 0.31,-0.03 0.12,-0.03 0.29,-0.09 0.52,-0.22 0.23,-0.13 0.43,-0.31 0.61,-0.53 0.05,-0.06 0.08,-0.09 0.1,-0.09 0.03,0 0.06,0.02 0.09,0.05 0.03,0.03 0.04,0.06 0.04,0.08 0,0.05 -0.07,0.15 -0.2,0.29 -0.13,0.14 -0.33,0.28 -0.61,0.42 -0.28,0.14 -0.57,0.21 -0.88,0.21 -0.36,0 -0.64,-0.14 -0.84,-0.41 -0.2,-0.28 -0.3,-0.6 -0.3,-0.99 z m 0.75,-0.71 h 0.17 c 0.08,0 0.15,0 0.22,0 0.07,0 0.17,-0.01 0.31,-0.02 0.14,-0.01 0.26,-0.04 0.37,-0.08 0.11,-0.04 0.22,-0.09 0.33,-0.14 0.11,-0.05 0.2,-0.14 0.26,-0.24 0.06,-0.1 0.09,-0.22 0.09,-0.36 0,-0.14 -0.04,-0.25 -0.13,-0.35 -0.09,-0.1 -0.21,-0.14 -0.37,-0.14 -0.04,0 -0.08,0 -0.13,0.01 -0.05,0 -0.13,0.04 -0.24,0.08 -0.11,0.04 -0.22,0.11 -0.32,0.2 -0.1,0.08 -0.2,0.22 -0.3,0.4 -0.1,0.18 -0.19,0.4 -0.25,0.64 z"
       id="path42" />
    <rect
       class="n"
       x="30.005543"
       y="54.754192"
       width="102.52271"
       height="44.149921"
       id="rect44"
       style="stroke-width:0.402125" />
    <path
       class="j"
       d="M 132.52826,55.463881 V 98.904113 H 30.905662 V 55.463881 H 132.52826 m 0.45006,-0.354846 H 30.455606 V 99.258957 H 132.97832 Z"
       id="path46"
       style="stroke-width:0.399625" />
    <path
       class="m"
       d="m 45.651251,78.319633 c -0.8,-0.73 -1.2,-1.66 -1.2,-2.81 0,-1.15 0.4,-2.08 1.2,-2.81 0.8,-0.73 1.88,-1.09 3.22,-1.09 0.83,0 1.55,0.25 2.17,0.75 l 0.72,-0.65 c 0.07,-0.06 0.14,-0.1 0.21,-0.1 0.09,0 0.14,0.02 0.17,0.06 0.03,0.04 0.03,0.12 0.03,0.25 v 2.36 c 0,0.15 -0.02,0.24 -0.05,0.27 -0.03,0.03 -0.12,0.05 -0.25,0.05 -0.12,0 -0.2,-0.01 -0.22,-0.04 -0.03,-0.02 -0.05,-0.09 -0.06,-0.2 -0.12,-0.68 -0.41,-1.22 -0.87,-1.63 -0.46,-0.41 -1,-0.61 -1.61,-0.61 -0.94,0 -1.69,0.28 -2.25,0.84 -0.48,0.5 -0.73,1.35 -0.73,2.54 0,1.1 0.22,1.91 0.65,2.44 0.53,0.62 1.31,0.93 2.36,0.93 0.62,0 1.19,-0.19 1.7,-0.56 0.51,-0.38 0.78,-0.9 0.82,-1.58 0,-0.09 0.03,-0.14 0.06,-0.16 0.04,-0.02 0.1,-0.03 0.19,-0.03 0.1,0 0.17,0.01 0.21,0.04 0.04,0.03 0.05,0.09 0.05,0.19 0,0.67 -0.31,1.28 -0.92,1.82 -0.61,0.54 -1.41,0.8 -2.38,0.8 -1.35,0 -2.43,-0.36 -3.23,-1.09 z"
       id="path48" />
    <path
       class="m"
       d="m 53.391251,79.279633 v -0.52 h 0.76 v -6.09 c 0,-0.2 -0.04,-0.33 -0.12,-0.37 -0.08,-0.04 -0.29,-0.06 -0.65,-0.06 v -0.52 l 1.95,-0.09 v 7.12 h 0.76 v 0.52 c -0.75,-0.02 -1.2,-0.03 -1.35,-0.03 -0.2,0 -0.65,0.01 -1.35,0.03 z"
       id="path50" />
    <path
       class="m"
       d="m 56.901251,79.279633 v -0.52 h 0.76 v -3.4 c 0,-0.2 -0.04,-0.33 -0.11,-0.37 -0.07,-0.04 -0.28,-0.06 -0.62,-0.06 v -0.52 l 1.92,-0.09 v 4.44 h 0.68 v 0.52 c -0.79,-0.02 -1.22,-0.03 -1.29,-0.03 -0.21,0 -0.66,0.01 -1.34,0.03 z m 0.62,-6.18 c -0.16,-0.17 -0.24,-0.37 -0.24,-0.6 0,-0.23 0.08,-0.44 0.24,-0.6 0.16,-0.17 0.35,-0.25 0.59,-0.25 0.24,0 0.44,0.08 0.61,0.25 0.17,0.17 0.25,0.37 0.25,0.6 0,0.23 -0.08,0.44 -0.25,0.6 -0.17,0.17 -0.37,0.25 -0.6,0.25 -0.23,0 -0.43,-0.08 -0.59,-0.25 z"
       id="path52" />
    <path
       class="m"
       d="m 60.251251,76.809633 c 0,-0.72 0.24,-1.32 0.72,-1.79 0.48,-0.48 1.14,-0.71 1.99,-0.71 0.76,0 1.34,0.2 1.75,0.6 0.41,0.41 0.62,0.98 0.62,1.69 0,0.14 -0.02,0.22 -0.07,0.25 -0.05,0.03 -0.14,0.05 -0.28,0.05 h -3.32 c 0,1.35 0.52,2.02 1.55,2.02 h 0.01 c 0.35,0 0.66,-0.08 0.94,-0.24 0.28,-0.16 0.48,-0.37 0.59,-0.63 0.04,-0.1 0.08,-0.16 0.11,-0.19 0.03,-0.03 0.1,-0.04 0.19,-0.04 0.19,0 0.28,0.06 0.28,0.19 0,0.05 -0.02,0.12 -0.06,0.21 -0.04,0.09 -0.12,0.21 -0.22,0.34 -0.1,0.13 -0.24,0.26 -0.39,0.38 -0.15,0.12 -0.37,0.21 -0.64,0.29 -0.27,0.08 -0.57,0.12 -0.9,0.12 -0.87,0 -1.57,-0.24 -2.09,-0.71 -0.52,-0.47 -0.78,-1.08 -0.78,-1.83 z m 1.4,-0.29 h 2.63 c -0.04,-1.22 -0.48,-1.83 -1.32,-1.83 -0.45,0 -0.79,0.19 -1.04,0.57 -0.15,0.23 -0.24,0.65 -0.26,1.26 z"
       id="path54" />
    <path
       class="m"
       d="m 66.241251,79.279633 v -0.52 h 0.7 v -3.4 c 0,-0.2 -0.04,-0.33 -0.11,-0.37 -0.07,-0.04 -0.27,-0.06 -0.6,-0.06 v -0.52 l 1.89,-0.09 v 1.19 c 0.4,-0.79 1.03,-1.19 1.9,-1.19 0.56,0 0.98,0.12 1.25,0.37 0.28,0.25 0.42,0.65 0.42,1.21 v 2.85 h 0.76 v 0.52 c -0.61,-0.02 -1.08,-0.03 -1.39,-0.03 -0.31,0 -0.77,0.01 -1.39,0.03 v -0.52 h 0.76 v -2.97 c 0,-0.4 -0.05,-0.67 -0.16,-0.83 -0.11,-0.16 -0.25,-0.24 -0.45,-0.24 -0.4,0 -0.78,0.15 -1.12,0.46 -0.34,0.3 -0.52,0.73 -0.52,1.28 v 2.3 h 0.76 v 0.52 c -0.58,-0.02 -1.03,-0.03 -1.36,-0.03 -0.33,0 -0.78,0.01 -1.36,0.03 z"
       id="path56" />
    <path
       class="m"
       d="m 72.581251,74.919633 v -0.4 c 0.51,-0.01 0.91,-0.24 1.2,-0.68 0.29,-0.44 0.43,-0.95 0.44,-1.54 h 0.52 v 2.1 h 1.61 v 0.52 h -1.61 v 3.04 c 0,0.64 0.21,0.96 0.64,0.96 0.17,0 0.33,-0.08 0.46,-0.25 0.13,-0.17 0.2,-0.42 0.2,-0.76 v -0.56 h 0.52 v 0.58 c 0,0.41 -0.12,0.75 -0.36,1.02 -0.24,0.27 -0.56,0.41 -0.97,0.41 -1.16,0 -1.74,-0.47 -1.74,-1.42 v -3.01 h -0.9 z"
       id="path58" />
    <path
       class="m"
       d="m 82.231251,78.649633 c 0,-0.08 0.02,-0.19 0.05,-0.31 l 1.01,-4 v -0.06 c 0,0 0.02,-0.06 0.02,-0.07 0,-0.03 0,-0.06 -0.02,-0.07 -0.02,-0.01 -0.05,-0.03 -0.11,-0.04 -0.06,-0.01 -0.15,-0.02 -0.28,-0.02 -0.13,0 -0.19,-0.03 -0.2,-0.09 0,-0.05 0,-0.08 0.03,-0.11 0.03,-0.03 0.04,-0.04 0.06,-0.04 0.02,0 0.05,-0.01 0.09,-0.02 l 0.79,-0.06 c 0,0 0.07,-0.02 0.13,-0.02 0.08,0 0.11,0.03 0.11,0.09 0,0.02 0,0.06 -0.02,0.11 l -1.14,4.57 c -0.03,0.13 -0.05,0.25 -0.05,0.37 0,0.22 0.07,0.32 0.21,0.32 v 0 c 0.2,0 0.37,-0.3 0.51,-0.9 l 0.05,-0.2 c 0,0 0.05,-0.04 0.12,-0.04 0.08,0 0.12,0.03 0.12,0.08 0,0.01 -0.01,0.06 -0.03,0.15 -0.02,0.09 -0.05,0.2 -0.09,0.34 -0.04,0.13 -0.08,0.24 -0.12,0.33 -0.14,0.28 -0.33,0.42 -0.57,0.42 -0.19,0 -0.36,-0.07 -0.49,-0.2 -0.13,-0.13 -0.19,-0.31 -0.19,-0.51 z"
       id="path60" />
    <path
       class="m"
       d="m 84.391251,78.059633 c 0,-0.58 0.21,-1.11 0.64,-1.59 0.43,-0.48 0.89,-0.72 1.39,-0.72 0.35,0 0.63,0.12 0.85,0.37 0.22,0.25 0.33,0.56 0.33,0.95 0,0.58 -0.21,1.11 -0.64,1.59 -0.42,0.48 -0.89,0.72 -1.39,0.72 -0.34,0 -0.62,-0.12 -0.84,-0.35 -0.22,-0.23 -0.33,-0.56 -0.33,-0.96 z m 0.56,0.32 c 0,0.27 0.06,0.48 0.18,0.61 0.12,0.14 0.26,0.21 0.43,0.21 0.19,0 0.38,-0.08 0.57,-0.23 0.19,-0.15 0.34,-0.34 0.46,-0.57 0.12,-0.22 0.22,-0.51 0.3,-0.85 0.08,-0.34 0.13,-0.61 0.13,-0.8 0,-0.24 -0.05,-0.44 -0.16,-0.59 -0.11,-0.15 -0.26,-0.23 -0.45,-0.23 -0.16,0 -0.33,0.06 -0.51,0.19 -0.18,0.13 -0.34,0.31 -0.48,0.54 -0.12,0.21 -0.23,0.5 -0.32,0.86 -0.09,0.36 -0.14,0.65 -0.14,0.87 z"
       id="path62" />
    <path
       class="m"
       d="m 88.071251,78.059633 c 0,-0.58 0.21,-1.11 0.64,-1.59 0.43,-0.48 0.89,-0.72 1.39,-0.72 0.25,0 0.45,0.07 0.61,0.2 0.16,0.13 0.24,0.29 0.24,0.49 0,0.14 -0.04,0.26 -0.12,0.35 -0.08,0.09 -0.17,0.13 -0.28,0.13 -0.08,0 -0.15,-0.03 -0.2,-0.08 -0.05,-0.05 -0.07,-0.11 -0.07,-0.18 0,-0.01 0,-0.02 0,-0.04 0,-0.02 0.01,-0.05 0.02,-0.09 0.01,-0.04 0.03,-0.08 0.05,-0.11 0.02,-0.03 0.06,-0.06 0.12,-0.09 0.06,-0.03 0.12,-0.05 0.19,-0.06 -0.08,-0.23 -0.27,-0.34 -0.56,-0.34 -0.19,0 -0.37,0.07 -0.56,0.21 -0.19,0.14 -0.35,0.34 -0.49,0.59 -0.1,0.19 -0.2,0.46 -0.29,0.81 -0.09,0.35 -0.13,0.63 -0.13,0.84 0,0.25 0.05,0.44 0.16,0.59 0.11,0.15 0.26,0.23 0.47,0.23 0.09,0 0.19,0 0.31,-0.03 0.11,-0.02 0.29,-0.09 0.52,-0.22 0.23,-0.13 0.43,-0.31 0.61,-0.53 0.05,-0.06 0.08,-0.09 0.1,-0.09 0.03,0 0.06,0.02 0.08,0.05 0.02,0.03 0.04,0.06 0.04,0.08 0,0.05 -0.06,0.15 -0.19,0.29 -0.13,0.14 -0.33,0.28 -0.61,0.42 -0.28,0.14 -0.57,0.21 -0.88,0.21 -0.35,0 -0.64,-0.12 -0.85,-0.36 -0.22,-0.24 -0.32,-0.56 -0.32,-0.96 z"
       id="path64" />
    <path
       class="m"
       d="m 91.331251,78.129633 c 0,-0.58 0.2,-1.12 0.58,-1.63 0.39,-0.5 0.81,-0.76 1.25,-0.76 0.3,0 0.53,0.16 0.67,0.47 0.04,-0.21 0.15,-0.31 0.32,-0.31 0.14,0 0.22,0.07 0.22,0.21 0,0.04 -0.01,0.09 -0.03,0.17 l -0.54,2.18 c -0.04,0.15 -0.05,0.29 -0.05,0.41 0,0.22 0.07,0.33 0.2,0.33 v 0 c 0.2,0 0.38,-0.32 0.54,-0.95 0.02,-0.09 0.04,-0.14 0.06,-0.16 0.02,-0.02 0.05,-0.03 0.1,-0.03 0.08,0 0.12,0.03 0.12,0.08 0,0.01 0,0.06 -0.03,0.14 -0.03,0.08 -0.05,0.19 -0.09,0.32 -0.04,0.13 -0.08,0.24 -0.12,0.33 -0.14,0.3 -0.34,0.45 -0.58,0.45 -0.15,0 -0.29,-0.05 -0.42,-0.14 -0.13,-0.09 -0.21,-0.23 -0.25,-0.42 -0.31,0.37 -0.63,0.56 -0.96,0.56 -0.29,0 -0.53,-0.12 -0.71,-0.36 -0.18,-0.24 -0.26,-0.53 -0.26,-0.88 z m 0.54,0.36 c 0,0.18 0.03,0.34 0.1,0.49 0.07,0.15 0.18,0.22 0.34,0.22 0.2,0 0.41,-0.11 0.62,-0.33 0.22,-0.22 0.34,-0.41 0.38,-0.57 l 0.37,-1.51 c 0,0 0.02,-0.08 0.02,-0.11 0,-0.19 -0.05,-0.36 -0.15,-0.52 -0.1,-0.16 -0.23,-0.23 -0.4,-0.23 -0.17,0 -0.32,0.08 -0.49,0.26 -0.17,0.18 -0.3,0.38 -0.4,0.63 -0.08,0.19 -0.17,0.47 -0.26,0.84 -0.09,0.37 -0.14,0.65 -0.14,0.84 z"
       id="path66" />
    <path
       class="m"
       d="m 95.311251,78.649633 c 0,-0.08 0.02,-0.19 0.05,-0.31 l 1.01,-4 v -0.06 c 0,0 0.02,-0.06 0.02,-0.07 0,-0.03 0,-0.06 -0.02,-0.07 -0.02,-0.01 -0.05,-0.03 -0.11,-0.04 -0.06,-0.01 -0.15,-0.02 -0.28,-0.02 -0.13,0 -0.19,-0.03 -0.2,-0.09 0,-0.05 0,-0.08 0.03,-0.11 0.03,-0.03 0.04,-0.04 0.06,-0.04 0.02,0 0.05,-0.01 0.09,-0.02 l 0.79,-0.06 c 0,0 0.07,-0.02 0.13,-0.02 0.08,0 0.11,0.03 0.11,0.09 0,0.02 0,0.06 -0.02,0.11 l -1.14,4.57 c -0.03,0.13 -0.05,0.25 -0.05,0.37 0,0.22 0.07,0.32 0.21,0.32 v 0 c 0.2,0 0.37,-0.3 0.51,-0.9 l 0.05,-0.2 c 0,0 0.05,-0.04 0.12,-0.04 0.08,0 0.12,0.03 0.12,0.08 0,0.01 -0.01,0.06 -0.03,0.15 -0.02,0.09 -0.05,0.2 -0.09,0.34 -0.04,0.13 -0.08,0.24 -0.12,0.33 -0.14,0.28 -0.33,0.42 -0.57,0.42 -0.19,0 -0.36,-0.07 -0.49,-0.2 -0.13,-0.13 -0.19,-0.31 -0.19,-0.51 z"
       id="path68" />
    <path
       class="m"
       d="m 100.07125,78.599633 c 0,-0.16 0.04,-0.29 0.12,-0.37 0.08,-0.08 0.17,-0.12 0.28,-0.12 0.08,0 0.15,0.02 0.2,0.07 0.05,0.05 0.07,0.11 0.07,0.18 0,0.03 0,0.07 -0.01,0.11 0,0.04 -0.05,0.1 -0.11,0.17 -0.06,0.07 -0.16,0.11 -0.29,0.12 0.1,0.3 0.35,0.45 0.76,0.45 h 0.01 c 0.15,0 0.29,-0.02 0.42,-0.07 0.13,-0.04 0.23,-0.1 0.3,-0.17 0.07,-0.07 0.13,-0.15 0.18,-0.23 0.05,-0.08 0.08,-0.16 0.1,-0.23 0.02,-0.07 0.03,-0.13 0.03,-0.19 0,-0.1 -0.02,-0.19 -0.06,-0.26 -0.04,-0.07 -0.1,-0.13 -0.17,-0.17 -0.08,-0.04 -0.15,-0.07 -0.21,-0.09 -0.06,-0.02 -0.15,-0.04 -0.27,-0.07 -0.07,-0.02 -0.13,-0.03 -0.17,-0.04 -0.04,-0.01 -0.11,-0.04 -0.19,-0.08 -0.08,-0.04 -0.15,-0.08 -0.2,-0.13 -0.05,-0.05 -0.09,-0.12 -0.13,-0.21 -0.04,-0.09 -0.06,-0.2 -0.06,-0.31 0,-0.27 0.11,-0.53 0.32,-0.79 0.21,-0.26 0.53,-0.39 0.95,-0.39 0.25,0 0.45,0.07 0.61,0.2 0.15,0.13 0.23,0.29 0.23,0.48 0,0.15 -0.03,0.27 -0.1,0.34 -0.07,0.07 -0.14,0.11 -0.23,0.11 -0.09,0 -0.14,-0.02 -0.18,-0.07 -0.04,-0.05 -0.05,-0.1 -0.05,-0.16 0,-0.06 0.02,-0.12 0.07,-0.2 0.05,-0.08 0.13,-0.12 0.24,-0.13 -0.08,-0.26 -0.27,-0.39 -0.59,-0.39 -0.28,0 -0.48,0.08 -0.61,0.26 -0.13,0.18 -0.2,0.33 -0.2,0.48 0,0.11 0.03,0.2 0.09,0.27 0.06,0.07 0.12,0.11 0.17,0.13 0.06,0.02 0.14,0.04 0.25,0.06 0.09,0.03 0.17,0.05 0.22,0.07 0.05,0.02 0.13,0.05 0.23,0.09 0.1,0.04 0.19,0.1 0.25,0.16 0.06,0.06 0.12,0.14 0.17,0.24 0.05,0.1 0.07,0.22 0.07,0.35 0,0.09 -0.01,0.18 -0.04,0.29 -0.03,0.1 -0.08,0.22 -0.15,0.35 -0.07,0.13 -0.16,0.24 -0.27,0.35 -0.11,0.1 -0.25,0.19 -0.43,0.26 -0.18,0.07 -0.38,0.11 -0.61,0.11 -0.29,0 -0.54,-0.07 -0.73,-0.21 -0.19,-0.14 -0.29,-0.33 -0.29,-0.56 z"
       id="path70" />
    <path
       class="m"
       d="m 103.59125,78.059633 c 0,-0.58 0.21,-1.11 0.64,-1.59 0.43,-0.48 0.89,-0.72 1.39,-0.72 0.25,0 0.45,0.07 0.61,0.2 0.16,0.13 0.24,0.29 0.24,0.49 0,0.14 -0.04,0.26 -0.12,0.35 -0.08,0.09 -0.17,0.13 -0.28,0.13 -0.08,0 -0.15,-0.03 -0.2,-0.08 -0.05,-0.05 -0.07,-0.11 -0.07,-0.18 0,-0.01 0,-0.02 0,-0.04 0,-0.02 0.01,-0.05 0.02,-0.09 0.01,-0.04 0.03,-0.08 0.05,-0.11 0.02,-0.03 0.06,-0.06 0.12,-0.09 0.06,-0.03 0.12,-0.05 0.19,-0.06 -0.08,-0.23 -0.27,-0.34 -0.56,-0.34 -0.19,0 -0.37,0.07 -0.56,0.21 -0.19,0.14 -0.35,0.34 -0.49,0.59 -0.1,0.19 -0.2,0.46 -0.29,0.81 -0.09,0.35 -0.13,0.63 -0.13,0.84 0,0.25 0.05,0.44 0.16,0.59 0.11,0.15 0.26,0.23 0.47,0.23 0.09,0 0.19,0 0.31,-0.03 0.11,-0.02 0.29,-0.09 0.52,-0.22 0.23,-0.13 0.43,-0.31 0.61,-0.53 0.05,-0.06 0.08,-0.09 0.1,-0.09 0.03,0 0.06,0.02 0.08,0.05 0.02,0.03 0.04,0.06 0.04,0.08 0,0.05 -0.06,0.15 -0.19,0.29 -0.13,0.14 -0.33,0.28 -0.61,0.42 -0.28,0.14 -0.57,0.21 -0.88,0.21 -0.35,0 -0.64,-0.12 -0.85,-0.36 -0.22,-0.24 -0.32,-0.56 -0.32,-0.96 z"
       id="path72" />
    <path
       class="m"
       d="m 106.87125,78.059633 c 0,-0.58 0.21,-1.11 0.64,-1.59 0.43,-0.48 0.89,-0.72 1.39,-0.72 0.35,0 0.63,0.12 0.85,0.37 0.22,0.25 0.33,0.56 0.33,0.95 0,0.58 -0.21,1.11 -0.64,1.59 -0.42,0.48 -0.89,0.72 -1.39,0.72 -0.34,0 -0.62,-0.12 -0.84,-0.35 -0.22,-0.23 -0.33,-0.56 -0.33,-0.96 z m 0.56,0.32 c 0,0.27 0.06,0.48 0.18,0.61 0.12,0.14 0.26,0.21 0.43,0.21 0.19,0 0.38,-0.08 0.57,-0.23 0.19,-0.15 0.34,-0.34 0.46,-0.57 0.12,-0.22 0.22,-0.51 0.3,-0.85 0.08,-0.34 0.13,-0.61 0.13,-0.8 0,-0.24 -0.05,-0.44 -0.16,-0.59 -0.11,-0.15 -0.26,-0.23 -0.45,-0.23 -0.16,0 -0.33,0.06 -0.51,0.19 -0.18,0.13 -0.34,0.31 -0.48,0.54 -0.12,0.21 -0.23,0.5 -0.32,0.86 -0.09,0.36 -0.14,0.65 -0.14,0.87 z"
       id="path74" />
    <path
       class="m"
       d="m 110.19125,80.739633 c 0,-0.1 0.06,-0.15 0.17,-0.15 0.16,0 0.26,-0.02 0.31,-0.05 0.05,-0.03 0.09,-0.1 0.12,-0.23 l 0.91,-3.66 c 0.04,-0.15 0.05,-0.28 0.05,-0.4 0,-0.21 -0.07,-0.32 -0.21,-0.32 -0.12,0 -0.23,0.08 -0.32,0.24 -0.09,0.16 -0.17,0.4 -0.25,0.71 -0.02,0.09 -0.03,0.14 -0.05,0.16 -0.02,0.02 -0.04,0.03 -0.09,0.03 -0.07,0 -0.11,-0.03 -0.11,-0.08 0,-0.01 0,-0.06 0.03,-0.14 0.02,-0.08 0.05,-0.19 0.09,-0.32 0.04,-0.13 0.08,-0.25 0.12,-0.35 0.14,-0.28 0.32,-0.42 0.54,-0.42 v 0 c 0.13,0 0.27,0.04 0.4,0.12 0.13,0.08 0.22,0.23 0.26,0.44 0.32,-0.37 0.64,-0.56 0.97,-0.56 0.26,0 0.49,0.11 0.68,0.32 0.19,0.22 0.29,0.52 0.29,0.92 0,0.59 -0.19,1.13 -0.58,1.63 -0.39,0.5 -0.8,0.75 -1.25,0.75 -0.17,0 -0.31,-0.05 -0.42,-0.15 -0.11,-0.1 -0.18,-0.21 -0.22,-0.31 l -0.29,1.17 c -0.06,0.23 -0.09,0.36 -0.09,0.38 0,0.03 0,0.05 0.02,0.07 0,0.02 0.04,0.03 0.11,0.04 0.06,0.01 0.15,0.02 0.27,0.02 0.12,0 0.18,0.03 0.18,0.1 0,0.1 -0.05,0.15 -0.15,0.15 -0.08,0 -0.21,0 -0.38,-0.01 -0.17,0 -0.3,-0.01 -0.39,-0.01 -0.06,0 -0.17,0 -0.32,0.01 -0.15,0.01 -0.26,0.01 -0.33,0.01 v 0 c -0.06,0 -0.09,-0.03 -0.09,-0.1 z m 1.55,-2.29 c 0,0.05 0.01,0.13 0.03,0.23 0.02,0.1 0.08,0.21 0.17,0.33 0.09,0.12 0.2,0.18 0.34,0.18 0.18,0 0.34,-0.08 0.5,-0.26 0.16,-0.18 0.27,-0.34 0.35,-0.5 0.11,-0.25 0.21,-0.56 0.31,-0.95 0.1,-0.39 0.14,-0.67 0.14,-0.85 0,-0.18 -0.03,-0.34 -0.1,-0.49 -0.06,-0.15 -0.17,-0.22 -0.33,-0.22 -0.2,0 -0.4,0.11 -0.61,0.33 -0.21,0.22 -0.33,0.41 -0.37,0.57 l -0.38,1.51 c -0.04,0.07 -0.06,0.1 -0.06,0.11 z"
       id="path76" />
    <path
       class="m"
       d="m 114.66125,77.969633 c 0,-0.66 0.21,-1.19 0.64,-1.6 0.43,-0.41 0.88,-0.62 1.35,-0.62 0.24,0 0.44,0.07 0.59,0.2 0.15,0.13 0.22,0.29 0.22,0.48 0,0.03 0,0.05 0,0.08 0,0.03 -0.01,0.08 -0.04,0.16 -0.03,0.08 -0.05,0.14 -0.09,0.21 -0.04,0.07 -0.1,0.13 -0.19,0.2 -0.09,0.07 -0.19,0.13 -0.31,0.18 -0.3,0.12 -0.68,0.18 -1.16,0.18 h -0.31 c -0.09,0.35 -0.14,0.65 -0.14,0.88 0,0.13 0.01,0.26 0.04,0.38 0.03,0.12 0.09,0.23 0.18,0.34 0.1,0.11 0.22,0.16 0.38,0.16 0.09,0 0.19,0 0.31,-0.03 0.12,-0.03 0.29,-0.09 0.52,-0.22 0.23,-0.13 0.43,-0.31 0.61,-0.53 0.05,-0.06 0.08,-0.09 0.1,-0.09 0.03,0 0.06,0.02 0.09,0.05 0.03,0.03 0.04,0.06 0.04,0.08 0,0.05 -0.07,0.15 -0.2,0.29 -0.13,0.14 -0.33,0.28 -0.61,0.42 -0.28,0.14 -0.57,0.21 -0.88,0.21 -0.36,0 -0.64,-0.14 -0.84,-0.41 -0.2,-0.28 -0.3,-0.6 -0.3,-0.99 z m 0.75,-0.71 h 0.17 c 0.08,0 0.15,0 0.22,0 0.07,0 0.17,-0.01 0.31,-0.02 0.14,-0.01 0.26,-0.04 0.37,-0.08 0.11,-0.04 0.22,-0.09 0.33,-0.14 0.11,-0.05 0.2,-0.14 0.26,-0.24 0.06,-0.1 0.09,-0.22 0.09,-0.36 0,-0.14 -0.04,-0.25 -0.13,-0.35 -0.09,-0.1 -0.21,-0.14 -0.37,-0.14 -0.04,0 -0.08,0 -0.13,0.01 -0.05,0 -0.13,0.04 -0.24,0.08 -0.11,0.04 -0.22,0.11 -0.32,0.2 -0.1,0.08 -0.2,0.22 -0.3,0.4 -0.1,0.18 -0.19,0.4 -0.25,0.64 z"
       id="path78" />
    <line
       class="g"
       x1="124.56744"
       y1="76.575272"
       x2="151.13054"
       y2="76.575272"
       id="line200" />
    <path
       class="m"
       d="m 124.64745,78.26527 c -0.93,0 -1.69,-0.76 -1.69,-1.69 0,-0.93 0.76,-1.69 1.69,-1.69 0.93,0 1.69,0.76 1.69,1.69 0,0.93 -0.76,1.69 -1.69,1.69 z"
       id="path202" />
    <polygon
       class="m"
       points="282.5,91.18 283.39,89.65 282.5,88.13 286.23,89.65 "
       id="polygon204"
       transform="translate(-132.25945,-13.074729)" />
  </g>
</svg>
